M48
;DRILL file {KiCad 4.0.1-stable} date 23.02.2016 21:53:26
;FORMAT={-:-/ absolute / metric / decimal}
FMAT,2
METRIC,TZ
T1C0.800
T2C0.900
T3C1.001
T4C1.016
T5C1.199
T6C1.350
T7C1.600
%
G90
G05
M71
T1
X96.52Y-94.996
X102.558Y-117.776
X103.908Y-109.385
X105.072Y-97.147
X105.664Y-118.872
X106.149Y-111.855
X109.83Y-110.169
X115.316Y-76.708
X115.824Y-81.28
X115.824Y-84.328
X116.332Y-73.152
X116.489Y-111.855
X117.348Y-86.36
X122.936Y-78.74
X123.376Y-85.854
X123.444Y-83.82
X125.476Y-81.788
X127.167Y-109.888
X127.32Y-79.805
X129.032Y-96.012
X129.412Y-115.952
X130.048Y-77.216
X130.556Y-74.676
X133.633Y-129.471
X133.772Y-115.149
X135.416Y-121.957
X136.055Y-131.75
X138.684Y-119.38
X141.509Y-89.355
X142.24Y-113.284
X142.24Y-115.824
X144.78Y-138.176
X145.415Y-96.52
X146.304Y-135.636
X151.384Y-82.804
X151.384Y-133.604
X153.388Y-79.196
X154.94Y-107.188
X157.422Y-91.049
X157.48Y-86.36
X157.521Y-112.093
X158.496Y-84.328
X159.004Y-82.296
X159.512Y-94.996
X159.721Y-112.486
X160.602Y-131.726
X162.052Y-106.68
X162.052Y-109.22
X166.472Y-102.708
X171.196Y-91.948
X175.26Y-134.112
T2
X95.174Y-74.955
X95.174Y-85.065
X96.694Y-77.495
X96.694Y-87.605
X106.414Y-76.835
X106.414Y-79.375
X106.414Y-81.915
X106.414Y-84.455
X108.954Y-78.105
X108.954Y-80.645
X108.954Y-83.185
X108.954Y-85.725
T3
X186.944Y-104.14
X186.944Y-110.236
X186.944Y-116.84
X188.468Y-123.761
X188.468Y-128.207
X188.468Y-134.429
X188.468Y-138.874
X189.484Y-104.14
X189.484Y-110.236
X189.484Y-116.84
T4
X135.128Y-94.996
X135.128Y-97.536
X135.128Y-100.076
X165.608Y-110.744
X165.608Y-113.284
X165.608Y-115.824
X167.64Y-134.112
X167.64Y-136.652
X167.64Y-139.192
X168.148Y-110.744
X168.148Y-113.284
X168.148Y-115.824
X170.18Y-134.112
X170.18Y-136.652
X170.18Y-139.192
T5
X185.928Y-122.491
X185.928Y-129.476
X185.928Y-133.159
X185.928Y-140.144
T6
X93.65Y-98.552
X93.65Y-103.632
X93.65Y-117.348
X93.65Y-122.428
X96.19Y-101.092
X96.19Y-119.888
X98.73Y-98.552
X98.73Y-103.632
X98.73Y-117.348
X98.73Y-122.428
T7
X103.124Y-73.53
X103.124Y-89.03
T3
X97.229Y-133.621G85X97.229Y-135.619
G05
X99.229Y-139.319G85X101.228Y-139.319
G05
X103.228Y-133.621G85X103.228Y-135.619
G05
T0
M30
