G04 #@! TF.FileFunction,Copper,L2,Bot,Signal*
%FSLAX46Y46*%
G04 Gerber Fmt 4.6, Leading zero omitted, Abs format (unit mm)*
G04 Created by KiCad (PCBNEW 4.0.1-stable) date 23.02.2016 21:53:13*
%MOMM*%
G01*
G04 APERTURE LIST*
%ADD10C,0.100000*%
%ADD11C,1.400000*%
%ADD12C,2.500000*%
%ADD13C,1.500000*%
%ADD14R,1.250000X1.000000*%
%ADD15R,3.500120X3.500120*%
%ADD16R,2.000000X2.000000*%
%ADD17C,2.000000*%
%ADD18R,2.651760X2.029460*%
%ADD19R,1.727200X1.727200*%
%ADD20O,1.727200X1.727200*%
%ADD21R,2.032000X1.727200*%
%ADD22O,2.032000X1.727200*%
%ADD23R,0.700000X1.300000*%
%ADD24R,1.300000X0.700000*%
%ADD25C,2.300000*%
%ADD26C,1.501140*%
%ADD27C,1.998980*%
%ADD28R,1.219200X2.235200*%
%ADD29R,3.599180X2.199640*%
%ADD30R,2.499360X1.950720*%
%ADD31C,1.200000*%
%ADD32C,0.500000*%
%ADD33C,0.300000*%
%ADD34C,0.400000*%
%ADD35C,0.254000*%
G04 APERTURE END LIST*
D10*
D11*
X106414000Y-79375000D03*
X106414000Y-76835000D03*
X108954000Y-78105000D03*
X108954000Y-80645000D03*
X106414000Y-81915000D03*
X108954000Y-83185000D03*
X106414000Y-84455000D03*
X108954000Y-85725000D03*
D12*
X103124000Y-73530000D03*
X103124000Y-89030000D03*
D13*
X95174000Y-85065000D03*
X96694000Y-87605000D03*
X95174000Y-74955000D03*
X96694000Y-77495000D03*
D14*
X123952000Y-135652000D03*
X123952000Y-137652000D03*
X135128000Y-135652000D03*
X135128000Y-137652000D03*
X105156000Y-102600000D03*
X105156000Y-100600000D03*
X108204000Y-124444000D03*
X108204000Y-122444000D03*
D15*
X103228140Y-134620000D03*
X97228660Y-134620000D03*
X100228400Y-139319000D03*
D16*
X189484000Y-116840000D03*
D17*
X186944000Y-116840000D03*
D16*
X189484000Y-110236000D03*
D17*
X186944000Y-110236000D03*
D18*
X115770660Y-133604000D03*
X119941340Y-133604000D03*
D19*
X165608000Y-110744000D03*
D20*
X168148000Y-110744000D03*
X165608000Y-113284000D03*
X168148000Y-113284000D03*
X165608000Y-115824000D03*
X168148000Y-115824000D03*
D19*
X167640000Y-134112000D03*
D20*
X170180000Y-134112000D03*
X167640000Y-136652000D03*
X170180000Y-136652000D03*
X167640000Y-139192000D03*
X170180000Y-139192000D03*
D21*
X135128000Y-94996000D03*
D22*
X135128000Y-97536000D03*
X135128000Y-100076000D03*
D23*
X99502000Y-72136000D03*
X97602000Y-72136000D03*
X96962000Y-90424000D03*
X95062000Y-90424000D03*
D24*
X177292000Y-136210000D03*
X177292000Y-138110000D03*
D25*
X96189800Y-101092000D03*
X98729800Y-103632000D03*
X98729800Y-98552000D03*
X93649800Y-98552000D03*
X93649800Y-103632000D03*
X96189800Y-119888000D03*
X98729800Y-122428000D03*
X98729800Y-117348000D03*
X93649800Y-117348000D03*
X93649800Y-122428000D03*
D26*
X188468000Y-138874500D03*
X188468000Y-134429500D03*
D27*
X185928000Y-140144500D03*
X185928000Y-133159500D03*
D26*
X188468000Y-128206500D03*
X188468000Y-123761500D03*
D27*
X185928000Y-129476500D03*
X185928000Y-122491500D03*
D14*
X164592000Y-83836000D03*
X164592000Y-85836000D03*
D23*
X165166000Y-94996000D03*
X167066000Y-94996000D03*
D28*
X127228600Y-133553200D03*
X129540000Y-133553200D03*
X131851400Y-133553200D03*
D29*
X129540000Y-139750800D03*
D14*
X180848000Y-138160000D03*
X180848000Y-136160000D03*
D30*
X140716000Y-138684000D03*
X140716000Y-135636000D03*
D16*
X189484000Y-104140000D03*
D17*
X186944000Y-104140000D03*
D31*
X175260000Y-134112000D03*
X145415000Y-96520000D03*
X171196000Y-91948000D03*
X144780000Y-138176000D03*
X117348000Y-86360000D03*
X151384000Y-133604000D03*
X154940000Y-107188000D03*
X138684000Y-119380000D03*
X129411691Y-115952309D03*
X125476000Y-81788000D03*
X151384000Y-82804000D03*
X159004000Y-82296000D03*
X129032000Y-96012000D03*
X105072420Y-97146788D03*
X127319757Y-79805073D03*
X153387704Y-79195539D03*
X105664000Y-118872000D03*
X146304000Y-135636000D03*
X158496000Y-84328000D03*
X122936000Y-78740000D03*
X166472198Y-102708175D03*
X162052000Y-109220000D03*
X162052000Y-106680000D03*
X157422427Y-91049480D03*
X157480000Y-86360000D03*
X159721196Y-112486206D03*
X141508630Y-89354545D03*
X115824000Y-84328000D03*
X115824000Y-81280000D03*
X123376089Y-85854016D03*
X123444000Y-83820000D03*
X115316000Y-76708000D03*
X116332000Y-73152000D03*
X130048000Y-77216000D03*
X133771737Y-115149265D03*
X133632884Y-129471285D03*
X103908442Y-109384983D03*
X142240000Y-113284000D03*
X106148738Y-111855409D03*
X116489080Y-111855410D03*
X142240000Y-115824000D03*
X127166609Y-109888496D03*
X109829675Y-110169483D03*
X96520000Y-94996000D03*
X102557596Y-117775841D03*
X159512000Y-94996000D03*
X130556000Y-74676000D03*
X157521263Y-112093361D03*
X136054892Y-131749998D03*
X135416128Y-121956746D03*
X160602329Y-131725754D03*
D32*
X170180000Y-139192000D02*
X171842389Y-139192000D01*
X171842389Y-139192000D02*
X175260000Y-135774389D01*
X175260000Y-135774389D02*
X175260000Y-134112000D01*
X167640000Y-139192000D02*
X169521842Y-141073842D01*
X169521842Y-141073842D02*
X172349540Y-141073842D01*
X172349540Y-141073842D02*
X175313382Y-138110000D01*
X175313382Y-138110000D02*
X177292000Y-138110000D01*
X105156000Y-97230368D02*
X105072420Y-97146788D01*
X120785212Y-97146788D02*
X105072420Y-97146788D01*
X105664000Y-116332000D02*
X101215601Y-111883601D01*
X101215601Y-101003607D02*
X105072420Y-97146788D01*
X127963539Y-89968461D02*
X120785212Y-97146788D01*
X127963539Y-79195539D02*
X127963539Y-89968461D01*
X105156000Y-100600000D02*
X105156000Y-97230368D01*
X101215601Y-111883601D02*
X101215601Y-101003607D01*
X105664000Y-118872000D02*
X105664000Y-116332000D01*
X158496000Y-84328000D02*
X156318760Y-84328000D01*
X156318760Y-84328000D02*
X153416000Y-81425240D01*
X153416000Y-81425240D02*
X153416000Y-79223835D01*
X153416000Y-79223835D02*
X153387704Y-79195539D01*
X127929291Y-79195539D02*
X127319757Y-79805073D01*
X127963539Y-79195539D02*
X127929291Y-79195539D01*
X153387704Y-79195539D02*
X127963539Y-79195539D01*
X149930318Y-139258000D02*
X167574000Y-139258000D01*
X167574000Y-139258000D02*
X167640000Y-139192000D01*
X146304000Y-135636000D02*
X146308318Y-135636000D01*
X146308318Y-135636000D02*
X149930318Y-139258000D01*
X164592000Y-85836000D02*
X160000451Y-85836000D01*
X160000451Y-85836000D02*
X158496000Y-84331549D01*
X158496000Y-84331549D02*
X158496000Y-84328000D01*
X168612141Y-110279859D02*
X168612141Y-93980000D01*
X168612141Y-93980000D02*
X168612141Y-87840141D01*
X167066000Y-94996000D02*
X167916000Y-94996000D01*
X167916000Y-94996000D02*
X168612141Y-94299859D01*
X168612141Y-94299859D02*
X168612141Y-93980000D01*
X168148000Y-110744000D02*
X168612141Y-110279859D01*
X168612141Y-87840141D02*
X166608000Y-85836000D01*
X166608000Y-85836000D02*
X164592000Y-85836000D01*
X108204000Y-122444000D02*
X108204000Y-121412000D01*
X108204000Y-121412000D02*
X105664000Y-118872000D01*
X108204000Y-122444000D02*
X122952000Y-122444000D01*
X131851400Y-131343400D02*
X131851400Y-133553200D01*
X122952000Y-122444000D02*
X131851400Y-131343400D01*
X140716000Y-135636000D02*
X146304000Y-135636000D01*
X135128000Y-135652000D02*
X140700000Y-135652000D01*
X140700000Y-135652000D02*
X140716000Y-135636000D01*
X131851400Y-133553200D02*
X134569200Y-133553200D01*
X134569200Y-133553200D02*
X135128000Y-134112000D01*
X135128000Y-134112000D02*
X135128000Y-135652000D01*
D33*
X108956000Y-80645000D02*
X110861000Y-78740000D01*
X110861000Y-78740000D02*
X122936000Y-78740000D01*
D32*
X115770660Y-133604000D02*
X104244140Y-133604000D01*
X104244140Y-133604000D02*
X103228140Y-134620000D01*
D33*
X165608000Y-103572373D02*
X166472198Y-102708175D01*
X165608000Y-110744000D02*
X165608000Y-103572373D01*
X162052000Y-109220000D02*
X163576000Y-110744000D01*
X163576000Y-110744000D02*
X165608000Y-110744000D01*
X160528000Y-110646596D02*
X160528000Y-107188000D01*
X160528000Y-107188000D02*
X160528000Y-102939703D01*
X162052000Y-106680000D02*
X161036000Y-106680000D01*
X161036000Y-106680000D02*
X160528000Y-107188000D01*
X168148000Y-113284000D02*
X166934399Y-112070399D01*
X166934399Y-112070399D02*
X161951803Y-112070399D01*
X161951803Y-112070399D02*
X160528000Y-110646596D01*
X160528000Y-102939703D02*
X157422427Y-99834130D01*
X157422427Y-99834130D02*
X157422427Y-91049480D01*
X157480000Y-90991907D02*
X157422427Y-91049480D01*
X157480000Y-86360000D02*
X157480000Y-90991907D01*
X160518990Y-113284000D02*
X159721196Y-112486206D01*
X165608000Y-113284000D02*
X160518990Y-113284000D01*
X159721196Y-107567111D02*
X159721196Y-112486206D01*
X141508630Y-89354545D02*
X159721196Y-107567111D01*
X108956000Y-83185000D02*
X114681000Y-83185000D01*
X114681000Y-83185000D02*
X115824000Y-84328000D01*
X106416000Y-79375000D02*
X106416000Y-80364949D01*
X106416000Y-80364949D02*
X107931050Y-81879999D01*
X107931050Y-81879999D02*
X115224001Y-81879999D01*
X115224001Y-81879999D02*
X115824000Y-81280000D01*
X115824000Y-81280000D02*
X120398016Y-85854016D01*
X120398016Y-85854016D02*
X123376089Y-85854016D01*
X108956000Y-78105000D02*
X110353000Y-76708000D01*
X110353000Y-76708000D02*
X115316000Y-76708000D01*
X123952000Y-76708000D02*
X115316000Y-76708000D01*
X125476000Y-78232000D02*
X123952000Y-76708000D01*
X125476000Y-79756000D02*
X125476000Y-78232000D01*
X123444000Y-81788000D02*
X125476000Y-79756000D01*
X123444000Y-83820000D02*
X123444000Y-81788000D01*
X106416000Y-76835000D02*
X110099000Y-73152000D01*
X110099000Y-73152000D02*
X116332000Y-73152000D01*
X130048000Y-77216000D02*
X122428000Y-69596000D01*
X122428000Y-69596000D02*
X96520000Y-69596000D01*
X96520000Y-69596000D02*
X95174000Y-70942000D01*
X95174000Y-70942000D02*
X95174000Y-74955000D01*
X133632884Y-129471285D02*
X133632884Y-115288118D01*
X167640000Y-136652000D02*
X158501710Y-136652000D01*
X133632884Y-115288118D02*
X133771737Y-115149265D01*
X136998975Y-115149265D02*
X133771737Y-115149265D01*
X158501710Y-136652000D02*
X136998975Y-115149265D01*
X170180000Y-136652000D02*
X171598538Y-136652000D01*
X171598538Y-136652000D02*
X172971377Y-135279161D01*
X172971377Y-135279161D02*
X172971377Y-132148734D01*
X172971377Y-132148734D02*
X155348100Y-114525457D01*
X155348100Y-114525457D02*
X143481457Y-114525457D01*
X143481457Y-114525457D02*
X142240000Y-113284000D01*
X142240000Y-113284000D02*
X136989978Y-108033978D01*
X136989978Y-108033978D02*
X106107975Y-108033978D01*
X106107975Y-108033978D02*
X104756970Y-109384983D01*
X104756970Y-109384983D02*
X103908442Y-109384983D01*
X170180000Y-134112000D02*
X170180000Y-130897406D01*
X170180000Y-130897406D02*
X155106594Y-115824000D01*
X155106594Y-115824000D02*
X142240000Y-115824000D01*
X115640551Y-111855409D02*
X106148738Y-111855409D01*
X116489080Y-111855410D02*
X115640551Y-111855409D01*
X138271410Y-111855410D02*
X116489080Y-111855410D01*
X142240000Y-115824000D02*
X138271410Y-111855410D01*
X126885622Y-110169483D02*
X127166609Y-109888496D01*
X109829675Y-110169483D02*
X126885622Y-110169483D01*
D34*
X96189800Y-95326200D02*
X96189800Y-101092000D01*
X96520000Y-94996000D02*
X96189800Y-95326200D01*
X100445437Y-119888000D02*
X102557596Y-117775841D01*
X96189800Y-119888000D02*
X100445437Y-119888000D01*
D32*
X123952000Y-135652000D02*
X123952000Y-134620000D01*
X123952000Y-134620000D02*
X125018800Y-133553200D01*
X125018800Y-133553200D02*
X127228600Y-133553200D01*
X119941340Y-133604000D02*
X122936000Y-133604000D01*
X122936000Y-133604000D02*
X123952000Y-134620000D01*
D33*
X159512000Y-94996000D02*
X165166000Y-94996000D01*
X130556000Y-74676000D02*
X129956001Y-74076001D01*
X129956001Y-74076001D02*
X128940001Y-74076001D01*
X128940001Y-74076001D02*
X123952000Y-69088000D01*
X123952000Y-69088000D02*
X95504000Y-69088000D01*
X95504000Y-69088000D02*
X93562330Y-71029670D01*
X93562330Y-71029670D02*
X93562330Y-80354330D01*
X93562330Y-80354330D02*
X96696000Y-83488000D01*
X96696000Y-83488000D02*
X96696000Y-87605000D01*
X188468000Y-134429500D02*
X186737500Y-136160000D01*
X186737500Y-136160000D02*
X180848000Y-136160000D01*
X180848000Y-136160000D02*
X177342000Y-136160000D01*
X177342000Y-136160000D02*
X177292000Y-136210000D01*
X165608000Y-115824000D02*
X165606150Y-115825850D01*
X165606150Y-118086977D02*
X177292000Y-129772827D01*
X165606150Y-115825850D02*
X165606150Y-118086977D01*
X177292000Y-129772827D02*
X177292000Y-136210000D01*
X161251902Y-115824000D02*
X157521263Y-112093361D01*
X165608000Y-115824000D02*
X161251902Y-115824000D01*
X135416128Y-131111234D02*
X136054892Y-131749998D01*
X135416128Y-121956746D02*
X135416128Y-131111234D01*
X162988575Y-134112000D02*
X160602329Y-131725754D01*
X167640000Y-134112000D02*
X162988575Y-134112000D01*
X97602000Y-72136000D02*
X97602000Y-76589000D01*
X97602000Y-76589000D02*
X96696000Y-77495000D01*
X95062000Y-90424000D02*
X95062000Y-85179000D01*
X95062000Y-85179000D02*
X95176000Y-85065000D01*
D35*
G36*
X190622300Y-102509966D02*
X190610310Y-102505000D01*
X189769750Y-102505000D01*
X189611000Y-102663750D01*
X189611000Y-104013000D01*
X189631000Y-104013000D01*
X189631000Y-104267000D01*
X189611000Y-104267000D01*
X189611000Y-105616250D01*
X189769750Y-105775000D01*
X190610310Y-105775000D01*
X190622300Y-105770034D01*
X190622300Y-108605966D01*
X190610310Y-108601000D01*
X189769750Y-108601000D01*
X189611000Y-108759750D01*
X189611000Y-110109000D01*
X189631000Y-110109000D01*
X189631000Y-110363000D01*
X189611000Y-110363000D01*
X189611000Y-111712250D01*
X189769750Y-111871000D01*
X190610310Y-111871000D01*
X190622300Y-111866034D01*
X190622300Y-115209966D01*
X190610310Y-115205000D01*
X189769750Y-115205000D01*
X189611000Y-115363750D01*
X189611000Y-116713000D01*
X189631000Y-116713000D01*
X189631000Y-116967000D01*
X189611000Y-116967000D01*
X189611000Y-118316250D01*
X189769750Y-118475000D01*
X190610310Y-118475000D01*
X190622300Y-118470034D01*
X190622300Y-144978500D01*
X92257500Y-144978500D01*
X92257500Y-139604750D01*
X97843340Y-139604750D01*
X97843340Y-141195370D01*
X97940013Y-141428759D01*
X98118642Y-141607387D01*
X98352031Y-141704060D01*
X99942650Y-141704060D01*
X100101400Y-141545310D01*
X100101400Y-139446000D01*
X100355400Y-139446000D01*
X100355400Y-141545310D01*
X100514150Y-141704060D01*
X102104769Y-141704060D01*
X102338158Y-141607387D01*
X102516787Y-141428759D01*
X102613460Y-141195370D01*
X102613460Y-140036550D01*
X127105410Y-140036550D01*
X127105410Y-140976930D01*
X127202083Y-141210319D01*
X127380712Y-141388947D01*
X127614101Y-141485620D01*
X129254250Y-141485620D01*
X129413000Y-141326870D01*
X129413000Y-139877800D01*
X129667000Y-139877800D01*
X129667000Y-141326870D01*
X129825750Y-141485620D01*
X131465899Y-141485620D01*
X131699288Y-141388947D01*
X131877917Y-141210319D01*
X131974590Y-140976930D01*
X131974590Y-140036550D01*
X131815840Y-139877800D01*
X129667000Y-139877800D01*
X129413000Y-139877800D01*
X127264160Y-139877800D01*
X127105410Y-140036550D01*
X102613460Y-140036550D01*
X102613460Y-139604750D01*
X102454710Y-139446000D01*
X100355400Y-139446000D01*
X100101400Y-139446000D01*
X98002090Y-139446000D01*
X97843340Y-139604750D01*
X92257500Y-139604750D01*
X92257500Y-134905750D01*
X94843600Y-134905750D01*
X94843600Y-136496370D01*
X94940273Y-136729759D01*
X95118902Y-136908387D01*
X95352291Y-137005060D01*
X96942910Y-137005060D01*
X97101660Y-136846310D01*
X97101660Y-134747000D01*
X97355660Y-134747000D01*
X97355660Y-136846310D01*
X97514410Y-137005060D01*
X98180332Y-137005060D01*
X98118642Y-137030613D01*
X97940013Y-137209241D01*
X97843340Y-137442630D01*
X97843340Y-139033250D01*
X98002090Y-139192000D01*
X100101400Y-139192000D01*
X100101400Y-137092690D01*
X100355400Y-137092690D01*
X100355400Y-139192000D01*
X102454710Y-139192000D01*
X102613460Y-139033250D01*
X102613460Y-137937750D01*
X122692000Y-137937750D01*
X122692000Y-138278309D01*
X122788673Y-138511698D01*
X122967301Y-138690327D01*
X123200690Y-138787000D01*
X123666250Y-138787000D01*
X123825000Y-138628250D01*
X123825000Y-137779000D01*
X124079000Y-137779000D01*
X124079000Y-138628250D01*
X124237750Y-138787000D01*
X124703310Y-138787000D01*
X124936699Y-138690327D01*
X125102355Y-138524670D01*
X127105410Y-138524670D01*
X127105410Y-139465050D01*
X127264160Y-139623800D01*
X129413000Y-139623800D01*
X129413000Y-138174730D01*
X129667000Y-138174730D01*
X129667000Y-139623800D01*
X131815840Y-139623800D01*
X131974590Y-139465050D01*
X131974590Y-138969750D01*
X138831320Y-138969750D01*
X138831320Y-139785669D01*
X138927993Y-140019058D01*
X139106621Y-140197687D01*
X139340010Y-140294360D01*
X140430250Y-140294360D01*
X140589000Y-140135610D01*
X140589000Y-138811000D01*
X140843000Y-138811000D01*
X140843000Y-140135610D01*
X141001750Y-140294360D01*
X142091990Y-140294360D01*
X142325379Y-140197687D01*
X142504007Y-140019058D01*
X142600680Y-139785669D01*
X142600680Y-138969750D01*
X142441930Y-138811000D01*
X140843000Y-138811000D01*
X140589000Y-138811000D01*
X138990070Y-138811000D01*
X138831320Y-138969750D01*
X131974590Y-138969750D01*
X131974590Y-138524670D01*
X131877917Y-138291281D01*
X131699288Y-138112653D01*
X131465899Y-138015980D01*
X129825750Y-138015980D01*
X129667000Y-138174730D01*
X129413000Y-138174730D01*
X129254250Y-138015980D01*
X127614101Y-138015980D01*
X127380712Y-138112653D01*
X127202083Y-138291281D01*
X127105410Y-138524670D01*
X125102355Y-138524670D01*
X125115327Y-138511698D01*
X125212000Y-138278309D01*
X125212000Y-137937750D01*
X133868000Y-137937750D01*
X133868000Y-138278309D01*
X133964673Y-138511698D01*
X134143301Y-138690327D01*
X134376690Y-138787000D01*
X134842250Y-138787000D01*
X135001000Y-138628250D01*
X135001000Y-137779000D01*
X135255000Y-137779000D01*
X135255000Y-138628250D01*
X135413750Y-138787000D01*
X135879310Y-138787000D01*
X136112699Y-138690327D01*
X136291327Y-138511698D01*
X136388000Y-138278309D01*
X136388000Y-137937750D01*
X136229250Y-137779000D01*
X135255000Y-137779000D01*
X135001000Y-137779000D01*
X134026750Y-137779000D01*
X133868000Y-137937750D01*
X125212000Y-137937750D01*
X125053250Y-137779000D01*
X124079000Y-137779000D01*
X123825000Y-137779000D01*
X122850750Y-137779000D01*
X122692000Y-137937750D01*
X102613460Y-137937750D01*
X102613460Y-137442630D01*
X102516787Y-137209241D01*
X102338158Y-137030613D01*
X102286808Y-137009343D01*
X104978200Y-137009343D01*
X105210552Y-136965623D01*
X105423953Y-136828303D01*
X105567117Y-136618777D01*
X105617483Y-136370060D01*
X105617483Y-134481000D01*
X113805497Y-134481000D01*
X113805497Y-134618730D01*
X113849217Y-134851082D01*
X113986537Y-135064483D01*
X114196063Y-135207647D01*
X114444780Y-135258013D01*
X117096540Y-135258013D01*
X117328892Y-135214293D01*
X117542293Y-135076973D01*
X117685457Y-134867447D01*
X117735823Y-134618730D01*
X117735823Y-132589270D01*
X117976177Y-132589270D01*
X117976177Y-134618730D01*
X118019897Y-134851082D01*
X118157217Y-135064483D01*
X118366743Y-135207647D01*
X118615460Y-135258013D01*
X121267220Y-135258013D01*
X121499572Y-135214293D01*
X121712973Y-135076973D01*
X121856137Y-134867447D01*
X121906503Y-134618730D01*
X121906503Y-134481000D01*
X122572734Y-134481000D01*
X122842378Y-134750644D01*
X122738083Y-134903283D01*
X122687717Y-135152000D01*
X122687717Y-136152000D01*
X122731437Y-136384352D01*
X122868757Y-136597753D01*
X122936758Y-136644216D01*
X122788673Y-136792302D01*
X122692000Y-137025691D01*
X122692000Y-137366250D01*
X122850750Y-137525000D01*
X123825000Y-137525000D01*
X123825000Y-137505000D01*
X124079000Y-137505000D01*
X124079000Y-137525000D01*
X125053250Y-137525000D01*
X125212000Y-137366250D01*
X125212000Y-137025691D01*
X125115327Y-136792302D01*
X124968305Y-136645279D01*
X125022753Y-136610243D01*
X125165917Y-136400717D01*
X125216283Y-136152000D01*
X125216283Y-135152000D01*
X125172563Y-134919648D01*
X125062954Y-134749312D01*
X125382066Y-134430200D01*
X125979717Y-134430200D01*
X125979717Y-134670800D01*
X126023437Y-134903152D01*
X126160757Y-135116553D01*
X126370283Y-135259717D01*
X126619000Y-135310083D01*
X127838200Y-135310083D01*
X128070552Y-135266363D01*
X128283953Y-135129043D01*
X128376679Y-134993335D01*
X128392073Y-135030499D01*
X128570702Y-135209127D01*
X128804091Y-135305800D01*
X129254250Y-135305800D01*
X129413000Y-135147050D01*
X129413000Y-133680200D01*
X129393000Y-133680200D01*
X129393000Y-133426200D01*
X129413000Y-133426200D01*
X129413000Y-131959350D01*
X129254250Y-131800600D01*
X128804091Y-131800600D01*
X128570702Y-131897273D01*
X128392073Y-132075901D01*
X128376308Y-132113961D01*
X128296443Y-131989847D01*
X128086917Y-131846683D01*
X127838200Y-131796317D01*
X126619000Y-131796317D01*
X126386648Y-131840037D01*
X126173247Y-131977357D01*
X126030083Y-132186883D01*
X125979717Y-132435600D01*
X125979717Y-132676200D01*
X125018800Y-132676200D01*
X124683187Y-132742958D01*
X124398667Y-132933067D01*
X123952000Y-133379734D01*
X123556133Y-132983867D01*
X123271613Y-132793758D01*
X122936000Y-132727000D01*
X121906503Y-132727000D01*
X121906503Y-132589270D01*
X121862783Y-132356918D01*
X121725463Y-132143517D01*
X121515937Y-132000353D01*
X121267220Y-131949987D01*
X118615460Y-131949987D01*
X118383108Y-131993707D01*
X118169707Y-132131027D01*
X118026543Y-132340553D01*
X117976177Y-132589270D01*
X117735823Y-132589270D01*
X117692103Y-132356918D01*
X117554783Y-132143517D01*
X117345257Y-132000353D01*
X117096540Y-131949987D01*
X114444780Y-131949987D01*
X114212428Y-131993707D01*
X113999027Y-132131027D01*
X113855863Y-132340553D01*
X113805497Y-132589270D01*
X113805497Y-132727000D01*
X105590587Y-132727000D01*
X105573763Y-132637588D01*
X105436443Y-132424187D01*
X105226917Y-132281023D01*
X104978200Y-132230657D01*
X101478080Y-132230657D01*
X101245728Y-132274377D01*
X101032327Y-132411697D01*
X100889163Y-132621223D01*
X100838797Y-132869940D01*
X100838797Y-136370060D01*
X100882517Y-136602412D01*
X101019837Y-136815813D01*
X101192720Y-136933940D01*
X100514150Y-136933940D01*
X100355400Y-137092690D01*
X100101400Y-137092690D01*
X99942650Y-136933940D01*
X99276728Y-136933940D01*
X99338418Y-136908387D01*
X99517047Y-136729759D01*
X99613720Y-136496370D01*
X99613720Y-134905750D01*
X99454970Y-134747000D01*
X97355660Y-134747000D01*
X97101660Y-134747000D01*
X95002350Y-134747000D01*
X94843600Y-134905750D01*
X92257500Y-134905750D01*
X92257500Y-132743630D01*
X94843600Y-132743630D01*
X94843600Y-134334250D01*
X95002350Y-134493000D01*
X97101660Y-134493000D01*
X97101660Y-132393690D01*
X97355660Y-132393690D01*
X97355660Y-134493000D01*
X99454970Y-134493000D01*
X99613720Y-134334250D01*
X99613720Y-132743630D01*
X99517047Y-132510241D01*
X99338418Y-132331613D01*
X99105029Y-132234940D01*
X97514410Y-132234940D01*
X97355660Y-132393690D01*
X97101660Y-132393690D01*
X96942910Y-132234940D01*
X95352291Y-132234940D01*
X95118902Y-132331613D01*
X94940273Y-132510241D01*
X94843600Y-132743630D01*
X92257500Y-132743630D01*
X92257500Y-124729750D01*
X106944000Y-124729750D01*
X106944000Y-125070309D01*
X107040673Y-125303698D01*
X107219301Y-125482327D01*
X107452690Y-125579000D01*
X107918250Y-125579000D01*
X108077000Y-125420250D01*
X108077000Y-124571000D01*
X108331000Y-124571000D01*
X108331000Y-125420250D01*
X108489750Y-125579000D01*
X108955310Y-125579000D01*
X109188699Y-125482327D01*
X109367327Y-125303698D01*
X109464000Y-125070309D01*
X109464000Y-124729750D01*
X109305250Y-124571000D01*
X108331000Y-124571000D01*
X108077000Y-124571000D01*
X107102750Y-124571000D01*
X106944000Y-124729750D01*
X92257500Y-124729750D01*
X92257500Y-123689025D01*
X92568381Y-123689025D01*
X92685401Y-123971446D01*
X93349463Y-124223018D01*
X94059248Y-124201314D01*
X94614199Y-123971446D01*
X94731219Y-123689025D01*
X97648381Y-123689025D01*
X97765401Y-123971446D01*
X98429463Y-124223018D01*
X99139248Y-124201314D01*
X99694199Y-123971446D01*
X99811219Y-123689025D01*
X98729800Y-122607605D01*
X97648381Y-123689025D01*
X94731219Y-123689025D01*
X93649800Y-122607605D01*
X92568381Y-123689025D01*
X92257500Y-123689025D01*
X92257500Y-123455026D01*
X92388775Y-123509419D01*
X93470195Y-122428000D01*
X92388775Y-121346581D01*
X92257500Y-121400974D01*
X92257500Y-118609025D01*
X92568381Y-118609025D01*
X92685401Y-118891446D01*
X93349463Y-119143018D01*
X94059248Y-119121314D01*
X94614199Y-118891446D01*
X94731218Y-118609026D01*
X94843389Y-118721197D01*
X94684212Y-118880096D01*
X94413110Y-119532982D01*
X94412493Y-120239916D01*
X94682455Y-120893274D01*
X94843546Y-121054646D01*
X94731218Y-121166974D01*
X94614199Y-120884554D01*
X93950137Y-120632982D01*
X93240352Y-120654686D01*
X92685401Y-120884554D01*
X92568381Y-121166975D01*
X93649800Y-122248395D01*
X93663942Y-122234252D01*
X93843548Y-122413858D01*
X93829405Y-122428000D01*
X94910825Y-123509419D01*
X95193246Y-123392399D01*
X95444818Y-122728337D01*
X95423114Y-122018552D01*
X95193246Y-121463601D01*
X94910826Y-121346582D01*
X95022997Y-121234411D01*
X95181896Y-121393588D01*
X95834782Y-121664690D01*
X96541716Y-121665307D01*
X97195074Y-121395345D01*
X97356446Y-121234254D01*
X97468774Y-121346582D01*
X97186354Y-121463601D01*
X96934782Y-122127663D01*
X96956486Y-122837448D01*
X97186354Y-123392399D01*
X97468775Y-123509419D01*
X98550195Y-122428000D01*
X98909405Y-122428000D01*
X99990825Y-123509419D01*
X100273246Y-123392399D01*
X100524818Y-122728337D01*
X100503114Y-122018552D01*
X100273246Y-121463601D01*
X99990825Y-121346581D01*
X98909405Y-122428000D01*
X98550195Y-122428000D01*
X98536052Y-122413858D01*
X98715658Y-122234252D01*
X98729800Y-122248395D01*
X99811219Y-121166975D01*
X99694199Y-120884554D01*
X99246636Y-120715000D01*
X100445437Y-120715000D01*
X100761916Y-120652048D01*
X101030214Y-120472777D01*
X102500200Y-119002791D01*
X102800591Y-119003053D01*
X103251727Y-118816647D01*
X103597189Y-118471788D01*
X103784382Y-118020977D01*
X103784808Y-117532846D01*
X103598402Y-117081710D01*
X103253543Y-116736248D01*
X102802732Y-116549055D01*
X102314601Y-116548629D01*
X101863465Y-116735035D01*
X101518003Y-117079894D01*
X101330810Y-117530705D01*
X101330546Y-117833337D01*
X100102883Y-119061000D01*
X99284859Y-119061000D01*
X99694199Y-118891446D01*
X99811219Y-118609025D01*
X98729800Y-117527605D01*
X98715658Y-117541748D01*
X98536052Y-117362142D01*
X98550195Y-117348000D01*
X98909405Y-117348000D01*
X99990825Y-118429419D01*
X100273246Y-118312399D01*
X100524818Y-117648337D01*
X100503114Y-116938552D01*
X100273246Y-116383601D01*
X99990825Y-116266581D01*
X98909405Y-117348000D01*
X98550195Y-117348000D01*
X97468775Y-116266581D01*
X97186354Y-116383601D01*
X96934782Y-117047663D01*
X96956486Y-117757448D01*
X97186354Y-118312399D01*
X97468774Y-118429418D01*
X97356603Y-118541589D01*
X97197704Y-118382412D01*
X96544818Y-118111310D01*
X95837884Y-118110693D01*
X95184526Y-118380655D01*
X95023154Y-118541746D01*
X94910826Y-118429418D01*
X95193246Y-118312399D01*
X95444818Y-117648337D01*
X95423114Y-116938552D01*
X95193246Y-116383601D01*
X94910825Y-116266581D01*
X93829405Y-117348000D01*
X93843548Y-117362142D01*
X93663942Y-117541748D01*
X93649800Y-117527605D01*
X92568381Y-118609025D01*
X92257500Y-118609025D01*
X92257500Y-118375026D01*
X92388775Y-118429419D01*
X93470195Y-117348000D01*
X92388775Y-116266581D01*
X92257500Y-116320974D01*
X92257500Y-116086975D01*
X92568381Y-116086975D01*
X93649800Y-117168395D01*
X94731219Y-116086975D01*
X97648381Y-116086975D01*
X98729800Y-117168395D01*
X99811219Y-116086975D01*
X99694199Y-115804554D01*
X99030137Y-115552982D01*
X98320352Y-115574686D01*
X97765401Y-115804554D01*
X97648381Y-116086975D01*
X94731219Y-116086975D01*
X94614199Y-115804554D01*
X93950137Y-115552982D01*
X93240352Y-115574686D01*
X92685401Y-115804554D01*
X92568381Y-116086975D01*
X92257500Y-116086975D01*
X92257500Y-104893025D01*
X92568381Y-104893025D01*
X92685401Y-105175446D01*
X93349463Y-105427018D01*
X94059248Y-105405314D01*
X94614199Y-105175446D01*
X94731219Y-104893025D01*
X97648381Y-104893025D01*
X97765401Y-105175446D01*
X98429463Y-105427018D01*
X99139248Y-105405314D01*
X99694199Y-105175446D01*
X99811219Y-104893025D01*
X98729800Y-103811605D01*
X97648381Y-104893025D01*
X94731219Y-104893025D01*
X93649800Y-103811605D01*
X92568381Y-104893025D01*
X92257500Y-104893025D01*
X92257500Y-104659026D01*
X92388775Y-104713419D01*
X93470195Y-103632000D01*
X92388775Y-102550581D01*
X92257500Y-102604974D01*
X92257500Y-99813025D01*
X92568381Y-99813025D01*
X92685401Y-100095446D01*
X93349463Y-100347018D01*
X94059248Y-100325314D01*
X94614199Y-100095446D01*
X94731218Y-99813026D01*
X94843389Y-99925197D01*
X94684212Y-100084096D01*
X94413110Y-100736982D01*
X94412493Y-101443916D01*
X94682455Y-102097274D01*
X94843546Y-102258646D01*
X94731218Y-102370974D01*
X94614199Y-102088554D01*
X93950137Y-101836982D01*
X93240352Y-101858686D01*
X92685401Y-102088554D01*
X92568381Y-102370975D01*
X93649800Y-103452395D01*
X93663942Y-103438252D01*
X93843548Y-103617858D01*
X93829405Y-103632000D01*
X94910825Y-104713419D01*
X95193246Y-104596399D01*
X95444818Y-103932337D01*
X95423114Y-103222552D01*
X95193246Y-102667601D01*
X94910826Y-102550582D01*
X95022997Y-102438411D01*
X95181896Y-102597588D01*
X95834782Y-102868690D01*
X96541716Y-102869307D01*
X97195074Y-102599345D01*
X97356446Y-102438254D01*
X97468774Y-102550582D01*
X97186354Y-102667601D01*
X96934782Y-103331663D01*
X96956486Y-104041448D01*
X97186354Y-104596399D01*
X97468775Y-104713419D01*
X98550195Y-103632000D01*
X98536052Y-103617858D01*
X98715658Y-103438252D01*
X98729800Y-103452395D01*
X99811219Y-102370975D01*
X99694199Y-102088554D01*
X99030137Y-101836982D01*
X98320352Y-101858686D01*
X97765401Y-102088554D01*
X97648382Y-102370974D01*
X97536211Y-102258803D01*
X97695388Y-102099904D01*
X97966490Y-101447018D01*
X97967107Y-100740084D01*
X97697145Y-100086726D01*
X97536054Y-99925354D01*
X97648382Y-99813026D01*
X97765401Y-100095446D01*
X98429463Y-100347018D01*
X99139248Y-100325314D01*
X99694199Y-100095446D01*
X99811219Y-99813025D01*
X98729800Y-98731605D01*
X98715658Y-98745748D01*
X98536052Y-98566142D01*
X98550195Y-98552000D01*
X98909405Y-98552000D01*
X99990825Y-99633419D01*
X100273246Y-99516399D01*
X100524818Y-98852337D01*
X100503114Y-98142552D01*
X100273246Y-97587601D01*
X99990825Y-97470581D01*
X98909405Y-98552000D01*
X98550195Y-98552000D01*
X97468775Y-97470581D01*
X97186354Y-97587601D01*
X97016800Y-98035164D01*
X97016800Y-97290975D01*
X97648381Y-97290975D01*
X98729800Y-98372395D01*
X99811219Y-97290975D01*
X99694199Y-97008554D01*
X99030137Y-96756982D01*
X98320352Y-96778686D01*
X97765401Y-97008554D01*
X97648381Y-97290975D01*
X97016800Y-97290975D01*
X97016800Y-96118342D01*
X97214131Y-96036806D01*
X97559593Y-95691947D01*
X97746786Y-95241136D01*
X97747212Y-94753005D01*
X97560806Y-94301869D01*
X97215947Y-93956407D01*
X96765136Y-93769214D01*
X96277005Y-93768788D01*
X95825869Y-93955194D01*
X95480407Y-94300053D01*
X95293214Y-94750864D01*
X95292788Y-95238995D01*
X95362800Y-95408437D01*
X95362800Y-97996941D01*
X95193246Y-97587601D01*
X94910825Y-97470581D01*
X93829405Y-98552000D01*
X93843548Y-98566142D01*
X93663942Y-98745748D01*
X93649800Y-98731605D01*
X92568381Y-99813025D01*
X92257500Y-99813025D01*
X92257500Y-99579026D01*
X92388775Y-99633419D01*
X93470195Y-98552000D01*
X92388775Y-97470581D01*
X92257500Y-97524974D01*
X92257500Y-97290975D01*
X92568381Y-97290975D01*
X93649800Y-98372395D01*
X94731219Y-97290975D01*
X94614199Y-97008554D01*
X93950137Y-96756982D01*
X93240352Y-96778686D01*
X92685401Y-97008554D01*
X92568381Y-97290975D01*
X92257500Y-97290975D01*
X92257500Y-71029670D01*
X92785330Y-71029670D01*
X92785330Y-80354330D01*
X92844476Y-80651675D01*
X93012908Y-80903752D01*
X95919000Y-83809844D01*
X95919000Y-83883358D01*
X95449104Y-83688240D01*
X94901299Y-83687762D01*
X94395011Y-83896956D01*
X94007317Y-84283974D01*
X93797240Y-84789896D01*
X93796762Y-85337701D01*
X94005956Y-85843989D01*
X94285000Y-86123520D01*
X94285000Y-89303690D01*
X94266247Y-89315757D01*
X94123083Y-89525283D01*
X94072717Y-89774000D01*
X94072717Y-91074000D01*
X94116437Y-91306352D01*
X94253757Y-91519753D01*
X94463283Y-91662917D01*
X94712000Y-91713283D01*
X95412000Y-91713283D01*
X95644352Y-91669563D01*
X95857753Y-91532243D01*
X96000917Y-91322717D01*
X96009712Y-91279284D01*
X96073673Y-91433699D01*
X96252302Y-91612327D01*
X96485691Y-91709000D01*
X96676250Y-91709000D01*
X96835000Y-91550250D01*
X96835000Y-90551000D01*
X97089000Y-90551000D01*
X97089000Y-91550250D01*
X97247750Y-91709000D01*
X97438309Y-91709000D01*
X97671698Y-91612327D01*
X97850327Y-91433699D01*
X97947000Y-91200310D01*
X97947000Y-90709750D01*
X97788250Y-90551000D01*
X97089000Y-90551000D01*
X96835000Y-90551000D01*
X96815000Y-90551000D01*
X96815000Y-90363320D01*
X101970285Y-90363320D01*
X102099533Y-90656123D01*
X102799806Y-90924388D01*
X103549435Y-90904250D01*
X104148467Y-90656123D01*
X104277715Y-90363320D01*
X103124000Y-89209605D01*
X101970285Y-90363320D01*
X96815000Y-90363320D01*
X96815000Y-90297000D01*
X96835000Y-90297000D01*
X96835000Y-89297750D01*
X97089000Y-89297750D01*
X97089000Y-90297000D01*
X97788250Y-90297000D01*
X97947000Y-90138250D01*
X97947000Y-89647690D01*
X97850327Y-89414301D01*
X97671698Y-89235673D01*
X97438309Y-89139000D01*
X97247750Y-89139000D01*
X97089000Y-89297750D01*
X96835000Y-89297750D01*
X96676250Y-89139000D01*
X96485691Y-89139000D01*
X96252302Y-89235673D01*
X96073673Y-89414301D01*
X96011737Y-89563829D01*
X96007563Y-89541648D01*
X95870243Y-89328247D01*
X95839000Y-89306899D01*
X95839000Y-88697580D01*
X95912974Y-88771683D01*
X96418896Y-88981760D01*
X96966701Y-88982238D01*
X97472989Y-88773044D01*
X97860683Y-88386026D01*
X98036822Y-87961837D01*
X98163734Y-88268989D01*
X98796679Y-88903039D01*
X99624084Y-89246608D01*
X100519985Y-89247390D01*
X101236211Y-88951452D01*
X101249750Y-89455435D01*
X101497877Y-90054467D01*
X101790680Y-90183715D01*
X102944395Y-89030000D01*
X103303605Y-89030000D01*
X104457320Y-90183715D01*
X104750123Y-90054467D01*
X105018388Y-89354194D01*
X104998250Y-88604565D01*
X104750123Y-88005533D01*
X104457320Y-87876285D01*
X103303605Y-89030000D01*
X102944395Y-89030000D01*
X102930253Y-89015858D01*
X103109858Y-88836253D01*
X103124000Y-88850395D01*
X104277715Y-87696680D01*
X104148467Y-87403877D01*
X103448194Y-87135612D01*
X102698565Y-87155750D01*
X102325726Y-87310185D01*
X102326292Y-86660275D01*
X108198331Y-86660275D01*
X108260169Y-86896042D01*
X108761122Y-87072419D01*
X109291440Y-87043664D01*
X109647831Y-86896042D01*
X109709669Y-86660275D01*
X108954000Y-85904605D01*
X108198331Y-86660275D01*
X102326292Y-86660275D01*
X102326390Y-86549015D01*
X101984266Y-85721011D01*
X101351321Y-85086961D01*
X100523916Y-84743392D01*
X99628015Y-84742610D01*
X98800011Y-85084734D01*
X98165961Y-85717679D01*
X97822392Y-86545084D01*
X97822182Y-86786079D01*
X97475026Y-86438317D01*
X97473000Y-86437476D01*
X97473000Y-83488000D01*
X97413854Y-83190655D01*
X97245422Y-82938578D01*
X94339330Y-80032486D01*
X94339330Y-77767701D01*
X95316762Y-77767701D01*
X95525956Y-78273989D01*
X95912974Y-78661683D01*
X96418896Y-78871760D01*
X96966701Y-78872238D01*
X97472989Y-78663044D01*
X97860683Y-78276026D01*
X98070760Y-77770104D01*
X98071238Y-77222299D01*
X98070158Y-77219686D01*
X98151422Y-77138422D01*
X98276211Y-76951662D01*
X98796679Y-77473039D01*
X99624084Y-77816608D01*
X100519985Y-77817390D01*
X101347989Y-77475266D01*
X101982039Y-76842321D01*
X102325608Y-76014916D01*
X102326282Y-75242987D01*
X102799806Y-75424388D01*
X103549435Y-75404250D01*
X104148467Y-75156123D01*
X104277715Y-74863320D01*
X103124000Y-73709605D01*
X103109858Y-73723748D01*
X102930253Y-73544143D01*
X102944395Y-73530000D01*
X103303605Y-73530000D01*
X104457320Y-74683715D01*
X104750123Y-74554467D01*
X105018388Y-73854194D01*
X104998250Y-73104565D01*
X104750123Y-72505533D01*
X104457320Y-72376285D01*
X103303605Y-73530000D01*
X102944395Y-73530000D01*
X101790680Y-72376285D01*
X101497877Y-72505533D01*
X101229612Y-73205806D01*
X101240496Y-73610942D01*
X100523916Y-73313392D01*
X100222896Y-73313129D01*
X100390327Y-73145699D01*
X100487000Y-72912310D01*
X100487000Y-72421750D01*
X100328250Y-72263000D01*
X99629000Y-72263000D01*
X99629000Y-72283000D01*
X99375000Y-72283000D01*
X99375000Y-72263000D01*
X99355000Y-72263000D01*
X99355000Y-72196680D01*
X101970285Y-72196680D01*
X103124000Y-73350395D01*
X104277715Y-72196680D01*
X104148467Y-71903877D01*
X103448194Y-71635612D01*
X102698565Y-71655750D01*
X102099533Y-71903877D01*
X101970285Y-72196680D01*
X99355000Y-72196680D01*
X99355000Y-72009000D01*
X99375000Y-72009000D01*
X99375000Y-71009750D01*
X99629000Y-71009750D01*
X99629000Y-72009000D01*
X100328250Y-72009000D01*
X100487000Y-71850250D01*
X100487000Y-71359690D01*
X100390327Y-71126301D01*
X100211698Y-70947673D01*
X99978309Y-70851000D01*
X99787750Y-70851000D01*
X99629000Y-71009750D01*
X99375000Y-71009750D01*
X99216250Y-70851000D01*
X99025691Y-70851000D01*
X98792302Y-70947673D01*
X98613673Y-71126301D01*
X98551737Y-71275829D01*
X98547563Y-71253648D01*
X98410243Y-71040247D01*
X98200717Y-70897083D01*
X97952000Y-70846717D01*
X97252000Y-70846717D01*
X97019648Y-70890437D01*
X96806247Y-71027757D01*
X96663083Y-71237283D01*
X96612717Y-71486000D01*
X96612717Y-72786000D01*
X96656437Y-73018352D01*
X96793757Y-73231753D01*
X96825000Y-73253101D01*
X96825000Y-76118114D01*
X96421299Y-76117762D01*
X95915011Y-76326956D01*
X95527317Y-76713974D01*
X95317240Y-77219896D01*
X95316762Y-77767701D01*
X94339330Y-77767701D01*
X94339330Y-76067945D01*
X94392974Y-76121683D01*
X94898896Y-76331760D01*
X95446701Y-76332238D01*
X95952989Y-76123044D01*
X96340683Y-75736026D01*
X96550760Y-75230104D01*
X96551238Y-74682299D01*
X96342044Y-74176011D01*
X95955026Y-73788317D01*
X95951000Y-73786645D01*
X95951000Y-71263844D01*
X96841844Y-70373000D01*
X122106156Y-70373000D01*
X128821112Y-77087956D01*
X128820788Y-77458995D01*
X129007194Y-77910131D01*
X129352053Y-78255593D01*
X129503644Y-78318539D01*
X127929291Y-78318539D01*
X127593677Y-78385297D01*
X127479715Y-78461444D01*
X127309158Y-78575406D01*
X127309156Y-78575409D01*
X127306503Y-78578061D01*
X127076762Y-78577861D01*
X126625626Y-78764267D01*
X126280164Y-79109126D01*
X126253000Y-79174544D01*
X126253000Y-78232000D01*
X126193854Y-77934655D01*
X126025422Y-77682578D01*
X124501422Y-76158578D01*
X124249345Y-75990146D01*
X123952000Y-75931000D01*
X116274082Y-75931000D01*
X116011947Y-75668407D01*
X115561136Y-75481214D01*
X115073005Y-75480788D01*
X114621869Y-75667194D01*
X114357602Y-75931000D01*
X110353000Y-75931000D01*
X110055655Y-75990146D01*
X109803578Y-76158578D01*
X109183956Y-76778200D01*
X108691202Y-76777771D01*
X108203297Y-76979369D01*
X107829681Y-77352334D01*
X107627231Y-77839885D01*
X107626771Y-78367798D01*
X107828369Y-78855703D01*
X108201334Y-79229319D01*
X108552433Y-79375109D01*
X108203297Y-79519369D01*
X107829681Y-79892334D01*
X107627231Y-80379885D01*
X107627146Y-80477251D01*
X107407826Y-80257931D01*
X107538319Y-80127666D01*
X107740769Y-79640115D01*
X107741229Y-79112202D01*
X107539631Y-78624297D01*
X107166666Y-78250681D01*
X106815567Y-78104891D01*
X107164703Y-77960631D01*
X107538319Y-77587666D01*
X107740769Y-77100115D01*
X107741197Y-76608647D01*
X110420844Y-73929000D01*
X115373918Y-73929000D01*
X115636053Y-74191593D01*
X116086864Y-74378786D01*
X116574995Y-74379212D01*
X117026131Y-74192806D01*
X117371593Y-73847947D01*
X117558786Y-73397136D01*
X117559212Y-72909005D01*
X117372806Y-72457869D01*
X117027947Y-72112407D01*
X116577136Y-71925214D01*
X116089005Y-71924788D01*
X115637869Y-72111194D01*
X115373602Y-72375000D01*
X110099000Y-72375000D01*
X109801655Y-72434146D01*
X109694817Y-72505533D01*
X109549578Y-72602578D01*
X106643956Y-75508200D01*
X106151202Y-75507771D01*
X105663297Y-75709369D01*
X105289681Y-76082334D01*
X105087231Y-76569885D01*
X105086771Y-77097798D01*
X105288369Y-77585703D01*
X105661334Y-77959319D01*
X106012433Y-78105109D01*
X105663297Y-78249369D01*
X105289681Y-78622334D01*
X105087231Y-79109885D01*
X105086771Y-79637798D01*
X105288369Y-80125703D01*
X105661334Y-80499319D01*
X105666124Y-80501308D01*
X105698146Y-80662294D01*
X105757145Y-80750592D01*
X105663297Y-80789369D01*
X105289681Y-81162334D01*
X105087231Y-81649885D01*
X105086771Y-82177798D01*
X105288369Y-82665703D01*
X105661334Y-83039319D01*
X106012433Y-83185109D01*
X105663297Y-83329369D01*
X105289681Y-83702334D01*
X105087231Y-84189885D01*
X105086771Y-84717798D01*
X105288369Y-85205703D01*
X105661334Y-85579319D01*
X106148885Y-85781769D01*
X106676798Y-85782229D01*
X107164703Y-85580631D01*
X107213296Y-85532122D01*
X107606581Y-85532122D01*
X107635336Y-86062440D01*
X107782958Y-86418831D01*
X108018725Y-86480669D01*
X108774395Y-85725000D01*
X109133605Y-85725000D01*
X109889275Y-86480669D01*
X110125042Y-86418831D01*
X110301419Y-85917878D01*
X110272664Y-85387560D01*
X110125042Y-85031169D01*
X109889275Y-84969331D01*
X109133605Y-85725000D01*
X108774395Y-85725000D01*
X108018725Y-84969331D01*
X107782958Y-85031169D01*
X107606581Y-85532122D01*
X107213296Y-85532122D01*
X107538319Y-85207666D01*
X107740769Y-84720115D01*
X107741229Y-84192202D01*
X107539631Y-83704297D01*
X107166666Y-83330681D01*
X106815567Y-83184891D01*
X107164703Y-83040631D01*
X107538319Y-82667666D01*
X107581729Y-82563124D01*
X107633705Y-82597853D01*
X107751243Y-82621233D01*
X107627231Y-82919885D01*
X107626771Y-83447798D01*
X107828369Y-83935703D01*
X108201334Y-84309319D01*
X108525656Y-84443990D01*
X108260169Y-84553958D01*
X108198331Y-84789725D01*
X108954000Y-85545395D01*
X109709669Y-84789725D01*
X109647831Y-84553958D01*
X109360577Y-84452821D01*
X109704703Y-84310631D01*
X110053943Y-83962000D01*
X114359156Y-83962000D01*
X114597112Y-84199956D01*
X114596788Y-84570995D01*
X114783194Y-85022131D01*
X115128053Y-85367593D01*
X115578864Y-85554786D01*
X116066995Y-85555212D01*
X116518131Y-85368806D01*
X116863593Y-85023947D01*
X117050786Y-84573136D01*
X117051212Y-84085005D01*
X116864806Y-83633869D01*
X116519947Y-83288407D01*
X116069136Y-83101214D01*
X115695732Y-83100888D01*
X115247224Y-82652380D01*
X115521346Y-82597853D01*
X115657535Y-82506855D01*
X115952268Y-82507112D01*
X119848594Y-86403438D01*
X120100671Y-86571870D01*
X120398016Y-86631016D01*
X122418007Y-86631016D01*
X122680142Y-86893609D01*
X123130953Y-87080802D01*
X123619084Y-87081228D01*
X124070220Y-86894822D01*
X124415682Y-86549963D01*
X124602875Y-86099152D01*
X124603301Y-85611021D01*
X124416895Y-85159885D01*
X124124118Y-84866596D01*
X124138131Y-84860806D01*
X124483593Y-84515947D01*
X124670786Y-84065136D01*
X124671212Y-83577005D01*
X124484806Y-83125869D01*
X124221000Y-82861602D01*
X124221000Y-82109844D01*
X126025422Y-80305422D01*
X126132603Y-80145015D01*
X126278951Y-80499204D01*
X126623810Y-80844666D01*
X127074621Y-81031859D01*
X127086539Y-81031869D01*
X127086539Y-89605196D01*
X120421946Y-96269788D01*
X105930676Y-96269788D01*
X105768367Y-96107195D01*
X105317556Y-95920002D01*
X104829425Y-95919576D01*
X104378289Y-96105982D01*
X104032827Y-96450841D01*
X103845634Y-96901652D01*
X103845432Y-97133511D01*
X100595468Y-100383474D01*
X100405359Y-100667994D01*
X100338601Y-101003607D01*
X100338601Y-102825382D01*
X100273246Y-102667601D01*
X99990825Y-102550581D01*
X98909405Y-103632000D01*
X99990825Y-104713419D01*
X100273246Y-104596399D01*
X100338601Y-104423885D01*
X100338601Y-111883601D01*
X100405359Y-112219214D01*
X100595468Y-112503734D01*
X104787000Y-116695266D01*
X104787000Y-118013744D01*
X104624407Y-118176053D01*
X104437214Y-118626864D01*
X104436788Y-119114995D01*
X104623194Y-119566131D01*
X104968053Y-119911593D01*
X105418864Y-120098786D01*
X105650723Y-120098988D01*
X107094378Y-121542643D01*
X106990083Y-121695283D01*
X106939717Y-121944000D01*
X106939717Y-122944000D01*
X106983437Y-123176352D01*
X107120757Y-123389753D01*
X107188758Y-123436216D01*
X107040673Y-123584302D01*
X106944000Y-123817691D01*
X106944000Y-124158250D01*
X107102750Y-124317000D01*
X108077000Y-124317000D01*
X108077000Y-124297000D01*
X108331000Y-124297000D01*
X108331000Y-124317000D01*
X109305250Y-124317000D01*
X109464000Y-124158250D01*
X109464000Y-123817691D01*
X109367327Y-123584302D01*
X109220305Y-123437279D01*
X109274753Y-123402243D01*
X109330264Y-123321000D01*
X122588734Y-123321000D01*
X130974400Y-131706666D01*
X130974400Y-131862590D01*
X130796047Y-131977357D01*
X130703321Y-132113065D01*
X130687927Y-132075901D01*
X130509298Y-131897273D01*
X130275909Y-131800600D01*
X129825750Y-131800600D01*
X129667000Y-131959350D01*
X129667000Y-133426200D01*
X129687000Y-133426200D01*
X129687000Y-133680200D01*
X129667000Y-133680200D01*
X129667000Y-135147050D01*
X129825750Y-135305800D01*
X130275909Y-135305800D01*
X130509298Y-135209127D01*
X130687927Y-135030499D01*
X130703692Y-134992439D01*
X130783557Y-135116553D01*
X130993083Y-135259717D01*
X131241800Y-135310083D01*
X132461000Y-135310083D01*
X132693352Y-135266363D01*
X132906753Y-135129043D01*
X133049917Y-134919517D01*
X133100283Y-134670800D01*
X133100283Y-134430200D01*
X134205934Y-134430200D01*
X134251000Y-134475265D01*
X134251000Y-134569080D01*
X134057247Y-134693757D01*
X133914083Y-134903283D01*
X133863717Y-135152000D01*
X133863717Y-136152000D01*
X133907437Y-136384352D01*
X134044757Y-136597753D01*
X134112758Y-136644216D01*
X133964673Y-136792302D01*
X133868000Y-137025691D01*
X133868000Y-137366250D01*
X134026750Y-137525000D01*
X135001000Y-137525000D01*
X135001000Y-137505000D01*
X135255000Y-137505000D01*
X135255000Y-137525000D01*
X136229250Y-137525000D01*
X136388000Y-137366250D01*
X136388000Y-137025691D01*
X136291327Y-136792302D01*
X136144305Y-136645279D01*
X136198753Y-136610243D01*
X136254264Y-136529000D01*
X138827037Y-136529000D01*
X138827037Y-136611360D01*
X138870757Y-136843712D01*
X139008077Y-137057113D01*
X139148414Y-137153002D01*
X139106621Y-137170313D01*
X138927993Y-137348942D01*
X138831320Y-137582331D01*
X138831320Y-138398250D01*
X138990070Y-138557000D01*
X140589000Y-138557000D01*
X140589000Y-138537000D01*
X140843000Y-138537000D01*
X140843000Y-138557000D01*
X142441930Y-138557000D01*
X142600680Y-138398250D01*
X142600680Y-137582331D01*
X142504007Y-137348942D01*
X142325379Y-137170313D01*
X142282516Y-137152559D01*
X142411433Y-137069603D01*
X142554597Y-136860077D01*
X142604963Y-136611360D01*
X142604963Y-136513000D01*
X145445744Y-136513000D01*
X145608053Y-136675593D01*
X146058864Y-136862786D01*
X146295044Y-136862992D01*
X149310183Y-139878130D01*
X149310185Y-139878133D01*
X149547274Y-140036550D01*
X149594705Y-140068242D01*
X149930318Y-140135001D01*
X149930323Y-140135000D01*
X166482607Y-140135000D01*
X166556784Y-140246013D01*
X167040369Y-140569135D01*
X167610797Y-140682600D01*
X167669203Y-140682600D01*
X167853646Y-140645912D01*
X168901707Y-141693972D01*
X168901709Y-141693975D01*
X169017393Y-141771272D01*
X169186228Y-141884084D01*
X169521842Y-141950842D01*
X172349540Y-141950842D01*
X172685153Y-141884084D01*
X172969673Y-141693975D01*
X172969674Y-141693974D01*
X174197037Y-140466610D01*
X184301228Y-140466610D01*
X184548325Y-141064629D01*
X185005464Y-141522567D01*
X185603052Y-141770707D01*
X186250110Y-141771272D01*
X186848129Y-141524175D01*
X187306067Y-141067036D01*
X187554207Y-140469448D01*
X187554656Y-139955518D01*
X187560623Y-139961485D01*
X187675676Y-139846432D01*
X187743735Y-140087431D01*
X188263034Y-140272267D01*
X188813538Y-140244305D01*
X189192265Y-140087431D01*
X189260325Y-139846430D01*
X188468000Y-139054105D01*
X188453858Y-139068248D01*
X188274253Y-138888643D01*
X188288395Y-138874500D01*
X188647605Y-138874500D01*
X189439930Y-139666825D01*
X189680931Y-139598765D01*
X189865767Y-139079466D01*
X189837805Y-138528962D01*
X189680931Y-138150235D01*
X189439930Y-138082175D01*
X188647605Y-138874500D01*
X188288395Y-138874500D01*
X187496070Y-138082175D01*
X187255069Y-138150235D01*
X187070233Y-138669534D01*
X187087197Y-139003507D01*
X186850536Y-138766433D01*
X186252948Y-138518293D01*
X185605890Y-138517728D01*
X185007871Y-138764825D01*
X184549933Y-139221964D01*
X184301793Y-139819552D01*
X184301228Y-140466610D01*
X174197037Y-140466610D01*
X175676647Y-138987000D01*
X176302665Y-138987000D01*
X176393283Y-139048917D01*
X176642000Y-139099283D01*
X177942000Y-139099283D01*
X178174352Y-139055563D01*
X178387753Y-138918243D01*
X178530917Y-138708717D01*
X178581283Y-138460000D01*
X178581283Y-138445750D01*
X179588000Y-138445750D01*
X179588000Y-138786309D01*
X179684673Y-139019698D01*
X179863301Y-139198327D01*
X180096690Y-139295000D01*
X180562250Y-139295000D01*
X180721000Y-139136250D01*
X180721000Y-138287000D01*
X180975000Y-138287000D01*
X180975000Y-139136250D01*
X181133750Y-139295000D01*
X181599310Y-139295000D01*
X181832699Y-139198327D01*
X182011327Y-139019698D01*
X182108000Y-138786309D01*
X182108000Y-138445750D01*
X181949250Y-138287000D01*
X180975000Y-138287000D01*
X180721000Y-138287000D01*
X179746750Y-138287000D01*
X179588000Y-138445750D01*
X178581283Y-138445750D01*
X178581283Y-137760000D01*
X178537563Y-137527648D01*
X178400243Y-137314247D01*
X178190717Y-137171083D01*
X178143108Y-137161442D01*
X178174352Y-137155563D01*
X178387753Y-137018243D01*
X178443264Y-136937000D01*
X179656167Y-136937000D01*
X179764757Y-137105753D01*
X179832758Y-137152216D01*
X179684673Y-137300302D01*
X179588000Y-137533691D01*
X179588000Y-137874250D01*
X179746750Y-138033000D01*
X180721000Y-138033000D01*
X180721000Y-138013000D01*
X180975000Y-138013000D01*
X180975000Y-138033000D01*
X181949250Y-138033000D01*
X182079680Y-137902570D01*
X187675675Y-137902570D01*
X188468000Y-138694895D01*
X189260325Y-137902570D01*
X189192265Y-137661569D01*
X188672966Y-137476733D01*
X188122462Y-137504695D01*
X187743735Y-137661569D01*
X187675675Y-137902570D01*
X182079680Y-137902570D01*
X182108000Y-137874250D01*
X182108000Y-137533691D01*
X182011327Y-137300302D01*
X181864305Y-137153279D01*
X181918753Y-137118243D01*
X182042592Y-136937000D01*
X186737500Y-136937000D01*
X187034845Y-136877854D01*
X187286922Y-136709422D01*
X188190473Y-135805871D01*
X188192782Y-135806830D01*
X188740813Y-135807308D01*
X189247311Y-135598028D01*
X189635166Y-135210849D01*
X189845330Y-134704718D01*
X189845808Y-134156687D01*
X189636528Y-133650189D01*
X189249349Y-133262334D01*
X188743218Y-133052170D01*
X188195187Y-133051692D01*
X187688689Y-133260972D01*
X187554285Y-133395142D01*
X187554772Y-132837390D01*
X187307675Y-132239371D01*
X186850536Y-131781433D01*
X186252948Y-131533293D01*
X185605890Y-131532728D01*
X185007871Y-131779825D01*
X184549933Y-132236964D01*
X184301793Y-132834552D01*
X184301228Y-133481610D01*
X184548325Y-134079629D01*
X185005464Y-134537567D01*
X185603052Y-134785707D01*
X186250110Y-134786272D01*
X186848129Y-134539175D01*
X187090545Y-134297182D01*
X187090192Y-134702313D01*
X187091990Y-134706666D01*
X186415656Y-135383000D01*
X182039833Y-135383000D01*
X181931243Y-135214247D01*
X181721717Y-135071083D01*
X181473000Y-135020717D01*
X180223000Y-135020717D01*
X179990648Y-135064437D01*
X179777247Y-135201757D01*
X179653408Y-135383000D01*
X178354512Y-135383000D01*
X178190717Y-135271083D01*
X178069000Y-135246435D01*
X178069000Y-129798610D01*
X184301228Y-129798610D01*
X184548325Y-130396629D01*
X185005464Y-130854567D01*
X185603052Y-131102707D01*
X186250110Y-131103272D01*
X186848129Y-130856175D01*
X187306067Y-130399036D01*
X187554207Y-129801448D01*
X187554656Y-129287518D01*
X187560623Y-129293485D01*
X187675676Y-129178432D01*
X187743735Y-129419431D01*
X188263034Y-129604267D01*
X188813538Y-129576305D01*
X189192265Y-129419431D01*
X189260325Y-129178430D01*
X188468000Y-128386105D01*
X188453858Y-128400248D01*
X188274253Y-128220643D01*
X188288395Y-128206500D01*
X188647605Y-128206500D01*
X189439930Y-128998825D01*
X189680931Y-128930765D01*
X189865767Y-128411466D01*
X189837805Y-127860962D01*
X189680931Y-127482235D01*
X189439930Y-127414175D01*
X188647605Y-128206500D01*
X188288395Y-128206500D01*
X187496070Y-127414175D01*
X187255069Y-127482235D01*
X187070233Y-128001534D01*
X187087197Y-128335507D01*
X186850536Y-128098433D01*
X186252948Y-127850293D01*
X185605890Y-127849728D01*
X185007871Y-128096825D01*
X184549933Y-128553964D01*
X184301793Y-129151552D01*
X184301228Y-129798610D01*
X178069000Y-129798610D01*
X178069000Y-129772827D01*
X178009854Y-129475482D01*
X177841422Y-129223405D01*
X175852587Y-127234570D01*
X187675675Y-127234570D01*
X188468000Y-128026895D01*
X189260325Y-127234570D01*
X189192265Y-126993569D01*
X188672966Y-126808733D01*
X188122462Y-126836695D01*
X187743735Y-126993569D01*
X187675675Y-127234570D01*
X175852587Y-127234570D01*
X171431627Y-122813610D01*
X184301228Y-122813610D01*
X184548325Y-123411629D01*
X185005464Y-123869567D01*
X185603052Y-124117707D01*
X186250110Y-124118272D01*
X186848129Y-123871175D01*
X187090545Y-123629182D01*
X187090192Y-124034313D01*
X187299472Y-124540811D01*
X187686651Y-124928666D01*
X188192782Y-125138830D01*
X188740813Y-125139308D01*
X189247311Y-124930028D01*
X189635166Y-124542849D01*
X189845330Y-124036718D01*
X189845808Y-123488687D01*
X189636528Y-122982189D01*
X189249349Y-122594334D01*
X188743218Y-122384170D01*
X188195187Y-122383692D01*
X187688689Y-122592972D01*
X187554285Y-122727142D01*
X187554772Y-122169390D01*
X187307675Y-121571371D01*
X186850536Y-121113433D01*
X186252948Y-120865293D01*
X185605890Y-120864728D01*
X185007871Y-121111825D01*
X184549933Y-121568964D01*
X184301793Y-122166552D01*
X184301228Y-122813610D01*
X171431627Y-122813610D01*
X166383150Y-117765133D01*
X166383150Y-117083857D01*
X166691216Y-116878013D01*
X166872454Y-116606772D01*
X167259510Y-117030821D01*
X167788973Y-117278968D01*
X168021000Y-117158469D01*
X168021000Y-115951000D01*
X168275000Y-115951000D01*
X168275000Y-117158469D01*
X168507027Y-117278968D01*
X168756147Y-117162211D01*
X185316718Y-117162211D01*
X185563892Y-117760418D01*
X186021175Y-118218499D01*
X186618950Y-118466717D01*
X187266211Y-118467282D01*
X187864418Y-118220108D01*
X187927884Y-118156752D01*
X187945673Y-118199698D01*
X188124301Y-118378327D01*
X188357690Y-118475000D01*
X189198250Y-118475000D01*
X189357000Y-118316250D01*
X189357000Y-116967000D01*
X189337000Y-116967000D01*
X189337000Y-116713000D01*
X189357000Y-116713000D01*
X189357000Y-115363750D01*
X189198250Y-115205000D01*
X188357690Y-115205000D01*
X188124301Y-115301673D01*
X187945673Y-115480302D01*
X187928054Y-115522837D01*
X187866825Y-115461501D01*
X187269050Y-115213283D01*
X186621789Y-115212718D01*
X186023582Y-115459892D01*
X185565501Y-115917175D01*
X185317283Y-116514950D01*
X185316718Y-117162211D01*
X168756147Y-117162211D01*
X169036490Y-117030821D01*
X169430688Y-116598947D01*
X169602958Y-116183026D01*
X169481817Y-115951000D01*
X168275000Y-115951000D01*
X168021000Y-115951000D01*
X168001000Y-115951000D01*
X168001000Y-115697000D01*
X168021000Y-115697000D01*
X168021000Y-115677000D01*
X168275000Y-115677000D01*
X168275000Y-115697000D01*
X169481817Y-115697000D01*
X169602958Y-115464974D01*
X169430688Y-115049053D01*
X169036490Y-114617179D01*
X168905379Y-114555731D01*
X169231216Y-114338013D01*
X169554338Y-113854428D01*
X169667803Y-113284000D01*
X169554338Y-112713572D01*
X169231216Y-112229987D01*
X168907969Y-112014000D01*
X169231216Y-111798013D01*
X169554338Y-111314428D01*
X169667803Y-110744000D01*
X169630848Y-110558211D01*
X185316718Y-110558211D01*
X185563892Y-111156418D01*
X186021175Y-111614499D01*
X186618950Y-111862717D01*
X187266211Y-111863282D01*
X187864418Y-111616108D01*
X187927884Y-111552752D01*
X187945673Y-111595698D01*
X188124301Y-111774327D01*
X188357690Y-111871000D01*
X189198250Y-111871000D01*
X189357000Y-111712250D01*
X189357000Y-110363000D01*
X189337000Y-110363000D01*
X189337000Y-110109000D01*
X189357000Y-110109000D01*
X189357000Y-108759750D01*
X189198250Y-108601000D01*
X188357690Y-108601000D01*
X188124301Y-108697673D01*
X187945673Y-108876302D01*
X187928054Y-108918837D01*
X187866825Y-108857501D01*
X187269050Y-108609283D01*
X186621789Y-108608718D01*
X186023582Y-108855892D01*
X185565501Y-109313175D01*
X185317283Y-109910950D01*
X185316718Y-110558211D01*
X169630848Y-110558211D01*
X169554338Y-110173572D01*
X169489141Y-110075998D01*
X169489141Y-104462211D01*
X185316718Y-104462211D01*
X185563892Y-105060418D01*
X186021175Y-105518499D01*
X186618950Y-105766717D01*
X187266211Y-105767282D01*
X187864418Y-105520108D01*
X187927884Y-105456752D01*
X187945673Y-105499698D01*
X188124301Y-105678327D01*
X188357690Y-105775000D01*
X189198250Y-105775000D01*
X189357000Y-105616250D01*
X189357000Y-104267000D01*
X189337000Y-104267000D01*
X189337000Y-104013000D01*
X189357000Y-104013000D01*
X189357000Y-102663750D01*
X189198250Y-102505000D01*
X188357690Y-102505000D01*
X188124301Y-102601673D01*
X187945673Y-102780302D01*
X187928054Y-102822837D01*
X187866825Y-102761501D01*
X187269050Y-102513283D01*
X186621789Y-102512718D01*
X186023582Y-102759892D01*
X185565501Y-103217175D01*
X185317283Y-103814950D01*
X185316718Y-104462211D01*
X169489141Y-104462211D01*
X169489141Y-97716701D01*
X184974762Y-97716701D01*
X185183956Y-98222989D01*
X185570974Y-98610683D01*
X186076896Y-98820760D01*
X186624701Y-98821238D01*
X187130989Y-98612044D01*
X187518683Y-98225026D01*
X187728760Y-97719104D01*
X187729238Y-97171299D01*
X187520044Y-96665011D01*
X187133026Y-96277317D01*
X186627104Y-96067240D01*
X186079299Y-96066762D01*
X185573011Y-96275956D01*
X185185317Y-96662974D01*
X184975240Y-97168896D01*
X184974762Y-97716701D01*
X169489141Y-97716701D01*
X169489141Y-87840141D01*
X169422383Y-87504528D01*
X169422383Y-87504527D01*
X169305698Y-87329896D01*
X169232274Y-87220008D01*
X169232271Y-87220006D01*
X167228133Y-85215867D01*
X166943613Y-85025758D01*
X166608000Y-84959000D01*
X165719484Y-84959000D01*
X165675243Y-84890247D01*
X165607242Y-84843784D01*
X165755327Y-84695698D01*
X165852000Y-84462309D01*
X165852000Y-84121750D01*
X165693250Y-83963000D01*
X164719000Y-83963000D01*
X164719000Y-83983000D01*
X164465000Y-83983000D01*
X164465000Y-83963000D01*
X163490750Y-83963000D01*
X163332000Y-84121750D01*
X163332000Y-84462309D01*
X163428673Y-84695698D01*
X163575695Y-84842721D01*
X163521247Y-84877757D01*
X163465736Y-84959000D01*
X160363717Y-84959000D01*
X159723008Y-84318291D01*
X159723212Y-84085005D01*
X159536806Y-83633869D01*
X159191947Y-83288407D01*
X159002378Y-83209691D01*
X163332000Y-83209691D01*
X163332000Y-83550250D01*
X163490750Y-83709000D01*
X164465000Y-83709000D01*
X164465000Y-82859750D01*
X164719000Y-82859750D01*
X164719000Y-83709000D01*
X165693250Y-83709000D01*
X165852000Y-83550250D01*
X165852000Y-83209691D01*
X165755327Y-82976302D01*
X165576699Y-82797673D01*
X165343310Y-82701000D01*
X164877750Y-82701000D01*
X164719000Y-82859750D01*
X164465000Y-82859750D01*
X164306250Y-82701000D01*
X163840690Y-82701000D01*
X163607301Y-82797673D01*
X163428673Y-82976302D01*
X163332000Y-83209691D01*
X159002378Y-83209691D01*
X158741136Y-83101214D01*
X158253005Y-83100788D01*
X157801869Y-83287194D01*
X157637777Y-83451000D01*
X156682025Y-83451000D01*
X154293000Y-81061974D01*
X154293000Y-80025549D01*
X154427297Y-79891486D01*
X154614490Y-79440675D01*
X154614916Y-78952544D01*
X154428510Y-78501408D01*
X154083651Y-78155946D01*
X153632840Y-77968753D01*
X153144709Y-77968327D01*
X152693573Y-78154733D01*
X152529481Y-78318539D01*
X130592726Y-78318539D01*
X130742131Y-78256806D01*
X131087593Y-77911947D01*
X131274786Y-77461136D01*
X131275212Y-76973005D01*
X131088806Y-76521869D01*
X130743947Y-76176407D01*
X130293136Y-75989214D01*
X129919732Y-75988888D01*
X128745071Y-74814227D01*
X128940001Y-74853001D01*
X129328846Y-74853001D01*
X129328788Y-74918995D01*
X129515194Y-75370131D01*
X129860053Y-75715593D01*
X130310864Y-75902786D01*
X130798995Y-75903212D01*
X131250131Y-75716806D01*
X131595593Y-75371947D01*
X131782786Y-74921136D01*
X131783212Y-74433005D01*
X131596806Y-73981869D01*
X131251947Y-73636407D01*
X130963663Y-73516701D01*
X184974762Y-73516701D01*
X185183956Y-74022989D01*
X185570974Y-74410683D01*
X186076896Y-74620760D01*
X186624701Y-74621238D01*
X187130989Y-74412044D01*
X187518683Y-74025026D01*
X187728760Y-73519104D01*
X187729238Y-72971299D01*
X187520044Y-72465011D01*
X187133026Y-72077317D01*
X186627104Y-71867240D01*
X186079299Y-71866762D01*
X185573011Y-72075956D01*
X185185317Y-72462974D01*
X184975240Y-72968896D01*
X184974762Y-73516701D01*
X130963663Y-73516701D01*
X130801136Y-73449214D01*
X130389100Y-73448854D01*
X130253346Y-73358147D01*
X129956001Y-73299001D01*
X129261845Y-73299001D01*
X124501422Y-68538578D01*
X124249345Y-68370146D01*
X123952000Y-68311000D01*
X95504000Y-68311000D01*
X95206655Y-68370146D01*
X94954578Y-68538578D01*
X93012908Y-70480248D01*
X92844476Y-70732325D01*
X92785330Y-71029670D01*
X92257500Y-71029670D01*
X92257500Y-66613660D01*
X190622300Y-66613660D01*
X190622300Y-102509966D01*
X190622300Y-102509966D01*
G37*
X190622300Y-102509966D02*
X190610310Y-102505000D01*
X189769750Y-102505000D01*
X189611000Y-102663750D01*
X189611000Y-104013000D01*
X189631000Y-104013000D01*
X189631000Y-104267000D01*
X189611000Y-104267000D01*
X189611000Y-105616250D01*
X189769750Y-105775000D01*
X190610310Y-105775000D01*
X190622300Y-105770034D01*
X190622300Y-108605966D01*
X190610310Y-108601000D01*
X189769750Y-108601000D01*
X189611000Y-108759750D01*
X189611000Y-110109000D01*
X189631000Y-110109000D01*
X189631000Y-110363000D01*
X189611000Y-110363000D01*
X189611000Y-111712250D01*
X189769750Y-111871000D01*
X190610310Y-111871000D01*
X190622300Y-111866034D01*
X190622300Y-115209966D01*
X190610310Y-115205000D01*
X189769750Y-115205000D01*
X189611000Y-115363750D01*
X189611000Y-116713000D01*
X189631000Y-116713000D01*
X189631000Y-116967000D01*
X189611000Y-116967000D01*
X189611000Y-118316250D01*
X189769750Y-118475000D01*
X190610310Y-118475000D01*
X190622300Y-118470034D01*
X190622300Y-144978500D01*
X92257500Y-144978500D01*
X92257500Y-139604750D01*
X97843340Y-139604750D01*
X97843340Y-141195370D01*
X97940013Y-141428759D01*
X98118642Y-141607387D01*
X98352031Y-141704060D01*
X99942650Y-141704060D01*
X100101400Y-141545310D01*
X100101400Y-139446000D01*
X100355400Y-139446000D01*
X100355400Y-141545310D01*
X100514150Y-141704060D01*
X102104769Y-141704060D01*
X102338158Y-141607387D01*
X102516787Y-141428759D01*
X102613460Y-141195370D01*
X102613460Y-140036550D01*
X127105410Y-140036550D01*
X127105410Y-140976930D01*
X127202083Y-141210319D01*
X127380712Y-141388947D01*
X127614101Y-141485620D01*
X129254250Y-141485620D01*
X129413000Y-141326870D01*
X129413000Y-139877800D01*
X129667000Y-139877800D01*
X129667000Y-141326870D01*
X129825750Y-141485620D01*
X131465899Y-141485620D01*
X131699288Y-141388947D01*
X131877917Y-141210319D01*
X131974590Y-140976930D01*
X131974590Y-140036550D01*
X131815840Y-139877800D01*
X129667000Y-139877800D01*
X129413000Y-139877800D01*
X127264160Y-139877800D01*
X127105410Y-140036550D01*
X102613460Y-140036550D01*
X102613460Y-139604750D01*
X102454710Y-139446000D01*
X100355400Y-139446000D01*
X100101400Y-139446000D01*
X98002090Y-139446000D01*
X97843340Y-139604750D01*
X92257500Y-139604750D01*
X92257500Y-134905750D01*
X94843600Y-134905750D01*
X94843600Y-136496370D01*
X94940273Y-136729759D01*
X95118902Y-136908387D01*
X95352291Y-137005060D01*
X96942910Y-137005060D01*
X97101660Y-136846310D01*
X97101660Y-134747000D01*
X97355660Y-134747000D01*
X97355660Y-136846310D01*
X97514410Y-137005060D01*
X98180332Y-137005060D01*
X98118642Y-137030613D01*
X97940013Y-137209241D01*
X97843340Y-137442630D01*
X97843340Y-139033250D01*
X98002090Y-139192000D01*
X100101400Y-139192000D01*
X100101400Y-137092690D01*
X100355400Y-137092690D01*
X100355400Y-139192000D01*
X102454710Y-139192000D01*
X102613460Y-139033250D01*
X102613460Y-137937750D01*
X122692000Y-137937750D01*
X122692000Y-138278309D01*
X122788673Y-138511698D01*
X122967301Y-138690327D01*
X123200690Y-138787000D01*
X123666250Y-138787000D01*
X123825000Y-138628250D01*
X123825000Y-137779000D01*
X124079000Y-137779000D01*
X124079000Y-138628250D01*
X124237750Y-138787000D01*
X124703310Y-138787000D01*
X124936699Y-138690327D01*
X125102355Y-138524670D01*
X127105410Y-138524670D01*
X127105410Y-139465050D01*
X127264160Y-139623800D01*
X129413000Y-139623800D01*
X129413000Y-138174730D01*
X129667000Y-138174730D01*
X129667000Y-139623800D01*
X131815840Y-139623800D01*
X131974590Y-139465050D01*
X131974590Y-138969750D01*
X138831320Y-138969750D01*
X138831320Y-139785669D01*
X138927993Y-140019058D01*
X139106621Y-140197687D01*
X139340010Y-140294360D01*
X140430250Y-140294360D01*
X140589000Y-140135610D01*
X140589000Y-138811000D01*
X140843000Y-138811000D01*
X140843000Y-140135610D01*
X141001750Y-140294360D01*
X142091990Y-140294360D01*
X142325379Y-140197687D01*
X142504007Y-140019058D01*
X142600680Y-139785669D01*
X142600680Y-138969750D01*
X142441930Y-138811000D01*
X140843000Y-138811000D01*
X140589000Y-138811000D01*
X138990070Y-138811000D01*
X138831320Y-138969750D01*
X131974590Y-138969750D01*
X131974590Y-138524670D01*
X131877917Y-138291281D01*
X131699288Y-138112653D01*
X131465899Y-138015980D01*
X129825750Y-138015980D01*
X129667000Y-138174730D01*
X129413000Y-138174730D01*
X129254250Y-138015980D01*
X127614101Y-138015980D01*
X127380712Y-138112653D01*
X127202083Y-138291281D01*
X127105410Y-138524670D01*
X125102355Y-138524670D01*
X125115327Y-138511698D01*
X125212000Y-138278309D01*
X125212000Y-137937750D01*
X133868000Y-137937750D01*
X133868000Y-138278309D01*
X133964673Y-138511698D01*
X134143301Y-138690327D01*
X134376690Y-138787000D01*
X134842250Y-138787000D01*
X135001000Y-138628250D01*
X135001000Y-137779000D01*
X135255000Y-137779000D01*
X135255000Y-138628250D01*
X135413750Y-138787000D01*
X135879310Y-138787000D01*
X136112699Y-138690327D01*
X136291327Y-138511698D01*
X136388000Y-138278309D01*
X136388000Y-137937750D01*
X136229250Y-137779000D01*
X135255000Y-137779000D01*
X135001000Y-137779000D01*
X134026750Y-137779000D01*
X133868000Y-137937750D01*
X125212000Y-137937750D01*
X125053250Y-137779000D01*
X124079000Y-137779000D01*
X123825000Y-137779000D01*
X122850750Y-137779000D01*
X122692000Y-137937750D01*
X102613460Y-137937750D01*
X102613460Y-137442630D01*
X102516787Y-137209241D01*
X102338158Y-137030613D01*
X102286808Y-137009343D01*
X104978200Y-137009343D01*
X105210552Y-136965623D01*
X105423953Y-136828303D01*
X105567117Y-136618777D01*
X105617483Y-136370060D01*
X105617483Y-134481000D01*
X113805497Y-134481000D01*
X113805497Y-134618730D01*
X113849217Y-134851082D01*
X113986537Y-135064483D01*
X114196063Y-135207647D01*
X114444780Y-135258013D01*
X117096540Y-135258013D01*
X117328892Y-135214293D01*
X117542293Y-135076973D01*
X117685457Y-134867447D01*
X117735823Y-134618730D01*
X117735823Y-132589270D01*
X117976177Y-132589270D01*
X117976177Y-134618730D01*
X118019897Y-134851082D01*
X118157217Y-135064483D01*
X118366743Y-135207647D01*
X118615460Y-135258013D01*
X121267220Y-135258013D01*
X121499572Y-135214293D01*
X121712973Y-135076973D01*
X121856137Y-134867447D01*
X121906503Y-134618730D01*
X121906503Y-134481000D01*
X122572734Y-134481000D01*
X122842378Y-134750644D01*
X122738083Y-134903283D01*
X122687717Y-135152000D01*
X122687717Y-136152000D01*
X122731437Y-136384352D01*
X122868757Y-136597753D01*
X122936758Y-136644216D01*
X122788673Y-136792302D01*
X122692000Y-137025691D01*
X122692000Y-137366250D01*
X122850750Y-137525000D01*
X123825000Y-137525000D01*
X123825000Y-137505000D01*
X124079000Y-137505000D01*
X124079000Y-137525000D01*
X125053250Y-137525000D01*
X125212000Y-137366250D01*
X125212000Y-137025691D01*
X125115327Y-136792302D01*
X124968305Y-136645279D01*
X125022753Y-136610243D01*
X125165917Y-136400717D01*
X125216283Y-136152000D01*
X125216283Y-135152000D01*
X125172563Y-134919648D01*
X125062954Y-134749312D01*
X125382066Y-134430200D01*
X125979717Y-134430200D01*
X125979717Y-134670800D01*
X126023437Y-134903152D01*
X126160757Y-135116553D01*
X126370283Y-135259717D01*
X126619000Y-135310083D01*
X127838200Y-135310083D01*
X128070552Y-135266363D01*
X128283953Y-135129043D01*
X128376679Y-134993335D01*
X128392073Y-135030499D01*
X128570702Y-135209127D01*
X128804091Y-135305800D01*
X129254250Y-135305800D01*
X129413000Y-135147050D01*
X129413000Y-133680200D01*
X129393000Y-133680200D01*
X129393000Y-133426200D01*
X129413000Y-133426200D01*
X129413000Y-131959350D01*
X129254250Y-131800600D01*
X128804091Y-131800600D01*
X128570702Y-131897273D01*
X128392073Y-132075901D01*
X128376308Y-132113961D01*
X128296443Y-131989847D01*
X128086917Y-131846683D01*
X127838200Y-131796317D01*
X126619000Y-131796317D01*
X126386648Y-131840037D01*
X126173247Y-131977357D01*
X126030083Y-132186883D01*
X125979717Y-132435600D01*
X125979717Y-132676200D01*
X125018800Y-132676200D01*
X124683187Y-132742958D01*
X124398667Y-132933067D01*
X123952000Y-133379734D01*
X123556133Y-132983867D01*
X123271613Y-132793758D01*
X122936000Y-132727000D01*
X121906503Y-132727000D01*
X121906503Y-132589270D01*
X121862783Y-132356918D01*
X121725463Y-132143517D01*
X121515937Y-132000353D01*
X121267220Y-131949987D01*
X118615460Y-131949987D01*
X118383108Y-131993707D01*
X118169707Y-132131027D01*
X118026543Y-132340553D01*
X117976177Y-132589270D01*
X117735823Y-132589270D01*
X117692103Y-132356918D01*
X117554783Y-132143517D01*
X117345257Y-132000353D01*
X117096540Y-131949987D01*
X114444780Y-131949987D01*
X114212428Y-131993707D01*
X113999027Y-132131027D01*
X113855863Y-132340553D01*
X113805497Y-132589270D01*
X113805497Y-132727000D01*
X105590587Y-132727000D01*
X105573763Y-132637588D01*
X105436443Y-132424187D01*
X105226917Y-132281023D01*
X104978200Y-132230657D01*
X101478080Y-132230657D01*
X101245728Y-132274377D01*
X101032327Y-132411697D01*
X100889163Y-132621223D01*
X100838797Y-132869940D01*
X100838797Y-136370060D01*
X100882517Y-136602412D01*
X101019837Y-136815813D01*
X101192720Y-136933940D01*
X100514150Y-136933940D01*
X100355400Y-137092690D01*
X100101400Y-137092690D01*
X99942650Y-136933940D01*
X99276728Y-136933940D01*
X99338418Y-136908387D01*
X99517047Y-136729759D01*
X99613720Y-136496370D01*
X99613720Y-134905750D01*
X99454970Y-134747000D01*
X97355660Y-134747000D01*
X97101660Y-134747000D01*
X95002350Y-134747000D01*
X94843600Y-134905750D01*
X92257500Y-134905750D01*
X92257500Y-132743630D01*
X94843600Y-132743630D01*
X94843600Y-134334250D01*
X95002350Y-134493000D01*
X97101660Y-134493000D01*
X97101660Y-132393690D01*
X97355660Y-132393690D01*
X97355660Y-134493000D01*
X99454970Y-134493000D01*
X99613720Y-134334250D01*
X99613720Y-132743630D01*
X99517047Y-132510241D01*
X99338418Y-132331613D01*
X99105029Y-132234940D01*
X97514410Y-132234940D01*
X97355660Y-132393690D01*
X97101660Y-132393690D01*
X96942910Y-132234940D01*
X95352291Y-132234940D01*
X95118902Y-132331613D01*
X94940273Y-132510241D01*
X94843600Y-132743630D01*
X92257500Y-132743630D01*
X92257500Y-124729750D01*
X106944000Y-124729750D01*
X106944000Y-125070309D01*
X107040673Y-125303698D01*
X107219301Y-125482327D01*
X107452690Y-125579000D01*
X107918250Y-125579000D01*
X108077000Y-125420250D01*
X108077000Y-124571000D01*
X108331000Y-124571000D01*
X108331000Y-125420250D01*
X108489750Y-125579000D01*
X108955310Y-125579000D01*
X109188699Y-125482327D01*
X109367327Y-125303698D01*
X109464000Y-125070309D01*
X109464000Y-124729750D01*
X109305250Y-124571000D01*
X108331000Y-124571000D01*
X108077000Y-124571000D01*
X107102750Y-124571000D01*
X106944000Y-124729750D01*
X92257500Y-124729750D01*
X92257500Y-123689025D01*
X92568381Y-123689025D01*
X92685401Y-123971446D01*
X93349463Y-124223018D01*
X94059248Y-124201314D01*
X94614199Y-123971446D01*
X94731219Y-123689025D01*
X97648381Y-123689025D01*
X97765401Y-123971446D01*
X98429463Y-124223018D01*
X99139248Y-124201314D01*
X99694199Y-123971446D01*
X99811219Y-123689025D01*
X98729800Y-122607605D01*
X97648381Y-123689025D01*
X94731219Y-123689025D01*
X93649800Y-122607605D01*
X92568381Y-123689025D01*
X92257500Y-123689025D01*
X92257500Y-123455026D01*
X92388775Y-123509419D01*
X93470195Y-122428000D01*
X92388775Y-121346581D01*
X92257500Y-121400974D01*
X92257500Y-118609025D01*
X92568381Y-118609025D01*
X92685401Y-118891446D01*
X93349463Y-119143018D01*
X94059248Y-119121314D01*
X94614199Y-118891446D01*
X94731218Y-118609026D01*
X94843389Y-118721197D01*
X94684212Y-118880096D01*
X94413110Y-119532982D01*
X94412493Y-120239916D01*
X94682455Y-120893274D01*
X94843546Y-121054646D01*
X94731218Y-121166974D01*
X94614199Y-120884554D01*
X93950137Y-120632982D01*
X93240352Y-120654686D01*
X92685401Y-120884554D01*
X92568381Y-121166975D01*
X93649800Y-122248395D01*
X93663942Y-122234252D01*
X93843548Y-122413858D01*
X93829405Y-122428000D01*
X94910825Y-123509419D01*
X95193246Y-123392399D01*
X95444818Y-122728337D01*
X95423114Y-122018552D01*
X95193246Y-121463601D01*
X94910826Y-121346582D01*
X95022997Y-121234411D01*
X95181896Y-121393588D01*
X95834782Y-121664690D01*
X96541716Y-121665307D01*
X97195074Y-121395345D01*
X97356446Y-121234254D01*
X97468774Y-121346582D01*
X97186354Y-121463601D01*
X96934782Y-122127663D01*
X96956486Y-122837448D01*
X97186354Y-123392399D01*
X97468775Y-123509419D01*
X98550195Y-122428000D01*
X98909405Y-122428000D01*
X99990825Y-123509419D01*
X100273246Y-123392399D01*
X100524818Y-122728337D01*
X100503114Y-122018552D01*
X100273246Y-121463601D01*
X99990825Y-121346581D01*
X98909405Y-122428000D01*
X98550195Y-122428000D01*
X98536052Y-122413858D01*
X98715658Y-122234252D01*
X98729800Y-122248395D01*
X99811219Y-121166975D01*
X99694199Y-120884554D01*
X99246636Y-120715000D01*
X100445437Y-120715000D01*
X100761916Y-120652048D01*
X101030214Y-120472777D01*
X102500200Y-119002791D01*
X102800591Y-119003053D01*
X103251727Y-118816647D01*
X103597189Y-118471788D01*
X103784382Y-118020977D01*
X103784808Y-117532846D01*
X103598402Y-117081710D01*
X103253543Y-116736248D01*
X102802732Y-116549055D01*
X102314601Y-116548629D01*
X101863465Y-116735035D01*
X101518003Y-117079894D01*
X101330810Y-117530705D01*
X101330546Y-117833337D01*
X100102883Y-119061000D01*
X99284859Y-119061000D01*
X99694199Y-118891446D01*
X99811219Y-118609025D01*
X98729800Y-117527605D01*
X98715658Y-117541748D01*
X98536052Y-117362142D01*
X98550195Y-117348000D01*
X98909405Y-117348000D01*
X99990825Y-118429419D01*
X100273246Y-118312399D01*
X100524818Y-117648337D01*
X100503114Y-116938552D01*
X100273246Y-116383601D01*
X99990825Y-116266581D01*
X98909405Y-117348000D01*
X98550195Y-117348000D01*
X97468775Y-116266581D01*
X97186354Y-116383601D01*
X96934782Y-117047663D01*
X96956486Y-117757448D01*
X97186354Y-118312399D01*
X97468774Y-118429418D01*
X97356603Y-118541589D01*
X97197704Y-118382412D01*
X96544818Y-118111310D01*
X95837884Y-118110693D01*
X95184526Y-118380655D01*
X95023154Y-118541746D01*
X94910826Y-118429418D01*
X95193246Y-118312399D01*
X95444818Y-117648337D01*
X95423114Y-116938552D01*
X95193246Y-116383601D01*
X94910825Y-116266581D01*
X93829405Y-117348000D01*
X93843548Y-117362142D01*
X93663942Y-117541748D01*
X93649800Y-117527605D01*
X92568381Y-118609025D01*
X92257500Y-118609025D01*
X92257500Y-118375026D01*
X92388775Y-118429419D01*
X93470195Y-117348000D01*
X92388775Y-116266581D01*
X92257500Y-116320974D01*
X92257500Y-116086975D01*
X92568381Y-116086975D01*
X93649800Y-117168395D01*
X94731219Y-116086975D01*
X97648381Y-116086975D01*
X98729800Y-117168395D01*
X99811219Y-116086975D01*
X99694199Y-115804554D01*
X99030137Y-115552982D01*
X98320352Y-115574686D01*
X97765401Y-115804554D01*
X97648381Y-116086975D01*
X94731219Y-116086975D01*
X94614199Y-115804554D01*
X93950137Y-115552982D01*
X93240352Y-115574686D01*
X92685401Y-115804554D01*
X92568381Y-116086975D01*
X92257500Y-116086975D01*
X92257500Y-104893025D01*
X92568381Y-104893025D01*
X92685401Y-105175446D01*
X93349463Y-105427018D01*
X94059248Y-105405314D01*
X94614199Y-105175446D01*
X94731219Y-104893025D01*
X97648381Y-104893025D01*
X97765401Y-105175446D01*
X98429463Y-105427018D01*
X99139248Y-105405314D01*
X99694199Y-105175446D01*
X99811219Y-104893025D01*
X98729800Y-103811605D01*
X97648381Y-104893025D01*
X94731219Y-104893025D01*
X93649800Y-103811605D01*
X92568381Y-104893025D01*
X92257500Y-104893025D01*
X92257500Y-104659026D01*
X92388775Y-104713419D01*
X93470195Y-103632000D01*
X92388775Y-102550581D01*
X92257500Y-102604974D01*
X92257500Y-99813025D01*
X92568381Y-99813025D01*
X92685401Y-100095446D01*
X93349463Y-100347018D01*
X94059248Y-100325314D01*
X94614199Y-100095446D01*
X94731218Y-99813026D01*
X94843389Y-99925197D01*
X94684212Y-100084096D01*
X94413110Y-100736982D01*
X94412493Y-101443916D01*
X94682455Y-102097274D01*
X94843546Y-102258646D01*
X94731218Y-102370974D01*
X94614199Y-102088554D01*
X93950137Y-101836982D01*
X93240352Y-101858686D01*
X92685401Y-102088554D01*
X92568381Y-102370975D01*
X93649800Y-103452395D01*
X93663942Y-103438252D01*
X93843548Y-103617858D01*
X93829405Y-103632000D01*
X94910825Y-104713419D01*
X95193246Y-104596399D01*
X95444818Y-103932337D01*
X95423114Y-103222552D01*
X95193246Y-102667601D01*
X94910826Y-102550582D01*
X95022997Y-102438411D01*
X95181896Y-102597588D01*
X95834782Y-102868690D01*
X96541716Y-102869307D01*
X97195074Y-102599345D01*
X97356446Y-102438254D01*
X97468774Y-102550582D01*
X97186354Y-102667601D01*
X96934782Y-103331663D01*
X96956486Y-104041448D01*
X97186354Y-104596399D01*
X97468775Y-104713419D01*
X98550195Y-103632000D01*
X98536052Y-103617858D01*
X98715658Y-103438252D01*
X98729800Y-103452395D01*
X99811219Y-102370975D01*
X99694199Y-102088554D01*
X99030137Y-101836982D01*
X98320352Y-101858686D01*
X97765401Y-102088554D01*
X97648382Y-102370974D01*
X97536211Y-102258803D01*
X97695388Y-102099904D01*
X97966490Y-101447018D01*
X97967107Y-100740084D01*
X97697145Y-100086726D01*
X97536054Y-99925354D01*
X97648382Y-99813026D01*
X97765401Y-100095446D01*
X98429463Y-100347018D01*
X99139248Y-100325314D01*
X99694199Y-100095446D01*
X99811219Y-99813025D01*
X98729800Y-98731605D01*
X98715658Y-98745748D01*
X98536052Y-98566142D01*
X98550195Y-98552000D01*
X98909405Y-98552000D01*
X99990825Y-99633419D01*
X100273246Y-99516399D01*
X100524818Y-98852337D01*
X100503114Y-98142552D01*
X100273246Y-97587601D01*
X99990825Y-97470581D01*
X98909405Y-98552000D01*
X98550195Y-98552000D01*
X97468775Y-97470581D01*
X97186354Y-97587601D01*
X97016800Y-98035164D01*
X97016800Y-97290975D01*
X97648381Y-97290975D01*
X98729800Y-98372395D01*
X99811219Y-97290975D01*
X99694199Y-97008554D01*
X99030137Y-96756982D01*
X98320352Y-96778686D01*
X97765401Y-97008554D01*
X97648381Y-97290975D01*
X97016800Y-97290975D01*
X97016800Y-96118342D01*
X97214131Y-96036806D01*
X97559593Y-95691947D01*
X97746786Y-95241136D01*
X97747212Y-94753005D01*
X97560806Y-94301869D01*
X97215947Y-93956407D01*
X96765136Y-93769214D01*
X96277005Y-93768788D01*
X95825869Y-93955194D01*
X95480407Y-94300053D01*
X95293214Y-94750864D01*
X95292788Y-95238995D01*
X95362800Y-95408437D01*
X95362800Y-97996941D01*
X95193246Y-97587601D01*
X94910825Y-97470581D01*
X93829405Y-98552000D01*
X93843548Y-98566142D01*
X93663942Y-98745748D01*
X93649800Y-98731605D01*
X92568381Y-99813025D01*
X92257500Y-99813025D01*
X92257500Y-99579026D01*
X92388775Y-99633419D01*
X93470195Y-98552000D01*
X92388775Y-97470581D01*
X92257500Y-97524974D01*
X92257500Y-97290975D01*
X92568381Y-97290975D01*
X93649800Y-98372395D01*
X94731219Y-97290975D01*
X94614199Y-97008554D01*
X93950137Y-96756982D01*
X93240352Y-96778686D01*
X92685401Y-97008554D01*
X92568381Y-97290975D01*
X92257500Y-97290975D01*
X92257500Y-71029670D01*
X92785330Y-71029670D01*
X92785330Y-80354330D01*
X92844476Y-80651675D01*
X93012908Y-80903752D01*
X95919000Y-83809844D01*
X95919000Y-83883358D01*
X95449104Y-83688240D01*
X94901299Y-83687762D01*
X94395011Y-83896956D01*
X94007317Y-84283974D01*
X93797240Y-84789896D01*
X93796762Y-85337701D01*
X94005956Y-85843989D01*
X94285000Y-86123520D01*
X94285000Y-89303690D01*
X94266247Y-89315757D01*
X94123083Y-89525283D01*
X94072717Y-89774000D01*
X94072717Y-91074000D01*
X94116437Y-91306352D01*
X94253757Y-91519753D01*
X94463283Y-91662917D01*
X94712000Y-91713283D01*
X95412000Y-91713283D01*
X95644352Y-91669563D01*
X95857753Y-91532243D01*
X96000917Y-91322717D01*
X96009712Y-91279284D01*
X96073673Y-91433699D01*
X96252302Y-91612327D01*
X96485691Y-91709000D01*
X96676250Y-91709000D01*
X96835000Y-91550250D01*
X96835000Y-90551000D01*
X97089000Y-90551000D01*
X97089000Y-91550250D01*
X97247750Y-91709000D01*
X97438309Y-91709000D01*
X97671698Y-91612327D01*
X97850327Y-91433699D01*
X97947000Y-91200310D01*
X97947000Y-90709750D01*
X97788250Y-90551000D01*
X97089000Y-90551000D01*
X96835000Y-90551000D01*
X96815000Y-90551000D01*
X96815000Y-90363320D01*
X101970285Y-90363320D01*
X102099533Y-90656123D01*
X102799806Y-90924388D01*
X103549435Y-90904250D01*
X104148467Y-90656123D01*
X104277715Y-90363320D01*
X103124000Y-89209605D01*
X101970285Y-90363320D01*
X96815000Y-90363320D01*
X96815000Y-90297000D01*
X96835000Y-90297000D01*
X96835000Y-89297750D01*
X97089000Y-89297750D01*
X97089000Y-90297000D01*
X97788250Y-90297000D01*
X97947000Y-90138250D01*
X97947000Y-89647690D01*
X97850327Y-89414301D01*
X97671698Y-89235673D01*
X97438309Y-89139000D01*
X97247750Y-89139000D01*
X97089000Y-89297750D01*
X96835000Y-89297750D01*
X96676250Y-89139000D01*
X96485691Y-89139000D01*
X96252302Y-89235673D01*
X96073673Y-89414301D01*
X96011737Y-89563829D01*
X96007563Y-89541648D01*
X95870243Y-89328247D01*
X95839000Y-89306899D01*
X95839000Y-88697580D01*
X95912974Y-88771683D01*
X96418896Y-88981760D01*
X96966701Y-88982238D01*
X97472989Y-88773044D01*
X97860683Y-88386026D01*
X98036822Y-87961837D01*
X98163734Y-88268989D01*
X98796679Y-88903039D01*
X99624084Y-89246608D01*
X100519985Y-89247390D01*
X101236211Y-88951452D01*
X101249750Y-89455435D01*
X101497877Y-90054467D01*
X101790680Y-90183715D01*
X102944395Y-89030000D01*
X103303605Y-89030000D01*
X104457320Y-90183715D01*
X104750123Y-90054467D01*
X105018388Y-89354194D01*
X104998250Y-88604565D01*
X104750123Y-88005533D01*
X104457320Y-87876285D01*
X103303605Y-89030000D01*
X102944395Y-89030000D01*
X102930253Y-89015858D01*
X103109858Y-88836253D01*
X103124000Y-88850395D01*
X104277715Y-87696680D01*
X104148467Y-87403877D01*
X103448194Y-87135612D01*
X102698565Y-87155750D01*
X102325726Y-87310185D01*
X102326292Y-86660275D01*
X108198331Y-86660275D01*
X108260169Y-86896042D01*
X108761122Y-87072419D01*
X109291440Y-87043664D01*
X109647831Y-86896042D01*
X109709669Y-86660275D01*
X108954000Y-85904605D01*
X108198331Y-86660275D01*
X102326292Y-86660275D01*
X102326390Y-86549015D01*
X101984266Y-85721011D01*
X101351321Y-85086961D01*
X100523916Y-84743392D01*
X99628015Y-84742610D01*
X98800011Y-85084734D01*
X98165961Y-85717679D01*
X97822392Y-86545084D01*
X97822182Y-86786079D01*
X97475026Y-86438317D01*
X97473000Y-86437476D01*
X97473000Y-83488000D01*
X97413854Y-83190655D01*
X97245422Y-82938578D01*
X94339330Y-80032486D01*
X94339330Y-77767701D01*
X95316762Y-77767701D01*
X95525956Y-78273989D01*
X95912974Y-78661683D01*
X96418896Y-78871760D01*
X96966701Y-78872238D01*
X97472989Y-78663044D01*
X97860683Y-78276026D01*
X98070760Y-77770104D01*
X98071238Y-77222299D01*
X98070158Y-77219686D01*
X98151422Y-77138422D01*
X98276211Y-76951662D01*
X98796679Y-77473039D01*
X99624084Y-77816608D01*
X100519985Y-77817390D01*
X101347989Y-77475266D01*
X101982039Y-76842321D01*
X102325608Y-76014916D01*
X102326282Y-75242987D01*
X102799806Y-75424388D01*
X103549435Y-75404250D01*
X104148467Y-75156123D01*
X104277715Y-74863320D01*
X103124000Y-73709605D01*
X103109858Y-73723748D01*
X102930253Y-73544143D01*
X102944395Y-73530000D01*
X103303605Y-73530000D01*
X104457320Y-74683715D01*
X104750123Y-74554467D01*
X105018388Y-73854194D01*
X104998250Y-73104565D01*
X104750123Y-72505533D01*
X104457320Y-72376285D01*
X103303605Y-73530000D01*
X102944395Y-73530000D01*
X101790680Y-72376285D01*
X101497877Y-72505533D01*
X101229612Y-73205806D01*
X101240496Y-73610942D01*
X100523916Y-73313392D01*
X100222896Y-73313129D01*
X100390327Y-73145699D01*
X100487000Y-72912310D01*
X100487000Y-72421750D01*
X100328250Y-72263000D01*
X99629000Y-72263000D01*
X99629000Y-72283000D01*
X99375000Y-72283000D01*
X99375000Y-72263000D01*
X99355000Y-72263000D01*
X99355000Y-72196680D01*
X101970285Y-72196680D01*
X103124000Y-73350395D01*
X104277715Y-72196680D01*
X104148467Y-71903877D01*
X103448194Y-71635612D01*
X102698565Y-71655750D01*
X102099533Y-71903877D01*
X101970285Y-72196680D01*
X99355000Y-72196680D01*
X99355000Y-72009000D01*
X99375000Y-72009000D01*
X99375000Y-71009750D01*
X99629000Y-71009750D01*
X99629000Y-72009000D01*
X100328250Y-72009000D01*
X100487000Y-71850250D01*
X100487000Y-71359690D01*
X100390327Y-71126301D01*
X100211698Y-70947673D01*
X99978309Y-70851000D01*
X99787750Y-70851000D01*
X99629000Y-71009750D01*
X99375000Y-71009750D01*
X99216250Y-70851000D01*
X99025691Y-70851000D01*
X98792302Y-70947673D01*
X98613673Y-71126301D01*
X98551737Y-71275829D01*
X98547563Y-71253648D01*
X98410243Y-71040247D01*
X98200717Y-70897083D01*
X97952000Y-70846717D01*
X97252000Y-70846717D01*
X97019648Y-70890437D01*
X96806247Y-71027757D01*
X96663083Y-71237283D01*
X96612717Y-71486000D01*
X96612717Y-72786000D01*
X96656437Y-73018352D01*
X96793757Y-73231753D01*
X96825000Y-73253101D01*
X96825000Y-76118114D01*
X96421299Y-76117762D01*
X95915011Y-76326956D01*
X95527317Y-76713974D01*
X95317240Y-77219896D01*
X95316762Y-77767701D01*
X94339330Y-77767701D01*
X94339330Y-76067945D01*
X94392974Y-76121683D01*
X94898896Y-76331760D01*
X95446701Y-76332238D01*
X95952989Y-76123044D01*
X96340683Y-75736026D01*
X96550760Y-75230104D01*
X96551238Y-74682299D01*
X96342044Y-74176011D01*
X95955026Y-73788317D01*
X95951000Y-73786645D01*
X95951000Y-71263844D01*
X96841844Y-70373000D01*
X122106156Y-70373000D01*
X128821112Y-77087956D01*
X128820788Y-77458995D01*
X129007194Y-77910131D01*
X129352053Y-78255593D01*
X129503644Y-78318539D01*
X127929291Y-78318539D01*
X127593677Y-78385297D01*
X127479715Y-78461444D01*
X127309158Y-78575406D01*
X127309156Y-78575409D01*
X127306503Y-78578061D01*
X127076762Y-78577861D01*
X126625626Y-78764267D01*
X126280164Y-79109126D01*
X126253000Y-79174544D01*
X126253000Y-78232000D01*
X126193854Y-77934655D01*
X126025422Y-77682578D01*
X124501422Y-76158578D01*
X124249345Y-75990146D01*
X123952000Y-75931000D01*
X116274082Y-75931000D01*
X116011947Y-75668407D01*
X115561136Y-75481214D01*
X115073005Y-75480788D01*
X114621869Y-75667194D01*
X114357602Y-75931000D01*
X110353000Y-75931000D01*
X110055655Y-75990146D01*
X109803578Y-76158578D01*
X109183956Y-76778200D01*
X108691202Y-76777771D01*
X108203297Y-76979369D01*
X107829681Y-77352334D01*
X107627231Y-77839885D01*
X107626771Y-78367798D01*
X107828369Y-78855703D01*
X108201334Y-79229319D01*
X108552433Y-79375109D01*
X108203297Y-79519369D01*
X107829681Y-79892334D01*
X107627231Y-80379885D01*
X107627146Y-80477251D01*
X107407826Y-80257931D01*
X107538319Y-80127666D01*
X107740769Y-79640115D01*
X107741229Y-79112202D01*
X107539631Y-78624297D01*
X107166666Y-78250681D01*
X106815567Y-78104891D01*
X107164703Y-77960631D01*
X107538319Y-77587666D01*
X107740769Y-77100115D01*
X107741197Y-76608647D01*
X110420844Y-73929000D01*
X115373918Y-73929000D01*
X115636053Y-74191593D01*
X116086864Y-74378786D01*
X116574995Y-74379212D01*
X117026131Y-74192806D01*
X117371593Y-73847947D01*
X117558786Y-73397136D01*
X117559212Y-72909005D01*
X117372806Y-72457869D01*
X117027947Y-72112407D01*
X116577136Y-71925214D01*
X116089005Y-71924788D01*
X115637869Y-72111194D01*
X115373602Y-72375000D01*
X110099000Y-72375000D01*
X109801655Y-72434146D01*
X109694817Y-72505533D01*
X109549578Y-72602578D01*
X106643956Y-75508200D01*
X106151202Y-75507771D01*
X105663297Y-75709369D01*
X105289681Y-76082334D01*
X105087231Y-76569885D01*
X105086771Y-77097798D01*
X105288369Y-77585703D01*
X105661334Y-77959319D01*
X106012433Y-78105109D01*
X105663297Y-78249369D01*
X105289681Y-78622334D01*
X105087231Y-79109885D01*
X105086771Y-79637798D01*
X105288369Y-80125703D01*
X105661334Y-80499319D01*
X105666124Y-80501308D01*
X105698146Y-80662294D01*
X105757145Y-80750592D01*
X105663297Y-80789369D01*
X105289681Y-81162334D01*
X105087231Y-81649885D01*
X105086771Y-82177798D01*
X105288369Y-82665703D01*
X105661334Y-83039319D01*
X106012433Y-83185109D01*
X105663297Y-83329369D01*
X105289681Y-83702334D01*
X105087231Y-84189885D01*
X105086771Y-84717798D01*
X105288369Y-85205703D01*
X105661334Y-85579319D01*
X106148885Y-85781769D01*
X106676798Y-85782229D01*
X107164703Y-85580631D01*
X107213296Y-85532122D01*
X107606581Y-85532122D01*
X107635336Y-86062440D01*
X107782958Y-86418831D01*
X108018725Y-86480669D01*
X108774395Y-85725000D01*
X109133605Y-85725000D01*
X109889275Y-86480669D01*
X110125042Y-86418831D01*
X110301419Y-85917878D01*
X110272664Y-85387560D01*
X110125042Y-85031169D01*
X109889275Y-84969331D01*
X109133605Y-85725000D01*
X108774395Y-85725000D01*
X108018725Y-84969331D01*
X107782958Y-85031169D01*
X107606581Y-85532122D01*
X107213296Y-85532122D01*
X107538319Y-85207666D01*
X107740769Y-84720115D01*
X107741229Y-84192202D01*
X107539631Y-83704297D01*
X107166666Y-83330681D01*
X106815567Y-83184891D01*
X107164703Y-83040631D01*
X107538319Y-82667666D01*
X107581729Y-82563124D01*
X107633705Y-82597853D01*
X107751243Y-82621233D01*
X107627231Y-82919885D01*
X107626771Y-83447798D01*
X107828369Y-83935703D01*
X108201334Y-84309319D01*
X108525656Y-84443990D01*
X108260169Y-84553958D01*
X108198331Y-84789725D01*
X108954000Y-85545395D01*
X109709669Y-84789725D01*
X109647831Y-84553958D01*
X109360577Y-84452821D01*
X109704703Y-84310631D01*
X110053943Y-83962000D01*
X114359156Y-83962000D01*
X114597112Y-84199956D01*
X114596788Y-84570995D01*
X114783194Y-85022131D01*
X115128053Y-85367593D01*
X115578864Y-85554786D01*
X116066995Y-85555212D01*
X116518131Y-85368806D01*
X116863593Y-85023947D01*
X117050786Y-84573136D01*
X117051212Y-84085005D01*
X116864806Y-83633869D01*
X116519947Y-83288407D01*
X116069136Y-83101214D01*
X115695732Y-83100888D01*
X115247224Y-82652380D01*
X115521346Y-82597853D01*
X115657535Y-82506855D01*
X115952268Y-82507112D01*
X119848594Y-86403438D01*
X120100671Y-86571870D01*
X120398016Y-86631016D01*
X122418007Y-86631016D01*
X122680142Y-86893609D01*
X123130953Y-87080802D01*
X123619084Y-87081228D01*
X124070220Y-86894822D01*
X124415682Y-86549963D01*
X124602875Y-86099152D01*
X124603301Y-85611021D01*
X124416895Y-85159885D01*
X124124118Y-84866596D01*
X124138131Y-84860806D01*
X124483593Y-84515947D01*
X124670786Y-84065136D01*
X124671212Y-83577005D01*
X124484806Y-83125869D01*
X124221000Y-82861602D01*
X124221000Y-82109844D01*
X126025422Y-80305422D01*
X126132603Y-80145015D01*
X126278951Y-80499204D01*
X126623810Y-80844666D01*
X127074621Y-81031859D01*
X127086539Y-81031869D01*
X127086539Y-89605196D01*
X120421946Y-96269788D01*
X105930676Y-96269788D01*
X105768367Y-96107195D01*
X105317556Y-95920002D01*
X104829425Y-95919576D01*
X104378289Y-96105982D01*
X104032827Y-96450841D01*
X103845634Y-96901652D01*
X103845432Y-97133511D01*
X100595468Y-100383474D01*
X100405359Y-100667994D01*
X100338601Y-101003607D01*
X100338601Y-102825382D01*
X100273246Y-102667601D01*
X99990825Y-102550581D01*
X98909405Y-103632000D01*
X99990825Y-104713419D01*
X100273246Y-104596399D01*
X100338601Y-104423885D01*
X100338601Y-111883601D01*
X100405359Y-112219214D01*
X100595468Y-112503734D01*
X104787000Y-116695266D01*
X104787000Y-118013744D01*
X104624407Y-118176053D01*
X104437214Y-118626864D01*
X104436788Y-119114995D01*
X104623194Y-119566131D01*
X104968053Y-119911593D01*
X105418864Y-120098786D01*
X105650723Y-120098988D01*
X107094378Y-121542643D01*
X106990083Y-121695283D01*
X106939717Y-121944000D01*
X106939717Y-122944000D01*
X106983437Y-123176352D01*
X107120757Y-123389753D01*
X107188758Y-123436216D01*
X107040673Y-123584302D01*
X106944000Y-123817691D01*
X106944000Y-124158250D01*
X107102750Y-124317000D01*
X108077000Y-124317000D01*
X108077000Y-124297000D01*
X108331000Y-124297000D01*
X108331000Y-124317000D01*
X109305250Y-124317000D01*
X109464000Y-124158250D01*
X109464000Y-123817691D01*
X109367327Y-123584302D01*
X109220305Y-123437279D01*
X109274753Y-123402243D01*
X109330264Y-123321000D01*
X122588734Y-123321000D01*
X130974400Y-131706666D01*
X130974400Y-131862590D01*
X130796047Y-131977357D01*
X130703321Y-132113065D01*
X130687927Y-132075901D01*
X130509298Y-131897273D01*
X130275909Y-131800600D01*
X129825750Y-131800600D01*
X129667000Y-131959350D01*
X129667000Y-133426200D01*
X129687000Y-133426200D01*
X129687000Y-133680200D01*
X129667000Y-133680200D01*
X129667000Y-135147050D01*
X129825750Y-135305800D01*
X130275909Y-135305800D01*
X130509298Y-135209127D01*
X130687927Y-135030499D01*
X130703692Y-134992439D01*
X130783557Y-135116553D01*
X130993083Y-135259717D01*
X131241800Y-135310083D01*
X132461000Y-135310083D01*
X132693352Y-135266363D01*
X132906753Y-135129043D01*
X133049917Y-134919517D01*
X133100283Y-134670800D01*
X133100283Y-134430200D01*
X134205934Y-134430200D01*
X134251000Y-134475265D01*
X134251000Y-134569080D01*
X134057247Y-134693757D01*
X133914083Y-134903283D01*
X133863717Y-135152000D01*
X133863717Y-136152000D01*
X133907437Y-136384352D01*
X134044757Y-136597753D01*
X134112758Y-136644216D01*
X133964673Y-136792302D01*
X133868000Y-137025691D01*
X133868000Y-137366250D01*
X134026750Y-137525000D01*
X135001000Y-137525000D01*
X135001000Y-137505000D01*
X135255000Y-137505000D01*
X135255000Y-137525000D01*
X136229250Y-137525000D01*
X136388000Y-137366250D01*
X136388000Y-137025691D01*
X136291327Y-136792302D01*
X136144305Y-136645279D01*
X136198753Y-136610243D01*
X136254264Y-136529000D01*
X138827037Y-136529000D01*
X138827037Y-136611360D01*
X138870757Y-136843712D01*
X139008077Y-137057113D01*
X139148414Y-137153002D01*
X139106621Y-137170313D01*
X138927993Y-137348942D01*
X138831320Y-137582331D01*
X138831320Y-138398250D01*
X138990070Y-138557000D01*
X140589000Y-138557000D01*
X140589000Y-138537000D01*
X140843000Y-138537000D01*
X140843000Y-138557000D01*
X142441930Y-138557000D01*
X142600680Y-138398250D01*
X142600680Y-137582331D01*
X142504007Y-137348942D01*
X142325379Y-137170313D01*
X142282516Y-137152559D01*
X142411433Y-137069603D01*
X142554597Y-136860077D01*
X142604963Y-136611360D01*
X142604963Y-136513000D01*
X145445744Y-136513000D01*
X145608053Y-136675593D01*
X146058864Y-136862786D01*
X146295044Y-136862992D01*
X149310183Y-139878130D01*
X149310185Y-139878133D01*
X149547274Y-140036550D01*
X149594705Y-140068242D01*
X149930318Y-140135001D01*
X149930323Y-140135000D01*
X166482607Y-140135000D01*
X166556784Y-140246013D01*
X167040369Y-140569135D01*
X167610797Y-140682600D01*
X167669203Y-140682600D01*
X167853646Y-140645912D01*
X168901707Y-141693972D01*
X168901709Y-141693975D01*
X169017393Y-141771272D01*
X169186228Y-141884084D01*
X169521842Y-141950842D01*
X172349540Y-141950842D01*
X172685153Y-141884084D01*
X172969673Y-141693975D01*
X172969674Y-141693974D01*
X174197037Y-140466610D01*
X184301228Y-140466610D01*
X184548325Y-141064629D01*
X185005464Y-141522567D01*
X185603052Y-141770707D01*
X186250110Y-141771272D01*
X186848129Y-141524175D01*
X187306067Y-141067036D01*
X187554207Y-140469448D01*
X187554656Y-139955518D01*
X187560623Y-139961485D01*
X187675676Y-139846432D01*
X187743735Y-140087431D01*
X188263034Y-140272267D01*
X188813538Y-140244305D01*
X189192265Y-140087431D01*
X189260325Y-139846430D01*
X188468000Y-139054105D01*
X188453858Y-139068248D01*
X188274253Y-138888643D01*
X188288395Y-138874500D01*
X188647605Y-138874500D01*
X189439930Y-139666825D01*
X189680931Y-139598765D01*
X189865767Y-139079466D01*
X189837805Y-138528962D01*
X189680931Y-138150235D01*
X189439930Y-138082175D01*
X188647605Y-138874500D01*
X188288395Y-138874500D01*
X187496070Y-138082175D01*
X187255069Y-138150235D01*
X187070233Y-138669534D01*
X187087197Y-139003507D01*
X186850536Y-138766433D01*
X186252948Y-138518293D01*
X185605890Y-138517728D01*
X185007871Y-138764825D01*
X184549933Y-139221964D01*
X184301793Y-139819552D01*
X184301228Y-140466610D01*
X174197037Y-140466610D01*
X175676647Y-138987000D01*
X176302665Y-138987000D01*
X176393283Y-139048917D01*
X176642000Y-139099283D01*
X177942000Y-139099283D01*
X178174352Y-139055563D01*
X178387753Y-138918243D01*
X178530917Y-138708717D01*
X178581283Y-138460000D01*
X178581283Y-138445750D01*
X179588000Y-138445750D01*
X179588000Y-138786309D01*
X179684673Y-139019698D01*
X179863301Y-139198327D01*
X180096690Y-139295000D01*
X180562250Y-139295000D01*
X180721000Y-139136250D01*
X180721000Y-138287000D01*
X180975000Y-138287000D01*
X180975000Y-139136250D01*
X181133750Y-139295000D01*
X181599310Y-139295000D01*
X181832699Y-139198327D01*
X182011327Y-139019698D01*
X182108000Y-138786309D01*
X182108000Y-138445750D01*
X181949250Y-138287000D01*
X180975000Y-138287000D01*
X180721000Y-138287000D01*
X179746750Y-138287000D01*
X179588000Y-138445750D01*
X178581283Y-138445750D01*
X178581283Y-137760000D01*
X178537563Y-137527648D01*
X178400243Y-137314247D01*
X178190717Y-137171083D01*
X178143108Y-137161442D01*
X178174352Y-137155563D01*
X178387753Y-137018243D01*
X178443264Y-136937000D01*
X179656167Y-136937000D01*
X179764757Y-137105753D01*
X179832758Y-137152216D01*
X179684673Y-137300302D01*
X179588000Y-137533691D01*
X179588000Y-137874250D01*
X179746750Y-138033000D01*
X180721000Y-138033000D01*
X180721000Y-138013000D01*
X180975000Y-138013000D01*
X180975000Y-138033000D01*
X181949250Y-138033000D01*
X182079680Y-137902570D01*
X187675675Y-137902570D01*
X188468000Y-138694895D01*
X189260325Y-137902570D01*
X189192265Y-137661569D01*
X188672966Y-137476733D01*
X188122462Y-137504695D01*
X187743735Y-137661569D01*
X187675675Y-137902570D01*
X182079680Y-137902570D01*
X182108000Y-137874250D01*
X182108000Y-137533691D01*
X182011327Y-137300302D01*
X181864305Y-137153279D01*
X181918753Y-137118243D01*
X182042592Y-136937000D01*
X186737500Y-136937000D01*
X187034845Y-136877854D01*
X187286922Y-136709422D01*
X188190473Y-135805871D01*
X188192782Y-135806830D01*
X188740813Y-135807308D01*
X189247311Y-135598028D01*
X189635166Y-135210849D01*
X189845330Y-134704718D01*
X189845808Y-134156687D01*
X189636528Y-133650189D01*
X189249349Y-133262334D01*
X188743218Y-133052170D01*
X188195187Y-133051692D01*
X187688689Y-133260972D01*
X187554285Y-133395142D01*
X187554772Y-132837390D01*
X187307675Y-132239371D01*
X186850536Y-131781433D01*
X186252948Y-131533293D01*
X185605890Y-131532728D01*
X185007871Y-131779825D01*
X184549933Y-132236964D01*
X184301793Y-132834552D01*
X184301228Y-133481610D01*
X184548325Y-134079629D01*
X185005464Y-134537567D01*
X185603052Y-134785707D01*
X186250110Y-134786272D01*
X186848129Y-134539175D01*
X187090545Y-134297182D01*
X187090192Y-134702313D01*
X187091990Y-134706666D01*
X186415656Y-135383000D01*
X182039833Y-135383000D01*
X181931243Y-135214247D01*
X181721717Y-135071083D01*
X181473000Y-135020717D01*
X180223000Y-135020717D01*
X179990648Y-135064437D01*
X179777247Y-135201757D01*
X179653408Y-135383000D01*
X178354512Y-135383000D01*
X178190717Y-135271083D01*
X178069000Y-135246435D01*
X178069000Y-129798610D01*
X184301228Y-129798610D01*
X184548325Y-130396629D01*
X185005464Y-130854567D01*
X185603052Y-131102707D01*
X186250110Y-131103272D01*
X186848129Y-130856175D01*
X187306067Y-130399036D01*
X187554207Y-129801448D01*
X187554656Y-129287518D01*
X187560623Y-129293485D01*
X187675676Y-129178432D01*
X187743735Y-129419431D01*
X188263034Y-129604267D01*
X188813538Y-129576305D01*
X189192265Y-129419431D01*
X189260325Y-129178430D01*
X188468000Y-128386105D01*
X188453858Y-128400248D01*
X188274253Y-128220643D01*
X188288395Y-128206500D01*
X188647605Y-128206500D01*
X189439930Y-128998825D01*
X189680931Y-128930765D01*
X189865767Y-128411466D01*
X189837805Y-127860962D01*
X189680931Y-127482235D01*
X189439930Y-127414175D01*
X188647605Y-128206500D01*
X188288395Y-128206500D01*
X187496070Y-127414175D01*
X187255069Y-127482235D01*
X187070233Y-128001534D01*
X187087197Y-128335507D01*
X186850536Y-128098433D01*
X186252948Y-127850293D01*
X185605890Y-127849728D01*
X185007871Y-128096825D01*
X184549933Y-128553964D01*
X184301793Y-129151552D01*
X184301228Y-129798610D01*
X178069000Y-129798610D01*
X178069000Y-129772827D01*
X178009854Y-129475482D01*
X177841422Y-129223405D01*
X175852587Y-127234570D01*
X187675675Y-127234570D01*
X188468000Y-128026895D01*
X189260325Y-127234570D01*
X189192265Y-126993569D01*
X188672966Y-126808733D01*
X188122462Y-126836695D01*
X187743735Y-126993569D01*
X187675675Y-127234570D01*
X175852587Y-127234570D01*
X171431627Y-122813610D01*
X184301228Y-122813610D01*
X184548325Y-123411629D01*
X185005464Y-123869567D01*
X185603052Y-124117707D01*
X186250110Y-124118272D01*
X186848129Y-123871175D01*
X187090545Y-123629182D01*
X187090192Y-124034313D01*
X187299472Y-124540811D01*
X187686651Y-124928666D01*
X188192782Y-125138830D01*
X188740813Y-125139308D01*
X189247311Y-124930028D01*
X189635166Y-124542849D01*
X189845330Y-124036718D01*
X189845808Y-123488687D01*
X189636528Y-122982189D01*
X189249349Y-122594334D01*
X188743218Y-122384170D01*
X188195187Y-122383692D01*
X187688689Y-122592972D01*
X187554285Y-122727142D01*
X187554772Y-122169390D01*
X187307675Y-121571371D01*
X186850536Y-121113433D01*
X186252948Y-120865293D01*
X185605890Y-120864728D01*
X185007871Y-121111825D01*
X184549933Y-121568964D01*
X184301793Y-122166552D01*
X184301228Y-122813610D01*
X171431627Y-122813610D01*
X166383150Y-117765133D01*
X166383150Y-117083857D01*
X166691216Y-116878013D01*
X166872454Y-116606772D01*
X167259510Y-117030821D01*
X167788973Y-117278968D01*
X168021000Y-117158469D01*
X168021000Y-115951000D01*
X168275000Y-115951000D01*
X168275000Y-117158469D01*
X168507027Y-117278968D01*
X168756147Y-117162211D01*
X185316718Y-117162211D01*
X185563892Y-117760418D01*
X186021175Y-118218499D01*
X186618950Y-118466717D01*
X187266211Y-118467282D01*
X187864418Y-118220108D01*
X187927884Y-118156752D01*
X187945673Y-118199698D01*
X188124301Y-118378327D01*
X188357690Y-118475000D01*
X189198250Y-118475000D01*
X189357000Y-118316250D01*
X189357000Y-116967000D01*
X189337000Y-116967000D01*
X189337000Y-116713000D01*
X189357000Y-116713000D01*
X189357000Y-115363750D01*
X189198250Y-115205000D01*
X188357690Y-115205000D01*
X188124301Y-115301673D01*
X187945673Y-115480302D01*
X187928054Y-115522837D01*
X187866825Y-115461501D01*
X187269050Y-115213283D01*
X186621789Y-115212718D01*
X186023582Y-115459892D01*
X185565501Y-115917175D01*
X185317283Y-116514950D01*
X185316718Y-117162211D01*
X168756147Y-117162211D01*
X169036490Y-117030821D01*
X169430688Y-116598947D01*
X169602958Y-116183026D01*
X169481817Y-115951000D01*
X168275000Y-115951000D01*
X168021000Y-115951000D01*
X168001000Y-115951000D01*
X168001000Y-115697000D01*
X168021000Y-115697000D01*
X168021000Y-115677000D01*
X168275000Y-115677000D01*
X168275000Y-115697000D01*
X169481817Y-115697000D01*
X169602958Y-115464974D01*
X169430688Y-115049053D01*
X169036490Y-114617179D01*
X168905379Y-114555731D01*
X169231216Y-114338013D01*
X169554338Y-113854428D01*
X169667803Y-113284000D01*
X169554338Y-112713572D01*
X169231216Y-112229987D01*
X168907969Y-112014000D01*
X169231216Y-111798013D01*
X169554338Y-111314428D01*
X169667803Y-110744000D01*
X169630848Y-110558211D01*
X185316718Y-110558211D01*
X185563892Y-111156418D01*
X186021175Y-111614499D01*
X186618950Y-111862717D01*
X187266211Y-111863282D01*
X187864418Y-111616108D01*
X187927884Y-111552752D01*
X187945673Y-111595698D01*
X188124301Y-111774327D01*
X188357690Y-111871000D01*
X189198250Y-111871000D01*
X189357000Y-111712250D01*
X189357000Y-110363000D01*
X189337000Y-110363000D01*
X189337000Y-110109000D01*
X189357000Y-110109000D01*
X189357000Y-108759750D01*
X189198250Y-108601000D01*
X188357690Y-108601000D01*
X188124301Y-108697673D01*
X187945673Y-108876302D01*
X187928054Y-108918837D01*
X187866825Y-108857501D01*
X187269050Y-108609283D01*
X186621789Y-108608718D01*
X186023582Y-108855892D01*
X185565501Y-109313175D01*
X185317283Y-109910950D01*
X185316718Y-110558211D01*
X169630848Y-110558211D01*
X169554338Y-110173572D01*
X169489141Y-110075998D01*
X169489141Y-104462211D01*
X185316718Y-104462211D01*
X185563892Y-105060418D01*
X186021175Y-105518499D01*
X186618950Y-105766717D01*
X187266211Y-105767282D01*
X187864418Y-105520108D01*
X187927884Y-105456752D01*
X187945673Y-105499698D01*
X188124301Y-105678327D01*
X188357690Y-105775000D01*
X189198250Y-105775000D01*
X189357000Y-105616250D01*
X189357000Y-104267000D01*
X189337000Y-104267000D01*
X189337000Y-104013000D01*
X189357000Y-104013000D01*
X189357000Y-102663750D01*
X189198250Y-102505000D01*
X188357690Y-102505000D01*
X188124301Y-102601673D01*
X187945673Y-102780302D01*
X187928054Y-102822837D01*
X187866825Y-102761501D01*
X187269050Y-102513283D01*
X186621789Y-102512718D01*
X186023582Y-102759892D01*
X185565501Y-103217175D01*
X185317283Y-103814950D01*
X185316718Y-104462211D01*
X169489141Y-104462211D01*
X169489141Y-97716701D01*
X184974762Y-97716701D01*
X185183956Y-98222989D01*
X185570974Y-98610683D01*
X186076896Y-98820760D01*
X186624701Y-98821238D01*
X187130989Y-98612044D01*
X187518683Y-98225026D01*
X187728760Y-97719104D01*
X187729238Y-97171299D01*
X187520044Y-96665011D01*
X187133026Y-96277317D01*
X186627104Y-96067240D01*
X186079299Y-96066762D01*
X185573011Y-96275956D01*
X185185317Y-96662974D01*
X184975240Y-97168896D01*
X184974762Y-97716701D01*
X169489141Y-97716701D01*
X169489141Y-87840141D01*
X169422383Y-87504528D01*
X169422383Y-87504527D01*
X169305698Y-87329896D01*
X169232274Y-87220008D01*
X169232271Y-87220006D01*
X167228133Y-85215867D01*
X166943613Y-85025758D01*
X166608000Y-84959000D01*
X165719484Y-84959000D01*
X165675243Y-84890247D01*
X165607242Y-84843784D01*
X165755327Y-84695698D01*
X165852000Y-84462309D01*
X165852000Y-84121750D01*
X165693250Y-83963000D01*
X164719000Y-83963000D01*
X164719000Y-83983000D01*
X164465000Y-83983000D01*
X164465000Y-83963000D01*
X163490750Y-83963000D01*
X163332000Y-84121750D01*
X163332000Y-84462309D01*
X163428673Y-84695698D01*
X163575695Y-84842721D01*
X163521247Y-84877757D01*
X163465736Y-84959000D01*
X160363717Y-84959000D01*
X159723008Y-84318291D01*
X159723212Y-84085005D01*
X159536806Y-83633869D01*
X159191947Y-83288407D01*
X159002378Y-83209691D01*
X163332000Y-83209691D01*
X163332000Y-83550250D01*
X163490750Y-83709000D01*
X164465000Y-83709000D01*
X164465000Y-82859750D01*
X164719000Y-82859750D01*
X164719000Y-83709000D01*
X165693250Y-83709000D01*
X165852000Y-83550250D01*
X165852000Y-83209691D01*
X165755327Y-82976302D01*
X165576699Y-82797673D01*
X165343310Y-82701000D01*
X164877750Y-82701000D01*
X164719000Y-82859750D01*
X164465000Y-82859750D01*
X164306250Y-82701000D01*
X163840690Y-82701000D01*
X163607301Y-82797673D01*
X163428673Y-82976302D01*
X163332000Y-83209691D01*
X159002378Y-83209691D01*
X158741136Y-83101214D01*
X158253005Y-83100788D01*
X157801869Y-83287194D01*
X157637777Y-83451000D01*
X156682025Y-83451000D01*
X154293000Y-81061974D01*
X154293000Y-80025549D01*
X154427297Y-79891486D01*
X154614490Y-79440675D01*
X154614916Y-78952544D01*
X154428510Y-78501408D01*
X154083651Y-78155946D01*
X153632840Y-77968753D01*
X153144709Y-77968327D01*
X152693573Y-78154733D01*
X152529481Y-78318539D01*
X130592726Y-78318539D01*
X130742131Y-78256806D01*
X131087593Y-77911947D01*
X131274786Y-77461136D01*
X131275212Y-76973005D01*
X131088806Y-76521869D01*
X130743947Y-76176407D01*
X130293136Y-75989214D01*
X129919732Y-75988888D01*
X128745071Y-74814227D01*
X128940001Y-74853001D01*
X129328846Y-74853001D01*
X129328788Y-74918995D01*
X129515194Y-75370131D01*
X129860053Y-75715593D01*
X130310864Y-75902786D01*
X130798995Y-75903212D01*
X131250131Y-75716806D01*
X131595593Y-75371947D01*
X131782786Y-74921136D01*
X131783212Y-74433005D01*
X131596806Y-73981869D01*
X131251947Y-73636407D01*
X130963663Y-73516701D01*
X184974762Y-73516701D01*
X185183956Y-74022989D01*
X185570974Y-74410683D01*
X186076896Y-74620760D01*
X186624701Y-74621238D01*
X187130989Y-74412044D01*
X187518683Y-74025026D01*
X187728760Y-73519104D01*
X187729238Y-72971299D01*
X187520044Y-72465011D01*
X187133026Y-72077317D01*
X186627104Y-71867240D01*
X186079299Y-71866762D01*
X185573011Y-72075956D01*
X185185317Y-72462974D01*
X184975240Y-72968896D01*
X184974762Y-73516701D01*
X130963663Y-73516701D01*
X130801136Y-73449214D01*
X130389100Y-73448854D01*
X130253346Y-73358147D01*
X129956001Y-73299001D01*
X129261845Y-73299001D01*
X124501422Y-68538578D01*
X124249345Y-68370146D01*
X123952000Y-68311000D01*
X95504000Y-68311000D01*
X95206655Y-68370146D01*
X94954578Y-68538578D01*
X93012908Y-70480248D01*
X92844476Y-70732325D01*
X92785330Y-71029670D01*
X92257500Y-71029670D01*
X92257500Y-66613660D01*
X190622300Y-66613660D01*
X190622300Y-102509966D01*
G36*
X152539000Y-80082108D02*
X152539000Y-81425240D01*
X152605758Y-81760853D01*
X152795867Y-82045373D01*
X155698625Y-84948130D01*
X155698627Y-84948133D01*
X155903066Y-85084734D01*
X155983147Y-85138242D01*
X156318760Y-85205001D01*
X156318765Y-85205000D01*
X157062239Y-85205000D01*
X156785869Y-85319194D01*
X156440407Y-85664053D01*
X156253214Y-86114864D01*
X156252788Y-86602995D01*
X156439194Y-87054131D01*
X156703000Y-87318398D01*
X156703000Y-90033926D01*
X156382834Y-90353533D01*
X156195641Y-90804344D01*
X156195215Y-91292475D01*
X156381621Y-91743611D01*
X156645427Y-92007878D01*
X156645427Y-99834130D01*
X156704573Y-100131475D01*
X156873005Y-100383552D01*
X159751000Y-103261547D01*
X159751000Y-106498071D01*
X142735518Y-89482589D01*
X142735842Y-89111550D01*
X142549436Y-88660414D01*
X142204577Y-88314952D01*
X141753766Y-88127759D01*
X141265635Y-88127333D01*
X140814499Y-88313739D01*
X140469037Y-88658598D01*
X140281844Y-89109409D01*
X140281418Y-89597540D01*
X140467824Y-90048676D01*
X140812683Y-90394138D01*
X141263494Y-90581331D01*
X141636898Y-90581657D01*
X158944196Y-107888955D01*
X158944196Y-111528124D01*
X158711364Y-111760550D01*
X158562069Y-111399230D01*
X158217210Y-111053768D01*
X157766399Y-110866575D01*
X157278268Y-110866149D01*
X156827132Y-111052555D01*
X156481670Y-111397414D01*
X156294477Y-111848225D01*
X156294051Y-112336356D01*
X156480457Y-112787492D01*
X156825316Y-113132954D01*
X157276127Y-113320147D01*
X157649531Y-113320473D01*
X160702480Y-116373422D01*
X160954557Y-116541854D01*
X161251902Y-116601000D01*
X164339689Y-116601000D01*
X164524784Y-116878013D01*
X164829150Y-117081384D01*
X164829150Y-118086977D01*
X164888296Y-118384322D01*
X165056728Y-118636399D01*
X176515000Y-130094671D01*
X176515000Y-135244614D01*
X176409648Y-135264437D01*
X176196247Y-135401757D01*
X176053083Y-135611283D01*
X176002717Y-135860000D01*
X176002717Y-136560000D01*
X176046437Y-136792352D01*
X176183757Y-137005753D01*
X176393283Y-137148917D01*
X176440892Y-137158558D01*
X176409648Y-137164437D01*
X176303098Y-137233000D01*
X175313387Y-137233000D01*
X175313382Y-137232999D01*
X174980157Y-137299283D01*
X174977769Y-137299758D01*
X174693249Y-137489867D01*
X174693247Y-137489870D01*
X171986274Y-140196842D01*
X171252849Y-140196842D01*
X171462688Y-139966947D01*
X171634958Y-139551026D01*
X171513817Y-139319000D01*
X170307000Y-139319000D01*
X170307000Y-139339000D01*
X170053000Y-139339000D01*
X170053000Y-139319000D01*
X170033000Y-139319000D01*
X170033000Y-139065000D01*
X170053000Y-139065000D01*
X170053000Y-139045000D01*
X170307000Y-139045000D01*
X170307000Y-139065000D01*
X171513817Y-139065000D01*
X171634958Y-138832974D01*
X171462688Y-138417053D01*
X171068490Y-137985179D01*
X170937379Y-137923731D01*
X171263216Y-137706013D01*
X171448311Y-137429000D01*
X171598538Y-137429000D01*
X171895883Y-137369854D01*
X172147960Y-137201422D01*
X173520799Y-135828583D01*
X173633442Y-135660000D01*
X173689231Y-135576506D01*
X173748377Y-135279161D01*
X173748377Y-132148734D01*
X173689231Y-131851389D01*
X173520799Y-131599312D01*
X155897522Y-113976035D01*
X155645445Y-113807603D01*
X155348100Y-113748457D01*
X143803301Y-113748457D01*
X143466888Y-113412044D01*
X143467212Y-113041005D01*
X143280806Y-112589869D01*
X142935947Y-112244407D01*
X142485136Y-112057214D01*
X142111732Y-112056888D01*
X137539400Y-107484556D01*
X137287323Y-107316124D01*
X136989978Y-107256978D01*
X106107975Y-107256978D01*
X105810630Y-107316124D01*
X105599794Y-107457000D01*
X105558553Y-107484556D01*
X104651013Y-108392096D01*
X104604389Y-108345390D01*
X104153578Y-108158197D01*
X103665447Y-108157771D01*
X103214311Y-108344177D01*
X102868849Y-108689036D01*
X102681656Y-109139847D01*
X102681230Y-109627978D01*
X102867636Y-110079114D01*
X103212495Y-110424576D01*
X103663306Y-110611769D01*
X104151437Y-110612195D01*
X104602573Y-110425789D01*
X104894181Y-110134690D01*
X105054315Y-110102837D01*
X105306392Y-109934405D01*
X106429819Y-108810978D01*
X126561328Y-108810978D01*
X126472478Y-108847690D01*
X126127016Y-109192549D01*
X126043996Y-109392483D01*
X110787757Y-109392483D01*
X110525622Y-109129890D01*
X110074811Y-108942697D01*
X109586680Y-108942271D01*
X109135544Y-109128677D01*
X108790082Y-109473536D01*
X108602889Y-109924347D01*
X108602463Y-110412478D01*
X108788869Y-110863614D01*
X109003289Y-111078409D01*
X107106820Y-111078409D01*
X106844685Y-110815816D01*
X106393874Y-110628623D01*
X105905743Y-110628197D01*
X105454607Y-110814603D01*
X105109145Y-111159462D01*
X104921952Y-111610273D01*
X104921526Y-112098404D01*
X105107932Y-112549540D01*
X105452791Y-112895002D01*
X105903602Y-113082195D01*
X106391733Y-113082621D01*
X106842869Y-112896215D01*
X107107136Y-112632409D01*
X115530997Y-112632409D01*
X115793133Y-112895003D01*
X116243944Y-113082196D01*
X116732075Y-113082622D01*
X117183211Y-112896216D01*
X117447478Y-112632410D01*
X137949566Y-112632410D01*
X141013112Y-115695956D01*
X141012788Y-116066995D01*
X141199194Y-116518131D01*
X141544053Y-116863593D01*
X141994864Y-117050786D01*
X142482995Y-117051212D01*
X142934131Y-116864806D01*
X143198398Y-116601000D01*
X154784750Y-116601000D01*
X169403000Y-131219250D01*
X169403000Y-132853379D01*
X169105907Y-133051891D01*
X169099163Y-133016048D01*
X168961843Y-132802647D01*
X168752317Y-132659483D01*
X168503600Y-132609117D01*
X166776400Y-132609117D01*
X166544048Y-132652837D01*
X166330647Y-132790157D01*
X166187483Y-132999683D01*
X166137117Y-133248400D01*
X166137117Y-133335000D01*
X163310419Y-133335000D01*
X161829217Y-131853798D01*
X161829541Y-131482759D01*
X161643135Y-131031623D01*
X161298276Y-130686161D01*
X160847465Y-130498968D01*
X160359334Y-130498542D01*
X159908198Y-130684948D01*
X159562736Y-131029807D01*
X159375543Y-131480618D01*
X159375117Y-131968749D01*
X159561523Y-132419885D01*
X159906382Y-132765347D01*
X160357193Y-132952540D01*
X160730597Y-132952866D01*
X162439153Y-134661422D01*
X162691230Y-134829854D01*
X162988575Y-134889000D01*
X166137117Y-134889000D01*
X166137117Y-134975600D01*
X166180837Y-135207952D01*
X166318157Y-135421353D01*
X166527683Y-135564517D01*
X166588457Y-135576824D01*
X166556784Y-135597987D01*
X166371689Y-135875000D01*
X158823554Y-135875000D01*
X137548397Y-114599843D01*
X137296320Y-114431411D01*
X136998975Y-114372265D01*
X134729819Y-114372265D01*
X134467684Y-114109672D01*
X134016873Y-113922479D01*
X133528742Y-113922053D01*
X133077606Y-114108459D01*
X132732144Y-114453318D01*
X132544951Y-114904129D01*
X132544525Y-115392260D01*
X132730931Y-115843396D01*
X132855884Y-115968567D01*
X132855884Y-128513203D01*
X132593291Y-128775338D01*
X132406098Y-129226149D01*
X132405672Y-129714280D01*
X132592078Y-130165416D01*
X132936937Y-130510878D01*
X133387748Y-130698071D01*
X133875879Y-130698497D01*
X134327015Y-130512091D01*
X134639128Y-130200523D01*
X134639128Y-131111234D01*
X134698274Y-131408579D01*
X134828021Y-131602759D01*
X134827680Y-131992993D01*
X135014086Y-132444129D01*
X135358945Y-132789591D01*
X135809756Y-132976784D01*
X136297887Y-132977210D01*
X136749023Y-132790804D01*
X137094485Y-132445945D01*
X137281678Y-131995134D01*
X137282104Y-131507003D01*
X137095698Y-131055867D01*
X136750839Y-130710405D01*
X136300028Y-130523212D01*
X136193128Y-130523119D01*
X136193128Y-122914828D01*
X136455721Y-122652693D01*
X136642914Y-122201882D01*
X136643340Y-121713751D01*
X136456934Y-121262615D01*
X136112075Y-120917153D01*
X135661264Y-120729960D01*
X135173133Y-120729534D01*
X134721997Y-120915940D01*
X134409884Y-121227508D01*
X134409884Y-116213203D01*
X134465868Y-116190071D01*
X134730135Y-115926265D01*
X136677131Y-115926265D01*
X157952288Y-137201422D01*
X158204365Y-137369854D01*
X158501710Y-137429000D01*
X166371689Y-137429000D01*
X166556784Y-137706013D01*
X166880031Y-137922000D01*
X166556784Y-138137987D01*
X166394407Y-138381000D01*
X150293583Y-138381000D01*
X147531015Y-135618431D01*
X147531212Y-135393005D01*
X147344806Y-134941869D01*
X146999947Y-134596407D01*
X146549136Y-134409214D01*
X146061005Y-134408788D01*
X145609869Y-134595194D01*
X145445777Y-134759000D01*
X142604963Y-134759000D01*
X142604963Y-134660640D01*
X142561243Y-134428288D01*
X142423923Y-134214887D01*
X142214397Y-134071723D01*
X141965680Y-134021357D01*
X139466320Y-134021357D01*
X139233968Y-134065077D01*
X139020567Y-134202397D01*
X138877403Y-134411923D01*
X138827037Y-134660640D01*
X138827037Y-134775000D01*
X136255484Y-134775000D01*
X136211243Y-134706247D01*
X136005000Y-134565326D01*
X136005000Y-134112005D01*
X136005001Y-134112000D01*
X135938242Y-133776387D01*
X135855464Y-133652500D01*
X135748133Y-133491867D01*
X135748130Y-133491865D01*
X135189333Y-132933067D01*
X134904813Y-132742958D01*
X134569200Y-132676200D01*
X133100283Y-132676200D01*
X133100283Y-132435600D01*
X133056563Y-132203248D01*
X132919243Y-131989847D01*
X132728400Y-131859449D01*
X132728400Y-131343400D01*
X132666022Y-131029807D01*
X132661642Y-131007786D01*
X132471533Y-130723267D01*
X123572133Y-121823867D01*
X123287613Y-121633758D01*
X122952000Y-121567000D01*
X109331484Y-121567000D01*
X109287243Y-121498247D01*
X109077717Y-121355083D01*
X109069341Y-121353387D01*
X109050924Y-121260799D01*
X109014242Y-121076386D01*
X108907035Y-120915940D01*
X108824133Y-120791867D01*
X108824130Y-120791865D01*
X106891012Y-118858746D01*
X106891212Y-118629005D01*
X106704806Y-118177869D01*
X106541000Y-118013777D01*
X106541000Y-116332000D01*
X106474242Y-115996387D01*
X106474242Y-115996386D01*
X106284133Y-115711867D01*
X102092601Y-111520335D01*
X102092601Y-102885750D01*
X103896000Y-102885750D01*
X103896000Y-103226309D01*
X103992673Y-103459698D01*
X104171301Y-103638327D01*
X104404690Y-103735000D01*
X104870250Y-103735000D01*
X105029000Y-103576250D01*
X105029000Y-102727000D01*
X105283000Y-102727000D01*
X105283000Y-103576250D01*
X105441750Y-103735000D01*
X105907310Y-103735000D01*
X106140699Y-103638327D01*
X106319327Y-103459698D01*
X106416000Y-103226309D01*
X106416000Y-102885750D01*
X106257250Y-102727000D01*
X105283000Y-102727000D01*
X105029000Y-102727000D01*
X104054750Y-102727000D01*
X103896000Y-102885750D01*
X102092601Y-102885750D01*
X102092601Y-101366873D01*
X104279000Y-99180473D01*
X104279000Y-99517080D01*
X104085247Y-99641757D01*
X103942083Y-99851283D01*
X103891717Y-100100000D01*
X103891717Y-101100000D01*
X103935437Y-101332352D01*
X104072757Y-101545753D01*
X104140758Y-101592216D01*
X103992673Y-101740302D01*
X103896000Y-101973691D01*
X103896000Y-102314250D01*
X104054750Y-102473000D01*
X105029000Y-102473000D01*
X105029000Y-102453000D01*
X105283000Y-102453000D01*
X105283000Y-102473000D01*
X106257250Y-102473000D01*
X106416000Y-102314250D01*
X106416000Y-101973691D01*
X106319327Y-101740302D01*
X106172305Y-101593279D01*
X106226753Y-101558243D01*
X106369917Y-101348717D01*
X106420283Y-101100000D01*
X106420283Y-100435026D01*
X133520642Y-100435026D01*
X133523291Y-100450791D01*
X133777268Y-100978036D01*
X134213680Y-101367954D01*
X134766087Y-101561184D01*
X135001000Y-101416924D01*
X135001000Y-100203000D01*
X135255000Y-100203000D01*
X135255000Y-101416924D01*
X135489913Y-101561184D01*
X136042320Y-101367954D01*
X136478732Y-100978036D01*
X136732709Y-100450791D01*
X136735358Y-100435026D01*
X136614217Y-100203000D01*
X135255000Y-100203000D01*
X135001000Y-100203000D01*
X133641783Y-100203000D01*
X133520642Y-100435026D01*
X106420283Y-100435026D01*
X106420283Y-100100000D01*
X106376563Y-99867648D01*
X106239243Y-99654247D01*
X106033000Y-99513326D01*
X106033000Y-98023788D01*
X120785212Y-98023788D01*
X121120825Y-97957030D01*
X121405345Y-97766921D01*
X121405346Y-97766920D01*
X121636265Y-97536000D01*
X133452812Y-97536000D01*
X133566277Y-98106428D01*
X133889399Y-98590013D01*
X134199179Y-98797002D01*
X133777268Y-99173964D01*
X133523291Y-99701209D01*
X133520642Y-99716974D01*
X133641783Y-99949000D01*
X135001000Y-99949000D01*
X135001000Y-99929000D01*
X135255000Y-99929000D01*
X135255000Y-99949000D01*
X136614217Y-99949000D01*
X136735358Y-99716974D01*
X136732709Y-99701209D01*
X136478732Y-99173964D01*
X136056821Y-98797002D01*
X136366601Y-98590013D01*
X136689723Y-98106428D01*
X136803188Y-97536000D01*
X136689723Y-96965572D01*
X136366601Y-96481987D01*
X136337420Y-96462489D01*
X136376352Y-96455163D01*
X136589753Y-96317843D01*
X136732917Y-96108317D01*
X136783283Y-95859600D01*
X136783283Y-94132400D01*
X136739563Y-93900048D01*
X136602243Y-93686647D01*
X136392717Y-93543483D01*
X136144000Y-93493117D01*
X134112000Y-93493117D01*
X133879648Y-93536837D01*
X133666247Y-93674157D01*
X133523083Y-93883683D01*
X133472717Y-94132400D01*
X133472717Y-95859600D01*
X133516437Y-96091952D01*
X133653757Y-96305353D01*
X133863283Y-96448517D01*
X133921766Y-96460360D01*
X133889399Y-96481987D01*
X133566277Y-96965572D01*
X133452812Y-97536000D01*
X121636265Y-97536000D01*
X128583669Y-90588596D01*
X128583672Y-90588594D01*
X128713603Y-90394138D01*
X128773781Y-90304075D01*
X128840539Y-89968461D01*
X128840539Y-80072539D01*
X152529448Y-80072539D01*
X152539000Y-80082108D01*
X152539000Y-80082108D01*
G37*
X152539000Y-80082108D02*
X152539000Y-81425240D01*
X152605758Y-81760853D01*
X152795867Y-82045373D01*
X155698625Y-84948130D01*
X155698627Y-84948133D01*
X155903066Y-85084734D01*
X155983147Y-85138242D01*
X156318760Y-85205001D01*
X156318765Y-85205000D01*
X157062239Y-85205000D01*
X156785869Y-85319194D01*
X156440407Y-85664053D01*
X156253214Y-86114864D01*
X156252788Y-86602995D01*
X156439194Y-87054131D01*
X156703000Y-87318398D01*
X156703000Y-90033926D01*
X156382834Y-90353533D01*
X156195641Y-90804344D01*
X156195215Y-91292475D01*
X156381621Y-91743611D01*
X156645427Y-92007878D01*
X156645427Y-99834130D01*
X156704573Y-100131475D01*
X156873005Y-100383552D01*
X159751000Y-103261547D01*
X159751000Y-106498071D01*
X142735518Y-89482589D01*
X142735842Y-89111550D01*
X142549436Y-88660414D01*
X142204577Y-88314952D01*
X141753766Y-88127759D01*
X141265635Y-88127333D01*
X140814499Y-88313739D01*
X140469037Y-88658598D01*
X140281844Y-89109409D01*
X140281418Y-89597540D01*
X140467824Y-90048676D01*
X140812683Y-90394138D01*
X141263494Y-90581331D01*
X141636898Y-90581657D01*
X158944196Y-107888955D01*
X158944196Y-111528124D01*
X158711364Y-111760550D01*
X158562069Y-111399230D01*
X158217210Y-111053768D01*
X157766399Y-110866575D01*
X157278268Y-110866149D01*
X156827132Y-111052555D01*
X156481670Y-111397414D01*
X156294477Y-111848225D01*
X156294051Y-112336356D01*
X156480457Y-112787492D01*
X156825316Y-113132954D01*
X157276127Y-113320147D01*
X157649531Y-113320473D01*
X160702480Y-116373422D01*
X160954557Y-116541854D01*
X161251902Y-116601000D01*
X164339689Y-116601000D01*
X164524784Y-116878013D01*
X164829150Y-117081384D01*
X164829150Y-118086977D01*
X164888296Y-118384322D01*
X165056728Y-118636399D01*
X176515000Y-130094671D01*
X176515000Y-135244614D01*
X176409648Y-135264437D01*
X176196247Y-135401757D01*
X176053083Y-135611283D01*
X176002717Y-135860000D01*
X176002717Y-136560000D01*
X176046437Y-136792352D01*
X176183757Y-137005753D01*
X176393283Y-137148917D01*
X176440892Y-137158558D01*
X176409648Y-137164437D01*
X176303098Y-137233000D01*
X175313387Y-137233000D01*
X175313382Y-137232999D01*
X174980157Y-137299283D01*
X174977769Y-137299758D01*
X174693249Y-137489867D01*
X174693247Y-137489870D01*
X171986274Y-140196842D01*
X171252849Y-140196842D01*
X171462688Y-139966947D01*
X171634958Y-139551026D01*
X171513817Y-139319000D01*
X170307000Y-139319000D01*
X170307000Y-139339000D01*
X170053000Y-139339000D01*
X170053000Y-139319000D01*
X170033000Y-139319000D01*
X170033000Y-139065000D01*
X170053000Y-139065000D01*
X170053000Y-139045000D01*
X170307000Y-139045000D01*
X170307000Y-139065000D01*
X171513817Y-139065000D01*
X171634958Y-138832974D01*
X171462688Y-138417053D01*
X171068490Y-137985179D01*
X170937379Y-137923731D01*
X171263216Y-137706013D01*
X171448311Y-137429000D01*
X171598538Y-137429000D01*
X171895883Y-137369854D01*
X172147960Y-137201422D01*
X173520799Y-135828583D01*
X173633442Y-135660000D01*
X173689231Y-135576506D01*
X173748377Y-135279161D01*
X173748377Y-132148734D01*
X173689231Y-131851389D01*
X173520799Y-131599312D01*
X155897522Y-113976035D01*
X155645445Y-113807603D01*
X155348100Y-113748457D01*
X143803301Y-113748457D01*
X143466888Y-113412044D01*
X143467212Y-113041005D01*
X143280806Y-112589869D01*
X142935947Y-112244407D01*
X142485136Y-112057214D01*
X142111732Y-112056888D01*
X137539400Y-107484556D01*
X137287323Y-107316124D01*
X136989978Y-107256978D01*
X106107975Y-107256978D01*
X105810630Y-107316124D01*
X105599794Y-107457000D01*
X105558553Y-107484556D01*
X104651013Y-108392096D01*
X104604389Y-108345390D01*
X104153578Y-108158197D01*
X103665447Y-108157771D01*
X103214311Y-108344177D01*
X102868849Y-108689036D01*
X102681656Y-109139847D01*
X102681230Y-109627978D01*
X102867636Y-110079114D01*
X103212495Y-110424576D01*
X103663306Y-110611769D01*
X104151437Y-110612195D01*
X104602573Y-110425789D01*
X104894181Y-110134690D01*
X105054315Y-110102837D01*
X105306392Y-109934405D01*
X106429819Y-108810978D01*
X126561328Y-108810978D01*
X126472478Y-108847690D01*
X126127016Y-109192549D01*
X126043996Y-109392483D01*
X110787757Y-109392483D01*
X110525622Y-109129890D01*
X110074811Y-108942697D01*
X109586680Y-108942271D01*
X109135544Y-109128677D01*
X108790082Y-109473536D01*
X108602889Y-109924347D01*
X108602463Y-110412478D01*
X108788869Y-110863614D01*
X109003289Y-111078409D01*
X107106820Y-111078409D01*
X106844685Y-110815816D01*
X106393874Y-110628623D01*
X105905743Y-110628197D01*
X105454607Y-110814603D01*
X105109145Y-111159462D01*
X104921952Y-111610273D01*
X104921526Y-112098404D01*
X105107932Y-112549540D01*
X105452791Y-112895002D01*
X105903602Y-113082195D01*
X106391733Y-113082621D01*
X106842869Y-112896215D01*
X107107136Y-112632409D01*
X115530997Y-112632409D01*
X115793133Y-112895003D01*
X116243944Y-113082196D01*
X116732075Y-113082622D01*
X117183211Y-112896216D01*
X117447478Y-112632410D01*
X137949566Y-112632410D01*
X141013112Y-115695956D01*
X141012788Y-116066995D01*
X141199194Y-116518131D01*
X141544053Y-116863593D01*
X141994864Y-117050786D01*
X142482995Y-117051212D01*
X142934131Y-116864806D01*
X143198398Y-116601000D01*
X154784750Y-116601000D01*
X169403000Y-131219250D01*
X169403000Y-132853379D01*
X169105907Y-133051891D01*
X169099163Y-133016048D01*
X168961843Y-132802647D01*
X168752317Y-132659483D01*
X168503600Y-132609117D01*
X166776400Y-132609117D01*
X166544048Y-132652837D01*
X166330647Y-132790157D01*
X166187483Y-132999683D01*
X166137117Y-133248400D01*
X166137117Y-133335000D01*
X163310419Y-133335000D01*
X161829217Y-131853798D01*
X161829541Y-131482759D01*
X161643135Y-131031623D01*
X161298276Y-130686161D01*
X160847465Y-130498968D01*
X160359334Y-130498542D01*
X159908198Y-130684948D01*
X159562736Y-131029807D01*
X159375543Y-131480618D01*
X159375117Y-131968749D01*
X159561523Y-132419885D01*
X159906382Y-132765347D01*
X160357193Y-132952540D01*
X160730597Y-132952866D01*
X162439153Y-134661422D01*
X162691230Y-134829854D01*
X162988575Y-134889000D01*
X166137117Y-134889000D01*
X166137117Y-134975600D01*
X166180837Y-135207952D01*
X166318157Y-135421353D01*
X166527683Y-135564517D01*
X166588457Y-135576824D01*
X166556784Y-135597987D01*
X166371689Y-135875000D01*
X158823554Y-135875000D01*
X137548397Y-114599843D01*
X137296320Y-114431411D01*
X136998975Y-114372265D01*
X134729819Y-114372265D01*
X134467684Y-114109672D01*
X134016873Y-113922479D01*
X133528742Y-113922053D01*
X133077606Y-114108459D01*
X132732144Y-114453318D01*
X132544951Y-114904129D01*
X132544525Y-115392260D01*
X132730931Y-115843396D01*
X132855884Y-115968567D01*
X132855884Y-128513203D01*
X132593291Y-128775338D01*
X132406098Y-129226149D01*
X132405672Y-129714280D01*
X132592078Y-130165416D01*
X132936937Y-130510878D01*
X133387748Y-130698071D01*
X133875879Y-130698497D01*
X134327015Y-130512091D01*
X134639128Y-130200523D01*
X134639128Y-131111234D01*
X134698274Y-131408579D01*
X134828021Y-131602759D01*
X134827680Y-131992993D01*
X135014086Y-132444129D01*
X135358945Y-132789591D01*
X135809756Y-132976784D01*
X136297887Y-132977210D01*
X136749023Y-132790804D01*
X137094485Y-132445945D01*
X137281678Y-131995134D01*
X137282104Y-131507003D01*
X137095698Y-131055867D01*
X136750839Y-130710405D01*
X136300028Y-130523212D01*
X136193128Y-130523119D01*
X136193128Y-122914828D01*
X136455721Y-122652693D01*
X136642914Y-122201882D01*
X136643340Y-121713751D01*
X136456934Y-121262615D01*
X136112075Y-120917153D01*
X135661264Y-120729960D01*
X135173133Y-120729534D01*
X134721997Y-120915940D01*
X134409884Y-121227508D01*
X134409884Y-116213203D01*
X134465868Y-116190071D01*
X134730135Y-115926265D01*
X136677131Y-115926265D01*
X157952288Y-137201422D01*
X158204365Y-137369854D01*
X158501710Y-137429000D01*
X166371689Y-137429000D01*
X166556784Y-137706013D01*
X166880031Y-137922000D01*
X166556784Y-138137987D01*
X166394407Y-138381000D01*
X150293583Y-138381000D01*
X147531015Y-135618431D01*
X147531212Y-135393005D01*
X147344806Y-134941869D01*
X146999947Y-134596407D01*
X146549136Y-134409214D01*
X146061005Y-134408788D01*
X145609869Y-134595194D01*
X145445777Y-134759000D01*
X142604963Y-134759000D01*
X142604963Y-134660640D01*
X142561243Y-134428288D01*
X142423923Y-134214887D01*
X142214397Y-134071723D01*
X141965680Y-134021357D01*
X139466320Y-134021357D01*
X139233968Y-134065077D01*
X139020567Y-134202397D01*
X138877403Y-134411923D01*
X138827037Y-134660640D01*
X138827037Y-134775000D01*
X136255484Y-134775000D01*
X136211243Y-134706247D01*
X136005000Y-134565326D01*
X136005000Y-134112005D01*
X136005001Y-134112000D01*
X135938242Y-133776387D01*
X135855464Y-133652500D01*
X135748133Y-133491867D01*
X135748130Y-133491865D01*
X135189333Y-132933067D01*
X134904813Y-132742958D01*
X134569200Y-132676200D01*
X133100283Y-132676200D01*
X133100283Y-132435600D01*
X133056563Y-132203248D01*
X132919243Y-131989847D01*
X132728400Y-131859449D01*
X132728400Y-131343400D01*
X132666022Y-131029807D01*
X132661642Y-131007786D01*
X132471533Y-130723267D01*
X123572133Y-121823867D01*
X123287613Y-121633758D01*
X122952000Y-121567000D01*
X109331484Y-121567000D01*
X109287243Y-121498247D01*
X109077717Y-121355083D01*
X109069341Y-121353387D01*
X109050924Y-121260799D01*
X109014242Y-121076386D01*
X108907035Y-120915940D01*
X108824133Y-120791867D01*
X108824130Y-120791865D01*
X106891012Y-118858746D01*
X106891212Y-118629005D01*
X106704806Y-118177869D01*
X106541000Y-118013777D01*
X106541000Y-116332000D01*
X106474242Y-115996387D01*
X106474242Y-115996386D01*
X106284133Y-115711867D01*
X102092601Y-111520335D01*
X102092601Y-102885750D01*
X103896000Y-102885750D01*
X103896000Y-103226309D01*
X103992673Y-103459698D01*
X104171301Y-103638327D01*
X104404690Y-103735000D01*
X104870250Y-103735000D01*
X105029000Y-103576250D01*
X105029000Y-102727000D01*
X105283000Y-102727000D01*
X105283000Y-103576250D01*
X105441750Y-103735000D01*
X105907310Y-103735000D01*
X106140699Y-103638327D01*
X106319327Y-103459698D01*
X106416000Y-103226309D01*
X106416000Y-102885750D01*
X106257250Y-102727000D01*
X105283000Y-102727000D01*
X105029000Y-102727000D01*
X104054750Y-102727000D01*
X103896000Y-102885750D01*
X102092601Y-102885750D01*
X102092601Y-101366873D01*
X104279000Y-99180473D01*
X104279000Y-99517080D01*
X104085247Y-99641757D01*
X103942083Y-99851283D01*
X103891717Y-100100000D01*
X103891717Y-101100000D01*
X103935437Y-101332352D01*
X104072757Y-101545753D01*
X104140758Y-101592216D01*
X103992673Y-101740302D01*
X103896000Y-101973691D01*
X103896000Y-102314250D01*
X104054750Y-102473000D01*
X105029000Y-102473000D01*
X105029000Y-102453000D01*
X105283000Y-102453000D01*
X105283000Y-102473000D01*
X106257250Y-102473000D01*
X106416000Y-102314250D01*
X106416000Y-101973691D01*
X106319327Y-101740302D01*
X106172305Y-101593279D01*
X106226753Y-101558243D01*
X106369917Y-101348717D01*
X106420283Y-101100000D01*
X106420283Y-100435026D01*
X133520642Y-100435026D01*
X133523291Y-100450791D01*
X133777268Y-100978036D01*
X134213680Y-101367954D01*
X134766087Y-101561184D01*
X135001000Y-101416924D01*
X135001000Y-100203000D01*
X135255000Y-100203000D01*
X135255000Y-101416924D01*
X135489913Y-101561184D01*
X136042320Y-101367954D01*
X136478732Y-100978036D01*
X136732709Y-100450791D01*
X136735358Y-100435026D01*
X136614217Y-100203000D01*
X135255000Y-100203000D01*
X135001000Y-100203000D01*
X133641783Y-100203000D01*
X133520642Y-100435026D01*
X106420283Y-100435026D01*
X106420283Y-100100000D01*
X106376563Y-99867648D01*
X106239243Y-99654247D01*
X106033000Y-99513326D01*
X106033000Y-98023788D01*
X120785212Y-98023788D01*
X121120825Y-97957030D01*
X121405345Y-97766921D01*
X121405346Y-97766920D01*
X121636265Y-97536000D01*
X133452812Y-97536000D01*
X133566277Y-98106428D01*
X133889399Y-98590013D01*
X134199179Y-98797002D01*
X133777268Y-99173964D01*
X133523291Y-99701209D01*
X133520642Y-99716974D01*
X133641783Y-99949000D01*
X135001000Y-99949000D01*
X135001000Y-99929000D01*
X135255000Y-99929000D01*
X135255000Y-99949000D01*
X136614217Y-99949000D01*
X136735358Y-99716974D01*
X136732709Y-99701209D01*
X136478732Y-99173964D01*
X136056821Y-98797002D01*
X136366601Y-98590013D01*
X136689723Y-98106428D01*
X136803188Y-97536000D01*
X136689723Y-96965572D01*
X136366601Y-96481987D01*
X136337420Y-96462489D01*
X136376352Y-96455163D01*
X136589753Y-96317843D01*
X136732917Y-96108317D01*
X136783283Y-95859600D01*
X136783283Y-94132400D01*
X136739563Y-93900048D01*
X136602243Y-93686647D01*
X136392717Y-93543483D01*
X136144000Y-93493117D01*
X134112000Y-93493117D01*
X133879648Y-93536837D01*
X133666247Y-93674157D01*
X133523083Y-93883683D01*
X133472717Y-94132400D01*
X133472717Y-95859600D01*
X133516437Y-96091952D01*
X133653757Y-96305353D01*
X133863283Y-96448517D01*
X133921766Y-96460360D01*
X133889399Y-96481987D01*
X133566277Y-96965572D01*
X133452812Y-97536000D01*
X121636265Y-97536000D01*
X128583669Y-90588596D01*
X128583672Y-90588594D01*
X128713603Y-90394138D01*
X128773781Y-90304075D01*
X128840539Y-89968461D01*
X128840539Y-80072539D01*
X152529448Y-80072539D01*
X152539000Y-80082108D01*
M02*
