G04 #@! TF.FileFunction,Legend,Top*
%FSLAX46Y46*%
G04 Gerber Fmt 4.6, Leading zero omitted, Abs format (unit mm)*
G04 Created by KiCad (PCBNEW 4.0.1-stable) date 23.02.2016 21:53:13*
%MOMM*%
G01*
G04 APERTURE LIST*
%ADD10C,0.100000*%
%ADD11C,0.381000*%
%ADD12C,0.150000*%
%ADD13C,0.149860*%
%ADD14C,0.299720*%
%ADD15C,0.254000*%
%ADD16C,0.127000*%
%ADD17C,0.304800*%
%ADD18C,0.152400*%
%ADD19C,0.203200*%
%ADD20C,0.088900*%
%ADD21C,0.119380*%
G04 APERTURE END LIST*
D10*
D11*
X96745000Y-87376000D02*
X89379000Y-87376000D01*
X96745000Y-75184000D02*
X89379000Y-75184000D01*
X89174000Y-73025000D02*
X110974000Y-73025000D01*
X110969000Y-73025000D02*
X110969000Y-89535000D01*
X110974000Y-89535000D02*
X89174000Y-89535000D01*
X89179000Y-73025000D02*
X89179000Y-89535000D01*
X94967000Y-82804000D02*
X94967000Y-79756000D01*
X94967000Y-82296000D02*
X89379000Y-82296000D01*
X96745000Y-82804000D02*
X94967000Y-82804000D01*
X94967000Y-79756000D02*
X96745000Y-79756000D01*
X89379000Y-80264000D02*
X94967000Y-80264000D01*
X96745000Y-75184000D02*
X96745000Y-87376000D01*
D12*
X153074000Y-136152000D02*
X153074000Y-137152000D01*
X154774000Y-137152000D02*
X154774000Y-136152000D01*
X149479000Y-85979000D02*
X131826000Y-85979000D01*
X131826000Y-80645000D02*
X149606000Y-80645000D01*
X149606000Y-85979000D02*
X149606000Y-80645000D01*
X131826000Y-80645000D02*
X131826000Y-85979000D01*
X131826000Y-82677000D02*
X133096000Y-82677000D01*
X133096000Y-82677000D02*
X133096000Y-83947000D01*
X133096000Y-83947000D02*
X131826000Y-83947000D01*
X162052000Y-77444000D02*
X162052000Y-76944000D01*
X162052000Y-79944000D02*
X162052000Y-79444000D01*
X162052000Y-87444000D02*
X162052000Y-86944000D01*
X162052000Y-89944000D02*
X162052000Y-89444000D01*
X162052000Y-92344000D02*
X162052000Y-91944000D01*
X162052000Y-97444000D02*
X162052000Y-96044000D01*
X182652000Y-99344000D02*
X162052000Y-99344000D01*
X181452000Y-70444000D02*
X162052000Y-70444000D01*
X162052000Y-70444000D02*
X162052000Y-74944000D01*
X191852000Y-70444000D02*
X191852000Y-99344000D01*
X191852000Y-99344000D02*
X185852000Y-99344000D01*
X191852000Y-70444000D02*
X184652000Y-70444000D01*
D11*
X115656360Y-118518940D02*
X115656360Y-125321060D01*
X112057180Y-125321060D02*
X112057180Y-118518940D01*
X113855500Y-127121920D02*
G75*
G03X115656360Y-125321060I0J1800860D01*
G01*
X112057180Y-125321060D02*
G75*
G03X113855500Y-127119380I1798320J0D01*
G01*
X115653820Y-118518940D02*
G75*
G03X113855500Y-116720620I-1798320J0D01*
G01*
X113855500Y-116720620D02*
G75*
G03X112057180Y-118518940I0J-1798320D01*
G01*
X113855500Y-127622300D02*
G75*
G03X116156740Y-125321060I0J2301240D01*
G01*
X111556800Y-125321060D02*
G75*
G03X113855500Y-127619760I2298700J0D01*
G01*
X116154200Y-118518940D02*
G75*
G03X113855500Y-116220240I-2298700J0D01*
G01*
X113855500Y-116220240D02*
G75*
G03X111556800Y-118518940I0J-2298700D01*
G01*
X116156740Y-127619760D02*
X111556800Y-127619760D01*
X111556800Y-127619760D02*
X111556800Y-116220240D01*
X111556800Y-116220240D02*
X116156740Y-116220240D01*
X116156740Y-116220240D02*
X116156740Y-127619760D01*
X123858020Y-120418860D02*
G75*
G03X123858020Y-120418860I-3101340J0D01*
G01*
X109905800Y-113870740D02*
X125806200Y-113870740D01*
X125806200Y-113870740D02*
X125806200Y-129969260D01*
X125806200Y-129969260D02*
X109905800Y-129969260D01*
X109905800Y-129969260D02*
X109905800Y-113870740D01*
D12*
X157067000Y-116745000D02*
X156392000Y-116745000D01*
X157067000Y-127095000D02*
X156392000Y-127095000D01*
X146717000Y-127095000D02*
X147392000Y-127095000D01*
X146717000Y-116745000D02*
X147392000Y-116745000D01*
X157067000Y-116745000D02*
X157067000Y-117420000D01*
X146717000Y-116745000D02*
X146717000Y-117420000D01*
X146717000Y-127095000D02*
X146717000Y-126420000D01*
X157067000Y-127095000D02*
X157067000Y-126420000D01*
X156392000Y-116745000D02*
X156392000Y-115470000D01*
X150202000Y-76192000D02*
X150202000Y-75192000D01*
X148502000Y-75192000D02*
X148502000Y-76192000D01*
X144788000Y-78066000D02*
X145788000Y-78066000D01*
X145788000Y-76366000D02*
X144788000Y-76366000D01*
X129198000Y-80272000D02*
X129198000Y-81272000D01*
X130898000Y-81272000D02*
X130898000Y-80272000D01*
X135120000Y-74842000D02*
X134120000Y-74842000D01*
X134120000Y-76542000D02*
X135120000Y-76542000D01*
X141724000Y-76366000D02*
X140724000Y-76366000D01*
X140724000Y-78066000D02*
X141724000Y-78066000D01*
X148836000Y-70778000D02*
X147836000Y-70778000D01*
X147836000Y-72478000D02*
X148836000Y-72478000D01*
X120896000Y-71286000D02*
X119896000Y-71286000D01*
X119896000Y-72986000D02*
X120896000Y-72986000D01*
X120896000Y-86526000D02*
X119896000Y-86526000D01*
X119896000Y-88226000D02*
X120896000Y-88226000D01*
X154774000Y-110736000D02*
X154774000Y-109736000D01*
X153074000Y-109736000D02*
X153074000Y-110736000D01*
X141724000Y-120562000D02*
X140724000Y-120562000D01*
X140724000Y-122262000D02*
X141724000Y-122262000D01*
X162060000Y-124294000D02*
X163060000Y-124294000D01*
X163060000Y-122594000D02*
X162060000Y-122594000D01*
X148502000Y-134628000D02*
X148502000Y-135628000D01*
X150202000Y-135628000D02*
X150202000Y-134628000D01*
X93027500Y-130119120D02*
X93027500Y-139120880D01*
X89527380Y-130119120D02*
X89527380Y-139120880D01*
X89527380Y-139120880D02*
X104028240Y-139120880D01*
X104028240Y-139120880D02*
X104028240Y-130119120D01*
X104028240Y-130119120D02*
X89527380Y-130119120D01*
X189683000Y-115526000D02*
X189683000Y-115726000D01*
X189683000Y-118120000D02*
X189683000Y-117940000D01*
X186455256Y-117809643D02*
G75*
G03X189683000Y-118126000I1727744J1003643D01*
G01*
X187130994Y-117939068D02*
G75*
G03X189234000Y-117940000I1052006J1133068D01*
G01*
X189670220Y-115499274D02*
G75*
G03X186433000Y-115846000I-1497220J-1306726D01*
G01*
X189196889Y-115726747D02*
G75*
G03X187149000Y-115746000I-1013889J-1079253D01*
G01*
X189683000Y-108922000D02*
X189683000Y-109122000D01*
X189683000Y-111516000D02*
X189683000Y-111336000D01*
X186455256Y-111205643D02*
G75*
G03X189683000Y-111522000I1727744J1003643D01*
G01*
X187130994Y-111335068D02*
G75*
G03X189234000Y-111336000I1052006J1133068D01*
G01*
X189670220Y-108895274D02*
G75*
G03X186433000Y-109242000I-1497220J-1306726D01*
G01*
X189196889Y-109122747D02*
G75*
G03X187149000Y-109142000I-1013889J-1079253D01*
G01*
D13*
X124259340Y-73675240D02*
X124259340Y-75676760D01*
X124660660Y-75676760D02*
X124660660Y-73675240D01*
X125961140Y-75676760D02*
X122958860Y-75676760D01*
X122958860Y-75676760D02*
X122958860Y-73675240D01*
X122958860Y-73675240D02*
X125961140Y-73675240D01*
X125961140Y-73675240D02*
X125961140Y-75676760D01*
D12*
X164338000Y-112014000D02*
X164338000Y-117094000D01*
X164058000Y-109194000D02*
X165608000Y-109194000D01*
X166878000Y-109474000D02*
X166878000Y-112014000D01*
X166878000Y-112014000D02*
X164338000Y-112014000D01*
X164338000Y-117094000D02*
X169418000Y-117094000D01*
X169418000Y-117094000D02*
X169418000Y-112014000D01*
X164058000Y-109194000D02*
X164058000Y-110744000D01*
X169418000Y-109474000D02*
X166878000Y-109474000D01*
X169418000Y-112014000D02*
X169418000Y-109474000D01*
X166370000Y-135382000D02*
X166370000Y-140462000D01*
X166090000Y-132562000D02*
X167640000Y-132562000D01*
X168910000Y-132842000D02*
X168910000Y-135382000D01*
X168910000Y-135382000D02*
X166370000Y-135382000D01*
X166370000Y-140462000D02*
X171450000Y-140462000D01*
X171450000Y-140462000D02*
X171450000Y-135382000D01*
X166090000Y-132562000D02*
X166090000Y-134112000D01*
X171450000Y-132842000D02*
X168910000Y-132842000D01*
X171450000Y-135382000D02*
X171450000Y-132842000D01*
X133858000Y-96266000D02*
X133858000Y-101346000D01*
X133858000Y-101346000D02*
X136398000Y-101346000D01*
X136398000Y-101346000D02*
X136398000Y-96266000D01*
X136678000Y-93446000D02*
X136678000Y-94996000D01*
X136398000Y-96266000D02*
X133858000Y-96266000D01*
X133578000Y-94996000D02*
X133578000Y-93446000D01*
X133578000Y-93446000D02*
X136678000Y-93446000D01*
X120996000Y-78091000D02*
X119796000Y-78091000D01*
X119796000Y-76341000D02*
X120996000Y-76341000D01*
X120996000Y-75551000D02*
X119796000Y-75551000D01*
X119796000Y-73801000D02*
X120996000Y-73801000D01*
X119796000Y-80405000D02*
X120996000Y-80405000D01*
X120996000Y-82155000D02*
X119796000Y-82155000D01*
X119796000Y-83453000D02*
X120996000Y-83453000D01*
X120996000Y-85203000D02*
X119796000Y-85203000D01*
X152259000Y-85252000D02*
X152259000Y-86452000D01*
X150509000Y-86452000D02*
X150509000Y-85252000D01*
X130697000Y-137252000D02*
X130697000Y-136052000D01*
X132447000Y-136052000D02*
X132447000Y-137252000D01*
X126908000Y-136285000D02*
X128108000Y-136285000D01*
X128108000Y-138035000D02*
X126908000Y-138035000D01*
X181772000Y-109361000D02*
X182972000Y-109361000D01*
X182972000Y-111111000D02*
X181772000Y-111111000D01*
X181772000Y-115965000D02*
X182972000Y-115965000D01*
X182972000Y-117715000D02*
X181772000Y-117715000D01*
D11*
X115656360Y-97690940D02*
X115656360Y-104493060D01*
X112057180Y-104493060D02*
X112057180Y-97690940D01*
X113855500Y-106293920D02*
G75*
G03X115656360Y-104493060I0J1800860D01*
G01*
X112057180Y-104493060D02*
G75*
G03X113855500Y-106291380I1798320J0D01*
G01*
X115653820Y-97690940D02*
G75*
G03X113855500Y-95892620I-1798320J0D01*
G01*
X113855500Y-95892620D02*
G75*
G03X112057180Y-97690940I0J-1798320D01*
G01*
X113855500Y-106794300D02*
G75*
G03X116156740Y-104493060I0J2301240D01*
G01*
X111556800Y-104493060D02*
G75*
G03X113855500Y-106791760I2298700J0D01*
G01*
X116154200Y-97690940D02*
G75*
G03X113855500Y-95392240I-2298700J0D01*
G01*
X113855500Y-95392240D02*
G75*
G03X111556800Y-97690940I0J-2298700D01*
G01*
X116156740Y-106791760D02*
X111556800Y-106791760D01*
X111556800Y-106791760D02*
X111556800Y-95392240D01*
X111556800Y-95392240D02*
X116156740Y-95392240D01*
X116156740Y-95392240D02*
X116156740Y-106791760D01*
X123858020Y-99590860D02*
G75*
G03X123858020Y-99590860I-3101340J0D01*
G01*
X109905800Y-93042740D02*
X125806200Y-93042740D01*
X125806200Y-93042740D02*
X125806200Y-109141260D01*
X125806200Y-109141260D02*
X109905800Y-109141260D01*
X109905800Y-109141260D02*
X109905800Y-93042740D01*
D14*
X143974820Y-74127360D02*
X143974820Y-69128640D01*
X143974820Y-69128640D02*
X132377180Y-69128640D01*
X132377180Y-69128640D02*
X132377180Y-74127360D01*
X132377180Y-74127360D02*
X143974820Y-74127360D01*
D15*
X132588000Y-71628000D02*
G75*
G03X134874000Y-73914000I2286000J0D01*
G01*
X141478000Y-69850000D02*
X134874000Y-69850000D01*
X134874000Y-73406000D02*
X141478000Y-73406000D01*
X134874000Y-69850000D02*
G75*
G03X133096000Y-71628000I0J-1778000D01*
G01*
X133096000Y-71628000D02*
G75*
G03X134874000Y-73406000I1778000J0D01*
G01*
X143256000Y-71628000D02*
G75*
G03X141478000Y-69850000I-1778000J0D01*
G01*
X141478000Y-73406000D02*
G75*
G03X143256000Y-71628000I0J1778000D01*
G01*
X134874000Y-69342000D02*
G75*
G03X132588000Y-71628000I0J-2286000D01*
G01*
X134874000Y-69342000D02*
X141478000Y-69342000D01*
X141478000Y-73914000D02*
X134874000Y-73914000D01*
X143764000Y-71628000D02*
G75*
G03X141478000Y-69342000I-2286000J0D01*
G01*
X141478000Y-73914000D02*
G75*
G03X143764000Y-71628000I0J2286000D01*
G01*
D11*
X84448000Y-103792000D02*
X85048000Y-103792000D01*
X84448000Y-98392000D02*
X85048000Y-98392000D01*
X89848000Y-98392000D02*
X92848000Y-98392000D01*
X92848000Y-103792000D02*
X89848000Y-103792000D01*
X85148000Y-97892000D02*
X85048000Y-98392000D01*
X85048000Y-98392000D02*
X85048000Y-103792000D01*
X85048000Y-103792000D02*
X85148000Y-104292000D01*
X89848000Y-98392000D02*
X89848000Y-103792000D01*
X89848000Y-103792000D02*
X89748000Y-104292000D01*
X89748000Y-97892000D02*
X89848000Y-98392000D01*
X89048000Y-97892000D02*
X89748000Y-104292000D01*
X87548000Y-97892000D02*
X88248000Y-104292000D01*
X88348000Y-97892000D02*
X89048000Y-104292000D01*
X86748000Y-97892000D02*
X87448000Y-104292000D01*
X85948000Y-97892000D02*
X86648000Y-104292000D01*
X89748000Y-97892000D02*
X85148000Y-97892000D01*
X85148000Y-97892000D02*
X85848000Y-104292000D01*
X89748000Y-104292000D02*
X85148000Y-104292000D01*
X84448000Y-98392000D02*
X84448000Y-103792000D01*
X92848000Y-97792000D02*
X99448000Y-97792000D01*
X99448000Y-97792000D02*
X99449800Y-104392000D01*
X99448000Y-104392000D02*
X92848000Y-104392000D01*
X92848000Y-104392000D02*
X92848000Y-97792000D01*
X84448000Y-122588000D02*
X85048000Y-122588000D01*
X84448000Y-117188000D02*
X85048000Y-117188000D01*
X89848000Y-117188000D02*
X92848000Y-117188000D01*
X92848000Y-122588000D02*
X89848000Y-122588000D01*
X85148000Y-116688000D02*
X85048000Y-117188000D01*
X85048000Y-117188000D02*
X85048000Y-122588000D01*
X85048000Y-122588000D02*
X85148000Y-123088000D01*
X89848000Y-117188000D02*
X89848000Y-122588000D01*
X89848000Y-122588000D02*
X89748000Y-123088000D01*
X89748000Y-116688000D02*
X89848000Y-117188000D01*
X89048000Y-116688000D02*
X89748000Y-123088000D01*
X87548000Y-116688000D02*
X88248000Y-123088000D01*
X88348000Y-116688000D02*
X89048000Y-123088000D01*
X86748000Y-116688000D02*
X87448000Y-123088000D01*
X85948000Y-116688000D02*
X86648000Y-123088000D01*
X89748000Y-116688000D02*
X85148000Y-116688000D01*
X85148000Y-116688000D02*
X85848000Y-123088000D01*
X89748000Y-123088000D02*
X85148000Y-123088000D01*
X84448000Y-117188000D02*
X84448000Y-122588000D01*
X92848000Y-116588000D02*
X99448000Y-116588000D01*
X99448000Y-116588000D02*
X99449800Y-123188000D01*
X99448000Y-123188000D02*
X92848000Y-123188000D01*
X92848000Y-123188000D02*
X92848000Y-116588000D01*
D16*
X191020700Y-140157200D02*
X184010300Y-140157200D01*
X184010300Y-140157200D02*
X184010300Y-139903200D01*
X184010300Y-139903200D02*
X187007500Y-139903200D01*
X187007500Y-139903200D02*
X187007500Y-133400800D01*
X187007500Y-133400800D02*
X184010300Y-133400800D01*
X184010300Y-133400800D02*
X184010300Y-133146800D01*
X184010300Y-133146800D02*
X191020700Y-133146800D01*
X191020700Y-133146800D02*
X191020700Y-140157200D01*
X193027300Y-137464800D02*
X191782700Y-137464800D01*
X193027300Y-135839200D02*
X191782700Y-135839200D01*
X191020700Y-138150600D02*
X191782700Y-138150600D01*
X191782700Y-138150600D02*
X191782700Y-135153400D01*
X191782700Y-135153400D02*
X191020700Y-135153400D01*
X194983100Y-138150600D02*
X194983100Y-135153400D01*
X194983100Y-135153400D02*
X193027300Y-135153400D01*
X193027300Y-135153400D02*
X193027300Y-138150600D01*
X193027300Y-138150600D02*
X194983100Y-138150600D01*
X194983100Y-135153400D02*
X193027300Y-135153400D01*
X191020700Y-129489200D02*
X184010300Y-129489200D01*
X184010300Y-129489200D02*
X184010300Y-129235200D01*
X184010300Y-129235200D02*
X187007500Y-129235200D01*
X187007500Y-129235200D02*
X187007500Y-122732800D01*
X187007500Y-122732800D02*
X184010300Y-122732800D01*
X184010300Y-122732800D02*
X184010300Y-122478800D01*
X184010300Y-122478800D02*
X191020700Y-122478800D01*
X191020700Y-122478800D02*
X191020700Y-129489200D01*
X193027300Y-126796800D02*
X191782700Y-126796800D01*
X193027300Y-125171200D02*
X191782700Y-125171200D01*
X191020700Y-127482600D02*
X191782700Y-127482600D01*
X191782700Y-127482600D02*
X191782700Y-124485400D01*
X191782700Y-124485400D02*
X191020700Y-124485400D01*
X194983100Y-127482600D02*
X194983100Y-124485400D01*
X194983100Y-124485400D02*
X193027300Y-124485400D01*
X193027300Y-124485400D02*
X193027300Y-127482600D01*
X193027300Y-127482600D02*
X194983100Y-127482600D01*
X194983100Y-124485400D02*
X193027300Y-124485400D01*
D12*
X127008000Y-72478000D02*
X128008000Y-72478000D01*
X128008000Y-70778000D02*
X127008000Y-70778000D01*
X130040000Y-138900800D02*
X129040000Y-138900800D01*
X129040000Y-140600800D02*
X130040000Y-140600800D01*
X154440000Y-100418000D02*
X155440000Y-100418000D01*
X155440000Y-98718000D02*
X154440000Y-98718000D01*
X146804000Y-98718000D02*
X145804000Y-98718000D01*
X145804000Y-100418000D02*
X146804000Y-100418000D01*
X157388000Y-75325000D02*
X158588000Y-75325000D01*
X158588000Y-77075000D02*
X157388000Y-77075000D01*
D14*
X145077180Y-101132640D02*
X145077180Y-106131360D01*
X145077180Y-106131360D02*
X156674820Y-106131360D01*
X156674820Y-106131360D02*
X156674820Y-101132640D01*
X156674820Y-101132640D02*
X145077180Y-101132640D01*
D15*
X156464000Y-103632000D02*
G75*
G03X154178000Y-101346000I-2286000J0D01*
G01*
X147574000Y-105410000D02*
X154178000Y-105410000D01*
X154178000Y-101854000D02*
X147574000Y-101854000D01*
X154178000Y-105410000D02*
G75*
G03X155956000Y-103632000I0J1778000D01*
G01*
X155956000Y-103632000D02*
G75*
G03X154178000Y-101854000I-1778000J0D01*
G01*
X145796000Y-103632000D02*
G75*
G03X147574000Y-105410000I1778000J0D01*
G01*
X147574000Y-101854000D02*
G75*
G03X145796000Y-103632000I0J-1778000D01*
G01*
X154178000Y-105918000D02*
G75*
G03X156464000Y-103632000I0J2286000D01*
G01*
X154178000Y-105918000D02*
X147574000Y-105918000D01*
X147574000Y-101346000D02*
X154178000Y-101346000D01*
X145288000Y-103632000D02*
G75*
G03X147574000Y-105918000I2286000J0D01*
G01*
X147574000Y-101346000D02*
G75*
G03X145288000Y-103632000I0J-2286000D01*
G01*
D16*
X127444500Y-91503500D02*
X127444500Y-88328500D01*
X132588000Y-91503500D02*
X132588000Y-88328500D01*
X132588000Y-88328500D02*
X126492000Y-88328500D01*
X126492000Y-88328500D02*
X126492000Y-91503500D01*
X126492000Y-91503500D02*
X132588000Y-91503500D01*
X156654500Y-70231000D02*
X156654500Y-73025000D01*
X157226000Y-70231000D02*
X153670000Y-70231000D01*
X153670000Y-70231000D02*
X153670000Y-73025000D01*
X153670000Y-73025000D02*
X157226000Y-73025000D01*
X157226000Y-73025000D02*
X157226000Y-70231000D01*
X106045000Y-124650500D02*
X103251000Y-124650500D01*
X106045000Y-125222000D02*
X106045000Y-121666000D01*
X106045000Y-121666000D02*
X103251000Y-121666000D01*
X103251000Y-121666000D02*
X103251000Y-125222000D01*
X103251000Y-125222000D02*
X106045000Y-125222000D01*
X113792000Y-134927340D02*
X113492280Y-135227060D01*
X113492280Y-135227060D02*
X114091720Y-135227060D01*
X114091720Y-135227060D02*
X113792000Y-134927340D01*
X113891060Y-135028940D02*
X113692940Y-135028940D01*
X113591340Y-135128000D02*
X113992660Y-135128000D01*
X114592100Y-134828280D02*
X112991900Y-134828280D01*
X112991900Y-135427720D02*
X114592100Y-135427720D01*
X112991900Y-136128760D02*
X112991900Y-134127240D01*
X112991900Y-134127240D02*
X114592100Y-134127240D01*
X114592100Y-134127240D02*
X114592100Y-136128760D01*
X114592100Y-136128760D02*
X112991900Y-136128760D01*
D12*
X189683000Y-102826000D02*
X189683000Y-103026000D01*
X189683000Y-105420000D02*
X189683000Y-105240000D01*
X186455256Y-105109643D02*
G75*
G03X189683000Y-105426000I1727744J1003643D01*
G01*
X187130994Y-105239068D02*
G75*
G03X189234000Y-105240000I1052006J1133068D01*
G01*
X189670220Y-102799274D02*
G75*
G03X186433000Y-103146000I-1497220J-1306726D01*
G01*
X189196889Y-103026747D02*
G75*
G03X187149000Y-103046000I-1013889J-1079253D01*
G01*
X118223000Y-134528000D02*
X118223000Y-135728000D01*
X116473000Y-135728000D02*
X116473000Y-134528000D01*
X181772000Y-103265000D02*
X182972000Y-103265000D01*
X182972000Y-105015000D02*
X181772000Y-105015000D01*
D17*
X86793429Y-81788000D02*
X87882000Y-81788000D01*
X88099714Y-81860572D01*
X88244857Y-82005715D01*
X88317429Y-82223429D01*
X88317429Y-82368572D01*
X88317429Y-80264000D02*
X88317429Y-81134857D01*
X88317429Y-80699429D02*
X86793429Y-80699429D01*
X87011143Y-80844572D01*
X87156286Y-80989714D01*
X87228857Y-81134857D01*
X112701429Y-91440001D02*
X111975714Y-91948001D01*
X112701429Y-92310858D02*
X111177429Y-92310858D01*
X111177429Y-91730286D01*
X111250000Y-91585144D01*
X111322571Y-91512572D01*
X111467714Y-91440001D01*
X111685429Y-91440001D01*
X111830571Y-91512572D01*
X111903143Y-91585144D01*
X111975714Y-91730286D01*
X111975714Y-92310858D01*
X111177429Y-90351429D02*
X112266000Y-90351429D01*
X112483714Y-90424001D01*
X112628857Y-90569144D01*
X112701429Y-90786858D01*
X112701429Y-90932001D01*
X111685429Y-88972572D02*
X112701429Y-88972572D01*
X111104857Y-89335429D02*
X112193429Y-89698286D01*
X112193429Y-88754858D01*
X111177429Y-87448572D02*
X111177429Y-88174286D01*
X111903143Y-88246857D01*
X111830571Y-88174286D01*
X111758000Y-88029143D01*
X111758000Y-87666286D01*
X111830571Y-87521143D01*
X111903143Y-87448572D01*
X112048286Y-87376000D01*
X112411143Y-87376000D01*
X112556286Y-87448572D01*
X112628857Y-87521143D01*
X112701429Y-87666286D01*
X112701429Y-88029143D01*
X112628857Y-88174286D01*
X112556286Y-88246857D01*
X112120857Y-86722857D02*
X112120857Y-85561714D01*
X111177429Y-85053714D02*
X111177429Y-84182857D01*
X112701429Y-84618286D02*
X111177429Y-84618286D01*
X112701429Y-82804000D02*
X111975714Y-83312000D01*
X112701429Y-83674857D02*
X111177429Y-83674857D01*
X111177429Y-83094285D01*
X111250000Y-82949143D01*
X111322571Y-82876571D01*
X111467714Y-82804000D01*
X111685429Y-82804000D01*
X111830571Y-82876571D01*
X111903143Y-82949143D01*
X111975714Y-83094285D01*
X111975714Y-83674857D01*
X111177429Y-81715428D02*
X112266000Y-81715428D01*
X112483714Y-81788000D01*
X112628857Y-81933143D01*
X112701429Y-82150857D01*
X112701429Y-82296000D01*
X111177429Y-80699428D02*
X111177429Y-80554285D01*
X111250000Y-80409142D01*
X111322571Y-80336571D01*
X111467714Y-80264000D01*
X111758000Y-80191428D01*
X112120857Y-80191428D01*
X112411143Y-80264000D01*
X112556286Y-80336571D01*
X112628857Y-80409142D01*
X112701429Y-80554285D01*
X112701429Y-80699428D01*
X112628857Y-80844571D01*
X112556286Y-80917142D01*
X112411143Y-80989714D01*
X112120857Y-81062285D01*
X111758000Y-81062285D01*
X111467714Y-80989714D01*
X111322571Y-80917142D01*
X111250000Y-80844571D01*
X111177429Y-80699428D01*
X111177429Y-79247999D02*
X111177429Y-79102856D01*
X111250000Y-78957713D01*
X111322571Y-78885142D01*
X111467714Y-78812571D01*
X111758000Y-78739999D01*
X112120857Y-78739999D01*
X112411143Y-78812571D01*
X112556286Y-78885142D01*
X112628857Y-78957713D01*
X112701429Y-79102856D01*
X112701429Y-79247999D01*
X112628857Y-79393142D01*
X112556286Y-79465713D01*
X112411143Y-79538285D01*
X112120857Y-79610856D01*
X111758000Y-79610856D01*
X111467714Y-79538285D01*
X111322571Y-79465713D01*
X111250000Y-79393142D01*
X111177429Y-79247999D01*
X112701429Y-77288570D02*
X112701429Y-78159427D01*
X112701429Y-77723999D02*
X111177429Y-77723999D01*
X111395143Y-77869142D01*
X111540286Y-78014284D01*
X111612857Y-78159427D01*
X112701429Y-75837141D02*
X112701429Y-76707998D01*
X112701429Y-76272570D02*
X111177429Y-76272570D01*
X111395143Y-76417713D01*
X111540286Y-76562855D01*
X111612857Y-76707998D01*
X111903143Y-74675998D02*
X111975714Y-74458284D01*
X112048286Y-74385712D01*
X112193429Y-74313141D01*
X112411143Y-74313141D01*
X112556286Y-74385712D01*
X112628857Y-74458284D01*
X112701429Y-74603426D01*
X112701429Y-75183998D01*
X111177429Y-75183998D01*
X111177429Y-74675998D01*
X111250000Y-74530855D01*
X111322571Y-74458284D01*
X111467714Y-74385712D01*
X111612857Y-74385712D01*
X111758000Y-74458284D01*
X111830571Y-74530855D01*
X111903143Y-74675998D01*
X111903143Y-75183998D01*
X112266000Y-73732569D02*
X112266000Y-73006855D01*
X112701429Y-73877712D02*
X111177429Y-73369712D01*
X112701429Y-72861712D01*
X112701429Y-72353712D02*
X111177429Y-72353712D01*
X112701429Y-71482855D01*
X111177429Y-71482855D01*
X112701429Y-70031427D02*
X112701429Y-70757141D01*
X111177429Y-70757141D01*
D12*
X144716667Y-59888381D02*
X144383333Y-59412190D01*
X144145238Y-59888381D02*
X144145238Y-58888381D01*
X144526191Y-58888381D01*
X144621429Y-58936000D01*
X144669048Y-58983619D01*
X144716667Y-59078857D01*
X144716667Y-59221714D01*
X144669048Y-59316952D01*
X144621429Y-59364571D01*
X144526191Y-59412190D01*
X144145238Y-59412190D01*
X145145238Y-59364571D02*
X145478572Y-59364571D01*
X145621429Y-59888381D02*
X145145238Y-59888381D01*
X145145238Y-58888381D01*
X145621429Y-58888381D01*
X146383334Y-59364571D02*
X146050000Y-59364571D01*
X146050000Y-59888381D02*
X146050000Y-58888381D01*
X146526191Y-58888381D01*
X147050000Y-58888381D02*
X147050000Y-59126476D01*
X146811905Y-59031238D02*
X147050000Y-59126476D01*
X147288096Y-59031238D01*
X146907143Y-59316952D02*
X147050000Y-59126476D01*
X147192858Y-59316952D01*
X147811905Y-58888381D02*
X147811905Y-59126476D01*
X147573810Y-59031238D02*
X147811905Y-59126476D01*
X148050001Y-59031238D01*
X147669048Y-59316952D02*
X147811905Y-59126476D01*
X147954763Y-59316952D01*
X152181143Y-137294857D02*
X152228762Y-137342476D01*
X152276381Y-137485333D01*
X152276381Y-137580571D01*
X152228762Y-137723429D01*
X152133524Y-137818667D01*
X152038286Y-137866286D01*
X151847810Y-137913905D01*
X151704952Y-137913905D01*
X151514476Y-137866286D01*
X151419238Y-137818667D01*
X151324000Y-137723429D01*
X151276381Y-137580571D01*
X151276381Y-137485333D01*
X151324000Y-137342476D01*
X151371619Y-137294857D01*
X151371619Y-136913905D02*
X151324000Y-136866286D01*
X151276381Y-136771048D01*
X151276381Y-136532952D01*
X151324000Y-136437714D01*
X151371619Y-136390095D01*
X151466857Y-136342476D01*
X151562095Y-136342476D01*
X151704952Y-136390095D01*
X152276381Y-136961524D01*
X152276381Y-136342476D01*
X151276381Y-136009143D02*
X151276381Y-135390095D01*
X151657333Y-135723429D01*
X151657333Y-135580571D01*
X151704952Y-135485333D01*
X151752571Y-135437714D01*
X151847810Y-135390095D01*
X152085905Y-135390095D01*
X152181143Y-135437714D01*
X152228762Y-135485333D01*
X152276381Y-135580571D01*
X152276381Y-135866286D01*
X152228762Y-135961524D01*
X152181143Y-136009143D01*
X139739810Y-82502001D02*
X139739810Y-81502001D01*
X140787429Y-82406763D02*
X140739810Y-82454382D01*
X140596953Y-82502001D01*
X140501715Y-82502001D01*
X140358857Y-82454382D01*
X140263619Y-82359144D01*
X140216000Y-82263906D01*
X140168381Y-82073430D01*
X140168381Y-81930572D01*
X140216000Y-81740096D01*
X140263619Y-81644858D01*
X140358857Y-81549620D01*
X140501715Y-81502001D01*
X140596953Y-81502001D01*
X140739810Y-81549620D01*
X140787429Y-81597239D01*
X141739810Y-82502001D02*
X141168381Y-82502001D01*
X141454095Y-82502001D02*
X141454095Y-81502001D01*
X141358857Y-81644858D01*
X141263619Y-81740096D01*
X141168381Y-81787715D01*
X182340343Y-76594425D02*
X182387962Y-76642044D01*
X182435581Y-76784901D01*
X182435581Y-76880139D01*
X182387962Y-77022997D01*
X182292724Y-77118235D01*
X182197486Y-77165854D01*
X182007010Y-77213473D01*
X181864152Y-77213473D01*
X181673676Y-77165854D01*
X181578438Y-77118235D01*
X181483200Y-77022997D01*
X181435581Y-76880139D01*
X181435581Y-76784901D01*
X181483200Y-76642044D01*
X181530819Y-76594425D01*
X181435581Y-75975378D02*
X181435581Y-75784901D01*
X181483200Y-75689663D01*
X181578438Y-75594425D01*
X181768914Y-75546806D01*
X182102248Y-75546806D01*
X182292724Y-75594425D01*
X182387962Y-75689663D01*
X182435581Y-75784901D01*
X182435581Y-75975378D01*
X182387962Y-76070616D01*
X182292724Y-76165854D01*
X182102248Y-76213473D01*
X181768914Y-76213473D01*
X181578438Y-76165854D01*
X181483200Y-76070616D01*
X181435581Y-75975378D01*
X182435581Y-75118235D02*
X181435581Y-75118235D01*
X182435581Y-74546806D01*
X181435581Y-74546806D01*
X181530819Y-74118235D02*
X181483200Y-74070616D01*
X181435581Y-73975378D01*
X181435581Y-73737282D01*
X181483200Y-73642044D01*
X181530819Y-73594425D01*
X181626057Y-73546806D01*
X181721295Y-73546806D01*
X181864152Y-73594425D01*
X182435581Y-74165854D01*
X182435581Y-73546806D01*
D17*
X116694857Y-111585829D02*
X116694857Y-112819543D01*
X116767429Y-112964686D01*
X116840000Y-113037257D01*
X116985143Y-113109829D01*
X117275429Y-113109829D01*
X117420571Y-113037257D01*
X117493143Y-112964686D01*
X117565714Y-112819543D01*
X117565714Y-111585829D01*
X118146285Y-111585829D02*
X119089714Y-111585829D01*
X118581714Y-112166400D01*
X118799428Y-112166400D01*
X118944571Y-112238971D01*
X119017142Y-112311543D01*
X119089714Y-112456686D01*
X119089714Y-112819543D01*
X119017142Y-112964686D01*
X118944571Y-113037257D01*
X118799428Y-113109829D01*
X118364000Y-113109829D01*
X118218857Y-113037257D01*
X118146285Y-112964686D01*
X113719428Y-132109029D02*
X113211428Y-131383314D01*
X112848571Y-132109029D02*
X112848571Y-130585029D01*
X113429143Y-130585029D01*
X113574285Y-130657600D01*
X113646857Y-130730171D01*
X113719428Y-130875314D01*
X113719428Y-131093029D01*
X113646857Y-131238171D01*
X113574285Y-131310743D01*
X113429143Y-131383314D01*
X112848571Y-131383314D01*
X114880571Y-131310743D02*
X114372571Y-131310743D01*
X114372571Y-132109029D02*
X114372571Y-130585029D01*
X115098285Y-130585029D01*
X115678857Y-132109029D02*
X115678857Y-130585029D01*
X116186857Y-131673600D01*
X116694857Y-130585029D01*
X116694857Y-132109029D01*
X118073714Y-130585029D02*
X117783428Y-130585029D01*
X117638285Y-130657600D01*
X117565714Y-130730171D01*
X117420571Y-130947886D01*
X117348000Y-131238171D01*
X117348000Y-131818743D01*
X117420571Y-131963886D01*
X117493143Y-132036457D01*
X117638285Y-132109029D01*
X117928571Y-132109029D01*
X118073714Y-132036457D01*
X118146285Y-131963886D01*
X118218857Y-131818743D01*
X118218857Y-131455886D01*
X118146285Y-131310743D01*
X118073714Y-131238171D01*
X117928571Y-131165600D01*
X117638285Y-131165600D01*
X117493143Y-131238171D01*
X117420571Y-131310743D01*
X117348000Y-131455886D01*
X118944572Y-132109029D02*
X119234857Y-132109029D01*
X119380000Y-132036457D01*
X119452572Y-131963886D01*
X119597714Y-131746171D01*
X119670286Y-131455886D01*
X119670286Y-130875314D01*
X119597714Y-130730171D01*
X119525143Y-130657600D01*
X119380000Y-130585029D01*
X119089714Y-130585029D01*
X118944572Y-130657600D01*
X118872000Y-130730171D01*
X118799429Y-130875314D01*
X118799429Y-131238171D01*
X118872000Y-131383314D01*
X118944572Y-131455886D01*
X119089714Y-131528457D01*
X119380000Y-131528457D01*
X119525143Y-131455886D01*
X119597714Y-131383314D01*
X119670286Y-131238171D01*
X121194286Y-131963886D02*
X121121715Y-132036457D01*
X120904001Y-132109029D01*
X120758858Y-132109029D01*
X120541143Y-132036457D01*
X120396001Y-131891314D01*
X120323429Y-131746171D01*
X120250858Y-131455886D01*
X120250858Y-131238171D01*
X120323429Y-130947886D01*
X120396001Y-130802743D01*
X120541143Y-130657600D01*
X120758858Y-130585029D01*
X120904001Y-130585029D01*
X121121715Y-130657600D01*
X121194286Y-130730171D01*
X121702286Y-130585029D02*
X122065143Y-132109029D01*
X122355429Y-131020457D01*
X122645715Y-132109029D01*
X123008572Y-130585029D01*
D12*
X159794381Y-122896190D02*
X158794381Y-122896190D01*
X159699143Y-121848571D02*
X159746762Y-121896190D01*
X159794381Y-122039047D01*
X159794381Y-122134285D01*
X159746762Y-122277143D01*
X159651524Y-122372381D01*
X159556286Y-122420000D01*
X159365810Y-122467619D01*
X159222952Y-122467619D01*
X159032476Y-122420000D01*
X158937238Y-122372381D01*
X158842000Y-122277143D01*
X158794381Y-122134285D01*
X158794381Y-122039047D01*
X158842000Y-121896190D01*
X158889619Y-121848571D01*
X158889619Y-121467619D02*
X158842000Y-121420000D01*
X158794381Y-121324762D01*
X158794381Y-121086666D01*
X158842000Y-120991428D01*
X158889619Y-120943809D01*
X158984857Y-120896190D01*
X159080095Y-120896190D01*
X159222952Y-120943809D01*
X159794381Y-121515238D01*
X159794381Y-120896190D01*
X151809143Y-75858666D02*
X151856762Y-75906285D01*
X151904381Y-76049142D01*
X151904381Y-76144380D01*
X151856762Y-76287238D01*
X151761524Y-76382476D01*
X151666286Y-76430095D01*
X151475810Y-76477714D01*
X151332952Y-76477714D01*
X151142476Y-76430095D01*
X151047238Y-76382476D01*
X150952000Y-76287238D01*
X150904381Y-76144380D01*
X150904381Y-76049142D01*
X150952000Y-75906285D01*
X150999619Y-75858666D01*
X150904381Y-75525333D02*
X150904381Y-74906285D01*
X151285333Y-75239619D01*
X151285333Y-75096761D01*
X151332952Y-75001523D01*
X151380571Y-74953904D01*
X151475810Y-74906285D01*
X151713905Y-74906285D01*
X151809143Y-74953904D01*
X151856762Y-75001523D01*
X151904381Y-75096761D01*
X151904381Y-75382476D01*
X151856762Y-75477714D01*
X151809143Y-75525333D01*
X145121334Y-79673143D02*
X145073715Y-79720762D01*
X144930858Y-79768381D01*
X144835620Y-79768381D01*
X144692762Y-79720762D01*
X144597524Y-79625524D01*
X144549905Y-79530286D01*
X144502286Y-79339810D01*
X144502286Y-79196952D01*
X144549905Y-79006476D01*
X144597524Y-78911238D01*
X144692762Y-78816000D01*
X144835620Y-78768381D01*
X144930858Y-78768381D01*
X145073715Y-78816000D01*
X145121334Y-78863619D01*
X145978477Y-79101714D02*
X145978477Y-79768381D01*
X145740381Y-78720762D02*
X145502286Y-79435048D01*
X146121334Y-79435048D01*
X128305143Y-80938666D02*
X128352762Y-80986285D01*
X128400381Y-81129142D01*
X128400381Y-81224380D01*
X128352762Y-81367238D01*
X128257524Y-81462476D01*
X128162286Y-81510095D01*
X127971810Y-81557714D01*
X127828952Y-81557714D01*
X127638476Y-81510095D01*
X127543238Y-81462476D01*
X127448000Y-81367238D01*
X127400381Y-81224380D01*
X127400381Y-81129142D01*
X127448000Y-80986285D01*
X127495619Y-80938666D01*
X127400381Y-80033904D02*
X127400381Y-80510095D01*
X127876571Y-80557714D01*
X127828952Y-80510095D01*
X127781333Y-80414857D01*
X127781333Y-80176761D01*
X127828952Y-80081523D01*
X127876571Y-80033904D01*
X127971810Y-79986285D01*
X128209905Y-79986285D01*
X128305143Y-80033904D01*
X128352762Y-80081523D01*
X128400381Y-80176761D01*
X128400381Y-80414857D01*
X128352762Y-80510095D01*
X128305143Y-80557714D01*
X134453334Y-73949143D02*
X134405715Y-73996762D01*
X134262858Y-74044381D01*
X134167620Y-74044381D01*
X134024762Y-73996762D01*
X133929524Y-73901524D01*
X133881905Y-73806286D01*
X133834286Y-73615810D01*
X133834286Y-73472952D01*
X133881905Y-73282476D01*
X133929524Y-73187238D01*
X134024762Y-73092000D01*
X134167620Y-73044381D01*
X134262858Y-73044381D01*
X134405715Y-73092000D01*
X134453334Y-73139619D01*
X135310477Y-73044381D02*
X135120000Y-73044381D01*
X135024762Y-73092000D01*
X134977143Y-73139619D01*
X134881905Y-73282476D01*
X134834286Y-73472952D01*
X134834286Y-73853905D01*
X134881905Y-73949143D01*
X134929524Y-73996762D01*
X135024762Y-74044381D01*
X135215239Y-74044381D01*
X135310477Y-73996762D01*
X135358096Y-73949143D01*
X135405715Y-73853905D01*
X135405715Y-73615810D01*
X135358096Y-73520571D01*
X135310477Y-73472952D01*
X135215239Y-73425333D01*
X135024762Y-73425333D01*
X134929524Y-73472952D01*
X134881905Y-73520571D01*
X134834286Y-73615810D01*
X141057334Y-75473143D02*
X141009715Y-75520762D01*
X140866858Y-75568381D01*
X140771620Y-75568381D01*
X140628762Y-75520762D01*
X140533524Y-75425524D01*
X140485905Y-75330286D01*
X140438286Y-75139810D01*
X140438286Y-74996952D01*
X140485905Y-74806476D01*
X140533524Y-74711238D01*
X140628762Y-74616000D01*
X140771620Y-74568381D01*
X140866858Y-74568381D01*
X141009715Y-74616000D01*
X141057334Y-74663619D01*
X141390667Y-74568381D02*
X142057334Y-74568381D01*
X141628762Y-75568381D01*
X148169334Y-69885143D02*
X148121715Y-69932762D01*
X147978858Y-69980381D01*
X147883620Y-69980381D01*
X147740762Y-69932762D01*
X147645524Y-69837524D01*
X147597905Y-69742286D01*
X147550286Y-69551810D01*
X147550286Y-69408952D01*
X147597905Y-69218476D01*
X147645524Y-69123238D01*
X147740762Y-69028000D01*
X147883620Y-68980381D01*
X147978858Y-68980381D01*
X148121715Y-69028000D01*
X148169334Y-69075619D01*
X148740762Y-69408952D02*
X148645524Y-69361333D01*
X148597905Y-69313714D01*
X148550286Y-69218476D01*
X148550286Y-69170857D01*
X148597905Y-69075619D01*
X148645524Y-69028000D01*
X148740762Y-68980381D01*
X148931239Y-68980381D01*
X149026477Y-69028000D01*
X149074096Y-69075619D01*
X149121715Y-69170857D01*
X149121715Y-69218476D01*
X149074096Y-69313714D01*
X149026477Y-69361333D01*
X148931239Y-69408952D01*
X148740762Y-69408952D01*
X148645524Y-69456571D01*
X148597905Y-69504190D01*
X148550286Y-69599429D01*
X148550286Y-69789905D01*
X148597905Y-69885143D01*
X148645524Y-69932762D01*
X148740762Y-69980381D01*
X148931239Y-69980381D01*
X149026477Y-69932762D01*
X149074096Y-69885143D01*
X149121715Y-69789905D01*
X149121715Y-69599429D01*
X149074096Y-69504190D01*
X149026477Y-69456571D01*
X148931239Y-69408952D01*
X119753143Y-70393143D02*
X119705524Y-70440762D01*
X119562667Y-70488381D01*
X119467429Y-70488381D01*
X119324571Y-70440762D01*
X119229333Y-70345524D01*
X119181714Y-70250286D01*
X119134095Y-70059810D01*
X119134095Y-69916952D01*
X119181714Y-69726476D01*
X119229333Y-69631238D01*
X119324571Y-69536000D01*
X119467429Y-69488381D01*
X119562667Y-69488381D01*
X119705524Y-69536000D01*
X119753143Y-69583619D01*
X120705524Y-70488381D02*
X120134095Y-70488381D01*
X120419809Y-70488381D02*
X120419809Y-69488381D01*
X120324571Y-69631238D01*
X120229333Y-69726476D01*
X120134095Y-69774095D01*
X121324571Y-69488381D02*
X121419810Y-69488381D01*
X121515048Y-69536000D01*
X121562667Y-69583619D01*
X121610286Y-69678857D01*
X121657905Y-69869333D01*
X121657905Y-70107429D01*
X121610286Y-70297905D01*
X121562667Y-70393143D01*
X121515048Y-70440762D01*
X121419810Y-70488381D01*
X121324571Y-70488381D01*
X121229333Y-70440762D01*
X121181714Y-70393143D01*
X121134095Y-70297905D01*
X121086476Y-70107429D01*
X121086476Y-69869333D01*
X121134095Y-69678857D01*
X121181714Y-69583619D01*
X121229333Y-69536000D01*
X121324571Y-69488381D01*
X119753143Y-85633143D02*
X119705524Y-85680762D01*
X119562667Y-85728381D01*
X119467429Y-85728381D01*
X119324571Y-85680762D01*
X119229333Y-85585524D01*
X119181714Y-85490286D01*
X119134095Y-85299810D01*
X119134095Y-85156952D01*
X119181714Y-84966476D01*
X119229333Y-84871238D01*
X119324571Y-84776000D01*
X119467429Y-84728381D01*
X119562667Y-84728381D01*
X119705524Y-84776000D01*
X119753143Y-84823619D01*
X120705524Y-85728381D02*
X120134095Y-85728381D01*
X120419809Y-85728381D02*
X120419809Y-84728381D01*
X120324571Y-84871238D01*
X120229333Y-84966476D01*
X120134095Y-85014095D01*
X121657905Y-85728381D02*
X121086476Y-85728381D01*
X121372190Y-85728381D02*
X121372190Y-84728381D01*
X121276952Y-84871238D01*
X121181714Y-84966476D01*
X121086476Y-85014095D01*
X156381143Y-110878857D02*
X156428762Y-110926476D01*
X156476381Y-111069333D01*
X156476381Y-111164571D01*
X156428762Y-111307429D01*
X156333524Y-111402667D01*
X156238286Y-111450286D01*
X156047810Y-111497905D01*
X155904952Y-111497905D01*
X155714476Y-111450286D01*
X155619238Y-111402667D01*
X155524000Y-111307429D01*
X155476381Y-111164571D01*
X155476381Y-111069333D01*
X155524000Y-110926476D01*
X155571619Y-110878857D01*
X156476381Y-109926476D02*
X156476381Y-110497905D01*
X156476381Y-110212191D02*
X155476381Y-110212191D01*
X155619238Y-110307429D01*
X155714476Y-110402667D01*
X155762095Y-110497905D01*
X155476381Y-109021714D02*
X155476381Y-109497905D01*
X155952571Y-109545524D01*
X155904952Y-109497905D01*
X155857333Y-109402667D01*
X155857333Y-109164571D01*
X155904952Y-109069333D01*
X155952571Y-109021714D01*
X156047810Y-108974095D01*
X156285905Y-108974095D01*
X156381143Y-109021714D01*
X156428762Y-109069333D01*
X156476381Y-109164571D01*
X156476381Y-109402667D01*
X156428762Y-109497905D01*
X156381143Y-109545524D01*
X140581143Y-119669143D02*
X140533524Y-119716762D01*
X140390667Y-119764381D01*
X140295429Y-119764381D01*
X140152571Y-119716762D01*
X140057333Y-119621524D01*
X140009714Y-119526286D01*
X139962095Y-119335810D01*
X139962095Y-119192952D01*
X140009714Y-119002476D01*
X140057333Y-118907238D01*
X140152571Y-118812000D01*
X140295429Y-118764381D01*
X140390667Y-118764381D01*
X140533524Y-118812000D01*
X140581143Y-118859619D01*
X141533524Y-119764381D02*
X140962095Y-119764381D01*
X141247809Y-119764381D02*
X141247809Y-118764381D01*
X141152571Y-118907238D01*
X141057333Y-119002476D01*
X140962095Y-119050095D01*
X142390667Y-118764381D02*
X142200190Y-118764381D01*
X142104952Y-118812000D01*
X142057333Y-118859619D01*
X141962095Y-119002476D01*
X141914476Y-119192952D01*
X141914476Y-119573905D01*
X141962095Y-119669143D01*
X142009714Y-119716762D01*
X142104952Y-119764381D01*
X142295429Y-119764381D01*
X142390667Y-119716762D01*
X142438286Y-119669143D01*
X142485905Y-119573905D01*
X142485905Y-119335810D01*
X142438286Y-119240571D01*
X142390667Y-119192952D01*
X142295429Y-119145333D01*
X142104952Y-119145333D01*
X142009714Y-119192952D01*
X141962095Y-119240571D01*
X141914476Y-119335810D01*
X161917143Y-125901143D02*
X161869524Y-125948762D01*
X161726667Y-125996381D01*
X161631429Y-125996381D01*
X161488571Y-125948762D01*
X161393333Y-125853524D01*
X161345714Y-125758286D01*
X161298095Y-125567810D01*
X161298095Y-125424952D01*
X161345714Y-125234476D01*
X161393333Y-125139238D01*
X161488571Y-125044000D01*
X161631429Y-124996381D01*
X161726667Y-124996381D01*
X161869524Y-125044000D01*
X161917143Y-125091619D01*
X162869524Y-125996381D02*
X162298095Y-125996381D01*
X162583809Y-125996381D02*
X162583809Y-124996381D01*
X162488571Y-125139238D01*
X162393333Y-125234476D01*
X162298095Y-125282095D01*
X163202857Y-124996381D02*
X163869524Y-124996381D01*
X163440952Y-125996381D01*
X146609143Y-135485143D02*
X146561524Y-135532762D01*
X146418667Y-135580381D01*
X146323429Y-135580381D01*
X146180571Y-135532762D01*
X146085333Y-135437524D01*
X146037714Y-135342286D01*
X145990095Y-135151810D01*
X145990095Y-135008952D01*
X146037714Y-134818476D01*
X146085333Y-134723238D01*
X146180571Y-134628000D01*
X146323429Y-134580381D01*
X146418667Y-134580381D01*
X146561524Y-134628000D01*
X146609143Y-134675619D01*
X147561524Y-135580381D02*
X146990095Y-135580381D01*
X147275809Y-135580381D02*
X147275809Y-134580381D01*
X147180571Y-134723238D01*
X147085333Y-134818476D01*
X146990095Y-134866095D01*
X148132952Y-135008952D02*
X148037714Y-134961333D01*
X147990095Y-134913714D01*
X147942476Y-134818476D01*
X147942476Y-134770857D01*
X147990095Y-134675619D01*
X148037714Y-134628000D01*
X148132952Y-134580381D01*
X148323429Y-134580381D01*
X148418667Y-134628000D01*
X148466286Y-134675619D01*
X148513905Y-134770857D01*
X148513905Y-134818476D01*
X148466286Y-134913714D01*
X148418667Y-134961333D01*
X148323429Y-135008952D01*
X148132952Y-135008952D01*
X148037714Y-135056571D01*
X147990095Y-135104190D01*
X147942476Y-135199429D01*
X147942476Y-135389905D01*
X147990095Y-135485143D01*
X148037714Y-135532762D01*
X148132952Y-135580381D01*
X148323429Y-135580381D01*
X148418667Y-135532762D01*
X148466286Y-135485143D01*
X148513905Y-135389905D01*
X148513905Y-135199429D01*
X148466286Y-135104190D01*
X148418667Y-135056571D01*
X148323429Y-135008952D01*
X107484183Y-135834285D02*
X107531802Y-135881904D01*
X107579421Y-136024761D01*
X107579421Y-136119999D01*
X107531802Y-136262857D01*
X107436564Y-136358095D01*
X107341326Y-136405714D01*
X107150850Y-136453333D01*
X107007992Y-136453333D01*
X106817516Y-136405714D01*
X106722278Y-136358095D01*
X106627040Y-136262857D01*
X106579421Y-136119999D01*
X106579421Y-136024761D01*
X106627040Y-135881904D01*
X106674659Y-135834285D01*
X106579421Y-135215238D02*
X106579421Y-135024761D01*
X106627040Y-134929523D01*
X106722278Y-134834285D01*
X106912754Y-134786666D01*
X107246088Y-134786666D01*
X107436564Y-134834285D01*
X107531802Y-134929523D01*
X107579421Y-135024761D01*
X107579421Y-135215238D01*
X107531802Y-135310476D01*
X107436564Y-135405714D01*
X107246088Y-135453333D01*
X106912754Y-135453333D01*
X106722278Y-135405714D01*
X106627040Y-135310476D01*
X106579421Y-135215238D01*
X107579421Y-134358095D02*
X106579421Y-134358095D01*
X107579421Y-133786666D01*
X106579421Y-133786666D01*
X107579421Y-132786666D02*
X107579421Y-133358095D01*
X107579421Y-133072381D02*
X106579421Y-133072381D01*
X106722278Y-133167619D01*
X106817516Y-133262857D01*
X106865135Y-133358095D01*
X186835905Y-114232381D02*
X186835905Y-113232381D01*
X187074000Y-113232381D01*
X187216858Y-113280000D01*
X187312096Y-113375238D01*
X187359715Y-113470476D01*
X187407334Y-113660952D01*
X187407334Y-113803810D01*
X187359715Y-113994286D01*
X187312096Y-114089524D01*
X187216858Y-114184762D01*
X187074000Y-114232381D01*
X186835905Y-114232381D01*
X188359715Y-114232381D02*
X187788286Y-114232381D01*
X188074000Y-114232381D02*
X188074000Y-113232381D01*
X187978762Y-113375238D01*
X187883524Y-113470476D01*
X187788286Y-113518095D01*
X190912095Y-115552381D02*
X190912095Y-114552381D01*
X191483524Y-115552381D02*
X191054952Y-114980952D01*
X191483524Y-114552381D02*
X190912095Y-115123810D01*
X186835905Y-107628381D02*
X186835905Y-106628381D01*
X187074000Y-106628381D01*
X187216858Y-106676000D01*
X187312096Y-106771238D01*
X187359715Y-106866476D01*
X187407334Y-107056952D01*
X187407334Y-107199810D01*
X187359715Y-107390286D01*
X187312096Y-107485524D01*
X187216858Y-107580762D01*
X187074000Y-107628381D01*
X186835905Y-107628381D01*
X187788286Y-106723619D02*
X187835905Y-106676000D01*
X187931143Y-106628381D01*
X188169239Y-106628381D01*
X188264477Y-106676000D01*
X188312096Y-106723619D01*
X188359715Y-106818857D01*
X188359715Y-106914095D01*
X188312096Y-107056952D01*
X187740667Y-107628381D01*
X188359715Y-107628381D01*
X190912095Y-108948381D02*
X190912095Y-107948381D01*
X191483524Y-108948381D02*
X191054952Y-108376952D01*
X191483524Y-107948381D02*
X190912095Y-108519810D01*
D13*
X124335117Y-76714229D02*
X123978308Y-76714229D01*
X123978308Y-75964929D01*
X124977374Y-76714229D02*
X124549203Y-76714229D01*
X124763289Y-76714229D02*
X124763289Y-75964929D01*
X124691927Y-76071972D01*
X124620565Y-76143334D01*
X124549203Y-76179015D01*
X123532295Y-73214109D02*
X123104124Y-73214109D01*
X123318210Y-73214109D02*
X123318210Y-72464809D01*
X123246848Y-72571852D01*
X123175486Y-72643214D01*
X123104124Y-72678895D01*
X123996148Y-72464809D02*
X124067509Y-72464809D01*
X124138871Y-72500490D01*
X124174552Y-72536171D01*
X124210233Y-72607533D01*
X124245914Y-72750257D01*
X124245914Y-72928661D01*
X124210233Y-73071385D01*
X124174552Y-73142747D01*
X124138871Y-73178428D01*
X124067509Y-73214109D01*
X123996148Y-73214109D01*
X123924786Y-73178428D01*
X123889105Y-73142747D01*
X123853424Y-73071385D01*
X123817743Y-72928661D01*
X123817743Y-72750257D01*
X123853424Y-72607533D01*
X123889105Y-72536171D01*
X123924786Y-72500490D01*
X123996148Y-72464809D01*
X124567043Y-72714576D02*
X124567043Y-73463876D01*
X124923852Y-73107066D02*
X124959533Y-73178428D01*
X125030895Y-73214109D01*
X124567043Y-73107066D02*
X124602724Y-73178428D01*
X124674086Y-73214109D01*
X124816809Y-73214109D01*
X124888171Y-73178428D01*
X124923852Y-73107066D01*
X124923852Y-72714576D01*
X125352024Y-73214109D02*
X125352024Y-72464809D01*
X125352024Y-72821619D02*
X125780195Y-72821619D01*
X125780195Y-73214109D02*
X125780195Y-72464809D01*
D12*
X164869905Y-106096381D02*
X164869905Y-105096381D01*
X165250858Y-105096381D01*
X165346096Y-105144000D01*
X165393715Y-105191619D01*
X165441334Y-105286857D01*
X165441334Y-105429714D01*
X165393715Y-105524952D01*
X165346096Y-105572571D01*
X165250858Y-105620190D01*
X164869905Y-105620190D01*
X166298477Y-105429714D02*
X166298477Y-106096381D01*
X166060381Y-105048762D02*
X165822286Y-105763048D01*
X166441334Y-105763048D01*
X166901905Y-129464381D02*
X166901905Y-128464381D01*
X167282858Y-128464381D01*
X167378096Y-128512000D01*
X167425715Y-128559619D01*
X167473334Y-128654857D01*
X167473334Y-128797714D01*
X167425715Y-128892952D01*
X167378096Y-128940571D01*
X167282858Y-128988190D01*
X166901905Y-128988190D01*
X168330477Y-128464381D02*
X168140000Y-128464381D01*
X168044762Y-128512000D01*
X167997143Y-128559619D01*
X167901905Y-128702476D01*
X167854286Y-128892952D01*
X167854286Y-129273905D01*
X167901905Y-129369143D01*
X167949524Y-129416762D01*
X168044762Y-129464381D01*
X168235239Y-129464381D01*
X168330477Y-129416762D01*
X168378096Y-129369143D01*
X168425715Y-129273905D01*
X168425715Y-129035810D01*
X168378096Y-128940571D01*
X168330477Y-128892952D01*
X168235239Y-128845333D01*
X168044762Y-128845333D01*
X167949524Y-128892952D01*
X167901905Y-128940571D01*
X167854286Y-129035810D01*
X134389905Y-90348381D02*
X134389905Y-89348381D01*
X134770858Y-89348381D01*
X134866096Y-89396000D01*
X134913715Y-89443619D01*
X134961334Y-89538857D01*
X134961334Y-89681714D01*
X134913715Y-89776952D01*
X134866096Y-89824571D01*
X134770858Y-89872190D01*
X134389905Y-89872190D01*
X135294667Y-89348381D02*
X135961334Y-89348381D01*
X135532762Y-90348381D01*
X120229334Y-75568381D02*
X119896000Y-75092190D01*
X119657905Y-75568381D02*
X119657905Y-74568381D01*
X120038858Y-74568381D01*
X120134096Y-74616000D01*
X120181715Y-74663619D01*
X120229334Y-74758857D01*
X120229334Y-74901714D01*
X120181715Y-74996952D01*
X120134096Y-75044571D01*
X120038858Y-75092190D01*
X119657905Y-75092190D01*
X121181715Y-75568381D02*
X120610286Y-75568381D01*
X120896000Y-75568381D02*
X120896000Y-74568381D01*
X120800762Y-74711238D01*
X120705524Y-74806476D01*
X120610286Y-74854095D01*
X120229334Y-73028381D02*
X119896000Y-72552190D01*
X119657905Y-73028381D02*
X119657905Y-72028381D01*
X120038858Y-72028381D01*
X120134096Y-72076000D01*
X120181715Y-72123619D01*
X120229334Y-72218857D01*
X120229334Y-72361714D01*
X120181715Y-72456952D01*
X120134096Y-72504571D01*
X120038858Y-72552190D01*
X119657905Y-72552190D01*
X120610286Y-72123619D02*
X120657905Y-72076000D01*
X120753143Y-72028381D01*
X120991239Y-72028381D01*
X121086477Y-72076000D01*
X121134096Y-72123619D01*
X121181715Y-72218857D01*
X121181715Y-72314095D01*
X121134096Y-72456952D01*
X120562667Y-73028381D01*
X121181715Y-73028381D01*
X120229334Y-83832381D02*
X119896000Y-83356190D01*
X119657905Y-83832381D02*
X119657905Y-82832381D01*
X120038858Y-82832381D01*
X120134096Y-82880000D01*
X120181715Y-82927619D01*
X120229334Y-83022857D01*
X120229334Y-83165714D01*
X120181715Y-83260952D01*
X120134096Y-83308571D01*
X120038858Y-83356190D01*
X119657905Y-83356190D01*
X120562667Y-82832381D02*
X121181715Y-82832381D01*
X120848381Y-83213333D01*
X120991239Y-83213333D01*
X121086477Y-83260952D01*
X121134096Y-83308571D01*
X121181715Y-83403810D01*
X121181715Y-83641905D01*
X121134096Y-83737143D01*
X121086477Y-83784762D01*
X120991239Y-83832381D01*
X120705524Y-83832381D01*
X120610286Y-83784762D01*
X120562667Y-83737143D01*
X120229334Y-86880381D02*
X119896000Y-86404190D01*
X119657905Y-86880381D02*
X119657905Y-85880381D01*
X120038858Y-85880381D01*
X120134096Y-85928000D01*
X120181715Y-85975619D01*
X120229334Y-86070857D01*
X120229334Y-86213714D01*
X120181715Y-86308952D01*
X120134096Y-86356571D01*
X120038858Y-86404190D01*
X119657905Y-86404190D01*
X121086477Y-86213714D02*
X121086477Y-86880381D01*
X120848381Y-85832762D02*
X120610286Y-86547048D01*
X121229334Y-86547048D01*
X149736381Y-86018666D02*
X149260190Y-86352000D01*
X149736381Y-86590095D02*
X148736381Y-86590095D01*
X148736381Y-86209142D01*
X148784000Y-86113904D01*
X148831619Y-86066285D01*
X148926857Y-86018666D01*
X149069714Y-86018666D01*
X149164952Y-86066285D01*
X149212571Y-86113904D01*
X149260190Y-86209142D01*
X149260190Y-86590095D01*
X148736381Y-85685333D02*
X148736381Y-85018666D01*
X149736381Y-85447238D01*
X134124381Y-136818666D02*
X133648190Y-137152000D01*
X134124381Y-137390095D02*
X133124381Y-137390095D01*
X133124381Y-137009142D01*
X133172000Y-136913904D01*
X133219619Y-136866285D01*
X133314857Y-136818666D01*
X133457714Y-136818666D01*
X133552952Y-136866285D01*
X133600571Y-136913904D01*
X133648190Y-137009142D01*
X133648190Y-137390095D01*
X133552952Y-136247238D02*
X133505333Y-136342476D01*
X133457714Y-136390095D01*
X133362476Y-136437714D01*
X133314857Y-136437714D01*
X133219619Y-136390095D01*
X133172000Y-136342476D01*
X133124381Y-136247238D01*
X133124381Y-136056761D01*
X133172000Y-135961523D01*
X133219619Y-135913904D01*
X133314857Y-135866285D01*
X133362476Y-135866285D01*
X133457714Y-135913904D01*
X133505333Y-135961523D01*
X133552952Y-136056761D01*
X133552952Y-136247238D01*
X133600571Y-136342476D01*
X133648190Y-136390095D01*
X133743429Y-136437714D01*
X133933905Y-136437714D01*
X134029143Y-136390095D01*
X134076762Y-136342476D01*
X134124381Y-136247238D01*
X134124381Y-136056761D01*
X134076762Y-135961523D01*
X134029143Y-135913904D01*
X133933905Y-135866285D01*
X133743429Y-135866285D01*
X133648190Y-135913904D01*
X133600571Y-135961523D01*
X133552952Y-136056761D01*
X126865143Y-139712381D02*
X126531809Y-139236190D01*
X126293714Y-139712381D02*
X126293714Y-138712381D01*
X126674667Y-138712381D01*
X126769905Y-138760000D01*
X126817524Y-138807619D01*
X126865143Y-138902857D01*
X126865143Y-139045714D01*
X126817524Y-139140952D01*
X126769905Y-139188571D01*
X126674667Y-139236190D01*
X126293714Y-139236190D01*
X127817524Y-139712381D02*
X127246095Y-139712381D01*
X127531809Y-139712381D02*
X127531809Y-138712381D01*
X127436571Y-138855238D01*
X127341333Y-138950476D01*
X127246095Y-138998095D01*
X128436571Y-138712381D02*
X128531810Y-138712381D01*
X128627048Y-138760000D01*
X128674667Y-138807619D01*
X128722286Y-138902857D01*
X128769905Y-139093333D01*
X128769905Y-139331429D01*
X128722286Y-139521905D01*
X128674667Y-139617143D01*
X128627048Y-139664762D01*
X128531810Y-139712381D01*
X128436571Y-139712381D01*
X128341333Y-139664762D01*
X128293714Y-139617143D01*
X128246095Y-139521905D01*
X128198476Y-139331429D01*
X128198476Y-139093333D01*
X128246095Y-138902857D01*
X128293714Y-138807619D01*
X128341333Y-138760000D01*
X128436571Y-138712381D01*
X181729143Y-112788381D02*
X181395809Y-112312190D01*
X181157714Y-112788381D02*
X181157714Y-111788381D01*
X181538667Y-111788381D01*
X181633905Y-111836000D01*
X181681524Y-111883619D01*
X181729143Y-111978857D01*
X181729143Y-112121714D01*
X181681524Y-112216952D01*
X181633905Y-112264571D01*
X181538667Y-112312190D01*
X181157714Y-112312190D01*
X182681524Y-112788381D02*
X182110095Y-112788381D01*
X182395809Y-112788381D02*
X182395809Y-111788381D01*
X182300571Y-111931238D01*
X182205333Y-112026476D01*
X182110095Y-112074095D01*
X183633905Y-112788381D02*
X183062476Y-112788381D01*
X183348190Y-112788381D02*
X183348190Y-111788381D01*
X183252952Y-111931238D01*
X183157714Y-112026476D01*
X183062476Y-112074095D01*
X181729143Y-119392381D02*
X181395809Y-118916190D01*
X181157714Y-119392381D02*
X181157714Y-118392381D01*
X181538667Y-118392381D01*
X181633905Y-118440000D01*
X181681524Y-118487619D01*
X181729143Y-118582857D01*
X181729143Y-118725714D01*
X181681524Y-118820952D01*
X181633905Y-118868571D01*
X181538667Y-118916190D01*
X181157714Y-118916190D01*
X182681524Y-119392381D02*
X182110095Y-119392381D01*
X182395809Y-119392381D02*
X182395809Y-118392381D01*
X182300571Y-118535238D01*
X182205333Y-118630476D01*
X182110095Y-118678095D01*
X183062476Y-118487619D02*
X183110095Y-118440000D01*
X183205333Y-118392381D01*
X183443429Y-118392381D01*
X183538667Y-118440000D01*
X183586286Y-118487619D01*
X183633905Y-118582857D01*
X183633905Y-118678095D01*
X183586286Y-118820952D01*
X183014857Y-119392381D01*
X183633905Y-119392381D01*
D17*
X116694857Y-90757829D02*
X116694857Y-91991543D01*
X116767429Y-92136686D01*
X116840000Y-92209257D01*
X116985143Y-92281829D01*
X117275429Y-92281829D01*
X117420571Y-92209257D01*
X117493143Y-92136686D01*
X117565714Y-91991543D01*
X117565714Y-90757829D01*
X118218857Y-90902971D02*
X118291428Y-90830400D01*
X118436571Y-90757829D01*
X118799428Y-90757829D01*
X118944571Y-90830400D01*
X119017142Y-90902971D01*
X119089714Y-91048114D01*
X119089714Y-91193257D01*
X119017142Y-91410971D01*
X118146285Y-92281829D01*
X119089714Y-92281829D01*
X113719428Y-111281029D02*
X113211428Y-110555314D01*
X112848571Y-111281029D02*
X112848571Y-109757029D01*
X113429143Y-109757029D01*
X113574285Y-109829600D01*
X113646857Y-109902171D01*
X113719428Y-110047314D01*
X113719428Y-110265029D01*
X113646857Y-110410171D01*
X113574285Y-110482743D01*
X113429143Y-110555314D01*
X112848571Y-110555314D01*
X114880571Y-110482743D02*
X114372571Y-110482743D01*
X114372571Y-111281029D02*
X114372571Y-109757029D01*
X115098285Y-109757029D01*
X115678857Y-111281029D02*
X115678857Y-109757029D01*
X116186857Y-110845600D01*
X116694857Y-109757029D01*
X116694857Y-111281029D01*
X118073714Y-109757029D02*
X117783428Y-109757029D01*
X117638285Y-109829600D01*
X117565714Y-109902171D01*
X117420571Y-110119886D01*
X117348000Y-110410171D01*
X117348000Y-110990743D01*
X117420571Y-111135886D01*
X117493143Y-111208457D01*
X117638285Y-111281029D01*
X117928571Y-111281029D01*
X118073714Y-111208457D01*
X118146285Y-111135886D01*
X118218857Y-110990743D01*
X118218857Y-110627886D01*
X118146285Y-110482743D01*
X118073714Y-110410171D01*
X117928571Y-110337600D01*
X117638285Y-110337600D01*
X117493143Y-110410171D01*
X117420571Y-110482743D01*
X117348000Y-110627886D01*
X118944572Y-111281029D02*
X119234857Y-111281029D01*
X119380000Y-111208457D01*
X119452572Y-111135886D01*
X119597714Y-110918171D01*
X119670286Y-110627886D01*
X119670286Y-110047314D01*
X119597714Y-109902171D01*
X119525143Y-109829600D01*
X119380000Y-109757029D01*
X119089714Y-109757029D01*
X118944572Y-109829600D01*
X118872000Y-109902171D01*
X118799429Y-110047314D01*
X118799429Y-110410171D01*
X118872000Y-110555314D01*
X118944572Y-110627886D01*
X119089714Y-110700457D01*
X119380000Y-110700457D01*
X119525143Y-110627886D01*
X119597714Y-110555314D01*
X119670286Y-110410171D01*
X121194286Y-111135886D02*
X121121715Y-111208457D01*
X120904001Y-111281029D01*
X120758858Y-111281029D01*
X120541143Y-111208457D01*
X120396001Y-111063314D01*
X120323429Y-110918171D01*
X120250858Y-110627886D01*
X120250858Y-110410171D01*
X120323429Y-110119886D01*
X120396001Y-109974743D01*
X120541143Y-109829600D01*
X120758858Y-109757029D01*
X120904001Y-109757029D01*
X121121715Y-109829600D01*
X121194286Y-109902171D01*
X121702286Y-109757029D02*
X122065143Y-111281029D01*
X122355429Y-110192457D01*
X122645715Y-111281029D01*
X123008572Y-109757029D01*
D18*
X137571239Y-74902786D02*
X137571239Y-75447071D01*
X137147905Y-74304071D02*
X137571239Y-74902786D01*
X137994572Y-74304071D01*
X139083143Y-75447071D02*
X138357429Y-75447071D01*
X138720286Y-75447071D02*
X138720286Y-74304071D01*
X138599334Y-74467357D01*
X138478381Y-74576214D01*
X138357429Y-74630643D01*
X135394095Y-67808929D02*
X135454571Y-67754500D01*
X135575523Y-67700071D01*
X135877904Y-67700071D01*
X135998857Y-67754500D01*
X136059333Y-67808929D01*
X136119809Y-67917786D01*
X136119809Y-68026643D01*
X136059333Y-68189929D01*
X135333619Y-68843071D01*
X136119809Y-68843071D01*
X137268857Y-67700071D02*
X136664095Y-67700071D01*
X136603619Y-68244357D01*
X136664095Y-68189929D01*
X136785047Y-68135500D01*
X137087428Y-68135500D01*
X137208381Y-68189929D01*
X137268857Y-68244357D01*
X137329333Y-68353214D01*
X137329333Y-68625357D01*
X137268857Y-68734214D01*
X137208381Y-68788643D01*
X137087428Y-68843071D01*
X136785047Y-68843071D01*
X136664095Y-68788643D01*
X136603619Y-68734214D01*
X137873619Y-68843071D02*
X137873619Y-67700071D01*
X138296952Y-68516500D01*
X138720286Y-67700071D01*
X138720286Y-68843071D01*
X139325048Y-68843071D02*
X139325048Y-67700071D01*
X139869334Y-68843071D02*
X139869334Y-68244357D01*
X139808857Y-68135500D01*
X139687905Y-68081071D01*
X139506477Y-68081071D01*
X139385524Y-68135500D01*
X139325048Y-68189929D01*
X140353144Y-68081071D02*
X141018382Y-68081071D01*
X140353144Y-68843071D01*
X141018382Y-68843071D01*
D17*
X83737429Y-102216857D02*
X82213429Y-102216857D01*
X82213429Y-101636285D01*
X82286000Y-101491143D01*
X82358571Y-101418571D01*
X82503714Y-101346000D01*
X82721429Y-101346000D01*
X82866571Y-101418571D01*
X82939143Y-101491143D01*
X83011714Y-101636285D01*
X83011714Y-102216857D01*
X82358571Y-100765428D02*
X82286000Y-100692857D01*
X82213429Y-100547714D01*
X82213429Y-100184857D01*
X82286000Y-100039714D01*
X82358571Y-99967143D01*
X82503714Y-99894571D01*
X82648857Y-99894571D01*
X82866571Y-99967143D01*
X83737429Y-100838000D01*
X83737429Y-99894571D01*
X101202000Y-105591429D02*
X101202000Y-104865715D01*
X101637429Y-105736572D02*
X100113429Y-105228572D01*
X101637429Y-104720572D01*
X101637429Y-104212572D02*
X100113429Y-104212572D01*
X101637429Y-103341715D01*
X100113429Y-103341715D01*
X100113429Y-102833715D02*
X100113429Y-101962858D01*
X101637429Y-102398287D02*
X100113429Y-102398287D01*
X101782571Y-101817715D02*
X101782571Y-100656572D01*
X100621429Y-99640572D02*
X101637429Y-99640572D01*
X100040857Y-100003429D02*
X101129429Y-100366286D01*
X101129429Y-99422858D01*
X100113429Y-98987429D02*
X100113429Y-98044000D01*
X100694000Y-98552000D01*
X100694000Y-98334286D01*
X100766571Y-98189143D01*
X100839143Y-98116572D01*
X100984286Y-98044000D01*
X101347143Y-98044000D01*
X101492286Y-98116572D01*
X101564857Y-98189143D01*
X101637429Y-98334286D01*
X101637429Y-98769714D01*
X101564857Y-98914857D01*
X101492286Y-98987429D01*
X100113429Y-97536000D02*
X100113429Y-96592571D01*
X100694000Y-97100571D01*
X100694000Y-96882857D01*
X100766571Y-96737714D01*
X100839143Y-96665143D01*
X100984286Y-96592571D01*
X101347143Y-96592571D01*
X101492286Y-96665143D01*
X101564857Y-96737714D01*
X101637429Y-96882857D01*
X101637429Y-97318285D01*
X101564857Y-97463428D01*
X101492286Y-97536000D01*
X83737429Y-121012857D02*
X82213429Y-121012857D01*
X82213429Y-120432285D01*
X82286000Y-120287143D01*
X82358571Y-120214571D01*
X82503714Y-120142000D01*
X82721429Y-120142000D01*
X82866571Y-120214571D01*
X82939143Y-120287143D01*
X83011714Y-120432285D01*
X83011714Y-121012857D01*
X82213429Y-119634000D02*
X82213429Y-118690571D01*
X82794000Y-119198571D01*
X82794000Y-118980857D01*
X82866571Y-118835714D01*
X82939143Y-118763143D01*
X83084286Y-118690571D01*
X83447143Y-118690571D01*
X83592286Y-118763143D01*
X83664857Y-118835714D01*
X83737429Y-118980857D01*
X83737429Y-119416285D01*
X83664857Y-119561428D01*
X83592286Y-119634000D01*
X101202000Y-124387429D02*
X101202000Y-123661715D01*
X101637429Y-124532572D02*
X100113429Y-124024572D01*
X101637429Y-123516572D01*
X101637429Y-123008572D02*
X100113429Y-123008572D01*
X101637429Y-122137715D01*
X100113429Y-122137715D01*
X100113429Y-121629715D02*
X100113429Y-120758858D01*
X101637429Y-121194287D02*
X100113429Y-121194287D01*
X101782571Y-120613715D02*
X101782571Y-119452572D01*
X100766571Y-118872001D02*
X100694000Y-119017143D01*
X100621429Y-119089715D01*
X100476286Y-119162286D01*
X100403714Y-119162286D01*
X100258571Y-119089715D01*
X100186000Y-119017143D01*
X100113429Y-118872001D01*
X100113429Y-118581715D01*
X100186000Y-118436572D01*
X100258571Y-118364001D01*
X100403714Y-118291429D01*
X100476286Y-118291429D01*
X100621429Y-118364001D01*
X100694000Y-118436572D01*
X100766571Y-118581715D01*
X100766571Y-118872001D01*
X100839143Y-119017143D01*
X100911714Y-119089715D01*
X101056857Y-119162286D01*
X101347143Y-119162286D01*
X101492286Y-119089715D01*
X101564857Y-119017143D01*
X101637429Y-118872001D01*
X101637429Y-118581715D01*
X101564857Y-118436572D01*
X101492286Y-118364001D01*
X101347143Y-118291429D01*
X101056857Y-118291429D01*
X100911714Y-118364001D01*
X100839143Y-118436572D01*
X100766571Y-118581715D01*
X100113429Y-116985143D02*
X100113429Y-117275429D01*
X100186000Y-117420572D01*
X100258571Y-117493143D01*
X100476286Y-117638286D01*
X100766571Y-117710857D01*
X101347143Y-117710857D01*
X101492286Y-117638286D01*
X101564857Y-117565714D01*
X101637429Y-117420572D01*
X101637429Y-117130286D01*
X101564857Y-116985143D01*
X101492286Y-116912572D01*
X101347143Y-116840000D01*
X100984286Y-116840000D01*
X100839143Y-116912572D01*
X100766571Y-116985143D01*
X100694000Y-117130286D01*
X100694000Y-117420572D01*
X100766571Y-117565714D01*
X100839143Y-117638286D01*
X100984286Y-117710857D01*
X100113429Y-115533714D02*
X100113429Y-115824000D01*
X100186000Y-115969143D01*
X100258571Y-116041714D01*
X100476286Y-116186857D01*
X100766571Y-116259428D01*
X101347143Y-116259428D01*
X101492286Y-116186857D01*
X101564857Y-116114285D01*
X101637429Y-115969143D01*
X101637429Y-115678857D01*
X101564857Y-115533714D01*
X101492286Y-115461143D01*
X101347143Y-115388571D01*
X100984286Y-115388571D01*
X100839143Y-115461143D01*
X100766571Y-115533714D01*
X100694000Y-115678857D01*
X100694000Y-115969143D01*
X100766571Y-116114285D01*
X100839143Y-116186857D01*
X100984286Y-116259428D01*
D19*
X189653334Y-131983238D02*
X189798477Y-132031619D01*
X190040381Y-132031619D01*
X190137143Y-131983238D01*
X190185524Y-131934857D01*
X190233905Y-131838095D01*
X190233905Y-131741333D01*
X190185524Y-131644571D01*
X190137143Y-131596190D01*
X190040381Y-131547810D01*
X189846858Y-131499429D01*
X189750096Y-131451048D01*
X189701715Y-131402667D01*
X189653334Y-131305905D01*
X189653334Y-131209143D01*
X189701715Y-131112381D01*
X189750096Y-131064000D01*
X189846858Y-131015619D01*
X190088762Y-131015619D01*
X190233905Y-131064000D01*
X190572572Y-131015619D02*
X190814477Y-132031619D01*
X191008000Y-131305905D01*
X191201524Y-132031619D01*
X191443429Y-131015619D01*
X192362667Y-132031619D02*
X191782096Y-132031619D01*
X192072382Y-132031619D02*
X192072382Y-131015619D01*
X191975620Y-131160762D01*
X191878858Y-131257524D01*
X191782096Y-131305905D01*
X190233905Y-140873238D02*
X190379048Y-140921619D01*
X190620952Y-140921619D01*
X190717714Y-140873238D01*
X190766095Y-140824857D01*
X190814476Y-140728095D01*
X190814476Y-140631333D01*
X190766095Y-140534571D01*
X190717714Y-140486190D01*
X190620952Y-140437810D01*
X190427429Y-140389429D01*
X190330667Y-140341048D01*
X190282286Y-140292667D01*
X190233905Y-140195905D01*
X190233905Y-140099143D01*
X190282286Y-140002381D01*
X190330667Y-139954000D01*
X190427429Y-139905619D01*
X190669333Y-139905619D01*
X190814476Y-139954000D01*
X191153143Y-139905619D02*
X191395048Y-140921619D01*
X191588571Y-140195905D01*
X191782095Y-140921619D01*
X192024000Y-139905619D01*
X192169143Y-141018381D02*
X192943238Y-141018381D01*
X193185143Y-140921619D02*
X193185143Y-139905619D01*
X193572190Y-139905619D01*
X193668952Y-139954000D01*
X193717333Y-140002381D01*
X193765714Y-140099143D01*
X193765714Y-140244286D01*
X193717333Y-140341048D01*
X193668952Y-140389429D01*
X193572190Y-140437810D01*
X193185143Y-140437810D01*
X194201143Y-139905619D02*
X194201143Y-140728095D01*
X194249524Y-140824857D01*
X194297905Y-140873238D01*
X194394667Y-140921619D01*
X194588190Y-140921619D01*
X194684952Y-140873238D01*
X194733333Y-140824857D01*
X194781714Y-140728095D01*
X194781714Y-139905619D01*
X195217143Y-140873238D02*
X195362286Y-140921619D01*
X195604190Y-140921619D01*
X195700952Y-140873238D01*
X195749333Y-140824857D01*
X195797714Y-140728095D01*
X195797714Y-140631333D01*
X195749333Y-140534571D01*
X195700952Y-140486190D01*
X195604190Y-140437810D01*
X195410667Y-140389429D01*
X195313905Y-140341048D01*
X195265524Y-140292667D01*
X195217143Y-140195905D01*
X195217143Y-140099143D01*
X195265524Y-140002381D01*
X195313905Y-139954000D01*
X195410667Y-139905619D01*
X195652571Y-139905619D01*
X195797714Y-139954000D01*
X196233143Y-140921619D02*
X196233143Y-139905619D01*
X196233143Y-140389429D02*
X196813714Y-140389429D01*
X196813714Y-140921619D02*
X196813714Y-139905619D01*
X189653334Y-121315238D02*
X189798477Y-121363619D01*
X190040381Y-121363619D01*
X190137143Y-121315238D01*
X190185524Y-121266857D01*
X190233905Y-121170095D01*
X190233905Y-121073333D01*
X190185524Y-120976571D01*
X190137143Y-120928190D01*
X190040381Y-120879810D01*
X189846858Y-120831429D01*
X189750096Y-120783048D01*
X189701715Y-120734667D01*
X189653334Y-120637905D01*
X189653334Y-120541143D01*
X189701715Y-120444381D01*
X189750096Y-120396000D01*
X189846858Y-120347619D01*
X190088762Y-120347619D01*
X190233905Y-120396000D01*
X190572572Y-120347619D02*
X190814477Y-121363619D01*
X191008000Y-120637905D01*
X191201524Y-121363619D01*
X191443429Y-120347619D01*
X191782096Y-120444381D02*
X191830477Y-120396000D01*
X191927239Y-120347619D01*
X192169143Y-120347619D01*
X192265905Y-120396000D01*
X192314286Y-120444381D01*
X192362667Y-120541143D01*
X192362667Y-120637905D01*
X192314286Y-120783048D01*
X191733715Y-121363619D01*
X192362667Y-121363619D01*
X190233905Y-130205238D02*
X190379048Y-130253619D01*
X190620952Y-130253619D01*
X190717714Y-130205238D01*
X190766095Y-130156857D01*
X190814476Y-130060095D01*
X190814476Y-129963333D01*
X190766095Y-129866571D01*
X190717714Y-129818190D01*
X190620952Y-129769810D01*
X190427429Y-129721429D01*
X190330667Y-129673048D01*
X190282286Y-129624667D01*
X190233905Y-129527905D01*
X190233905Y-129431143D01*
X190282286Y-129334381D01*
X190330667Y-129286000D01*
X190427429Y-129237619D01*
X190669333Y-129237619D01*
X190814476Y-129286000D01*
X191153143Y-129237619D02*
X191395048Y-130253619D01*
X191588571Y-129527905D01*
X191782095Y-130253619D01*
X192024000Y-129237619D01*
X192169143Y-130350381D02*
X192943238Y-130350381D01*
X193185143Y-130253619D02*
X193185143Y-129237619D01*
X193572190Y-129237619D01*
X193668952Y-129286000D01*
X193717333Y-129334381D01*
X193765714Y-129431143D01*
X193765714Y-129576286D01*
X193717333Y-129673048D01*
X193668952Y-129721429D01*
X193572190Y-129769810D01*
X193185143Y-129769810D01*
X194201143Y-129237619D02*
X194201143Y-130060095D01*
X194249524Y-130156857D01*
X194297905Y-130205238D01*
X194394667Y-130253619D01*
X194588190Y-130253619D01*
X194684952Y-130205238D01*
X194733333Y-130156857D01*
X194781714Y-130060095D01*
X194781714Y-129237619D01*
X195217143Y-130205238D02*
X195362286Y-130253619D01*
X195604190Y-130253619D01*
X195700952Y-130205238D01*
X195749333Y-130156857D01*
X195797714Y-130060095D01*
X195797714Y-129963333D01*
X195749333Y-129866571D01*
X195700952Y-129818190D01*
X195604190Y-129769810D01*
X195410667Y-129721429D01*
X195313905Y-129673048D01*
X195265524Y-129624667D01*
X195217143Y-129527905D01*
X195217143Y-129431143D01*
X195265524Y-129334381D01*
X195313905Y-129286000D01*
X195410667Y-129237619D01*
X195652571Y-129237619D01*
X195797714Y-129286000D01*
X196233143Y-130253619D02*
X196233143Y-129237619D01*
X196233143Y-129721429D02*
X196813714Y-129721429D01*
X196813714Y-130253619D02*
X196813714Y-129237619D01*
D12*
X127341334Y-74085143D02*
X127293715Y-74132762D01*
X127150858Y-74180381D01*
X127055620Y-74180381D01*
X126912762Y-74132762D01*
X126817524Y-74037524D01*
X126769905Y-73942286D01*
X126722286Y-73751810D01*
X126722286Y-73608952D01*
X126769905Y-73418476D01*
X126817524Y-73323238D01*
X126912762Y-73228000D01*
X127055620Y-73180381D01*
X127150858Y-73180381D01*
X127293715Y-73228000D01*
X127341334Y-73275619D01*
X127817524Y-74180381D02*
X128008000Y-74180381D01*
X128103239Y-74132762D01*
X128150858Y-74085143D01*
X128246096Y-73942286D01*
X128293715Y-73751810D01*
X128293715Y-73370857D01*
X128246096Y-73275619D01*
X128198477Y-73228000D01*
X128103239Y-73180381D01*
X127912762Y-73180381D01*
X127817524Y-73228000D01*
X127769905Y-73275619D01*
X127722286Y-73370857D01*
X127722286Y-73608952D01*
X127769905Y-73704190D01*
X127817524Y-73751810D01*
X127912762Y-73799429D01*
X128103239Y-73799429D01*
X128198477Y-73751810D01*
X128246096Y-73704190D01*
X128293715Y-73608952D01*
X128897143Y-138007943D02*
X128849524Y-138055562D01*
X128706667Y-138103181D01*
X128611429Y-138103181D01*
X128468571Y-138055562D01*
X128373333Y-137960324D01*
X128325714Y-137865086D01*
X128278095Y-137674610D01*
X128278095Y-137531752D01*
X128325714Y-137341276D01*
X128373333Y-137246038D01*
X128468571Y-137150800D01*
X128611429Y-137103181D01*
X128706667Y-137103181D01*
X128849524Y-137150800D01*
X128897143Y-137198419D01*
X129278095Y-137198419D02*
X129325714Y-137150800D01*
X129420952Y-137103181D01*
X129659048Y-137103181D01*
X129754286Y-137150800D01*
X129801905Y-137198419D01*
X129849524Y-137293657D01*
X129849524Y-137388895D01*
X129801905Y-137531752D01*
X129230476Y-138103181D01*
X129849524Y-138103181D01*
X130468571Y-137103181D02*
X130563810Y-137103181D01*
X130659048Y-137150800D01*
X130706667Y-137198419D01*
X130754286Y-137293657D01*
X130801905Y-137484133D01*
X130801905Y-137722229D01*
X130754286Y-137912705D01*
X130706667Y-138007943D01*
X130659048Y-138055562D01*
X130563810Y-138103181D01*
X130468571Y-138103181D01*
X130373333Y-138055562D01*
X130325714Y-138007943D01*
X130278095Y-137912705D01*
X130230476Y-137722229D01*
X130230476Y-137484133D01*
X130278095Y-137293657D01*
X130325714Y-137198419D01*
X130373333Y-137150800D01*
X130468571Y-137103181D01*
X154297143Y-102025143D02*
X154249524Y-102072762D01*
X154106667Y-102120381D01*
X154011429Y-102120381D01*
X153868571Y-102072762D01*
X153773333Y-101977524D01*
X153725714Y-101882286D01*
X153678095Y-101691810D01*
X153678095Y-101548952D01*
X153725714Y-101358476D01*
X153773333Y-101263238D01*
X153868571Y-101168000D01*
X154011429Y-101120381D01*
X154106667Y-101120381D01*
X154249524Y-101168000D01*
X154297143Y-101215619D01*
X154678095Y-101215619D02*
X154725714Y-101168000D01*
X154820952Y-101120381D01*
X155059048Y-101120381D01*
X155154286Y-101168000D01*
X155201905Y-101215619D01*
X155249524Y-101310857D01*
X155249524Y-101406095D01*
X155201905Y-101548952D01*
X154630476Y-102120381D01*
X155249524Y-102120381D01*
X156201905Y-102120381D02*
X155630476Y-102120381D01*
X155916190Y-102120381D02*
X155916190Y-101120381D01*
X155820952Y-101263238D01*
X155725714Y-101358476D01*
X155630476Y-101406095D01*
X145661143Y-97825143D02*
X145613524Y-97872762D01*
X145470667Y-97920381D01*
X145375429Y-97920381D01*
X145232571Y-97872762D01*
X145137333Y-97777524D01*
X145089714Y-97682286D01*
X145042095Y-97491810D01*
X145042095Y-97348952D01*
X145089714Y-97158476D01*
X145137333Y-97063238D01*
X145232571Y-96968000D01*
X145375429Y-96920381D01*
X145470667Y-96920381D01*
X145613524Y-96968000D01*
X145661143Y-97015619D01*
X146042095Y-97015619D02*
X146089714Y-96968000D01*
X146184952Y-96920381D01*
X146423048Y-96920381D01*
X146518286Y-96968000D01*
X146565905Y-97015619D01*
X146613524Y-97110857D01*
X146613524Y-97206095D01*
X146565905Y-97348952D01*
X145994476Y-97920381D01*
X146613524Y-97920381D01*
X146994476Y-97015619D02*
X147042095Y-96968000D01*
X147137333Y-96920381D01*
X147375429Y-96920381D01*
X147470667Y-96968000D01*
X147518286Y-97015619D01*
X147565905Y-97110857D01*
X147565905Y-97206095D01*
X147518286Y-97348952D01*
X146946857Y-97920381D01*
X147565905Y-97920381D01*
X157345143Y-78752381D02*
X157011809Y-78276190D01*
X156773714Y-78752381D02*
X156773714Y-77752381D01*
X157154667Y-77752381D01*
X157249905Y-77800000D01*
X157297524Y-77847619D01*
X157345143Y-77942857D01*
X157345143Y-78085714D01*
X157297524Y-78180952D01*
X157249905Y-78228571D01*
X157154667Y-78276190D01*
X156773714Y-78276190D01*
X158297524Y-78752381D02*
X157726095Y-78752381D01*
X158011809Y-78752381D02*
X158011809Y-77752381D01*
X157916571Y-77895238D01*
X157821333Y-77990476D01*
X157726095Y-78038095D01*
X158630857Y-77752381D02*
X159249905Y-77752381D01*
X158916571Y-78133333D01*
X159059429Y-78133333D01*
X159154667Y-78180952D01*
X159202286Y-78228571D01*
X159249905Y-78323810D01*
X159249905Y-78561905D01*
X159202286Y-78657143D01*
X159154667Y-78704762D01*
X159059429Y-78752381D01*
X158773714Y-78752381D01*
X158678476Y-78704762D01*
X158630857Y-78657143D01*
D18*
X150271239Y-100302786D02*
X150271239Y-100847071D01*
X149847905Y-99704071D02*
X150271239Y-100302786D01*
X150694572Y-99704071D01*
X151057429Y-99812929D02*
X151117905Y-99758500D01*
X151238857Y-99704071D01*
X151541238Y-99704071D01*
X151662191Y-99758500D01*
X151722667Y-99812929D01*
X151783143Y-99921786D01*
X151783143Y-100030643D01*
X151722667Y-100193929D01*
X150996953Y-100847071D01*
X151783143Y-100847071D01*
X148729095Y-107451071D02*
X148003381Y-107451071D01*
X148366238Y-107451071D02*
X148366238Y-106308071D01*
X148245286Y-106471357D01*
X148124333Y-106580214D01*
X148003381Y-106634643D01*
X149817667Y-106308071D02*
X149575762Y-106308071D01*
X149454810Y-106362500D01*
X149394333Y-106416929D01*
X149273381Y-106580214D01*
X149212905Y-106797929D01*
X149212905Y-107233357D01*
X149273381Y-107342214D01*
X149333857Y-107396643D01*
X149454810Y-107451071D01*
X149696714Y-107451071D01*
X149817667Y-107396643D01*
X149878143Y-107342214D01*
X149938619Y-107233357D01*
X149938619Y-106961214D01*
X149878143Y-106852357D01*
X149817667Y-106797929D01*
X149696714Y-106743500D01*
X149454810Y-106743500D01*
X149333857Y-106797929D01*
X149273381Y-106852357D01*
X149212905Y-106961214D01*
X150482905Y-107451071D02*
X150482905Y-106308071D01*
X150906238Y-107124500D01*
X151329572Y-106308071D01*
X151329572Y-107451071D01*
X151934334Y-107451071D02*
X151934334Y-106308071D01*
X151934334Y-106852357D02*
X152660048Y-106852357D01*
X152660048Y-107451071D02*
X152660048Y-106308071D01*
X153143858Y-106689071D02*
X153809096Y-106689071D01*
X153143858Y-107451071D01*
X153809096Y-107451071D01*
D20*
X130345664Y-132295295D02*
X130345664Y-132953276D01*
X130384369Y-133030686D01*
X130423073Y-133069390D01*
X130500483Y-133108095D01*
X130655302Y-133108095D01*
X130732711Y-133069390D01*
X130771416Y-133030686D01*
X130810121Y-132953276D01*
X130810121Y-132295295D01*
X131622921Y-133108095D02*
X131158464Y-133108095D01*
X131390693Y-133108095D02*
X131390693Y-132295295D01*
X131313283Y-132411410D01*
X131235874Y-132488819D01*
X131158464Y-132527524D01*
X129374296Y-139966095D02*
X128987249Y-139966095D01*
X128987249Y-139153295D01*
X129645230Y-139966095D02*
X129645230Y-139153295D01*
X129916163Y-139733867D01*
X130187096Y-139153295D01*
X130187096Y-139966095D01*
X130496734Y-139153295D02*
X131038601Y-139153295D01*
X130690258Y-139966095D01*
X131464353Y-139501638D02*
X131386944Y-139462933D01*
X131348239Y-139424229D01*
X131309534Y-139346819D01*
X131309534Y-139308114D01*
X131348239Y-139230705D01*
X131386944Y-139192000D01*
X131464353Y-139153295D01*
X131619172Y-139153295D01*
X131696582Y-139192000D01*
X131735286Y-139230705D01*
X131773991Y-139308114D01*
X131773991Y-139346819D01*
X131735286Y-139424229D01*
X131696582Y-139462933D01*
X131619172Y-139501638D01*
X131464353Y-139501638D01*
X131386944Y-139540343D01*
X131348239Y-139579048D01*
X131309534Y-139656457D01*
X131309534Y-139811276D01*
X131348239Y-139888686D01*
X131386944Y-139927390D01*
X131464353Y-139966095D01*
X131619172Y-139966095D01*
X131696582Y-139927390D01*
X131735286Y-139888686D01*
X131773991Y-139811276D01*
X131773991Y-139656457D01*
X131735286Y-139579048D01*
X131696582Y-139540343D01*
X131619172Y-139501638D01*
X132277153Y-139153295D02*
X132354562Y-139153295D01*
X132431972Y-139192000D01*
X132470677Y-139230705D01*
X132509381Y-139308114D01*
X132548086Y-139462933D01*
X132548086Y-139656457D01*
X132509381Y-139811276D01*
X132470677Y-139888686D01*
X132431972Y-139927390D01*
X132354562Y-139966095D01*
X132277153Y-139966095D01*
X132199743Y-139927390D01*
X132161039Y-139888686D01*
X132122334Y-139811276D01*
X132083629Y-139656457D01*
X132083629Y-139462933D01*
X132122334Y-139308114D01*
X132161039Y-139230705D01*
X132199743Y-139192000D01*
X132277153Y-139153295D01*
X133283476Y-139153295D02*
X132896429Y-139153295D01*
X132857724Y-139540343D01*
X132896429Y-139501638D01*
X132973838Y-139462933D01*
X133167362Y-139462933D01*
X133244772Y-139501638D01*
X133283476Y-139540343D01*
X133322181Y-139617752D01*
X133322181Y-139811276D01*
X133283476Y-139888686D01*
X133244772Y-139927390D01*
X133167362Y-139966095D01*
X132973838Y-139966095D01*
X132896429Y-139927390D01*
X132857724Y-139888686D01*
X134134981Y-139888686D02*
X134096276Y-139927390D01*
X133980162Y-139966095D01*
X133902752Y-139966095D01*
X133786638Y-139927390D01*
X133709229Y-139849981D01*
X133670524Y-139772571D01*
X133631819Y-139617752D01*
X133631819Y-139501638D01*
X133670524Y-139346819D01*
X133709229Y-139269410D01*
X133786638Y-139192000D01*
X133902752Y-139153295D01*
X133980162Y-139153295D01*
X134096276Y-139192000D01*
X134134981Y-139230705D01*
X134367210Y-139153295D02*
X134831667Y-139153295D01*
X134599438Y-139966095D02*
X134599438Y-139153295D01*
X126726769Y-133108095D02*
X126262312Y-133108095D01*
X126494541Y-133108095D02*
X126494541Y-132295295D01*
X126417131Y-132411410D01*
X126339722Y-132488819D01*
X126262312Y-132527524D01*
X128423852Y-132365085D02*
X128462557Y-132326380D01*
X128539966Y-132287675D01*
X128733490Y-132287675D01*
X128810900Y-132326380D01*
X128849604Y-132365085D01*
X128888309Y-132442494D01*
X128888309Y-132519904D01*
X128849604Y-132636018D01*
X128385147Y-133100475D01*
X128888309Y-133100475D01*
X127181429Y-137065657D02*
X128149048Y-137428514D01*
X127181429Y-137791371D01*
X128753810Y-137912324D02*
X128753810Y-136642324D01*
X129479524Y-137912324D01*
X129479524Y-136642324D01*
X130023810Y-137549467D02*
X130628572Y-137549467D01*
X129902857Y-137912324D02*
X130326191Y-136642324D01*
X130749524Y-137912324D01*
X131172857Y-137912324D02*
X131172857Y-136642324D01*
X131596190Y-137549467D01*
X132019524Y-136642324D01*
X132019524Y-137912324D01*
X132624286Y-137247086D02*
X133047619Y-137247086D01*
X133229048Y-137912324D02*
X132624286Y-137912324D01*
X132624286Y-136642324D01*
X133229048Y-136642324D01*
X127483810Y-135694057D02*
X128451429Y-136056914D01*
X127483810Y-136419771D01*
X128874762Y-135270724D02*
X129298096Y-136540724D01*
X129721429Y-135270724D01*
X130084286Y-136177867D02*
X130689048Y-136177867D01*
X129963333Y-136540724D02*
X130386667Y-135270724D01*
X130810000Y-136540724D01*
X131838095Y-136540724D02*
X131233333Y-136540724D01*
X131233333Y-135270724D01*
X132261428Y-135270724D02*
X132261428Y-136298819D01*
X132321904Y-136419771D01*
X132382380Y-136480248D01*
X132503333Y-136540724D01*
X132745237Y-136540724D01*
X132866190Y-136480248D01*
X132926666Y-136419771D01*
X132987142Y-136298819D01*
X132987142Y-135270724D01*
X133591904Y-135875486D02*
X134015237Y-135875486D01*
X134196666Y-136540724D02*
X133591904Y-136540724D01*
X133591904Y-135270724D01*
X134196666Y-135270724D01*
D21*
X129218328Y-92253707D02*
X129194500Y-92277535D01*
X129123017Y-92301362D01*
X129075362Y-92301362D01*
X129003879Y-92277535D01*
X128956224Y-92229880D01*
X128932396Y-92182224D01*
X128908568Y-92086914D01*
X128908568Y-92015431D01*
X128932396Y-91920120D01*
X128956224Y-91872465D01*
X129003879Y-91824810D01*
X129075362Y-91800982D01*
X129123017Y-91800982D01*
X129194500Y-91824810D01*
X129218328Y-91848638D01*
X129694880Y-92301362D02*
X129408948Y-92301362D01*
X129551914Y-92301362D02*
X129551914Y-91800982D01*
X129504259Y-91872465D01*
X129456604Y-91920120D01*
X129408948Y-91943948D01*
X129885500Y-91848638D02*
X129909328Y-91824810D01*
X129956983Y-91800982D01*
X130076121Y-91800982D01*
X130123777Y-91824810D01*
X130147604Y-91848638D01*
X130171432Y-91896293D01*
X130171432Y-91943948D01*
X130147604Y-92015431D01*
X129861673Y-92301362D01*
X130171432Y-92301362D01*
X155126328Y-69838207D02*
X155102500Y-69862035D01*
X155031017Y-69885862D01*
X154983362Y-69885862D01*
X154911879Y-69862035D01*
X154864224Y-69814380D01*
X154840396Y-69766724D01*
X154816568Y-69671414D01*
X154816568Y-69599931D01*
X154840396Y-69504620D01*
X154864224Y-69456965D01*
X154911879Y-69409310D01*
X154983362Y-69385482D01*
X155031017Y-69385482D01*
X155102500Y-69409310D01*
X155126328Y-69433138D01*
X155316948Y-69433138D02*
X155340776Y-69409310D01*
X155388431Y-69385482D01*
X155507569Y-69385482D01*
X155555225Y-69409310D01*
X155579052Y-69433138D01*
X155602880Y-69480793D01*
X155602880Y-69528448D01*
X155579052Y-69599931D01*
X155293121Y-69885862D01*
X155602880Y-69885862D01*
X156055604Y-69385482D02*
X155817328Y-69385482D01*
X155793500Y-69623759D01*
X155817328Y-69599931D01*
X155864983Y-69576103D01*
X155984121Y-69576103D01*
X156031777Y-69599931D01*
X156055604Y-69623759D01*
X156079432Y-69671414D01*
X156079432Y-69790552D01*
X156055604Y-69838207D01*
X156031777Y-69862035D01*
X155984121Y-69885862D01*
X155864983Y-69885862D01*
X155817328Y-69862035D01*
X155793500Y-69838207D01*
X106795207Y-123765672D02*
X106819035Y-123789500D01*
X106842862Y-123860983D01*
X106842862Y-123908638D01*
X106819035Y-123980121D01*
X106771380Y-124027776D01*
X106723724Y-124051604D01*
X106628414Y-124075432D01*
X106556931Y-124075432D01*
X106461620Y-124051604D01*
X106413965Y-124027776D01*
X106366310Y-123980121D01*
X106342482Y-123908638D01*
X106342482Y-123860983D01*
X106366310Y-123789500D01*
X106390138Y-123765672D01*
X106390138Y-123575052D02*
X106366310Y-123551224D01*
X106342482Y-123503569D01*
X106342482Y-123384431D01*
X106366310Y-123336775D01*
X106390138Y-123312948D01*
X106437793Y-123289120D01*
X106485448Y-123289120D01*
X106556931Y-123312948D01*
X106842862Y-123598879D01*
X106842862Y-123289120D01*
X106342482Y-123122327D02*
X106342482Y-122788740D01*
X106842862Y-123003189D01*
D13*
X112502950Y-135718550D02*
X111702850Y-135718550D01*
X111702850Y-135528050D01*
X111740950Y-135413750D01*
X111817150Y-135337550D01*
X111893350Y-135299450D01*
X112045750Y-135261350D01*
X112160050Y-135261350D01*
X112312450Y-135299450D01*
X112388650Y-135337550D01*
X112464850Y-135413750D01*
X112502950Y-135528050D01*
X112502950Y-135718550D01*
X111702850Y-134994650D02*
X111702850Y-134499350D01*
X112007650Y-134766050D01*
X112007650Y-134651750D01*
X112045750Y-134575550D01*
X112083850Y-134537450D01*
X112160050Y-134499350D01*
X112350550Y-134499350D01*
X112426750Y-134537450D01*
X112464850Y-134575550D01*
X112502950Y-134651750D01*
X112502950Y-134880350D01*
X112464850Y-134956550D01*
X112426750Y-134994650D01*
X114153950Y-138690350D02*
X114153950Y-139071350D01*
X113353850Y-139071350D01*
X113734850Y-138423650D02*
X113734850Y-138156950D01*
X114153950Y-138042650D02*
X114153950Y-138423650D01*
X113353850Y-138423650D01*
X113353850Y-138042650D01*
X114153950Y-137699750D02*
X113353850Y-137699750D01*
X113353850Y-137509250D01*
X113391950Y-137394950D01*
X113468150Y-137318750D01*
X113544350Y-137280650D01*
X113696750Y-137242550D01*
X113811050Y-137242550D01*
X113963450Y-137280650D01*
X114039650Y-137318750D01*
X114115850Y-137394950D01*
X114153950Y-137509250D01*
X114153950Y-137699750D01*
D12*
X186835905Y-101532381D02*
X186835905Y-100532381D01*
X187074000Y-100532381D01*
X187216858Y-100580000D01*
X187312096Y-100675238D01*
X187359715Y-100770476D01*
X187407334Y-100960952D01*
X187407334Y-101103810D01*
X187359715Y-101294286D01*
X187312096Y-101389524D01*
X187216858Y-101484762D01*
X187074000Y-101532381D01*
X186835905Y-101532381D01*
X188264477Y-100865714D02*
X188264477Y-101532381D01*
X188026381Y-100484762D02*
X187788286Y-101199048D01*
X188407334Y-101199048D01*
X190912095Y-102852381D02*
X190912095Y-101852381D01*
X191483524Y-102852381D02*
X191054952Y-102280952D01*
X191483524Y-101852381D02*
X190912095Y-102423810D01*
X117800381Y-138818857D02*
X117324190Y-139152191D01*
X117800381Y-139390286D02*
X116800381Y-139390286D01*
X116800381Y-139009333D01*
X116848000Y-138914095D01*
X116895619Y-138866476D01*
X116990857Y-138818857D01*
X117133714Y-138818857D01*
X117228952Y-138866476D01*
X117276571Y-138914095D01*
X117324190Y-139009333D01*
X117324190Y-139390286D01*
X117800381Y-137866476D02*
X117800381Y-138437905D01*
X117800381Y-138152191D02*
X116800381Y-138152191D01*
X116943238Y-138247429D01*
X117038476Y-138342667D01*
X117086095Y-138437905D01*
X116800381Y-136961714D02*
X116800381Y-137437905D01*
X117276571Y-137485524D01*
X117228952Y-137437905D01*
X117181333Y-137342667D01*
X117181333Y-137104571D01*
X117228952Y-137009333D01*
X117276571Y-136961714D01*
X117371810Y-136914095D01*
X117609905Y-136914095D01*
X117705143Y-136961714D01*
X117752762Y-137009333D01*
X117800381Y-137104571D01*
X117800381Y-137342667D01*
X117752762Y-137437905D01*
X117705143Y-137485524D01*
X181729143Y-106692381D02*
X181395809Y-106216190D01*
X181157714Y-106692381D02*
X181157714Y-105692381D01*
X181538667Y-105692381D01*
X181633905Y-105740000D01*
X181681524Y-105787619D01*
X181729143Y-105882857D01*
X181729143Y-106025714D01*
X181681524Y-106120952D01*
X181633905Y-106168571D01*
X181538667Y-106216190D01*
X181157714Y-106216190D01*
X182681524Y-106692381D02*
X182110095Y-106692381D01*
X182395809Y-106692381D02*
X182395809Y-105692381D01*
X182300571Y-105835238D01*
X182205333Y-105930476D01*
X182110095Y-105978095D01*
X183538667Y-105692381D02*
X183348190Y-105692381D01*
X183252952Y-105740000D01*
X183205333Y-105787619D01*
X183110095Y-105930476D01*
X183062476Y-106120952D01*
X183062476Y-106501905D01*
X183110095Y-106597143D01*
X183157714Y-106644762D01*
X183252952Y-106692381D01*
X183443429Y-106692381D01*
X183538667Y-106644762D01*
X183586286Y-106597143D01*
X183633905Y-106501905D01*
X183633905Y-106263810D01*
X183586286Y-106168571D01*
X183538667Y-106120952D01*
X183443429Y-106073333D01*
X183252952Y-106073333D01*
X183157714Y-106120952D01*
X183110095Y-106168571D01*
X183062476Y-106263810D01*
M02*
