G04 #@! TF.FileFunction,Soldermask,Bot*
%FSLAX46Y46*%
G04 Gerber Fmt 4.6, Leading zero omitted, Abs format (unit mm)*
G04 Created by KiCad (PCBNEW 4.0.2-stable) date 27.04.2016 23:24:33*
%MOMM*%
G01*
G04 APERTURE LIST*
%ADD10C,0.100000*%
%ADD11C,1.901140*%
%ADD12C,2.398980*%
%ADD13C,1.900000*%
%ADD14R,1.650000X1.400000*%
%ADD15C,1.800000*%
%ADD16C,2.900000*%
%ADD17R,1.400000X1.650000*%
%ADD18R,3.900120X3.900120*%
%ADD19R,2.400000X2.400000*%
%ADD20C,2.400000*%
%ADD21R,1.416000X2.178000*%
%ADD22R,2.127200X2.127200*%
%ADD23O,2.127200X2.127200*%
%ADD24R,2.127200X2.432000*%
%ADD25O,2.127200X2.432000*%
%ADD26R,1.100000X1.700000*%
%ADD27C,2.700000*%
%ADD28R,2.200860X3.549600*%
%ADD29R,3.549600X2.200860*%
G04 APERTURE END LIST*
D10*
D11*
X198882000Y-123126500D03*
X198882000Y-118681500D03*
D12*
X196342000Y-124396500D03*
X196342000Y-117411500D03*
D13*
X196512000Y-57242000D03*
X196512000Y-81442000D03*
D14*
X160528000Y-69580000D03*
X160528000Y-67580000D03*
D15*
X118432000Y-63602000D03*
X118432000Y-61062000D03*
X120972000Y-62332000D03*
X120972000Y-64872000D03*
X118432000Y-66142000D03*
X120972000Y-67412000D03*
X118432000Y-68682000D03*
X120972000Y-69952000D03*
D16*
X115142000Y-57757000D03*
X115142000Y-73257000D03*
D13*
X107192000Y-69292000D03*
X108712000Y-71832000D03*
X107192000Y-59182000D03*
X108712000Y-61722000D03*
D14*
X155448000Y-69580000D03*
X155448000Y-67580000D03*
X143764000Y-69580000D03*
X143764000Y-67580000D03*
X147320000Y-69580000D03*
X147320000Y-67580000D03*
X152908000Y-69580000D03*
X152908000Y-67580000D03*
D17*
X130540000Y-63500000D03*
X128540000Y-63500000D03*
X124476000Y-71120000D03*
X126476000Y-71120000D03*
X121428000Y-83820000D03*
X123428000Y-83820000D03*
X121428000Y-104902000D03*
X123428000Y-104902000D03*
D14*
X164084000Y-94758000D03*
X164084000Y-96758000D03*
X157480000Y-104918000D03*
X157480000Y-106918000D03*
X168656000Y-108442000D03*
X168656000Y-106442000D03*
X162560000Y-118348000D03*
X162560000Y-116348000D03*
D18*
X114457480Y-118872000D03*
X108458000Y-118872000D03*
X111457740Y-123571000D03*
D19*
X199898000Y-101092000D03*
D20*
X197358000Y-101092000D03*
D19*
X199898000Y-94488000D03*
D20*
X197358000Y-94488000D03*
D21*
X130429000Y-60960000D03*
X128651000Y-60960000D03*
D22*
X176784000Y-94996000D03*
D23*
X179324000Y-94996000D03*
X176784000Y-97536000D03*
X179324000Y-97536000D03*
X176784000Y-100076000D03*
X179324000Y-100076000D03*
D22*
X176784000Y-116078000D03*
D23*
X179324000Y-116078000D03*
X176784000Y-118618000D03*
X179324000Y-118618000D03*
X176784000Y-121158000D03*
X179324000Y-121158000D03*
D24*
X159512000Y-83058000D03*
D25*
X156972000Y-83058000D03*
X154432000Y-83058000D03*
D26*
X124526000Y-60960000D03*
X126426000Y-60960000D03*
X124526000Y-58420000D03*
X126426000Y-58420000D03*
X126426000Y-66040000D03*
X124526000Y-66040000D03*
X126426000Y-68580000D03*
X124526000Y-68580000D03*
X106746000Y-64008000D03*
X108646000Y-64008000D03*
X106746000Y-66548000D03*
X108646000Y-66548000D03*
D27*
X106934000Y-85344000D03*
X109474000Y-87884000D03*
X109474000Y-82804000D03*
X104394000Y-82804000D03*
X104394000Y-87884000D03*
X106934000Y-104140000D03*
X109474000Y-106680000D03*
X109474000Y-101600000D03*
X104394000Y-101600000D03*
X104394000Y-106680000D03*
D11*
X198882000Y-112458500D03*
X198882000Y-108013500D03*
D12*
X196342000Y-113728500D03*
X196342000Y-106743500D03*
D14*
X141870000Y-121708000D03*
X141870000Y-123708000D03*
D19*
X199898000Y-88392000D03*
D20*
X197358000Y-88392000D03*
D28*
X167640000Y-63914020D03*
X167640000Y-68165980D03*
D29*
X119286020Y-98044000D03*
X123537980Y-98044000D03*
D28*
X136652000Y-71721980D03*
X136652000Y-67470020D03*
M02*
