M48
;DRILL file {KiCad 4.0.2-stable} date 27.04.2016 23:20:19
;FORMAT={-:-/ absolute / metric / decimal}
FMAT,2
METRIC,TZ
T1C0.400
T2C0.900
T3C1.001
T4C1.016
T5C1.199
T6C1.350
T7C1.600
%
G90
G05
M71
T1
X109.14Y-50.038
X109.22Y-94.488
X114.14Y-50.038
X115.054Y-91.842
X115.122Y-112.838
X116.456Y-110.471
X116.476Y-89.835
X117.475Y-135.128
X117.486Y-43.071
X119.14Y-50.038
X122.475Y-43.053
X122.475Y-135.128
X124.14Y-50.038
X125.476Y-83.82
X125.73Y-104.902
X127.475Y-43.053
X127.475Y-135.128
X129.14Y-50.038
X132.475Y-43.053
X132.475Y-135.128
X133.604Y-77.724
X133.604Y-96.012
X133.651Y-104.887
X133.659Y-81.774
X134.14Y-50.038
X134.366Y-55.88
X135.255Y-129.413
X135.89Y-118.588
X137.475Y-43.053
X137.475Y-135.128
X138.811Y-125.984
X138.938Y-123.952
X139.14Y-50.038
X139.446Y-71.628
X139.876Y-103.014
X142.475Y-43.053
X142.475Y-135.128
X142.642Y-93.881
X142.722Y-114.931
X142.748Y-61.976
X143.51Y-81.788
X144.14Y-50.038
X144.78Y-62.484
X145.034Y-76.962
X145.589Y-99.47
X145.87Y-118.784
X146.413Y-100.707
X147.066Y-104.902
X147.103Y-116.231
X147.32Y-61.468
X147.475Y-43.053
X147.475Y-135.128
X148.59Y-86.614
X149.14Y-50.038
X149.86Y-69.596
X151.387Y-131.649
X151.892Y-59.944
X152.475Y-43.053
X152.475Y-135.128
X153.416Y-61.976
X153.67Y-77.47
X154.14Y-50.038
X154.169Y-106.652
X154.197Y-102.05
X154.315Y-100.442
X154.94Y-61.976
X154.94Y-128.778
X155.457Y-106.159
X155.847Y-100.272
X157.475Y-43.053
X157.475Y-135.128
X159.14Y-50.038
X160.02Y-104.648
X160.02Y-108.458
X160.02Y-128.778
X160.528Y-61.976
X161.759Y-103.15
X162.039Y-114.341
X162.306Y-55.88
X162.306Y-88.392
X162.475Y-43.053
X162.475Y-135.128
X162.814Y-69.596
X164.084Y-98.298
X164.084Y-119.888
X164.14Y-50.038
X164.15Y-121.854
X164.338Y-67.564
X164.592Y-105.664
X164.846Y-108.458
X165.015Y-128.778
X166.636Y-102.268
X167.475Y-43.053
X167.475Y-135.128
X168.617Y-90.402
X169.14Y-50.038
X169.164Y-73.914
X169.672Y-98.552
X169.926Y-63.754
X170.015Y-128.778
X171.196Y-106.934
X172.475Y-43.053
X172.475Y-135.128
X173.228Y-106.68
X174.14Y-50.038
X174.798Y-74.995
X175.015Y-128.778
X175.514Y-82.55
X177.475Y-43.053
X177.475Y-135.128
X179.14Y-50.038
X179.761Y-64.963
X179.781Y-73.64
X180.015Y-128.778
X181.404Y-82.491
X181.51Y-86.662
X181.927Y-68.3
X182.475Y-43.053
X182.475Y-135.128
X184.14Y-50.038
X185.015Y-128.778
X185.928Y-77.47
X187.428Y-42.946
X187.475Y-135.128
X188.816Y-59.234
X188.816Y-64.234
X188.816Y-69.234
X188.816Y-74.234
X188.816Y-79.234
X189.14Y-50.038
X190.015Y-128.778
X193.816Y-59.234
X193.816Y-64.234
X193.816Y-69.234
X193.816Y-74.234
X193.816Y-79.234
X194.14Y-50.038
X194.945Y-128.778
X198.816Y-59.234
X198.816Y-64.234
X198.816Y-69.234
X198.816Y-74.234
X198.816Y-79.234
X199.14Y-50.038
X200.025Y-128.778
T2
X107.192Y-59.182
X107.192Y-69.292
X108.712Y-61.722
X108.712Y-71.832
X118.432Y-61.062
X118.432Y-63.602
X118.432Y-66.142
X118.432Y-68.682
X120.972Y-62.332
X120.972Y-64.872
X120.972Y-67.412
X120.972Y-69.952
T3
X197.358Y-88.392
X197.358Y-94.488
X197.358Y-101.092
X198.882Y-108.013
X198.882Y-112.459
X198.882Y-118.681
X198.882Y-123.126
X199.898Y-88.392
X199.898Y-94.488
X199.898Y-101.092
T4
X154.432Y-83.058
X156.972Y-83.058
X159.512Y-83.058
X176.784Y-94.996
X176.784Y-97.536
X176.784Y-100.076
X176.784Y-116.078
X176.784Y-118.618
X176.784Y-121.158
X179.324Y-94.996
X179.324Y-97.536
X179.324Y-100.076
X179.324Y-116.078
X179.324Y-118.618
X179.324Y-121.158
T5
X196.342Y-106.743
X196.342Y-113.728
X196.342Y-117.411
X196.342Y-124.396
T6
X104.394Y-82.804
X104.394Y-87.884
X104.394Y-101.6
X104.394Y-106.68
X106.934Y-85.344
X106.934Y-104.14
X109.474Y-82.804
X109.474Y-87.884
X109.474Y-101.6
X109.474Y-106.68
T7
X115.142Y-57.757
X115.142Y-73.257
T3
X108.458Y-117.873G85X108.458Y-119.871
G05
X110.458Y-123.571G85X112.457Y-123.571
G05
X114.457Y-117.873G85X114.457Y-119.871
G05
T0
M30
