G04 #@! TF.FileFunction,Profile,NP*
%FSLAX46Y46*%
G04 Gerber Fmt 4.6, Leading zero omitted, Abs format (unit mm)*
G04 Created by KiCad (PCBNEW 4.0.2-stable) date 27.04.2016 23:24:33*
%MOMM*%
G01*
G04 APERTURE LIST*
%ADD10C,0.100000*%
%ADD11C,0.150000*%
G04 APERTURE END LIST*
D10*
D11*
X104570000Y-132408000D02*
X113342962Y-132397200D01*
X115770000Y-137608000D02*
X115744562Y-134798800D01*
X188754070Y-137600458D02*
X188754070Y-134800458D01*
X199805670Y-132398858D02*
X191155670Y-132398858D01*
X188728708Y-42655658D02*
X188728708Y-45505658D01*
X199780308Y-47907258D02*
X191130308Y-47907258D01*
X115838962Y-46154000D02*
X115838962Y-42639073D01*
X103820000Y-48558000D02*
X113437362Y-48555600D01*
X115744562Y-134798800D02*
G75*
G03X113342962Y-132397200I-2401600J0D01*
G01*
X102141460Y-129995600D02*
G75*
G03X104570000Y-132408000I2412454J0D01*
G01*
X115761380Y-137608037D02*
G75*
G03X118170000Y-140008000I2410198J10256D01*
G01*
X191155670Y-132398858D02*
G75*
G03X188754070Y-134800458I0J-2401600D01*
G01*
X199805670Y-132398858D02*
G75*
G03X202207270Y-129997258I0J2401600D01*
G01*
X186352470Y-140002058D02*
G75*
G03X188754070Y-137600458I0J2401600D01*
G01*
X188728708Y-45505658D02*
G75*
G03X191130308Y-47907258I2401600J0D01*
G01*
X202193270Y-50307258D02*
G75*
G03X199780308Y-47907258I-2400035J0D01*
G01*
X188728708Y-42655658D02*
G75*
G03X186327151Y-40239649I-2401557J14409D01*
G01*
X113437362Y-48555600D02*
G75*
G03X115838962Y-46154000I0J2401600D01*
G01*
X103820000Y-48558000D02*
G75*
G03X102141456Y-50248527I17919J-1696378D01*
G01*
X118138351Y-40239649D02*
G75*
G03X115838962Y-42639073I102211J-2399424D01*
G01*
X102141362Y-50239600D02*
X102141362Y-129995600D01*
X202207270Y-129997258D02*
X202193270Y-50307258D01*
X118170000Y-140008000D02*
X186352470Y-140002058D01*
X118138351Y-40239649D02*
X186327151Y-40239649D01*
X186534634Y-44181192D02*
G75*
G03X186534634Y-44181192I-2500000J0D01*
G01*
X181534634Y-41681192D02*
X186534634Y-46681192D01*
X181534634Y-46681192D02*
X186534634Y-41681192D01*
X122006698Y-136389556D02*
G75*
G03X122006698Y-136389556I-2500000J0D01*
G01*
X117006698Y-133889556D02*
X122006698Y-138889556D01*
X117006698Y-138889556D02*
X122006698Y-133889556D01*
M02*
