G04 #@! TF.FileFunction,Legend,Bot*
%FSLAX46Y46*%
G04 Gerber Fmt 4.6, Leading zero omitted, Abs format (unit mm)*
G04 Created by KiCad (PCBNEW 4.0.2-stable) date 27.04.2016 23:24:33*
%MOMM*%
G01*
G04 APERTURE LIST*
%ADD10C,0.100000*%
%ADD11C,0.150000*%
%ADD12C,0.149860*%
%ADD13C,0.088900*%
%ADD14C,1.901140*%
%ADD15C,2.398980*%
%ADD16C,1.900000*%
%ADD17R,1.650000X1.400000*%
%ADD18C,1.800000*%
%ADD19C,2.900000*%
%ADD20R,1.400000X1.650000*%
%ADD21R,3.900120X3.900120*%
%ADD22R,2.400000X2.400000*%
%ADD23C,2.400000*%
%ADD24R,1.416000X2.178000*%
%ADD25R,2.127200X2.127200*%
%ADD26O,2.127200X2.127200*%
%ADD27R,2.127200X2.432000*%
%ADD28O,2.127200X2.432000*%
%ADD29R,1.100000X1.700000*%
%ADD30C,2.700000*%
%ADD31R,2.200860X3.549600*%
%ADD32R,3.549600X2.200860*%
G04 APERTURE END LIST*
D10*
D11*
X161378000Y-68080000D02*
X161378000Y-69080000D01*
X159678000Y-69080000D02*
X159678000Y-68080000D01*
X156298000Y-68080000D02*
X156298000Y-69080000D01*
X154598000Y-69080000D02*
X154598000Y-68080000D01*
X144614000Y-68080000D02*
X144614000Y-69080000D01*
X142914000Y-69080000D02*
X142914000Y-68080000D01*
X148170000Y-68080000D02*
X148170000Y-69080000D01*
X146470000Y-69080000D02*
X146470000Y-68080000D01*
X153758000Y-68080000D02*
X153758000Y-69080000D01*
X152058000Y-69080000D02*
X152058000Y-68080000D01*
X129040000Y-62650000D02*
X130040000Y-62650000D01*
X130040000Y-64350000D02*
X129040000Y-64350000D01*
X125976000Y-71970000D02*
X124976000Y-71970000D01*
X124976000Y-70270000D02*
X125976000Y-70270000D01*
X122928000Y-84670000D02*
X121928000Y-84670000D01*
X121928000Y-82970000D02*
X122928000Y-82970000D01*
X122928000Y-105752000D02*
X121928000Y-105752000D01*
X121928000Y-104052000D02*
X122928000Y-104052000D01*
X163234000Y-96258000D02*
X163234000Y-95258000D01*
X164934000Y-95258000D02*
X164934000Y-96258000D01*
X156630000Y-106418000D02*
X156630000Y-105418000D01*
X158330000Y-105418000D02*
X158330000Y-106418000D01*
X169506000Y-106942000D02*
X169506000Y-107942000D01*
X167806000Y-107942000D02*
X167806000Y-106942000D01*
X163410000Y-116848000D02*
X163410000Y-117848000D01*
X161710000Y-117848000D02*
X161710000Y-116848000D01*
D12*
X129339340Y-61960760D02*
X129339340Y-59959240D01*
X129740660Y-59959240D02*
X129740660Y-61960760D01*
X131041140Y-59959240D02*
X128038860Y-59959240D01*
X128038860Y-59959240D02*
X128038860Y-61960760D01*
X128038860Y-61960760D02*
X131041140Y-61960760D01*
X131041140Y-61960760D02*
X131041140Y-59959240D01*
D11*
X126076000Y-60085000D02*
X124876000Y-60085000D01*
X124876000Y-61835000D02*
X126076000Y-61835000D01*
X126076000Y-57545000D02*
X124876000Y-57545000D01*
X124876000Y-59295000D02*
X126076000Y-59295000D01*
X124876000Y-66915000D02*
X126076000Y-66915000D01*
X126076000Y-65165000D02*
X124876000Y-65165000D01*
X124876000Y-69455000D02*
X126076000Y-69455000D01*
X126076000Y-67705000D02*
X124876000Y-67705000D01*
X108296000Y-63133000D02*
X107096000Y-63133000D01*
X107096000Y-64883000D02*
X108296000Y-64883000D01*
X108296000Y-65673000D02*
X107096000Y-65673000D01*
X107096000Y-67423000D02*
X108296000Y-67423000D01*
X141020000Y-123208000D02*
X141020000Y-122208000D01*
X142720000Y-122208000D02*
X142720000Y-123208000D01*
X169539920Y-70241160D02*
X165740080Y-70241160D01*
X169539920Y-63540640D02*
X169539920Y-68539360D01*
X165740080Y-63543180D02*
X165740080Y-68541900D01*
X170543220Y-70744080D02*
X169443400Y-70744080D01*
X170042840Y-71343520D02*
X170042840Y-70144640D01*
X125613160Y-96144080D02*
X125613160Y-99943920D01*
X118912640Y-96144080D02*
X123911360Y-96144080D01*
X118915180Y-99943920D02*
X123913900Y-99943920D01*
X126116080Y-95140780D02*
X126116080Y-96240600D01*
X126715520Y-95641160D02*
X125516640Y-95641160D01*
X134752080Y-65394840D02*
X138551920Y-65394840D01*
X134752080Y-72095360D02*
X134752080Y-67096640D01*
X138551920Y-72092820D02*
X138551920Y-67094100D01*
X133748780Y-64891920D02*
X134848600Y-64891920D01*
X134249160Y-64292480D02*
X134249160Y-65491360D01*
X160885143Y-71461334D02*
X160932762Y-71413715D01*
X160980381Y-71270858D01*
X160980381Y-71175620D01*
X160932762Y-71032762D01*
X160837524Y-70937524D01*
X160742286Y-70889905D01*
X160551810Y-70842286D01*
X160408952Y-70842286D01*
X160218476Y-70889905D01*
X160123238Y-70937524D01*
X160028000Y-71032762D01*
X159980381Y-71175620D01*
X159980381Y-71270858D01*
X160028000Y-71413715D01*
X160075619Y-71461334D01*
X159980381Y-71794667D02*
X159980381Y-72413715D01*
X160361333Y-72080381D01*
X160361333Y-72223239D01*
X160408952Y-72318477D01*
X160456571Y-72366096D01*
X160551810Y-72413715D01*
X160789905Y-72413715D01*
X160885143Y-72366096D01*
X160932762Y-72318477D01*
X160980381Y-72223239D01*
X160980381Y-71937524D01*
X160932762Y-71842286D01*
X160885143Y-71794667D01*
X155805143Y-71461334D02*
X155852762Y-71413715D01*
X155900381Y-71270858D01*
X155900381Y-71175620D01*
X155852762Y-71032762D01*
X155757524Y-70937524D01*
X155662286Y-70889905D01*
X155471810Y-70842286D01*
X155328952Y-70842286D01*
X155138476Y-70889905D01*
X155043238Y-70937524D01*
X154948000Y-71032762D01*
X154900381Y-71175620D01*
X154900381Y-71270858D01*
X154948000Y-71413715D01*
X154995619Y-71461334D01*
X155233714Y-72318477D02*
X155900381Y-72318477D01*
X154852762Y-72080381D02*
X155567048Y-71842286D01*
X155567048Y-72461334D01*
X144121143Y-71461334D02*
X144168762Y-71413715D01*
X144216381Y-71270858D01*
X144216381Y-71175620D01*
X144168762Y-71032762D01*
X144073524Y-70937524D01*
X143978286Y-70889905D01*
X143787810Y-70842286D01*
X143644952Y-70842286D01*
X143454476Y-70889905D01*
X143359238Y-70937524D01*
X143264000Y-71032762D01*
X143216381Y-71175620D01*
X143216381Y-71270858D01*
X143264000Y-71413715D01*
X143311619Y-71461334D01*
X143216381Y-72366096D02*
X143216381Y-71889905D01*
X143692571Y-71842286D01*
X143644952Y-71889905D01*
X143597333Y-71985143D01*
X143597333Y-72223239D01*
X143644952Y-72318477D01*
X143692571Y-72366096D01*
X143787810Y-72413715D01*
X144025905Y-72413715D01*
X144121143Y-72366096D01*
X144168762Y-72318477D01*
X144216381Y-72223239D01*
X144216381Y-71985143D01*
X144168762Y-71889905D01*
X144121143Y-71842286D01*
X147677143Y-71461334D02*
X147724762Y-71413715D01*
X147772381Y-71270858D01*
X147772381Y-71175620D01*
X147724762Y-71032762D01*
X147629524Y-70937524D01*
X147534286Y-70889905D01*
X147343810Y-70842286D01*
X147200952Y-70842286D01*
X147010476Y-70889905D01*
X146915238Y-70937524D01*
X146820000Y-71032762D01*
X146772381Y-71175620D01*
X146772381Y-71270858D01*
X146820000Y-71413715D01*
X146867619Y-71461334D01*
X146772381Y-72318477D02*
X146772381Y-72128000D01*
X146820000Y-72032762D01*
X146867619Y-71985143D01*
X147010476Y-71889905D01*
X147200952Y-71842286D01*
X147581905Y-71842286D01*
X147677143Y-71889905D01*
X147724762Y-71937524D01*
X147772381Y-72032762D01*
X147772381Y-72223239D01*
X147724762Y-72318477D01*
X147677143Y-72366096D01*
X147581905Y-72413715D01*
X147343810Y-72413715D01*
X147248571Y-72366096D01*
X147200952Y-72318477D01*
X147153333Y-72223239D01*
X147153333Y-72032762D01*
X147200952Y-71937524D01*
X147248571Y-71889905D01*
X147343810Y-71842286D01*
X153265143Y-71461334D02*
X153312762Y-71413715D01*
X153360381Y-71270858D01*
X153360381Y-71175620D01*
X153312762Y-71032762D01*
X153217524Y-70937524D01*
X153122286Y-70889905D01*
X152931810Y-70842286D01*
X152788952Y-70842286D01*
X152598476Y-70889905D01*
X152503238Y-70937524D01*
X152408000Y-71032762D01*
X152360381Y-71175620D01*
X152360381Y-71270858D01*
X152408000Y-71413715D01*
X152455619Y-71461334D01*
X152360381Y-71794667D02*
X152360381Y-72461334D01*
X153360381Y-72032762D01*
X133738857Y-63857143D02*
X133786476Y-63904762D01*
X133929333Y-63952381D01*
X134024571Y-63952381D01*
X134167429Y-63904762D01*
X134262667Y-63809524D01*
X134310286Y-63714286D01*
X134357905Y-63523810D01*
X134357905Y-63380952D01*
X134310286Y-63190476D01*
X134262667Y-63095238D01*
X134167429Y-63000000D01*
X134024571Y-62952381D01*
X133929333Y-62952381D01*
X133786476Y-63000000D01*
X133738857Y-63047619D01*
X132786476Y-63952381D02*
X133357905Y-63952381D01*
X133072191Y-63952381D02*
X133072191Y-62952381D01*
X133167429Y-63095238D01*
X133262667Y-63190476D01*
X133357905Y-63238095D01*
X132167429Y-62952381D02*
X132072190Y-62952381D01*
X131976952Y-63000000D01*
X131929333Y-63047619D01*
X131881714Y-63142857D01*
X131834095Y-63333333D01*
X131834095Y-63571429D01*
X131881714Y-63761905D01*
X131929333Y-63857143D01*
X131976952Y-63904762D01*
X132072190Y-63952381D01*
X132167429Y-63952381D01*
X132262667Y-63904762D01*
X132310286Y-63857143D01*
X132357905Y-63761905D01*
X132405524Y-63571429D01*
X132405524Y-63333333D01*
X132357905Y-63142857D01*
X132310286Y-63047619D01*
X132262667Y-63000000D01*
X132167429Y-62952381D01*
X129420857Y-71477143D02*
X129468476Y-71524762D01*
X129611333Y-71572381D01*
X129706571Y-71572381D01*
X129849429Y-71524762D01*
X129944667Y-71429524D01*
X129992286Y-71334286D01*
X130039905Y-71143810D01*
X130039905Y-71000952D01*
X129992286Y-70810476D01*
X129944667Y-70715238D01*
X129849429Y-70620000D01*
X129706571Y-70572381D01*
X129611333Y-70572381D01*
X129468476Y-70620000D01*
X129420857Y-70667619D01*
X128468476Y-71572381D02*
X129039905Y-71572381D01*
X128754191Y-71572381D02*
X128754191Y-70572381D01*
X128849429Y-70715238D01*
X128944667Y-70810476D01*
X129039905Y-70858095D01*
X127516095Y-71572381D02*
X128087524Y-71572381D01*
X127801810Y-71572381D02*
X127801810Y-70572381D01*
X127897048Y-70715238D01*
X127992286Y-70810476D01*
X128087524Y-70858095D01*
X123070857Y-86277143D02*
X123118476Y-86324762D01*
X123261333Y-86372381D01*
X123356571Y-86372381D01*
X123499429Y-86324762D01*
X123594667Y-86229524D01*
X123642286Y-86134286D01*
X123689905Y-85943810D01*
X123689905Y-85800952D01*
X123642286Y-85610476D01*
X123594667Y-85515238D01*
X123499429Y-85420000D01*
X123356571Y-85372381D01*
X123261333Y-85372381D01*
X123118476Y-85420000D01*
X123070857Y-85467619D01*
X122118476Y-86372381D02*
X122689905Y-86372381D01*
X122404191Y-86372381D02*
X122404191Y-85372381D01*
X122499429Y-85515238D01*
X122594667Y-85610476D01*
X122689905Y-85658095D01*
X121785143Y-85372381D02*
X121166095Y-85372381D01*
X121499429Y-85753333D01*
X121356571Y-85753333D01*
X121261333Y-85800952D01*
X121213714Y-85848571D01*
X121166095Y-85943810D01*
X121166095Y-86181905D01*
X121213714Y-86277143D01*
X121261333Y-86324762D01*
X121356571Y-86372381D01*
X121642286Y-86372381D01*
X121737524Y-86324762D01*
X121785143Y-86277143D01*
X123070857Y-107359143D02*
X123118476Y-107406762D01*
X123261333Y-107454381D01*
X123356571Y-107454381D01*
X123499429Y-107406762D01*
X123594667Y-107311524D01*
X123642286Y-107216286D01*
X123689905Y-107025810D01*
X123689905Y-106882952D01*
X123642286Y-106692476D01*
X123594667Y-106597238D01*
X123499429Y-106502000D01*
X123356571Y-106454381D01*
X123261333Y-106454381D01*
X123118476Y-106502000D01*
X123070857Y-106549619D01*
X122118476Y-107454381D02*
X122689905Y-107454381D01*
X122404191Y-107454381D02*
X122404191Y-106454381D01*
X122499429Y-106597238D01*
X122594667Y-106692476D01*
X122689905Y-106740095D01*
X121261333Y-106787714D02*
X121261333Y-107454381D01*
X121499429Y-106406762D02*
X121737524Y-107121048D01*
X121118476Y-107121048D01*
X166473143Y-95115143D02*
X166520762Y-95067524D01*
X166568381Y-94924667D01*
X166568381Y-94829429D01*
X166520762Y-94686571D01*
X166425524Y-94591333D01*
X166330286Y-94543714D01*
X166139810Y-94496095D01*
X165996952Y-94496095D01*
X165806476Y-94543714D01*
X165711238Y-94591333D01*
X165616000Y-94686571D01*
X165568381Y-94829429D01*
X165568381Y-94924667D01*
X165616000Y-95067524D01*
X165663619Y-95115143D01*
X166568381Y-96067524D02*
X166568381Y-95496095D01*
X166568381Y-95781809D02*
X165568381Y-95781809D01*
X165711238Y-95686571D01*
X165806476Y-95591333D01*
X165854095Y-95496095D01*
X165568381Y-96972286D02*
X165568381Y-96496095D01*
X166044571Y-96448476D01*
X165996952Y-96496095D01*
X165949333Y-96591333D01*
X165949333Y-96829429D01*
X165996952Y-96924667D01*
X166044571Y-96972286D01*
X166139810Y-97019905D01*
X166377905Y-97019905D01*
X166473143Y-96972286D01*
X166520762Y-96924667D01*
X166568381Y-96829429D01*
X166568381Y-96591333D01*
X166520762Y-96496095D01*
X166473143Y-96448476D01*
X158122857Y-109069143D02*
X158170476Y-109116762D01*
X158313333Y-109164381D01*
X158408571Y-109164381D01*
X158551429Y-109116762D01*
X158646667Y-109021524D01*
X158694286Y-108926286D01*
X158741905Y-108735810D01*
X158741905Y-108592952D01*
X158694286Y-108402476D01*
X158646667Y-108307238D01*
X158551429Y-108212000D01*
X158408571Y-108164381D01*
X158313333Y-108164381D01*
X158170476Y-108212000D01*
X158122857Y-108259619D01*
X157170476Y-109164381D02*
X157741905Y-109164381D01*
X157456191Y-109164381D02*
X157456191Y-108164381D01*
X157551429Y-108307238D01*
X157646667Y-108402476D01*
X157741905Y-108450095D01*
X156313333Y-108164381D02*
X156503810Y-108164381D01*
X156599048Y-108212000D01*
X156646667Y-108259619D01*
X156741905Y-108402476D01*
X156789524Y-108592952D01*
X156789524Y-108973905D01*
X156741905Y-109069143D01*
X156694286Y-109116762D01*
X156599048Y-109164381D01*
X156408571Y-109164381D01*
X156313333Y-109116762D01*
X156265714Y-109069143D01*
X156218095Y-108973905D01*
X156218095Y-108735810D01*
X156265714Y-108640571D01*
X156313333Y-108592952D01*
X156408571Y-108545333D01*
X156599048Y-108545333D01*
X156694286Y-108592952D01*
X156741905Y-108640571D01*
X156789524Y-108735810D01*
X169298857Y-110593143D02*
X169346476Y-110640762D01*
X169489333Y-110688381D01*
X169584571Y-110688381D01*
X169727429Y-110640762D01*
X169822667Y-110545524D01*
X169870286Y-110450286D01*
X169917905Y-110259810D01*
X169917905Y-110116952D01*
X169870286Y-109926476D01*
X169822667Y-109831238D01*
X169727429Y-109736000D01*
X169584571Y-109688381D01*
X169489333Y-109688381D01*
X169346476Y-109736000D01*
X169298857Y-109783619D01*
X168346476Y-110688381D02*
X168917905Y-110688381D01*
X168632191Y-110688381D02*
X168632191Y-109688381D01*
X168727429Y-109831238D01*
X168822667Y-109926476D01*
X168917905Y-109974095D01*
X168013143Y-109688381D02*
X167346476Y-109688381D01*
X167775048Y-110688381D01*
X161139143Y-116705143D02*
X161186762Y-116657524D01*
X161234381Y-116514667D01*
X161234381Y-116419429D01*
X161186762Y-116276571D01*
X161091524Y-116181333D01*
X160996286Y-116133714D01*
X160805810Y-116086095D01*
X160662952Y-116086095D01*
X160472476Y-116133714D01*
X160377238Y-116181333D01*
X160282000Y-116276571D01*
X160234381Y-116419429D01*
X160234381Y-116514667D01*
X160282000Y-116657524D01*
X160329619Y-116705143D01*
X161234381Y-117657524D02*
X161234381Y-117086095D01*
X161234381Y-117371809D02*
X160234381Y-117371809D01*
X160377238Y-117276571D01*
X160472476Y-117181333D01*
X160520095Y-117086095D01*
X160662952Y-118228952D02*
X160615333Y-118133714D01*
X160567714Y-118086095D01*
X160472476Y-118038476D01*
X160424857Y-118038476D01*
X160329619Y-118086095D01*
X160282000Y-118133714D01*
X160234381Y-118228952D01*
X160234381Y-118419429D01*
X160282000Y-118514667D01*
X160329619Y-118562286D01*
X160424857Y-118609905D01*
X160472476Y-118609905D01*
X160567714Y-118562286D01*
X160615333Y-118514667D01*
X160662952Y-118419429D01*
X160662952Y-118228952D01*
X160710571Y-118133714D01*
X160758190Y-118086095D01*
X160853429Y-118038476D01*
X161043905Y-118038476D01*
X161139143Y-118086095D01*
X161186762Y-118133714D01*
X161234381Y-118228952D01*
X161234381Y-118419429D01*
X161186762Y-118514667D01*
X161139143Y-118562286D01*
X161043905Y-118609905D01*
X160853429Y-118609905D01*
X160758190Y-118562286D01*
X160710571Y-118514667D01*
X160662952Y-118419429D01*
D12*
X132458883Y-61298969D02*
X132815692Y-61298969D01*
X132815692Y-60549669D01*
X131816626Y-61298969D02*
X132244797Y-61298969D01*
X132030711Y-61298969D02*
X132030711Y-60549669D01*
X132102073Y-60656712D01*
X132173435Y-60728074D01*
X132244797Y-60763755D01*
D11*
X125642666Y-63190381D02*
X125976000Y-62714190D01*
X126214095Y-63190381D02*
X126214095Y-62190381D01*
X125833142Y-62190381D01*
X125737904Y-62238000D01*
X125690285Y-62285619D01*
X125642666Y-62380857D01*
X125642666Y-62523714D01*
X125690285Y-62618952D01*
X125737904Y-62666571D01*
X125833142Y-62714190D01*
X126214095Y-62714190D01*
X124690285Y-63190381D02*
X125261714Y-63190381D01*
X124976000Y-63190381D02*
X124976000Y-62190381D01*
X125071238Y-62333238D01*
X125166476Y-62428476D01*
X125261714Y-62476095D01*
X125642666Y-56840381D02*
X125976000Y-56364190D01*
X126214095Y-56840381D02*
X126214095Y-55840381D01*
X125833142Y-55840381D01*
X125737904Y-55888000D01*
X125690285Y-55935619D01*
X125642666Y-56030857D01*
X125642666Y-56173714D01*
X125690285Y-56268952D01*
X125737904Y-56316571D01*
X125833142Y-56364190D01*
X126214095Y-56364190D01*
X125261714Y-55935619D02*
X125214095Y-55888000D01*
X125118857Y-55840381D01*
X124880761Y-55840381D01*
X124785523Y-55888000D01*
X124737904Y-55935619D01*
X124690285Y-56030857D01*
X124690285Y-56126095D01*
X124737904Y-56268952D01*
X125309333Y-56840381D01*
X124690285Y-56840381D01*
X128436666Y-66492381D02*
X128770000Y-66016190D01*
X129008095Y-66492381D02*
X129008095Y-65492381D01*
X128627142Y-65492381D01*
X128531904Y-65540000D01*
X128484285Y-65587619D01*
X128436666Y-65682857D01*
X128436666Y-65825714D01*
X128484285Y-65920952D01*
X128531904Y-65968571D01*
X128627142Y-66016190D01*
X129008095Y-66016190D01*
X128103333Y-65492381D02*
X127484285Y-65492381D01*
X127817619Y-65873333D01*
X127674761Y-65873333D01*
X127579523Y-65920952D01*
X127531904Y-65968571D01*
X127484285Y-66063810D01*
X127484285Y-66301905D01*
X127531904Y-66397143D01*
X127579523Y-66444762D01*
X127674761Y-66492381D01*
X127960476Y-66492381D01*
X128055714Y-66444762D01*
X128103333Y-66397143D01*
X128436666Y-69032381D02*
X128770000Y-68556190D01*
X129008095Y-69032381D02*
X129008095Y-68032381D01*
X128627142Y-68032381D01*
X128531904Y-68080000D01*
X128484285Y-68127619D01*
X128436666Y-68222857D01*
X128436666Y-68365714D01*
X128484285Y-68460952D01*
X128531904Y-68508571D01*
X128627142Y-68556190D01*
X129008095Y-68556190D01*
X127579523Y-68365714D02*
X127579523Y-69032381D01*
X127817619Y-67984762D02*
X128055714Y-68699048D01*
X127436666Y-68699048D01*
X110656666Y-64460381D02*
X110990000Y-63984190D01*
X111228095Y-64460381D02*
X111228095Y-63460381D01*
X110847142Y-63460381D01*
X110751904Y-63508000D01*
X110704285Y-63555619D01*
X110656666Y-63650857D01*
X110656666Y-63793714D01*
X110704285Y-63888952D01*
X110751904Y-63936571D01*
X110847142Y-63984190D01*
X111228095Y-63984190D01*
X109751904Y-63460381D02*
X110228095Y-63460381D01*
X110275714Y-63936571D01*
X110228095Y-63888952D01*
X110132857Y-63841333D01*
X109894761Y-63841333D01*
X109799523Y-63888952D01*
X109751904Y-63936571D01*
X109704285Y-64031810D01*
X109704285Y-64269905D01*
X109751904Y-64365143D01*
X109799523Y-64412762D01*
X109894761Y-64460381D01*
X110132857Y-64460381D01*
X110228095Y-64412762D01*
X110275714Y-64365143D01*
X110656666Y-67000381D02*
X110990000Y-66524190D01*
X111228095Y-67000381D02*
X111228095Y-66000381D01*
X110847142Y-66000381D01*
X110751904Y-66048000D01*
X110704285Y-66095619D01*
X110656666Y-66190857D01*
X110656666Y-66333714D01*
X110704285Y-66428952D01*
X110751904Y-66476571D01*
X110847142Y-66524190D01*
X111228095Y-66524190D01*
X109799523Y-66000381D02*
X109990000Y-66000381D01*
X110085238Y-66048000D01*
X110132857Y-66095619D01*
X110228095Y-66238476D01*
X110275714Y-66428952D01*
X110275714Y-66809905D01*
X110228095Y-66905143D01*
X110180476Y-66952762D01*
X110085238Y-67000381D01*
X109894761Y-67000381D01*
X109799523Y-66952762D01*
X109751904Y-66905143D01*
X109704285Y-66809905D01*
X109704285Y-66571810D01*
X109751904Y-66476571D01*
X109799523Y-66428952D01*
X109894761Y-66381333D01*
X110085238Y-66381333D01*
X110180476Y-66428952D01*
X110228095Y-66476571D01*
X110275714Y-66571810D01*
X142481143Y-118509143D02*
X142528762Y-118461524D01*
X142576381Y-118318667D01*
X142576381Y-118223429D01*
X142528762Y-118080571D01*
X142433524Y-117985333D01*
X142338286Y-117937714D01*
X142147810Y-117890095D01*
X142004952Y-117890095D01*
X141814476Y-117937714D01*
X141719238Y-117985333D01*
X141624000Y-118080571D01*
X141576381Y-118223429D01*
X141576381Y-118318667D01*
X141624000Y-118461524D01*
X141671619Y-118509143D01*
X141671619Y-118890095D02*
X141624000Y-118937714D01*
X141576381Y-119032952D01*
X141576381Y-119271048D01*
X141624000Y-119366286D01*
X141671619Y-119413905D01*
X141766857Y-119461524D01*
X141862095Y-119461524D01*
X142004952Y-119413905D01*
X142576381Y-118842476D01*
X142576381Y-119461524D01*
X141576381Y-120080571D02*
X141576381Y-120175810D01*
X141624000Y-120271048D01*
X141671619Y-120318667D01*
X141766857Y-120366286D01*
X141957333Y-120413905D01*
X142195429Y-120413905D01*
X142385905Y-120366286D01*
X142481143Y-120318667D01*
X142528762Y-120271048D01*
X142576381Y-120175810D01*
X142576381Y-120080571D01*
X142528762Y-119985333D01*
X142481143Y-119937714D01*
X142385905Y-119890095D01*
X142195429Y-119842476D01*
X141957333Y-119842476D01*
X141766857Y-119890095D01*
X141671619Y-119937714D01*
X141624000Y-119985333D01*
X141576381Y-120080571D01*
D13*
X131475695Y-132144724D02*
X132133676Y-132144724D01*
X132211086Y-132183429D01*
X132249790Y-132222133D01*
X132288495Y-132299543D01*
X132288495Y-132454362D01*
X132249790Y-132531771D01*
X132211086Y-132570476D01*
X132133676Y-132609181D01*
X131475695Y-132609181D01*
X132288495Y-133421981D02*
X132288495Y-132957524D01*
X132288495Y-133189753D02*
X131475695Y-133189753D01*
X131591810Y-133112343D01*
X131669219Y-133034934D01*
X131707924Y-132957524D01*
D11*
X168282857Y-71731143D02*
X168330476Y-71778762D01*
X168473333Y-71826381D01*
X168568571Y-71826381D01*
X168711429Y-71778762D01*
X168806667Y-71683524D01*
X168854286Y-71588286D01*
X168901905Y-71397810D01*
X168901905Y-71254952D01*
X168854286Y-71064476D01*
X168806667Y-70969238D01*
X168711429Y-70874000D01*
X168568571Y-70826381D01*
X168473333Y-70826381D01*
X168330476Y-70874000D01*
X168282857Y-70921619D01*
X167901905Y-70921619D02*
X167854286Y-70874000D01*
X167759048Y-70826381D01*
X167520952Y-70826381D01*
X167425714Y-70874000D01*
X167378095Y-70921619D01*
X167330476Y-71016857D01*
X167330476Y-71112095D01*
X167378095Y-71254952D01*
X167949524Y-71826381D01*
X167330476Y-71826381D01*
X166425714Y-70826381D02*
X166901905Y-70826381D01*
X166949524Y-71302571D01*
X166901905Y-71254952D01*
X166806667Y-71207333D01*
X166568571Y-71207333D01*
X166473333Y-71254952D01*
X166425714Y-71302571D01*
X166378095Y-71397810D01*
X166378095Y-71635905D01*
X166425714Y-71731143D01*
X166473333Y-71778762D01*
X166568571Y-71826381D01*
X166806667Y-71826381D01*
X166901905Y-71778762D01*
X166949524Y-71731143D01*
X164917429Y-70360588D02*
X164917429Y-71122493D01*
X165298381Y-70741541D02*
X164536476Y-70741541D01*
X122255517Y-95101683D02*
X122303136Y-95149302D01*
X122445993Y-95196921D01*
X122541231Y-95196921D01*
X122684089Y-95149302D01*
X122779327Y-95054064D01*
X122826946Y-94958826D01*
X122874565Y-94768350D01*
X122874565Y-94625492D01*
X122826946Y-94435016D01*
X122779327Y-94339778D01*
X122684089Y-94244540D01*
X122541231Y-94196921D01*
X122445993Y-94196921D01*
X122303136Y-94244540D01*
X122255517Y-94292159D01*
X121874565Y-94292159D02*
X121826946Y-94244540D01*
X121731708Y-94196921D01*
X121493612Y-94196921D01*
X121398374Y-94244540D01*
X121350755Y-94292159D01*
X121303136Y-94387397D01*
X121303136Y-94482635D01*
X121350755Y-94625492D01*
X121922184Y-95196921D01*
X121303136Y-95196921D01*
X120969803Y-94196921D02*
X120303136Y-94196921D01*
X120731708Y-95196921D01*
X126494492Y-95715129D02*
X125732587Y-95715129D01*
X126113539Y-96096081D02*
X126113539Y-95334176D01*
X137294857Y-74779143D02*
X137342476Y-74826762D01*
X137485333Y-74874381D01*
X137580571Y-74874381D01*
X137723429Y-74826762D01*
X137818667Y-74731524D01*
X137866286Y-74636286D01*
X137913905Y-74445810D01*
X137913905Y-74302952D01*
X137866286Y-74112476D01*
X137818667Y-74017238D01*
X137723429Y-73922000D01*
X137580571Y-73874381D01*
X137485333Y-73874381D01*
X137342476Y-73922000D01*
X137294857Y-73969619D01*
X136913905Y-73969619D02*
X136866286Y-73922000D01*
X136771048Y-73874381D01*
X136532952Y-73874381D01*
X136437714Y-73922000D01*
X136390095Y-73969619D01*
X136342476Y-74064857D01*
X136342476Y-74160095D01*
X136390095Y-74302952D01*
X136961524Y-74874381D01*
X136342476Y-74874381D01*
X135771048Y-74302952D02*
X135866286Y-74255333D01*
X135913905Y-74207714D01*
X135961524Y-74112476D01*
X135961524Y-74064857D01*
X135913905Y-73969619D01*
X135866286Y-73922000D01*
X135771048Y-73874381D01*
X135580571Y-73874381D01*
X135485333Y-73922000D01*
X135437714Y-73969619D01*
X135390095Y-74064857D01*
X135390095Y-74112476D01*
X135437714Y-74207714D01*
X135485333Y-74255333D01*
X135580571Y-74302952D01*
X135771048Y-74302952D01*
X135866286Y-74350571D01*
X135913905Y-74398190D01*
X135961524Y-74493429D01*
X135961524Y-74683905D01*
X135913905Y-74779143D01*
X135866286Y-74826762D01*
X135771048Y-74874381D01*
X135580571Y-74874381D01*
X135485333Y-74826762D01*
X135437714Y-74779143D01*
X135390095Y-74683905D01*
X135390095Y-74493429D01*
X135437714Y-74398190D01*
X135485333Y-74350571D01*
X135580571Y-74302952D01*
X139263429Y-64389048D02*
X139263429Y-65150953D01*
X139644381Y-64770001D02*
X138882476Y-64770001D01*
%LPC*%
D14*
X198882000Y-123126500D03*
X198882000Y-118681500D03*
D15*
X196342000Y-124396500D03*
X196342000Y-117411500D03*
D16*
X196512000Y-57242000D03*
X196512000Y-81442000D03*
D17*
X160528000Y-69580000D03*
X160528000Y-67580000D03*
D18*
X118432000Y-63602000D03*
X118432000Y-61062000D03*
X120972000Y-62332000D03*
X120972000Y-64872000D03*
X118432000Y-66142000D03*
X120972000Y-67412000D03*
X118432000Y-68682000D03*
X120972000Y-69952000D03*
D19*
X115142000Y-57757000D03*
X115142000Y-73257000D03*
D16*
X107192000Y-69292000D03*
X108712000Y-71832000D03*
X107192000Y-59182000D03*
X108712000Y-61722000D03*
D17*
X155448000Y-69580000D03*
X155448000Y-67580000D03*
X143764000Y-69580000D03*
X143764000Y-67580000D03*
X147320000Y-69580000D03*
X147320000Y-67580000D03*
X152908000Y-69580000D03*
X152908000Y-67580000D03*
D20*
X130540000Y-63500000D03*
X128540000Y-63500000D03*
X124476000Y-71120000D03*
X126476000Y-71120000D03*
X121428000Y-83820000D03*
X123428000Y-83820000D03*
X121428000Y-104902000D03*
X123428000Y-104902000D03*
D17*
X164084000Y-94758000D03*
X164084000Y-96758000D03*
X157480000Y-104918000D03*
X157480000Y-106918000D03*
X168656000Y-108442000D03*
X168656000Y-106442000D03*
X162560000Y-118348000D03*
X162560000Y-116348000D03*
D21*
X114457480Y-118872000D03*
X108458000Y-118872000D03*
X111457740Y-123571000D03*
D22*
X199898000Y-101092000D03*
D23*
X197358000Y-101092000D03*
D22*
X199898000Y-94488000D03*
D23*
X197358000Y-94488000D03*
D24*
X130429000Y-60960000D03*
X128651000Y-60960000D03*
D25*
X176784000Y-94996000D03*
D26*
X179324000Y-94996000D03*
X176784000Y-97536000D03*
X179324000Y-97536000D03*
X176784000Y-100076000D03*
X179324000Y-100076000D03*
D25*
X176784000Y-116078000D03*
D26*
X179324000Y-116078000D03*
X176784000Y-118618000D03*
X179324000Y-118618000D03*
X176784000Y-121158000D03*
X179324000Y-121158000D03*
D27*
X159512000Y-83058000D03*
D28*
X156972000Y-83058000D03*
X154432000Y-83058000D03*
D29*
X124526000Y-60960000D03*
X126426000Y-60960000D03*
X124526000Y-58420000D03*
X126426000Y-58420000D03*
X126426000Y-66040000D03*
X124526000Y-66040000D03*
X126426000Y-68580000D03*
X124526000Y-68580000D03*
X106746000Y-64008000D03*
X108646000Y-64008000D03*
X106746000Y-66548000D03*
X108646000Y-66548000D03*
D30*
X106934000Y-85344000D03*
X109474000Y-87884000D03*
X109474000Y-82804000D03*
X104394000Y-82804000D03*
X104394000Y-87884000D03*
X106934000Y-104140000D03*
X109474000Y-106680000D03*
X109474000Y-101600000D03*
X104394000Y-101600000D03*
X104394000Y-106680000D03*
D14*
X198882000Y-112458500D03*
X198882000Y-108013500D03*
D15*
X196342000Y-113728500D03*
X196342000Y-106743500D03*
D17*
X141870000Y-121708000D03*
X141870000Y-123708000D03*
D22*
X199898000Y-88392000D03*
D23*
X197358000Y-88392000D03*
D31*
X167640000Y-63914020D03*
X167640000Y-68165980D03*
D32*
X119286020Y-98044000D03*
X123537980Y-98044000D03*
D31*
X136652000Y-71721980D03*
X136652000Y-67470020D03*
M02*
