G04 #@! TF.FileFunction,Soldermask,Top*
%FSLAX46Y46*%
G04 Gerber Fmt 4.6, Leading zero omitted, Abs format (unit mm)*
G04 Created by KiCad (PCBNEW 4.0.2-stable) date 28.04.2016 23:09:56*
%MOMM*%
G01*
G04 APERTURE LIST*
%ADD10C,0.100000*%
%ADD11C,1.901140*%
%ADD12C,2.398980*%
%ADD13R,1.900000X1.400000*%
%ADD14R,2.600000X1.600000*%
%ADD15C,1.900000*%
%ADD16R,1.000000X2.400000*%
%ADD17R,3.397200X1.997660*%
%ADD18R,1.598880X1.598880*%
%ADD19C,1.800000*%
%ADD20C,2.900000*%
%ADD21R,1.650000X1.400000*%
%ADD22R,0.950000X1.900000*%
%ADD23R,1.900000X0.950000*%
%ADD24R,1.400000X1.650000*%
%ADD25R,3.900120X3.900120*%
%ADD26R,2.400000X2.400000*%
%ADD27C,2.400000*%
%ADD28R,3.051760X2.429460*%
%ADD29R,2.127200X2.127200*%
%ADD30O,2.127200X2.127200*%
%ADD31R,2.127200X2.432000*%
%ADD32O,2.127200X2.432000*%
%ADD33R,1.700000X1.100000*%
%ADD34R,1.100000X1.700000*%
%ADD35R,5.899100X2.398980*%
%ADD36C,2.700000*%
%ADD37R,2.635200X1.619200*%
%ADD38R,2.599640X3.999180*%
%ADD39R,3.900120X2.200860*%
%ADD40R,2.200860X3.549600*%
G04 APERTURE END LIST*
D10*
D11*
X198882000Y-123126500D03*
X198882000Y-118681500D03*
D12*
X196342000Y-124396500D03*
X196342000Y-117411500D03*
D13*
X172212000Y-62467000D03*
X172212000Y-64967000D03*
X172212000Y-68267000D03*
X172212000Y-69967000D03*
X172212000Y-72467000D03*
X172212000Y-74967000D03*
X172212000Y-77392000D03*
X172212000Y-79092000D03*
X172212000Y-59967000D03*
X172212000Y-66617000D03*
X172212000Y-82442000D03*
D14*
X193212000Y-54942000D03*
X194412000Y-82942000D03*
D15*
X196512000Y-57242000D03*
X196512000Y-81442000D03*
D16*
X143637000Y-74296000D03*
X144907000Y-74296000D03*
X146177000Y-74296000D03*
X147447000Y-74296000D03*
X148717000Y-74296000D03*
X149987000Y-74296000D03*
X151257000Y-74296000D03*
X152527000Y-74296000D03*
X153797000Y-74296000D03*
X155067000Y-74296000D03*
X156337000Y-74296000D03*
X157607000Y-74296000D03*
X158877000Y-74296000D03*
X160147000Y-74296000D03*
X160147000Y-64896000D03*
X158877000Y-64896000D03*
X157607000Y-64896000D03*
X156337000Y-64896000D03*
X155067000Y-64896000D03*
X153797000Y-64896000D03*
X152527000Y-64896000D03*
X151257000Y-64896000D03*
X149987000Y-64896000D03*
X148717000Y-64896000D03*
X147447000Y-64896000D03*
X146177000Y-64896000D03*
X144907000Y-64896000D03*
X143637000Y-64896000D03*
D17*
X121033540Y-81884520D03*
X121031000Y-83883500D03*
X121031000Y-85885020D03*
X121031000Y-87884000D03*
X121031000Y-89882980D03*
X121031000Y-91884500D03*
X121031000Y-93883480D03*
X137033000Y-93883480D03*
X137033000Y-91884500D03*
X137033000Y-89882980D03*
X137033000Y-87884000D03*
X137033000Y-85885020D03*
X137033000Y-83883500D03*
X137033000Y-81884520D03*
D18*
X148870000Y-133257020D03*
X148870000Y-131158980D03*
D19*
X118432000Y-63602000D03*
X118432000Y-61062000D03*
X120972000Y-62332000D03*
X120972000Y-64872000D03*
X118432000Y-66142000D03*
X120972000Y-67412000D03*
X118432000Y-68682000D03*
X120972000Y-69952000D03*
D20*
X115142000Y-57757000D03*
X115142000Y-73257000D03*
D15*
X107192000Y-69292000D03*
X108712000Y-71832000D03*
X107192000Y-59182000D03*
X108712000Y-61722000D03*
D21*
X164084000Y-118348000D03*
X164084000Y-116348000D03*
D17*
X121033540Y-102966520D03*
X121031000Y-104965500D03*
X121031000Y-106967020D03*
X121031000Y-108966000D03*
X121031000Y-110964980D03*
X121031000Y-112966500D03*
X121031000Y-114965480D03*
X137033000Y-114965480D03*
X137033000Y-112966500D03*
X137033000Y-110964980D03*
X137033000Y-108966000D03*
X137033000Y-106967020D03*
X137033000Y-104965500D03*
X137033000Y-102966520D03*
D22*
X167068000Y-100472000D03*
X166268000Y-100472000D03*
X165468000Y-100472000D03*
X164668000Y-100472000D03*
X163868000Y-100472000D03*
X163068000Y-100472000D03*
X162268000Y-100472000D03*
X161468000Y-100472000D03*
X160668000Y-100472000D03*
X159868000Y-100472000D03*
X159068000Y-100472000D03*
D23*
X157368000Y-102172000D03*
X157368000Y-102972000D03*
X157368000Y-103772000D03*
X157368000Y-104572000D03*
X157368000Y-105372000D03*
X157368000Y-106172000D03*
X157368000Y-106972000D03*
X157368000Y-107772000D03*
X157368000Y-108572000D03*
X157368000Y-109372000D03*
X157368000Y-110172000D03*
D22*
X159068000Y-111872000D03*
X159868000Y-111872000D03*
X160668000Y-111872000D03*
X161468000Y-111872000D03*
X162268000Y-111872000D03*
X163068000Y-111872000D03*
X163868000Y-111872000D03*
X164668000Y-111872000D03*
X165468000Y-111872000D03*
X166268000Y-111872000D03*
X167068000Y-111872000D03*
D23*
X168768000Y-110172000D03*
X168768000Y-109372000D03*
X168768000Y-108572000D03*
X168768000Y-107772000D03*
X168768000Y-106972000D03*
X168768000Y-106172000D03*
X168768000Y-105372000D03*
X168768000Y-104572000D03*
X168768000Y-103772000D03*
X168768000Y-102972000D03*
X168768000Y-102172000D03*
D21*
X128870000Y-126208000D03*
X128870000Y-128208000D03*
X128870000Y-132208000D03*
X128870000Y-130208000D03*
D24*
X158512000Y-55880000D03*
X160512000Y-55880000D03*
D25*
X114457480Y-118872000D03*
X108458000Y-118872000D03*
X111457740Y-123571000D03*
D26*
X199898000Y-101092000D03*
D27*
X197358000Y-101092000D03*
D26*
X199898000Y-94488000D03*
D27*
X197358000Y-94488000D03*
D28*
X119784660Y-126208000D03*
X123955340Y-126208000D03*
D29*
X176784000Y-94996000D03*
D30*
X179324000Y-94996000D03*
X176784000Y-97536000D03*
X179324000Y-97536000D03*
X176784000Y-100076000D03*
X179324000Y-100076000D03*
D29*
X176784000Y-116078000D03*
D30*
X179324000Y-116078000D03*
X176784000Y-118618000D03*
X179324000Y-118618000D03*
X176784000Y-121158000D03*
X179324000Y-121158000D03*
D31*
X159512000Y-83058000D03*
D32*
X156972000Y-83058000D03*
X154432000Y-83058000D03*
D33*
X162560000Y-74610000D03*
X162560000Y-72710000D03*
D34*
X133924000Y-121920000D03*
X135824000Y-121920000D03*
D33*
X189992000Y-119954000D03*
X189992000Y-121854000D03*
D34*
X135824000Y-124460000D03*
X133924000Y-124460000D03*
X194498000Y-94488000D03*
X192598000Y-94488000D03*
X194498000Y-101092000D03*
X192598000Y-101092000D03*
D35*
X154101800Y-55880000D03*
X144602200Y-55880000D03*
D36*
X106934000Y-85344000D03*
X109474000Y-87884000D03*
X109474000Y-82804000D03*
X104394000Y-82804000D03*
X104394000Y-87884000D03*
X106934000Y-104140000D03*
X109474000Y-106680000D03*
X109474000Y-101600000D03*
X104394000Y-101600000D03*
X104394000Y-106680000D03*
D11*
X198882000Y-112458500D03*
X198882000Y-108013500D03*
D12*
X196342000Y-113728500D03*
X196342000Y-106743500D03*
D24*
X139684000Y-55880000D03*
X137684000Y-55880000D03*
X165592000Y-90932000D03*
X163592000Y-90932000D03*
X159528000Y-90932000D03*
X161528000Y-90932000D03*
D21*
X168656000Y-68088000D03*
X168656000Y-70088000D03*
D34*
X168844000Y-59944000D03*
X166944000Y-59944000D03*
D33*
X168656000Y-79060000D03*
X168656000Y-80960000D03*
D35*
X157810200Y-94488000D03*
X167309800Y-94488000D03*
D37*
X131870000Y-126896600D03*
X131870000Y-129208000D03*
X131870000Y-131519400D03*
D38*
X138067600Y-129208000D03*
D21*
X192786000Y-121904000D03*
X192786000Y-119904000D03*
D26*
X199898000Y-88392000D03*
D27*
X197358000Y-88392000D03*
D33*
X145870000Y-131258000D03*
X145870000Y-133158000D03*
D34*
X194498000Y-88392000D03*
X192598000Y-88392000D03*
D39*
X133398260Y-74422000D03*
X139397740Y-74422000D03*
D40*
X141870000Y-127082020D03*
X141870000Y-131333980D03*
M02*
