G04 #@! TF.FileFunction,Copper,L2,Bot,Signal*
%FSLAX46Y46*%
G04 Gerber Fmt 4.6, Leading zero omitted, Abs format (unit mm)*
G04 Created by KiCad (PCBNEW 4.0.1-stable) date 30.01.2016 13:27:07*
%MOMM*%
G01*
G04 APERTURE LIST*
%ADD10C,0.100000*%
%ADD11R,1.727200X1.727200*%
%ADD12O,1.727200X1.727200*%
%ADD13O,2.499360X1.501140*%
%ADD14R,1.200000X0.600000*%
%ADD15R,0.600000X1.200000*%
%ADD16R,2.235200X2.235200*%
%ADD17R,1.300000X1.300000*%
%ADD18C,1.300000*%
%ADD19R,1.250000X1.000000*%
%ADD20R,1.000000X1.250000*%
%ADD21R,2.999740X2.999740*%
%ADD22C,2.999740*%
%ADD23R,1.597660X2.997200*%
%ADD24R,1.300000X0.700000*%
%ADD25R,0.700000X1.300000*%
%ADD26C,1.501140*%
%ADD27C,1.200000*%
%ADD28C,0.300000*%
%ADD29C,1.000000*%
%ADD30C,0.250000*%
%ADD31C,0.254000*%
G04 APERTURE END LIST*
D10*
D11*
X142875000Y-107315000D03*
D12*
X145415000Y-107315000D03*
X142875000Y-109855000D03*
X145415000Y-109855000D03*
X142875000Y-112395000D03*
X145415000Y-112395000D03*
D13*
X138430000Y-93345000D03*
X138430000Y-95885000D03*
X138430000Y-90805000D03*
D14*
X122750000Y-114560000D03*
X122750000Y-113760000D03*
X122750000Y-112960000D03*
X122750000Y-112160000D03*
X122750000Y-111360000D03*
X122750000Y-110560000D03*
X122750000Y-109760000D03*
X122750000Y-108960000D03*
D15*
X124200000Y-107510000D03*
X125000000Y-107510000D03*
X125800000Y-107510000D03*
X126600000Y-107510000D03*
X127400000Y-107510000D03*
X128200000Y-107510000D03*
X129000000Y-107510000D03*
X129800000Y-107510000D03*
D14*
X131250000Y-108960000D03*
X131250000Y-109760000D03*
X131250000Y-110560000D03*
X131250000Y-111360000D03*
X131250000Y-112160000D03*
X131250000Y-112960000D03*
X131250000Y-113760000D03*
X131250000Y-114560000D03*
D15*
X129800000Y-116010000D03*
X129000000Y-116010000D03*
X128200000Y-116010000D03*
X127400000Y-116010000D03*
X126600000Y-116010000D03*
X125800000Y-116010000D03*
X125000000Y-116010000D03*
X124200000Y-116010000D03*
D16*
X92710000Y-115570000D03*
D17*
X144145000Y-95885000D03*
D18*
X146645000Y-95885000D03*
D19*
X132715000Y-89805000D03*
X132715000Y-91805000D03*
D20*
X116618000Y-111125000D03*
X118618000Y-111125000D03*
D19*
X134620000Y-114665000D03*
X134620000Y-112665000D03*
D20*
X116618000Y-108585000D03*
X118618000Y-108585000D03*
X100854000Y-96901000D03*
X102854000Y-96901000D03*
D21*
X90170000Y-107950000D03*
D22*
X90170000Y-102870000D03*
D21*
X180340000Y-97790000D03*
D22*
X180340000Y-102870000D03*
X180340000Y-107950000D03*
X180340000Y-113030000D03*
D23*
X100680520Y-102491540D03*
X102679500Y-102489000D03*
X104681020Y-102489000D03*
X106680000Y-102489000D03*
X108678980Y-102489000D03*
X110680500Y-102489000D03*
X112679480Y-102489000D03*
X112679480Y-118491000D03*
X110680500Y-118491000D03*
X108678980Y-118491000D03*
X106680000Y-118491000D03*
X104681020Y-118491000D03*
X102679500Y-118491000D03*
X100680520Y-118491000D03*
D24*
X149860000Y-98491000D03*
X149860000Y-100391000D03*
D25*
X145095000Y-102870000D03*
X143195000Y-102870000D03*
X149540000Y-117475000D03*
X147640000Y-117475000D03*
D26*
X105029000Y-90932000D03*
X110109000Y-90942160D03*
D13*
X153670000Y-93345000D03*
X153670000Y-90805000D03*
X153670000Y-95885000D03*
X153670000Y-105410000D03*
X153670000Y-102870000D03*
X153670000Y-107950000D03*
X153670000Y-117475000D03*
X153670000Y-114935000D03*
X153670000Y-120015000D03*
D27*
X136144522Y-110798922D03*
X136184576Y-99784195D03*
X119625817Y-105703728D03*
X119694628Y-100954306D03*
X116866662Y-100885498D03*
X116840000Y-116840000D03*
X138594957Y-109960994D03*
X138619084Y-106052460D03*
X138480808Y-113746945D03*
X138613449Y-118256721D03*
X124949554Y-101746819D03*
X132940238Y-101686739D03*
X121059902Y-119793291D03*
X129400862Y-119845496D03*
X133624845Y-104411840D03*
X124162008Y-104369330D03*
D28*
X131250000Y-112160000D02*
X132150000Y-112160000D01*
X132150000Y-112160000D02*
X132715000Y-112725000D01*
X132715000Y-112725000D02*
X132715000Y-112885000D01*
X134495000Y-114665000D02*
X134620000Y-114665000D01*
X122750000Y-111360000D02*
X120885000Y-111360000D01*
X115840000Y-109490000D02*
X115840000Y-108585000D01*
X116205000Y-109855000D02*
X115840000Y-109490000D01*
X119380000Y-109855000D02*
X116205000Y-109855000D01*
X120885000Y-111360000D02*
X119380000Y-109855000D01*
X115840000Y-111125000D02*
X115840000Y-108585000D01*
X122750000Y-112960000D02*
X116135000Y-112960000D01*
X115840000Y-112665000D02*
X115840000Y-111125000D01*
X116135000Y-112960000D02*
X115840000Y-112665000D01*
X122750000Y-112960000D02*
X128975000Y-112960000D01*
X129775000Y-112160000D02*
X131250000Y-112160000D01*
X128975000Y-112960000D02*
X129775000Y-112160000D01*
D29*
X115686840Y-90942160D02*
X116824000Y-89805000D01*
X116824000Y-89805000D02*
X132715000Y-89805000D01*
X110109000Y-90942160D02*
X115686840Y-90942160D01*
X145415000Y-87630000D02*
X170180000Y-87630000D01*
X142240000Y-90805000D02*
X145415000Y-87630000D01*
X138430000Y-90805000D02*
X142240000Y-90805000D01*
X170180000Y-87630000D02*
X180340000Y-97790000D01*
X132715000Y-89805000D02*
X137430000Y-89805000D01*
X137430000Y-89805000D02*
X138430000Y-90805000D01*
X132445000Y-89535000D02*
X132715000Y-89805000D01*
D28*
X131250000Y-109760000D02*
X131273824Y-109736176D01*
X131273824Y-109736176D02*
X134243357Y-109736176D01*
X134243357Y-109736176D02*
X135306103Y-110798922D01*
X134620000Y-112665000D02*
X134620000Y-111485025D01*
X134620000Y-111485025D02*
X135306103Y-110798922D01*
X135306103Y-110798922D02*
X136144522Y-110798922D01*
X120796000Y-112160000D02*
X119761000Y-111125000D01*
X119761000Y-111125000D02*
X118618000Y-111125000D01*
X122750000Y-112160000D02*
X120796000Y-112160000D01*
X122750000Y-110560000D02*
X121850000Y-110560000D01*
X121850000Y-110560000D02*
X119875000Y-108585000D01*
X119875000Y-108585000D02*
X119418000Y-108585000D01*
X119418000Y-108585000D02*
X118618000Y-108585000D01*
X145415000Y-107315000D02*
X144145000Y-108585000D01*
X135545000Y-112665000D02*
X134620000Y-112665000D01*
X144145000Y-108585000D02*
X144145000Y-110490000D01*
X144145000Y-110490000D02*
X143510000Y-111125000D01*
X143510000Y-111125000D02*
X138516265Y-111125000D01*
X138516265Y-111125000D02*
X136976265Y-112665000D01*
X136976265Y-112665000D02*
X135545000Y-112665000D01*
X136144522Y-111265478D02*
X136144522Y-110798922D01*
X134620000Y-112665000D02*
X134745000Y-112665000D01*
X136784575Y-99184196D02*
X136184576Y-99784195D01*
X138430000Y-95885000D02*
X138430000Y-97538771D01*
X138430000Y-97538771D02*
X136784575Y-99184196D01*
X133301381Y-96901000D02*
X135584577Y-99184196D01*
X135584577Y-99184196D02*
X136184576Y-99784195D01*
X102854000Y-96901000D02*
X133301381Y-96901000D01*
D30*
X102679500Y-102489000D02*
X102679500Y-97202500D01*
X102679500Y-97202500D02*
X102854000Y-97028000D01*
D28*
X122750000Y-112160000D02*
X125965000Y-112160000D01*
X125965000Y-112160000D02*
X127565000Y-110560000D01*
X122750000Y-110560000D02*
X127565000Y-110560000D01*
X128365000Y-109760000D02*
X131250000Y-109760000D01*
X127565000Y-110560000D02*
X128365000Y-109760000D01*
D29*
X144145000Y-95885000D02*
X138430000Y-95885000D01*
X165378131Y-101370131D02*
X157353000Y-93345000D01*
X157353000Y-93345000D02*
X153670000Y-93345000D01*
X180340000Y-102870000D02*
X178840131Y-101370131D01*
X178840131Y-101370131D02*
X165378131Y-101370131D01*
X162535869Y-109449869D02*
X158496000Y-105410000D01*
X158496000Y-105410000D02*
X153670000Y-105410000D01*
X180340000Y-107950000D02*
X178840131Y-109449869D01*
X178840131Y-109449869D02*
X162535869Y-109449869D01*
X161036000Y-113030000D02*
X156591000Y-117475000D01*
X156591000Y-117475000D02*
X153670000Y-117475000D01*
X180340000Y-113030000D02*
X161036000Y-113030000D01*
X180340000Y-113030000D02*
X179721550Y-113648450D01*
D28*
X145415000Y-109855000D02*
X147574000Y-107696000D01*
X147574000Y-107696000D02*
X147574000Y-105791000D01*
X147574000Y-105791000D02*
X146581193Y-104798193D01*
X146581193Y-104798193D02*
X137581308Y-104798193D01*
X136688943Y-105690558D02*
X132659775Y-105690558D01*
X137581308Y-104798193D02*
X136688943Y-105690558D01*
X131574071Y-100205071D02*
X129194235Y-97825235D01*
X132659775Y-105690558D02*
X131574071Y-104604854D01*
X129194235Y-97825235D02*
X110578914Y-97825235D01*
X131574071Y-104604854D02*
X131574071Y-100205071D01*
X110578914Y-97825235D02*
X108678980Y-99725169D01*
X108678980Y-99725169D02*
X108678980Y-102489000D01*
X129000000Y-107510000D02*
X129000000Y-103516192D01*
X129000000Y-103516192D02*
X125838115Y-100354307D01*
X125838115Y-100354307D02*
X120294627Y-100354307D01*
X120294627Y-100354307D02*
X119694628Y-100954306D01*
X110095108Y-105703728D02*
X119625817Y-105703728D01*
X108678980Y-104287600D02*
X110095108Y-105703728D01*
X108678980Y-102489000D02*
X108678980Y-104287600D01*
X129800000Y-107510000D02*
X129800000Y-102291508D01*
X129800000Y-102291508D02*
X127012312Y-99503820D01*
X127012312Y-99503820D02*
X118248340Y-99503820D01*
X118248340Y-99503820D02*
X116866662Y-100885498D01*
X129800000Y-107510000D02*
X142276417Y-107510000D01*
X142471417Y-107315000D02*
X142875000Y-107315000D01*
X142276417Y-107510000D02*
X142471417Y-107315000D01*
X112679480Y-118491000D02*
X115189000Y-118491000D01*
X115189000Y-118491000D02*
X116840000Y-116840000D01*
X110680500Y-102489000D02*
X110680500Y-99897577D01*
X110680500Y-99897577D02*
X111860152Y-98717925D01*
X138015915Y-106655629D02*
X138019085Y-106652459D01*
X138019085Y-106652459D02*
X138619084Y-106052460D01*
X111860152Y-98717925D02*
X128070888Y-98717925D01*
X128070888Y-98717925D02*
X130705507Y-101352544D01*
X130705507Y-101352544D02*
X130705507Y-105087389D01*
X130705507Y-105087389D02*
X132273747Y-106655629D01*
X132273747Y-106655629D02*
X138015915Y-106655629D01*
X138700951Y-109855000D02*
X138594957Y-109960994D01*
X131250000Y-108960000D02*
X137593963Y-108960000D01*
X142875000Y-109855000D02*
X138700951Y-109855000D01*
X137994958Y-109360995D02*
X138594957Y-109960994D01*
X137593963Y-108960000D02*
X137994958Y-109360995D01*
X131250000Y-108960000D02*
X131250000Y-108780000D01*
X126600000Y-116010000D02*
X126600000Y-117296619D01*
X126600000Y-117296619D02*
X127559398Y-118256017D01*
X128164569Y-118256721D02*
X137764921Y-118256721D01*
X127559398Y-118256017D02*
X128163865Y-118256017D01*
X128163865Y-118256017D02*
X128164569Y-118256721D01*
X137764921Y-118256721D02*
X138613449Y-118256721D01*
X139080807Y-113146946D02*
X138480808Y-113746945D01*
X139832753Y-112395000D02*
X139080807Y-113146946D01*
X142875000Y-112395000D02*
X139832753Y-112395000D01*
X149860000Y-100391000D02*
X141319932Y-100391000D01*
X141319932Y-100391000D02*
X140567100Y-101143832D01*
X140567100Y-101143832D02*
X134331673Y-101143832D01*
X134331673Y-101143832D02*
X133788766Y-101686739D01*
X133788766Y-101686739D02*
X132940238Y-101686739D01*
X125549553Y-102346818D02*
X124949554Y-101746819D01*
X128200000Y-104997265D02*
X125549553Y-102346818D01*
X128200000Y-107510000D02*
X128200000Y-104997265D01*
X122750000Y-114560000D02*
X122750000Y-116332506D01*
X122750000Y-116332506D02*
X121073419Y-118009087D01*
X121073419Y-118009087D02*
X121073419Y-119779774D01*
X121073419Y-119779774D02*
X121059902Y-119793291D01*
X147640000Y-117475000D02*
X144985645Y-117475000D01*
X144985645Y-117475000D02*
X142615149Y-119845496D01*
X142615149Y-119845496D02*
X130249390Y-119845496D01*
X130249390Y-119845496D02*
X129400862Y-119845496D01*
X133624845Y-104411840D02*
X135064227Y-102972458D01*
X135064227Y-102972458D02*
X142981817Y-102972458D01*
X142981817Y-102972458D02*
X143140828Y-102813447D01*
X143140828Y-102813447D02*
X143140828Y-102815828D01*
X143140828Y-102815828D02*
X143195000Y-102870000D01*
X124200000Y-104407322D02*
X124162008Y-104369330D01*
X124200000Y-107510000D02*
X124200000Y-104407322D01*
X92710000Y-115570000D02*
X96520000Y-115570000D01*
X100680520Y-111409480D02*
X100680520Y-102491540D01*
X96520000Y-115570000D02*
X100680520Y-111409480D01*
X122750000Y-113760000D02*
X112935000Y-113760000D01*
X110680500Y-116014500D02*
X110680500Y-118491000D01*
X112935000Y-113760000D02*
X110680500Y-116014500D01*
X102679500Y-118491000D02*
X102679500Y-120455766D01*
X125800000Y-119175247D02*
X125800000Y-116910000D01*
X102679500Y-120455766D02*
X104829487Y-122605753D01*
X104829487Y-122605753D02*
X122369494Y-122605753D01*
X122369494Y-122605753D02*
X125800000Y-119175247D01*
X125800000Y-116910000D02*
X125800000Y-116010000D01*
X106680000Y-118491000D02*
X106680000Y-120570480D01*
X106680000Y-120570480D02*
X108121612Y-122012092D01*
X121964724Y-122012092D02*
X125000000Y-118976816D01*
X108121612Y-122012092D02*
X121964724Y-122012092D01*
X125000000Y-118976816D02*
X125000000Y-116910000D01*
X125000000Y-116910000D02*
X125000000Y-116010000D01*
X108678980Y-118491000D02*
X108678980Y-120437359D01*
X108678980Y-120437359D02*
X109579097Y-121337476D01*
X109579097Y-121337476D02*
X121559955Y-121337476D01*
X121559955Y-121337476D02*
X124200000Y-118697431D01*
X124200000Y-118697431D02*
X124200000Y-116910000D01*
X124200000Y-116910000D02*
X124200000Y-116010000D01*
X112679480Y-102489000D02*
X119499701Y-102489000D01*
X119499701Y-102489000D02*
X122750000Y-105739299D01*
X122750000Y-105739299D02*
X122750000Y-108960000D01*
D29*
X90170000Y-102870000D02*
X90170000Y-100748864D01*
X90170000Y-100748864D02*
X99986864Y-90932000D01*
X99986864Y-90932000D02*
X103967534Y-90932000D01*
X103967534Y-90932000D02*
X105029000Y-90932000D01*
D28*
X153670000Y-90805000D02*
X153170890Y-90805000D01*
X153170890Y-90805000D02*
X149860000Y-94115890D01*
X149860000Y-94115890D02*
X149860000Y-97841000D01*
X149860000Y-97841000D02*
X149860000Y-98491000D01*
X153670000Y-102870000D02*
X152120320Y-102870000D01*
X152120320Y-102870000D02*
X145095000Y-102870000D01*
X150749000Y-114935000D02*
X149540000Y-116144000D01*
X149540000Y-116144000D02*
X149540000Y-117475000D01*
X153670000Y-114935000D02*
X150749000Y-114935000D01*
D31*
G36*
X144980654Y-86581397D02*
X144612434Y-86827434D01*
X141769868Y-89670000D01*
X139713425Y-89670000D01*
X139496268Y-89524900D01*
X138966033Y-89419430D01*
X138649562Y-89419430D01*
X138232566Y-89002434D01*
X137864346Y-88756397D01*
X137430000Y-88670000D01*
X133401431Y-88670000D01*
X133340000Y-88657560D01*
X133135509Y-88657560D01*
X132879345Y-88486397D01*
X132445000Y-88400000D01*
X132010655Y-88486397D01*
X131735873Y-88670000D01*
X116824000Y-88670000D01*
X116389654Y-88756397D01*
X116021434Y-89002434D01*
X115216708Y-89807160D01*
X110933763Y-89807160D01*
X110894887Y-89768216D01*
X110385816Y-89556831D01*
X109834602Y-89556350D01*
X109325163Y-89766846D01*
X108935056Y-90156273D01*
X108723671Y-90665344D01*
X108723190Y-91216558D01*
X108933686Y-91725997D01*
X109323113Y-92116104D01*
X109832184Y-92327489D01*
X110383398Y-92327970D01*
X110892837Y-92117474D01*
X110933221Y-92077160D01*
X115686840Y-92077160D01*
X116121186Y-91990763D01*
X116489406Y-91744726D01*
X117294132Y-90940000D01*
X120848492Y-90940000D01*
X120231959Y-91194746D01*
X119518252Y-91907208D01*
X119131521Y-92838561D01*
X119130641Y-93847015D01*
X119515746Y-94779041D01*
X120228208Y-95492748D01*
X121159561Y-95879479D01*
X122168015Y-95880359D01*
X123100041Y-95495254D01*
X123813748Y-94782792D01*
X124200479Y-93851439D01*
X124201359Y-92842985D01*
X123890543Y-92090750D01*
X131455000Y-92090750D01*
X131455000Y-92431309D01*
X131551673Y-92664698D01*
X131730301Y-92843327D01*
X131963690Y-92940000D01*
X132429250Y-92940000D01*
X132588000Y-92781250D01*
X132588000Y-91932000D01*
X132842000Y-91932000D01*
X132842000Y-92781250D01*
X133000750Y-92940000D01*
X133466310Y-92940000D01*
X133699699Y-92843327D01*
X133878327Y-92664698D01*
X133975000Y-92431309D01*
X133975000Y-92090750D01*
X133816250Y-91932000D01*
X132842000Y-91932000D01*
X132588000Y-91932000D01*
X131613750Y-91932000D01*
X131455000Y-92090750D01*
X123890543Y-92090750D01*
X123816254Y-91910959D01*
X123103792Y-91197252D01*
X122484260Y-90940000D01*
X131556975Y-90940000D01*
X131551673Y-90945302D01*
X131455000Y-91178691D01*
X131455000Y-91519250D01*
X131613750Y-91678000D01*
X132588000Y-91678000D01*
X132588000Y-91658000D01*
X132842000Y-91658000D01*
X132842000Y-91678000D01*
X133816250Y-91678000D01*
X133975000Y-91519250D01*
X133975000Y-91178691D01*
X133878327Y-90945302D01*
X133873025Y-90940000D01*
X136535250Y-90940000D01*
X136613867Y-91335235D01*
X136914221Y-91784746D01*
X137363732Y-92085100D01*
X137373032Y-92086950D01*
X137283323Y-92113501D01*
X136861342Y-92455056D01*
X136602190Y-92932097D01*
X136588007Y-93003725D01*
X136710661Y-93218000D01*
X138303000Y-93218000D01*
X138303000Y-93198000D01*
X138557000Y-93198000D01*
X138557000Y-93218000D01*
X140149339Y-93218000D01*
X140271993Y-93003725D01*
X140257810Y-92932097D01*
X139998658Y-92455056D01*
X139576677Y-92113501D01*
X139486968Y-92086950D01*
X139496268Y-92085100D01*
X139713425Y-91940000D01*
X142240000Y-91940000D01*
X142674346Y-91853603D01*
X143042566Y-91607566D01*
X145885132Y-88765000D01*
X169709868Y-88765000D01*
X178192690Y-97247822D01*
X178192690Y-99289870D01*
X178236968Y-99525187D01*
X178376040Y-99741311D01*
X178588240Y-99886301D01*
X178840130Y-99937310D01*
X181839870Y-99937310D01*
X182075187Y-99893032D01*
X182291311Y-99753960D01*
X182436301Y-99541760D01*
X182487310Y-99289870D01*
X182487310Y-96290130D01*
X182443032Y-96054813D01*
X182303960Y-95838689D01*
X182091760Y-95693699D01*
X181839870Y-95642690D01*
X179797822Y-95642690D01*
X175356268Y-91201136D01*
X177451607Y-91201136D01*
X177813946Y-92078063D01*
X178484288Y-92749576D01*
X179360581Y-93113445D01*
X180309416Y-93114273D01*
X181186343Y-92751934D01*
X181857856Y-92081592D01*
X182221725Y-91205299D01*
X182222553Y-90256464D01*
X181860214Y-89379537D01*
X181189872Y-88708024D01*
X180313579Y-88344155D01*
X179364744Y-88343327D01*
X178487817Y-88705666D01*
X177816304Y-89376008D01*
X177452435Y-90252301D01*
X177451607Y-91201136D01*
X175356268Y-91201136D01*
X170982566Y-86827434D01*
X170614346Y-86581397D01*
X170484555Y-86555580D01*
X184010300Y-86555580D01*
X184010300Y-124904500D01*
X85661500Y-124904500D01*
X85661500Y-121201076D01*
X87451787Y-121201076D01*
X87814126Y-122078003D01*
X88484468Y-122749516D01*
X89360761Y-123113385D01*
X90309596Y-123114213D01*
X91186523Y-122751874D01*
X91858036Y-122081532D01*
X92221905Y-121205239D01*
X92222733Y-120256404D01*
X91860394Y-119379477D01*
X91258719Y-118776750D01*
X99246690Y-118776750D01*
X99246690Y-120115909D01*
X99343363Y-120349298D01*
X99521991Y-120527927D01*
X99755380Y-120624600D01*
X100394770Y-120624600D01*
X100553520Y-120465850D01*
X100553520Y-118618000D01*
X99405440Y-118618000D01*
X99246690Y-118776750D01*
X91258719Y-118776750D01*
X91190052Y-118707964D01*
X90313759Y-118344095D01*
X89364924Y-118343267D01*
X88487997Y-118705606D01*
X87816484Y-119375948D01*
X87452615Y-120252241D01*
X87451787Y-121201076D01*
X85661500Y-121201076D01*
X85661500Y-114452400D01*
X90944960Y-114452400D01*
X90944960Y-116687600D01*
X90989238Y-116922917D01*
X91128310Y-117139041D01*
X91340510Y-117284031D01*
X91592400Y-117335040D01*
X93827600Y-117335040D01*
X94062917Y-117290762D01*
X94279041Y-117151690D01*
X94424031Y-116939490D01*
X94438894Y-116866091D01*
X99246690Y-116866091D01*
X99246690Y-118205250D01*
X99405440Y-118364000D01*
X100553520Y-118364000D01*
X100553520Y-116516150D01*
X100394770Y-116357400D01*
X99755380Y-116357400D01*
X99521991Y-116454073D01*
X99343363Y-116632702D01*
X99246690Y-116866091D01*
X94438894Y-116866091D01*
X94475040Y-116687600D01*
X94475040Y-116355000D01*
X96520000Y-116355000D01*
X96820407Y-116295245D01*
X97075079Y-116125079D01*
X101235599Y-111964559D01*
X101405765Y-111709886D01*
X101465267Y-111410750D01*
X115483000Y-111410750D01*
X115483000Y-111876310D01*
X115579673Y-112109699D01*
X115758302Y-112288327D01*
X115991691Y-112385000D01*
X116332250Y-112385000D01*
X116491000Y-112226250D01*
X116491000Y-111252000D01*
X115641750Y-111252000D01*
X115483000Y-111410750D01*
X101465267Y-111410750D01*
X101465520Y-111409480D01*
X101465520Y-110373690D01*
X115483000Y-110373690D01*
X115483000Y-110839250D01*
X115641750Y-110998000D01*
X116491000Y-110998000D01*
X116491000Y-110023750D01*
X116332250Y-109865000D01*
X115991691Y-109865000D01*
X115758302Y-109961673D01*
X115579673Y-110140301D01*
X115483000Y-110373690D01*
X101465520Y-110373690D01*
X101465520Y-108870750D01*
X115483000Y-108870750D01*
X115483000Y-109336310D01*
X115579673Y-109569699D01*
X115758302Y-109748327D01*
X115991691Y-109845000D01*
X116332250Y-109845000D01*
X116491000Y-109686250D01*
X116491000Y-108712000D01*
X115641750Y-108712000D01*
X115483000Y-108870750D01*
X101465520Y-108870750D01*
X101465520Y-107833690D01*
X115483000Y-107833690D01*
X115483000Y-108299250D01*
X115641750Y-108458000D01*
X116491000Y-108458000D01*
X116491000Y-107483750D01*
X116332250Y-107325000D01*
X115991691Y-107325000D01*
X115758302Y-107421673D01*
X115579673Y-107600301D01*
X115483000Y-107833690D01*
X101465520Y-107833690D01*
X101465520Y-104637580D01*
X101479350Y-104637580D01*
X101693878Y-104597214D01*
X101880670Y-104635040D01*
X103478330Y-104635040D01*
X103687673Y-104595649D01*
X103882190Y-104635040D01*
X105479850Y-104635040D01*
X105687876Y-104595897D01*
X105881170Y-104635040D01*
X107478830Y-104635040D01*
X107686856Y-104595897D01*
X107880150Y-104635040D01*
X107985161Y-104635040D01*
X108123901Y-104842679D01*
X109540029Y-106258807D01*
X109794702Y-106428973D01*
X110095108Y-106488728D01*
X118664417Y-106488728D01*
X118925332Y-106750099D01*
X119379083Y-106938513D01*
X119870396Y-106938942D01*
X120324474Y-106751320D01*
X120672188Y-106404213D01*
X120860602Y-105950462D01*
X120861031Y-105459149D01*
X120673409Y-105005071D01*
X120326302Y-104657357D01*
X119872551Y-104468943D01*
X119381238Y-104468514D01*
X118927160Y-104656136D01*
X118664109Y-104918728D01*
X110420266Y-104918728D01*
X110136578Y-104635040D01*
X111479330Y-104635040D01*
X111687356Y-104595897D01*
X111880650Y-104635040D01*
X113478310Y-104635040D01*
X113713627Y-104590762D01*
X113929751Y-104451690D01*
X114074741Y-104239490D01*
X114125750Y-103987600D01*
X114125750Y-103274000D01*
X119174543Y-103274000D01*
X121965000Y-106064457D01*
X121965000Y-108047370D01*
X121914683Y-108056838D01*
X121698559Y-108195910D01*
X121553569Y-108408110D01*
X121502560Y-108660000D01*
X121502560Y-109102402D01*
X120430079Y-108029921D01*
X120175407Y-107859755D01*
X119875000Y-107800000D01*
X119735334Y-107800000D01*
X119721162Y-107724683D01*
X119582090Y-107508559D01*
X119369890Y-107363569D01*
X119118000Y-107312560D01*
X118118000Y-107312560D01*
X117882683Y-107356838D01*
X117666559Y-107495910D01*
X117620031Y-107564006D01*
X117477698Y-107421673D01*
X117244309Y-107325000D01*
X116903750Y-107325000D01*
X116745000Y-107483750D01*
X116745000Y-108458000D01*
X116765000Y-108458000D01*
X116765000Y-108712000D01*
X116745000Y-108712000D01*
X116745000Y-109686250D01*
X116903750Y-109845000D01*
X117244309Y-109845000D01*
X117477698Y-109748327D01*
X117618936Y-109607090D01*
X117653910Y-109661441D01*
X117866110Y-109806431D01*
X118105509Y-109854910D01*
X117882683Y-109896838D01*
X117666559Y-110035910D01*
X117620031Y-110104006D01*
X117477698Y-109961673D01*
X117244309Y-109865000D01*
X116903750Y-109865000D01*
X116745000Y-110023750D01*
X116745000Y-110998000D01*
X116765000Y-110998000D01*
X116765000Y-111252000D01*
X116745000Y-111252000D01*
X116745000Y-112226250D01*
X116903750Y-112385000D01*
X117244309Y-112385000D01*
X117477698Y-112288327D01*
X117618936Y-112147090D01*
X117653910Y-112201441D01*
X117866110Y-112346431D01*
X118118000Y-112397440D01*
X119118000Y-112397440D01*
X119353317Y-112353162D01*
X119569441Y-112214090D01*
X119638646Y-112112804D01*
X120240921Y-112715079D01*
X120495593Y-112885245D01*
X120796000Y-112945000D01*
X121735025Y-112945000D01*
X121755711Y-112959134D01*
X121731054Y-112975000D01*
X112935000Y-112975000D01*
X112634594Y-113034755D01*
X112379921Y-113204921D01*
X112379919Y-113204924D01*
X110125421Y-115459421D01*
X109955255Y-115714093D01*
X109955255Y-115714094D01*
X109895500Y-116014500D01*
X109895500Y-116344960D01*
X109881670Y-116344960D01*
X109672327Y-116384351D01*
X109477810Y-116344960D01*
X107880150Y-116344960D01*
X107672124Y-116384103D01*
X107478830Y-116344960D01*
X105881170Y-116344960D01*
X105673144Y-116384103D01*
X105479850Y-116344960D01*
X103882190Y-116344960D01*
X103672847Y-116384351D01*
X103478330Y-116344960D01*
X101880670Y-116344960D01*
X101670913Y-116384429D01*
X101605660Y-116357400D01*
X100966270Y-116357400D01*
X100807520Y-116516150D01*
X100807520Y-118364000D01*
X100827520Y-118364000D01*
X100827520Y-118618000D01*
X100807520Y-118618000D01*
X100807520Y-120465850D01*
X100966270Y-120624600D01*
X101605660Y-120624600D01*
X101675791Y-120595551D01*
X101880670Y-120637040D01*
X101930558Y-120637040D01*
X101954255Y-120756173D01*
X102124421Y-121010845D01*
X104274408Y-123160832D01*
X104529081Y-123330998D01*
X104829487Y-123390753D01*
X122369494Y-123390753D01*
X122669901Y-123330998D01*
X122924573Y-123160832D01*
X126355079Y-119730326D01*
X126525245Y-119475654D01*
X126585000Y-119175247D01*
X126585000Y-118391777D01*
X127004319Y-118811096D01*
X127258992Y-118981262D01*
X127559398Y-119041017D01*
X128161025Y-119041017D01*
X128164569Y-119041722D01*
X128164574Y-119041721D01*
X128457962Y-119041721D01*
X128354491Y-119145011D01*
X128166077Y-119598762D01*
X128165648Y-120090075D01*
X128353270Y-120544153D01*
X128700377Y-120891867D01*
X129154128Y-121080281D01*
X129645441Y-121080710D01*
X130099519Y-120893088D01*
X130362570Y-120630496D01*
X142615149Y-120630496D01*
X142915556Y-120570741D01*
X143170228Y-120400575D01*
X143214528Y-120356275D01*
X151828007Y-120356275D01*
X151842190Y-120427903D01*
X152101342Y-120904944D01*
X152523323Y-121246499D01*
X153043890Y-121400570D01*
X153543000Y-121400570D01*
X153543000Y-120142000D01*
X153797000Y-120142000D01*
X153797000Y-121400570D01*
X154296110Y-121400570D01*
X154816677Y-121246499D01*
X154872795Y-121201076D01*
X177451607Y-121201076D01*
X177813946Y-122078003D01*
X178484288Y-122749516D01*
X179360581Y-123113385D01*
X180309416Y-123114213D01*
X181186343Y-122751874D01*
X181857856Y-122081532D01*
X182221725Y-121205239D01*
X182222553Y-120256404D01*
X181860214Y-119379477D01*
X181189872Y-118707964D01*
X180313579Y-118344095D01*
X179364744Y-118343267D01*
X178487817Y-118705606D01*
X177816304Y-119375948D01*
X177452435Y-120252241D01*
X177451607Y-121201076D01*
X154872795Y-121201076D01*
X155238658Y-120904944D01*
X155497810Y-120427903D01*
X155511993Y-120356275D01*
X155389339Y-120142000D01*
X153797000Y-120142000D01*
X153543000Y-120142000D01*
X151950661Y-120142000D01*
X151828007Y-120356275D01*
X143214528Y-120356275D01*
X145310803Y-118260000D01*
X146667962Y-118260000D01*
X146686838Y-118360317D01*
X146825910Y-118576441D01*
X147038110Y-118721431D01*
X147290000Y-118772440D01*
X147990000Y-118772440D01*
X148225317Y-118728162D01*
X148441441Y-118589090D01*
X148586431Y-118376890D01*
X148589081Y-118363803D01*
X148725910Y-118576441D01*
X148938110Y-118721431D01*
X149190000Y-118772440D01*
X149890000Y-118772440D01*
X150125317Y-118728162D01*
X150341441Y-118589090D01*
X150486431Y-118376890D01*
X150537440Y-118125000D01*
X150537440Y-116825000D01*
X150493162Y-116589683D01*
X150380131Y-116414027D01*
X151074158Y-115720000D01*
X152024096Y-115720000D01*
X152154221Y-115914746D01*
X152588616Y-116205000D01*
X152154221Y-116495254D01*
X151853867Y-116944765D01*
X151748397Y-117475000D01*
X151853867Y-118005235D01*
X152154221Y-118454746D01*
X152603732Y-118755100D01*
X152613032Y-118756950D01*
X152523323Y-118783501D01*
X152101342Y-119125056D01*
X151842190Y-119602097D01*
X151828007Y-119673725D01*
X151950661Y-119888000D01*
X153543000Y-119888000D01*
X153543000Y-119868000D01*
X153797000Y-119868000D01*
X153797000Y-119888000D01*
X155389339Y-119888000D01*
X155511993Y-119673725D01*
X155497810Y-119602097D01*
X155238658Y-119125056D01*
X154816677Y-118783501D01*
X154726968Y-118756950D01*
X154736268Y-118755100D01*
X154953425Y-118610000D01*
X156591000Y-118610000D01*
X157025346Y-118523603D01*
X157393566Y-118277566D01*
X157694117Y-117977015D01*
X167898641Y-117977015D01*
X168283746Y-118909041D01*
X168996208Y-119622748D01*
X169927561Y-120009479D01*
X170936015Y-120010359D01*
X171868041Y-119625254D01*
X172581748Y-118912792D01*
X172968479Y-117981439D01*
X172969359Y-116972985D01*
X172584254Y-116040959D01*
X171871792Y-115327252D01*
X170940439Y-114940521D01*
X169931985Y-114939641D01*
X168999959Y-115324746D01*
X168286252Y-116037208D01*
X167899521Y-116968561D01*
X167898641Y-117977015D01*
X157694117Y-117977015D01*
X161506132Y-114165000D01*
X178499040Y-114165000D01*
X178529090Y-114237727D01*
X179129114Y-114838800D01*
X179913485Y-115164499D01*
X180762789Y-115165240D01*
X181547727Y-114840910D01*
X182148800Y-114240886D01*
X182474499Y-113456515D01*
X182475240Y-112607211D01*
X182150910Y-111822273D01*
X181550886Y-111221200D01*
X180766515Y-110895501D01*
X179917211Y-110894760D01*
X179132273Y-111219090D01*
X178531200Y-111819114D01*
X178499689Y-111895000D01*
X161036000Y-111895000D01*
X160601654Y-111981397D01*
X160334356Y-112160000D01*
X160233434Y-112227434D01*
X156120868Y-116340000D01*
X154953425Y-116340000D01*
X154751384Y-116205000D01*
X155185779Y-115914746D01*
X155486133Y-115465235D01*
X155591603Y-114935000D01*
X155486133Y-114404765D01*
X155185779Y-113955254D01*
X154736268Y-113654900D01*
X154206033Y-113549430D01*
X153133967Y-113549430D01*
X152603732Y-113654900D01*
X152154221Y-113955254D01*
X152024096Y-114150000D01*
X150749000Y-114150000D01*
X150448593Y-114209755D01*
X150193921Y-114379921D01*
X148984921Y-115588921D01*
X148814755Y-115843593D01*
X148765855Y-116089430D01*
X148755000Y-116144000D01*
X148755000Y-116350331D01*
X148738559Y-116360910D01*
X148593569Y-116573110D01*
X148590919Y-116586197D01*
X148454090Y-116373559D01*
X148241890Y-116228569D01*
X147990000Y-116177560D01*
X147290000Y-116177560D01*
X147054683Y-116221838D01*
X146838559Y-116360910D01*
X146693569Y-116573110D01*
X146669898Y-116690000D01*
X144985650Y-116690000D01*
X144985645Y-116689999D01*
X144685239Y-116749755D01*
X144430566Y-116919921D01*
X142289991Y-119060496D01*
X139556349Y-119060496D01*
X139659820Y-118957206D01*
X139848234Y-118503455D01*
X139848663Y-118012142D01*
X139661041Y-117558064D01*
X139313934Y-117210350D01*
X138860183Y-117021936D01*
X138368870Y-117021507D01*
X137914792Y-117209129D01*
X137651741Y-117471721D01*
X128167404Y-117471721D01*
X128163865Y-117471017D01*
X127884556Y-117471017D01*
X127670979Y-117257440D01*
X127700000Y-117257440D01*
X127803671Y-117237933D01*
X127900000Y-117257440D01*
X128500000Y-117257440D01*
X128603671Y-117237933D01*
X128700000Y-117257440D01*
X129300000Y-117257440D01*
X129403671Y-117237933D01*
X129500000Y-117257440D01*
X130100000Y-117257440D01*
X130335317Y-117213162D01*
X130551441Y-117074090D01*
X130696431Y-116861890D01*
X130747440Y-116610000D01*
X130747440Y-115507440D01*
X131850000Y-115507440D01*
X132085317Y-115463162D01*
X132301441Y-115324090D01*
X132446431Y-115111890D01*
X132479062Y-114950750D01*
X133360000Y-114950750D01*
X133360000Y-115291309D01*
X133456673Y-115524698D01*
X133635301Y-115703327D01*
X133868690Y-115800000D01*
X134334250Y-115800000D01*
X134493000Y-115641250D01*
X134493000Y-114792000D01*
X134747000Y-114792000D01*
X134747000Y-115641250D01*
X134905750Y-115800000D01*
X135371310Y-115800000D01*
X135604699Y-115703327D01*
X135783327Y-115524698D01*
X135880000Y-115291309D01*
X135880000Y-114950750D01*
X135721250Y-114792000D01*
X134747000Y-114792000D01*
X134493000Y-114792000D01*
X133518750Y-114792000D01*
X133360000Y-114950750D01*
X132479062Y-114950750D01*
X132497440Y-114860000D01*
X132497440Y-114260000D01*
X132477933Y-114156329D01*
X132497440Y-114060000D01*
X132497440Y-113460000D01*
X132477933Y-113356329D01*
X132497440Y-113260000D01*
X132497440Y-112660000D01*
X132484020Y-112588677D01*
X132485000Y-112586310D01*
X132485000Y-112445750D01*
X132433721Y-112394471D01*
X132314090Y-112208559D01*
X132244289Y-112160866D01*
X132301441Y-112124090D01*
X132444427Y-111914823D01*
X132485000Y-111874250D01*
X132485000Y-111733690D01*
X132483333Y-111729665D01*
X132497440Y-111660000D01*
X132497440Y-111060000D01*
X132477933Y-110956329D01*
X132497440Y-110860000D01*
X132497440Y-110521176D01*
X133918199Y-110521176D01*
X134195945Y-110798922D01*
X134064921Y-110929946D01*
X133894755Y-111184618D01*
X133855145Y-111383750D01*
X133835000Y-111485025D01*
X133835000Y-111547666D01*
X133759683Y-111561838D01*
X133543559Y-111700910D01*
X133398569Y-111913110D01*
X133347560Y-112165000D01*
X133347560Y-113165000D01*
X133391838Y-113400317D01*
X133530910Y-113616441D01*
X133599006Y-113662969D01*
X133456673Y-113805302D01*
X133360000Y-114038691D01*
X133360000Y-114379250D01*
X133518750Y-114538000D01*
X134493000Y-114538000D01*
X134493000Y-114518000D01*
X134747000Y-114518000D01*
X134747000Y-114538000D01*
X135721250Y-114538000D01*
X135880000Y-114379250D01*
X135880000Y-114038691D01*
X135783327Y-113805302D01*
X135642090Y-113664064D01*
X135696441Y-113629090D01*
X135818808Y-113450000D01*
X136976265Y-113450000D01*
X137276672Y-113390245D01*
X137297450Y-113376362D01*
X137246023Y-113500211D01*
X137245594Y-113991524D01*
X137433216Y-114445602D01*
X137780323Y-114793316D01*
X138234074Y-114981730D01*
X138725387Y-114982159D01*
X139179465Y-114794537D01*
X139527179Y-114447430D01*
X139715593Y-113993679D01*
X139715918Y-113621993D01*
X140157911Y-113180000D01*
X141602442Y-113180000D01*
X141785971Y-113454670D01*
X142272152Y-113779526D01*
X142845641Y-113893600D01*
X142904359Y-113893600D01*
X143477848Y-113779526D01*
X143964029Y-113454670D01*
X144144992Y-113183839D01*
X144526510Y-113601821D01*
X145055973Y-113849968D01*
X145288000Y-113729469D01*
X145288000Y-112522000D01*
X145542000Y-112522000D01*
X145542000Y-113729469D01*
X145774027Y-113849968D01*
X146303490Y-113601821D01*
X146697688Y-113169947D01*
X146869958Y-112754026D01*
X146748817Y-112522000D01*
X145542000Y-112522000D01*
X145288000Y-112522000D01*
X145268000Y-112522000D01*
X145268000Y-112268000D01*
X145288000Y-112268000D01*
X145288000Y-112248000D01*
X145542000Y-112248000D01*
X145542000Y-112268000D01*
X146748817Y-112268000D01*
X146869958Y-112035974D01*
X146697688Y-111620053D01*
X146303490Y-111188179D01*
X146180772Y-111130664D01*
X146504029Y-110914670D01*
X146828885Y-110428489D01*
X146942959Y-109855000D01*
X146873641Y-109506517D01*
X148088883Y-108291275D01*
X151828007Y-108291275D01*
X151842190Y-108362903D01*
X152101342Y-108839944D01*
X152523323Y-109181499D01*
X153043890Y-109335570D01*
X153543000Y-109335570D01*
X153543000Y-108077000D01*
X153797000Y-108077000D01*
X153797000Y-109335570D01*
X154296110Y-109335570D01*
X154816677Y-109181499D01*
X155238658Y-108839944D01*
X155497810Y-108362903D01*
X155511993Y-108291275D01*
X155389339Y-108077000D01*
X153797000Y-108077000D01*
X153543000Y-108077000D01*
X151950661Y-108077000D01*
X151828007Y-108291275D01*
X148088883Y-108291275D01*
X148129079Y-108251079D01*
X148299245Y-107996407D01*
X148359000Y-107696000D01*
X148359000Y-105791000D01*
X148299245Y-105490594D01*
X148299245Y-105490593D01*
X148129079Y-105235921D01*
X147136272Y-104243114D01*
X146881600Y-104072948D01*
X146581193Y-104013193D01*
X145851214Y-104013193D01*
X145896441Y-103984090D01*
X146041431Y-103771890D01*
X146065102Y-103655000D01*
X152024096Y-103655000D01*
X152154221Y-103849746D01*
X152588616Y-104140000D01*
X152154221Y-104430254D01*
X151853867Y-104879765D01*
X151748397Y-105410000D01*
X151853867Y-105940235D01*
X152154221Y-106389746D01*
X152603732Y-106690100D01*
X152613032Y-106691950D01*
X152523323Y-106718501D01*
X152101342Y-107060056D01*
X151842190Y-107537097D01*
X151828007Y-107608725D01*
X151950661Y-107823000D01*
X153543000Y-107823000D01*
X153543000Y-107803000D01*
X153797000Y-107803000D01*
X153797000Y-107823000D01*
X155389339Y-107823000D01*
X155511993Y-107608725D01*
X155497810Y-107537097D01*
X155238658Y-107060056D01*
X154816677Y-106718501D01*
X154726968Y-106691950D01*
X154736268Y-106690100D01*
X154953425Y-106545000D01*
X158025868Y-106545000D01*
X161733303Y-110252436D01*
X162101524Y-110498473D01*
X162535869Y-110584869D01*
X178840131Y-110584869D01*
X179274477Y-110498472D01*
X179642697Y-110252435D01*
X179840810Y-110054322D01*
X179913485Y-110084499D01*
X180762789Y-110085240D01*
X181547727Y-109760910D01*
X182148800Y-109160886D01*
X182474499Y-108376515D01*
X182475240Y-107527211D01*
X182150910Y-106742273D01*
X181550886Y-106141200D01*
X180766515Y-105815501D01*
X179917211Y-105814760D01*
X179132273Y-106139090D01*
X178531200Y-106739114D01*
X178205501Y-107523485D01*
X178204811Y-108314869D01*
X163006002Y-108314869D01*
X160603148Y-105912015D01*
X167898641Y-105912015D01*
X168283746Y-106844041D01*
X168996208Y-107557748D01*
X169927561Y-107944479D01*
X170936015Y-107945359D01*
X171868041Y-107560254D01*
X172581748Y-106847792D01*
X172968479Y-105916439D01*
X172969359Y-104907985D01*
X172584254Y-103975959D01*
X171871792Y-103262252D01*
X170940439Y-102875521D01*
X169931985Y-102874641D01*
X168999959Y-103259746D01*
X168286252Y-103972208D01*
X167899521Y-104903561D01*
X167898641Y-105912015D01*
X160603148Y-105912015D01*
X159298566Y-104607434D01*
X159186135Y-104532310D01*
X158930346Y-104361397D01*
X158496000Y-104275000D01*
X154953425Y-104275000D01*
X154751384Y-104140000D01*
X155185779Y-103849746D01*
X155486133Y-103400235D01*
X155591603Y-102870000D01*
X155486133Y-102339765D01*
X155185779Y-101890254D01*
X154736268Y-101589900D01*
X154206033Y-101484430D01*
X153133967Y-101484430D01*
X152603732Y-101589900D01*
X152154221Y-101890254D01*
X152024096Y-102085000D01*
X146067038Y-102085000D01*
X146048162Y-101984683D01*
X145909090Y-101768559D01*
X145696890Y-101623569D01*
X145445000Y-101572560D01*
X144745000Y-101572560D01*
X144509683Y-101616838D01*
X144293559Y-101755910D01*
X144148569Y-101968110D01*
X144145919Y-101981197D01*
X144009090Y-101768559D01*
X143796890Y-101623569D01*
X143545000Y-101572560D01*
X142845000Y-101572560D01*
X142609683Y-101616838D01*
X142393559Y-101755910D01*
X142248569Y-101968110D01*
X142204150Y-102187458D01*
X135064232Y-102187458D01*
X135064227Y-102187457D01*
X134763821Y-102247213D01*
X134509148Y-102417379D01*
X133749579Y-103176948D01*
X133380266Y-103176626D01*
X132926188Y-103364248D01*
X132578474Y-103711355D01*
X132390060Y-104165106D01*
X132389933Y-104310558D01*
X132359071Y-104279696D01*
X132359071Y-102782655D01*
X132693504Y-102921524D01*
X133184817Y-102921953D01*
X133638895Y-102734331D01*
X133930111Y-102443624D01*
X134089173Y-102411984D01*
X134343845Y-102241818D01*
X134656831Y-101928832D01*
X140567100Y-101928832D01*
X140867507Y-101869077D01*
X141122179Y-101698911D01*
X141645090Y-101176000D01*
X148735331Y-101176000D01*
X148745910Y-101192441D01*
X148958110Y-101337431D01*
X149210000Y-101388440D01*
X150510000Y-101388440D01*
X150745317Y-101344162D01*
X150961441Y-101205090D01*
X151106431Y-100992890D01*
X151157440Y-100741000D01*
X151157440Y-100041000D01*
X151113162Y-99805683D01*
X150974090Y-99589559D01*
X150761890Y-99444569D01*
X150748803Y-99441919D01*
X150961441Y-99305090D01*
X151106431Y-99092890D01*
X151157440Y-98841000D01*
X151157440Y-98141000D01*
X151113162Y-97905683D01*
X150974090Y-97689559D01*
X150761890Y-97544569D01*
X150645000Y-97520898D01*
X150645000Y-96226275D01*
X151828007Y-96226275D01*
X151842190Y-96297903D01*
X152101342Y-96774944D01*
X152523323Y-97116499D01*
X153043890Y-97270570D01*
X153543000Y-97270570D01*
X153543000Y-96012000D01*
X153797000Y-96012000D01*
X153797000Y-97270570D01*
X154296110Y-97270570D01*
X154816677Y-97116499D01*
X155238658Y-96774944D01*
X155497810Y-96297903D01*
X155511993Y-96226275D01*
X155389339Y-96012000D01*
X153797000Y-96012000D01*
X153543000Y-96012000D01*
X151950661Y-96012000D01*
X151828007Y-96226275D01*
X150645000Y-96226275D01*
X150645000Y-94441048D01*
X151750222Y-93335826D01*
X151748397Y-93345000D01*
X151853867Y-93875235D01*
X152154221Y-94324746D01*
X152603732Y-94625100D01*
X152613032Y-94626950D01*
X152523323Y-94653501D01*
X152101342Y-94995056D01*
X151842190Y-95472097D01*
X151828007Y-95543725D01*
X151950661Y-95758000D01*
X153543000Y-95758000D01*
X153543000Y-95738000D01*
X153797000Y-95738000D01*
X153797000Y-95758000D01*
X155389339Y-95758000D01*
X155511993Y-95543725D01*
X155497810Y-95472097D01*
X155238658Y-94995056D01*
X154816677Y-94653501D01*
X154726968Y-94626950D01*
X154736268Y-94625100D01*
X154953425Y-94480000D01*
X156882868Y-94480000D01*
X164575565Y-102172697D01*
X164943785Y-102418734D01*
X165378131Y-102505131D01*
X178205447Y-102505131D01*
X178204760Y-103292789D01*
X178529090Y-104077727D01*
X179129114Y-104678800D01*
X179913485Y-105004499D01*
X180762789Y-105005240D01*
X181547727Y-104680910D01*
X182148800Y-104080886D01*
X182474499Y-103296515D01*
X182475240Y-102447211D01*
X182150910Y-101662273D01*
X181550886Y-101061200D01*
X180766515Y-100735501D01*
X179917211Y-100734760D01*
X179841270Y-100766138D01*
X179642697Y-100567565D01*
X179642666Y-100567544D01*
X179274477Y-100321528D01*
X178840131Y-100235131D01*
X165848263Y-100235131D01*
X159460147Y-93847015D01*
X167898641Y-93847015D01*
X168283746Y-94779041D01*
X168996208Y-95492748D01*
X169927561Y-95879479D01*
X170936015Y-95880359D01*
X171868041Y-95495254D01*
X172581748Y-94782792D01*
X172968479Y-93851439D01*
X172969359Y-92842985D01*
X172584254Y-91910959D01*
X171871792Y-91197252D01*
X170940439Y-90810521D01*
X169931985Y-90809641D01*
X168999959Y-91194746D01*
X168286252Y-91907208D01*
X167899521Y-92838561D01*
X167898641Y-93847015D01*
X159460147Y-93847015D01*
X158155566Y-92542434D01*
X157787346Y-92296397D01*
X157353000Y-92210000D01*
X154953425Y-92210000D01*
X154751384Y-92075000D01*
X155185779Y-91784746D01*
X155486133Y-91335235D01*
X155591603Y-90805000D01*
X155486133Y-90274765D01*
X155185779Y-89825254D01*
X154736268Y-89524900D01*
X154206033Y-89419430D01*
X153133967Y-89419430D01*
X152603732Y-89524900D01*
X152154221Y-89825254D01*
X151853867Y-90274765D01*
X151748397Y-90805000D01*
X151800217Y-91065516D01*
X149304921Y-93560811D01*
X149134755Y-93815483D01*
X149134755Y-93815484D01*
X149075000Y-94115890D01*
X149075000Y-97518962D01*
X148974683Y-97537838D01*
X148758559Y-97676910D01*
X148613569Y-97889110D01*
X148562560Y-98141000D01*
X148562560Y-98841000D01*
X148606838Y-99076317D01*
X148745910Y-99292441D01*
X148958110Y-99437431D01*
X148971197Y-99440081D01*
X148758559Y-99576910D01*
X148738683Y-99606000D01*
X141319932Y-99606000D01*
X141019525Y-99665755D01*
X140764853Y-99835921D01*
X140241942Y-100358832D01*
X137283204Y-100358832D01*
X137419361Y-100030929D01*
X137419686Y-99659243D01*
X138985079Y-98093850D01*
X139155245Y-97839178D01*
X139215000Y-97538771D01*
X139215000Y-97221048D01*
X139496268Y-97165100D01*
X139713425Y-97020000D01*
X143080025Y-97020000D01*
X143243110Y-97131431D01*
X143495000Y-97182440D01*
X144795000Y-97182440D01*
X145030317Y-97138162D01*
X145246441Y-96999090D01*
X145391431Y-96786890D01*
X145392012Y-96784016D01*
X145925590Y-96784016D01*
X145981271Y-97014611D01*
X146464078Y-97182622D01*
X146974428Y-97153083D01*
X147308729Y-97014611D01*
X147364410Y-96784016D01*
X146645000Y-96064605D01*
X145925590Y-96784016D01*
X145392012Y-96784016D01*
X145442440Y-96535000D01*
X145442440Y-96372615D01*
X145515389Y-96548729D01*
X145745984Y-96604410D01*
X146465395Y-95885000D01*
X146824605Y-95885000D01*
X147544016Y-96604410D01*
X147774611Y-96548729D01*
X147942622Y-96065922D01*
X147913083Y-95555572D01*
X147774611Y-95221271D01*
X147544016Y-95165590D01*
X146824605Y-95885000D01*
X146465395Y-95885000D01*
X145745984Y-95165590D01*
X145515389Y-95221271D01*
X145442440Y-95430902D01*
X145442440Y-95235000D01*
X145398162Y-94999683D01*
X145389347Y-94985984D01*
X145925590Y-94985984D01*
X146645000Y-95705395D01*
X147364410Y-94985984D01*
X147308729Y-94755389D01*
X146825922Y-94587378D01*
X146315572Y-94616917D01*
X145981271Y-94755389D01*
X145925590Y-94985984D01*
X145389347Y-94985984D01*
X145259090Y-94783559D01*
X145046890Y-94638569D01*
X144795000Y-94587560D01*
X143495000Y-94587560D01*
X143259683Y-94631838D01*
X143076054Y-94750000D01*
X139713425Y-94750000D01*
X139496268Y-94604900D01*
X139486968Y-94603050D01*
X139576677Y-94576499D01*
X139998658Y-94234944D01*
X140257810Y-93757903D01*
X140271993Y-93686275D01*
X140149339Y-93472000D01*
X138557000Y-93472000D01*
X138557000Y-93492000D01*
X138303000Y-93492000D01*
X138303000Y-93472000D01*
X136710661Y-93472000D01*
X136588007Y-93686275D01*
X136602190Y-93757903D01*
X136861342Y-94234944D01*
X137283323Y-94576499D01*
X137373032Y-94603050D01*
X137363732Y-94604900D01*
X136914221Y-94905254D01*
X136613867Y-95354765D01*
X136508397Y-95885000D01*
X136613867Y-96415235D01*
X136914221Y-96864746D01*
X137363732Y-97165100D01*
X137638799Y-97219814D01*
X136309310Y-98549303D01*
X136059624Y-98549085D01*
X133856460Y-96345921D01*
X133601788Y-96175755D01*
X133301381Y-96116000D01*
X103971334Y-96116000D01*
X103957162Y-96040683D01*
X103818090Y-95824559D01*
X103605890Y-95679569D01*
X103354000Y-95628560D01*
X102354000Y-95628560D01*
X102118683Y-95672838D01*
X101902559Y-95811910D01*
X101856031Y-95880006D01*
X101713698Y-95737673D01*
X101480309Y-95641000D01*
X101139750Y-95641000D01*
X100981000Y-95799750D01*
X100981000Y-96774000D01*
X101001000Y-96774000D01*
X101001000Y-97028000D01*
X100981000Y-97028000D01*
X100981000Y-98002250D01*
X101139750Y-98161000D01*
X101480309Y-98161000D01*
X101713698Y-98064327D01*
X101854936Y-97923090D01*
X101889910Y-97977441D01*
X101919500Y-97997659D01*
X101919500Y-100342960D01*
X101880670Y-100342960D01*
X101666142Y-100383326D01*
X101479350Y-100345500D01*
X99881690Y-100345500D01*
X99646373Y-100389778D01*
X99430249Y-100528850D01*
X99285259Y-100741050D01*
X99234250Y-100992940D01*
X99234250Y-103990140D01*
X99278528Y-104225457D01*
X99417600Y-104441581D01*
X99629800Y-104586571D01*
X99881690Y-104637580D01*
X99895520Y-104637580D01*
X99895520Y-111084322D01*
X96194842Y-114785000D01*
X94475040Y-114785000D01*
X94475040Y-114452400D01*
X94430762Y-114217083D01*
X94291690Y-114000959D01*
X94079490Y-113855969D01*
X93827600Y-113804960D01*
X91592400Y-113804960D01*
X91357083Y-113849238D01*
X91140959Y-113988310D01*
X90995969Y-114200510D01*
X90944960Y-114452400D01*
X85661500Y-114452400D01*
X85661500Y-108235750D01*
X88035130Y-108235750D01*
X88035130Y-109576179D01*
X88131803Y-109809568D01*
X88310431Y-109988197D01*
X88543820Y-110084870D01*
X89884250Y-110084870D01*
X90043000Y-109926120D01*
X90043000Y-108077000D01*
X90297000Y-108077000D01*
X90297000Y-109926120D01*
X90455750Y-110084870D01*
X91796180Y-110084870D01*
X92029569Y-109988197D01*
X92208197Y-109809568D01*
X92304870Y-109576179D01*
X92304870Y-108235750D01*
X92146120Y-108077000D01*
X90297000Y-108077000D01*
X90043000Y-108077000D01*
X88193880Y-108077000D01*
X88035130Y-108235750D01*
X85661500Y-108235750D01*
X85661500Y-106323821D01*
X88035130Y-106323821D01*
X88035130Y-107664250D01*
X88193880Y-107823000D01*
X90043000Y-107823000D01*
X90043000Y-105973880D01*
X90297000Y-105973880D01*
X90297000Y-107823000D01*
X92146120Y-107823000D01*
X92304870Y-107664250D01*
X92304870Y-106323821D01*
X92208197Y-106090432D01*
X92029569Y-105911803D01*
X91796180Y-105815130D01*
X90455750Y-105815130D01*
X90297000Y-105973880D01*
X90043000Y-105973880D01*
X89884250Y-105815130D01*
X88543820Y-105815130D01*
X88310431Y-105911803D01*
X88131803Y-106090432D01*
X88035130Y-106323821D01*
X85661500Y-106323821D01*
X85661500Y-103292789D01*
X88034760Y-103292789D01*
X88359090Y-104077727D01*
X88959114Y-104678800D01*
X89743485Y-105004499D01*
X90592789Y-105005240D01*
X91377727Y-104680910D01*
X91978800Y-104080886D01*
X92304499Y-103296515D01*
X92305240Y-102447211D01*
X91980910Y-101662273D01*
X91421805Y-101102191D01*
X95337246Y-97186750D01*
X99719000Y-97186750D01*
X99719000Y-97652310D01*
X99815673Y-97885699D01*
X99994302Y-98064327D01*
X100227691Y-98161000D01*
X100568250Y-98161000D01*
X100727000Y-98002250D01*
X100727000Y-97028000D01*
X99877750Y-97028000D01*
X99719000Y-97186750D01*
X95337246Y-97186750D01*
X96374306Y-96149690D01*
X99719000Y-96149690D01*
X99719000Y-96615250D01*
X99877750Y-96774000D01*
X100727000Y-96774000D01*
X100727000Y-95799750D01*
X100568250Y-95641000D01*
X100227691Y-95641000D01*
X99994302Y-95737673D01*
X99815673Y-95916301D01*
X99719000Y-96149690D01*
X96374306Y-96149690D01*
X100456996Y-92067000D01*
X104204237Y-92067000D01*
X104243113Y-92105944D01*
X104752184Y-92317329D01*
X105303398Y-92317810D01*
X105812837Y-92107314D01*
X106202944Y-91717887D01*
X106414329Y-91208816D01*
X106414810Y-90657602D01*
X106204314Y-90148163D01*
X105814887Y-89758056D01*
X105305816Y-89546671D01*
X104754602Y-89546190D01*
X104245163Y-89756686D01*
X104204779Y-89797000D01*
X99986864Y-89797000D01*
X99552518Y-89883397D01*
X99258648Y-90079755D01*
X99184298Y-90129434D01*
X89367434Y-99946298D01*
X89121397Y-100314518D01*
X89035000Y-100748864D01*
X89035000Y-101029040D01*
X88962273Y-101059090D01*
X88361200Y-101659114D01*
X88035501Y-102443485D01*
X88034760Y-103292789D01*
X85661500Y-103292789D01*
X85661500Y-91201136D01*
X87451787Y-91201136D01*
X87814126Y-92078063D01*
X88484468Y-92749576D01*
X89360761Y-93113445D01*
X90309596Y-93114273D01*
X91186523Y-92751934D01*
X91858036Y-92081592D01*
X92221905Y-91205299D01*
X92222733Y-90256464D01*
X91860394Y-89379537D01*
X91190052Y-88708024D01*
X90313759Y-88344155D01*
X89364924Y-88343327D01*
X88487997Y-88705666D01*
X87816484Y-89376008D01*
X87452615Y-90252301D01*
X87451787Y-91201136D01*
X85661500Y-91201136D01*
X85661500Y-86555580D01*
X145110445Y-86555580D01*
X144980654Y-86581397D01*
X144980654Y-86581397D01*
G37*
X144980654Y-86581397D02*
X144612434Y-86827434D01*
X141769868Y-89670000D01*
X139713425Y-89670000D01*
X139496268Y-89524900D01*
X138966033Y-89419430D01*
X138649562Y-89419430D01*
X138232566Y-89002434D01*
X137864346Y-88756397D01*
X137430000Y-88670000D01*
X133401431Y-88670000D01*
X133340000Y-88657560D01*
X133135509Y-88657560D01*
X132879345Y-88486397D01*
X132445000Y-88400000D01*
X132010655Y-88486397D01*
X131735873Y-88670000D01*
X116824000Y-88670000D01*
X116389654Y-88756397D01*
X116021434Y-89002434D01*
X115216708Y-89807160D01*
X110933763Y-89807160D01*
X110894887Y-89768216D01*
X110385816Y-89556831D01*
X109834602Y-89556350D01*
X109325163Y-89766846D01*
X108935056Y-90156273D01*
X108723671Y-90665344D01*
X108723190Y-91216558D01*
X108933686Y-91725997D01*
X109323113Y-92116104D01*
X109832184Y-92327489D01*
X110383398Y-92327970D01*
X110892837Y-92117474D01*
X110933221Y-92077160D01*
X115686840Y-92077160D01*
X116121186Y-91990763D01*
X116489406Y-91744726D01*
X117294132Y-90940000D01*
X120848492Y-90940000D01*
X120231959Y-91194746D01*
X119518252Y-91907208D01*
X119131521Y-92838561D01*
X119130641Y-93847015D01*
X119515746Y-94779041D01*
X120228208Y-95492748D01*
X121159561Y-95879479D01*
X122168015Y-95880359D01*
X123100041Y-95495254D01*
X123813748Y-94782792D01*
X124200479Y-93851439D01*
X124201359Y-92842985D01*
X123890543Y-92090750D01*
X131455000Y-92090750D01*
X131455000Y-92431309D01*
X131551673Y-92664698D01*
X131730301Y-92843327D01*
X131963690Y-92940000D01*
X132429250Y-92940000D01*
X132588000Y-92781250D01*
X132588000Y-91932000D01*
X132842000Y-91932000D01*
X132842000Y-92781250D01*
X133000750Y-92940000D01*
X133466310Y-92940000D01*
X133699699Y-92843327D01*
X133878327Y-92664698D01*
X133975000Y-92431309D01*
X133975000Y-92090750D01*
X133816250Y-91932000D01*
X132842000Y-91932000D01*
X132588000Y-91932000D01*
X131613750Y-91932000D01*
X131455000Y-92090750D01*
X123890543Y-92090750D01*
X123816254Y-91910959D01*
X123103792Y-91197252D01*
X122484260Y-90940000D01*
X131556975Y-90940000D01*
X131551673Y-90945302D01*
X131455000Y-91178691D01*
X131455000Y-91519250D01*
X131613750Y-91678000D01*
X132588000Y-91678000D01*
X132588000Y-91658000D01*
X132842000Y-91658000D01*
X132842000Y-91678000D01*
X133816250Y-91678000D01*
X133975000Y-91519250D01*
X133975000Y-91178691D01*
X133878327Y-90945302D01*
X133873025Y-90940000D01*
X136535250Y-90940000D01*
X136613867Y-91335235D01*
X136914221Y-91784746D01*
X137363732Y-92085100D01*
X137373032Y-92086950D01*
X137283323Y-92113501D01*
X136861342Y-92455056D01*
X136602190Y-92932097D01*
X136588007Y-93003725D01*
X136710661Y-93218000D01*
X138303000Y-93218000D01*
X138303000Y-93198000D01*
X138557000Y-93198000D01*
X138557000Y-93218000D01*
X140149339Y-93218000D01*
X140271993Y-93003725D01*
X140257810Y-92932097D01*
X139998658Y-92455056D01*
X139576677Y-92113501D01*
X139486968Y-92086950D01*
X139496268Y-92085100D01*
X139713425Y-91940000D01*
X142240000Y-91940000D01*
X142674346Y-91853603D01*
X143042566Y-91607566D01*
X145885132Y-88765000D01*
X169709868Y-88765000D01*
X178192690Y-97247822D01*
X178192690Y-99289870D01*
X178236968Y-99525187D01*
X178376040Y-99741311D01*
X178588240Y-99886301D01*
X178840130Y-99937310D01*
X181839870Y-99937310D01*
X182075187Y-99893032D01*
X182291311Y-99753960D01*
X182436301Y-99541760D01*
X182487310Y-99289870D01*
X182487310Y-96290130D01*
X182443032Y-96054813D01*
X182303960Y-95838689D01*
X182091760Y-95693699D01*
X181839870Y-95642690D01*
X179797822Y-95642690D01*
X175356268Y-91201136D01*
X177451607Y-91201136D01*
X177813946Y-92078063D01*
X178484288Y-92749576D01*
X179360581Y-93113445D01*
X180309416Y-93114273D01*
X181186343Y-92751934D01*
X181857856Y-92081592D01*
X182221725Y-91205299D01*
X182222553Y-90256464D01*
X181860214Y-89379537D01*
X181189872Y-88708024D01*
X180313579Y-88344155D01*
X179364744Y-88343327D01*
X178487817Y-88705666D01*
X177816304Y-89376008D01*
X177452435Y-90252301D01*
X177451607Y-91201136D01*
X175356268Y-91201136D01*
X170982566Y-86827434D01*
X170614346Y-86581397D01*
X170484555Y-86555580D01*
X184010300Y-86555580D01*
X184010300Y-124904500D01*
X85661500Y-124904500D01*
X85661500Y-121201076D01*
X87451787Y-121201076D01*
X87814126Y-122078003D01*
X88484468Y-122749516D01*
X89360761Y-123113385D01*
X90309596Y-123114213D01*
X91186523Y-122751874D01*
X91858036Y-122081532D01*
X92221905Y-121205239D01*
X92222733Y-120256404D01*
X91860394Y-119379477D01*
X91258719Y-118776750D01*
X99246690Y-118776750D01*
X99246690Y-120115909D01*
X99343363Y-120349298D01*
X99521991Y-120527927D01*
X99755380Y-120624600D01*
X100394770Y-120624600D01*
X100553520Y-120465850D01*
X100553520Y-118618000D01*
X99405440Y-118618000D01*
X99246690Y-118776750D01*
X91258719Y-118776750D01*
X91190052Y-118707964D01*
X90313759Y-118344095D01*
X89364924Y-118343267D01*
X88487997Y-118705606D01*
X87816484Y-119375948D01*
X87452615Y-120252241D01*
X87451787Y-121201076D01*
X85661500Y-121201076D01*
X85661500Y-114452400D01*
X90944960Y-114452400D01*
X90944960Y-116687600D01*
X90989238Y-116922917D01*
X91128310Y-117139041D01*
X91340510Y-117284031D01*
X91592400Y-117335040D01*
X93827600Y-117335040D01*
X94062917Y-117290762D01*
X94279041Y-117151690D01*
X94424031Y-116939490D01*
X94438894Y-116866091D01*
X99246690Y-116866091D01*
X99246690Y-118205250D01*
X99405440Y-118364000D01*
X100553520Y-118364000D01*
X100553520Y-116516150D01*
X100394770Y-116357400D01*
X99755380Y-116357400D01*
X99521991Y-116454073D01*
X99343363Y-116632702D01*
X99246690Y-116866091D01*
X94438894Y-116866091D01*
X94475040Y-116687600D01*
X94475040Y-116355000D01*
X96520000Y-116355000D01*
X96820407Y-116295245D01*
X97075079Y-116125079D01*
X101235599Y-111964559D01*
X101405765Y-111709886D01*
X101465267Y-111410750D01*
X115483000Y-111410750D01*
X115483000Y-111876310D01*
X115579673Y-112109699D01*
X115758302Y-112288327D01*
X115991691Y-112385000D01*
X116332250Y-112385000D01*
X116491000Y-112226250D01*
X116491000Y-111252000D01*
X115641750Y-111252000D01*
X115483000Y-111410750D01*
X101465267Y-111410750D01*
X101465520Y-111409480D01*
X101465520Y-110373690D01*
X115483000Y-110373690D01*
X115483000Y-110839250D01*
X115641750Y-110998000D01*
X116491000Y-110998000D01*
X116491000Y-110023750D01*
X116332250Y-109865000D01*
X115991691Y-109865000D01*
X115758302Y-109961673D01*
X115579673Y-110140301D01*
X115483000Y-110373690D01*
X101465520Y-110373690D01*
X101465520Y-108870750D01*
X115483000Y-108870750D01*
X115483000Y-109336310D01*
X115579673Y-109569699D01*
X115758302Y-109748327D01*
X115991691Y-109845000D01*
X116332250Y-109845000D01*
X116491000Y-109686250D01*
X116491000Y-108712000D01*
X115641750Y-108712000D01*
X115483000Y-108870750D01*
X101465520Y-108870750D01*
X101465520Y-107833690D01*
X115483000Y-107833690D01*
X115483000Y-108299250D01*
X115641750Y-108458000D01*
X116491000Y-108458000D01*
X116491000Y-107483750D01*
X116332250Y-107325000D01*
X115991691Y-107325000D01*
X115758302Y-107421673D01*
X115579673Y-107600301D01*
X115483000Y-107833690D01*
X101465520Y-107833690D01*
X101465520Y-104637580D01*
X101479350Y-104637580D01*
X101693878Y-104597214D01*
X101880670Y-104635040D01*
X103478330Y-104635040D01*
X103687673Y-104595649D01*
X103882190Y-104635040D01*
X105479850Y-104635040D01*
X105687876Y-104595897D01*
X105881170Y-104635040D01*
X107478830Y-104635040D01*
X107686856Y-104595897D01*
X107880150Y-104635040D01*
X107985161Y-104635040D01*
X108123901Y-104842679D01*
X109540029Y-106258807D01*
X109794702Y-106428973D01*
X110095108Y-106488728D01*
X118664417Y-106488728D01*
X118925332Y-106750099D01*
X119379083Y-106938513D01*
X119870396Y-106938942D01*
X120324474Y-106751320D01*
X120672188Y-106404213D01*
X120860602Y-105950462D01*
X120861031Y-105459149D01*
X120673409Y-105005071D01*
X120326302Y-104657357D01*
X119872551Y-104468943D01*
X119381238Y-104468514D01*
X118927160Y-104656136D01*
X118664109Y-104918728D01*
X110420266Y-104918728D01*
X110136578Y-104635040D01*
X111479330Y-104635040D01*
X111687356Y-104595897D01*
X111880650Y-104635040D01*
X113478310Y-104635040D01*
X113713627Y-104590762D01*
X113929751Y-104451690D01*
X114074741Y-104239490D01*
X114125750Y-103987600D01*
X114125750Y-103274000D01*
X119174543Y-103274000D01*
X121965000Y-106064457D01*
X121965000Y-108047370D01*
X121914683Y-108056838D01*
X121698559Y-108195910D01*
X121553569Y-108408110D01*
X121502560Y-108660000D01*
X121502560Y-109102402D01*
X120430079Y-108029921D01*
X120175407Y-107859755D01*
X119875000Y-107800000D01*
X119735334Y-107800000D01*
X119721162Y-107724683D01*
X119582090Y-107508559D01*
X119369890Y-107363569D01*
X119118000Y-107312560D01*
X118118000Y-107312560D01*
X117882683Y-107356838D01*
X117666559Y-107495910D01*
X117620031Y-107564006D01*
X117477698Y-107421673D01*
X117244309Y-107325000D01*
X116903750Y-107325000D01*
X116745000Y-107483750D01*
X116745000Y-108458000D01*
X116765000Y-108458000D01*
X116765000Y-108712000D01*
X116745000Y-108712000D01*
X116745000Y-109686250D01*
X116903750Y-109845000D01*
X117244309Y-109845000D01*
X117477698Y-109748327D01*
X117618936Y-109607090D01*
X117653910Y-109661441D01*
X117866110Y-109806431D01*
X118105509Y-109854910D01*
X117882683Y-109896838D01*
X117666559Y-110035910D01*
X117620031Y-110104006D01*
X117477698Y-109961673D01*
X117244309Y-109865000D01*
X116903750Y-109865000D01*
X116745000Y-110023750D01*
X116745000Y-110998000D01*
X116765000Y-110998000D01*
X116765000Y-111252000D01*
X116745000Y-111252000D01*
X116745000Y-112226250D01*
X116903750Y-112385000D01*
X117244309Y-112385000D01*
X117477698Y-112288327D01*
X117618936Y-112147090D01*
X117653910Y-112201441D01*
X117866110Y-112346431D01*
X118118000Y-112397440D01*
X119118000Y-112397440D01*
X119353317Y-112353162D01*
X119569441Y-112214090D01*
X119638646Y-112112804D01*
X120240921Y-112715079D01*
X120495593Y-112885245D01*
X120796000Y-112945000D01*
X121735025Y-112945000D01*
X121755711Y-112959134D01*
X121731054Y-112975000D01*
X112935000Y-112975000D01*
X112634594Y-113034755D01*
X112379921Y-113204921D01*
X112379919Y-113204924D01*
X110125421Y-115459421D01*
X109955255Y-115714093D01*
X109955255Y-115714094D01*
X109895500Y-116014500D01*
X109895500Y-116344960D01*
X109881670Y-116344960D01*
X109672327Y-116384351D01*
X109477810Y-116344960D01*
X107880150Y-116344960D01*
X107672124Y-116384103D01*
X107478830Y-116344960D01*
X105881170Y-116344960D01*
X105673144Y-116384103D01*
X105479850Y-116344960D01*
X103882190Y-116344960D01*
X103672847Y-116384351D01*
X103478330Y-116344960D01*
X101880670Y-116344960D01*
X101670913Y-116384429D01*
X101605660Y-116357400D01*
X100966270Y-116357400D01*
X100807520Y-116516150D01*
X100807520Y-118364000D01*
X100827520Y-118364000D01*
X100827520Y-118618000D01*
X100807520Y-118618000D01*
X100807520Y-120465850D01*
X100966270Y-120624600D01*
X101605660Y-120624600D01*
X101675791Y-120595551D01*
X101880670Y-120637040D01*
X101930558Y-120637040D01*
X101954255Y-120756173D01*
X102124421Y-121010845D01*
X104274408Y-123160832D01*
X104529081Y-123330998D01*
X104829487Y-123390753D01*
X122369494Y-123390753D01*
X122669901Y-123330998D01*
X122924573Y-123160832D01*
X126355079Y-119730326D01*
X126525245Y-119475654D01*
X126585000Y-119175247D01*
X126585000Y-118391777D01*
X127004319Y-118811096D01*
X127258992Y-118981262D01*
X127559398Y-119041017D01*
X128161025Y-119041017D01*
X128164569Y-119041722D01*
X128164574Y-119041721D01*
X128457962Y-119041721D01*
X128354491Y-119145011D01*
X128166077Y-119598762D01*
X128165648Y-120090075D01*
X128353270Y-120544153D01*
X128700377Y-120891867D01*
X129154128Y-121080281D01*
X129645441Y-121080710D01*
X130099519Y-120893088D01*
X130362570Y-120630496D01*
X142615149Y-120630496D01*
X142915556Y-120570741D01*
X143170228Y-120400575D01*
X143214528Y-120356275D01*
X151828007Y-120356275D01*
X151842190Y-120427903D01*
X152101342Y-120904944D01*
X152523323Y-121246499D01*
X153043890Y-121400570D01*
X153543000Y-121400570D01*
X153543000Y-120142000D01*
X153797000Y-120142000D01*
X153797000Y-121400570D01*
X154296110Y-121400570D01*
X154816677Y-121246499D01*
X154872795Y-121201076D01*
X177451607Y-121201076D01*
X177813946Y-122078003D01*
X178484288Y-122749516D01*
X179360581Y-123113385D01*
X180309416Y-123114213D01*
X181186343Y-122751874D01*
X181857856Y-122081532D01*
X182221725Y-121205239D01*
X182222553Y-120256404D01*
X181860214Y-119379477D01*
X181189872Y-118707964D01*
X180313579Y-118344095D01*
X179364744Y-118343267D01*
X178487817Y-118705606D01*
X177816304Y-119375948D01*
X177452435Y-120252241D01*
X177451607Y-121201076D01*
X154872795Y-121201076D01*
X155238658Y-120904944D01*
X155497810Y-120427903D01*
X155511993Y-120356275D01*
X155389339Y-120142000D01*
X153797000Y-120142000D01*
X153543000Y-120142000D01*
X151950661Y-120142000D01*
X151828007Y-120356275D01*
X143214528Y-120356275D01*
X145310803Y-118260000D01*
X146667962Y-118260000D01*
X146686838Y-118360317D01*
X146825910Y-118576441D01*
X147038110Y-118721431D01*
X147290000Y-118772440D01*
X147990000Y-118772440D01*
X148225317Y-118728162D01*
X148441441Y-118589090D01*
X148586431Y-118376890D01*
X148589081Y-118363803D01*
X148725910Y-118576441D01*
X148938110Y-118721431D01*
X149190000Y-118772440D01*
X149890000Y-118772440D01*
X150125317Y-118728162D01*
X150341441Y-118589090D01*
X150486431Y-118376890D01*
X150537440Y-118125000D01*
X150537440Y-116825000D01*
X150493162Y-116589683D01*
X150380131Y-116414027D01*
X151074158Y-115720000D01*
X152024096Y-115720000D01*
X152154221Y-115914746D01*
X152588616Y-116205000D01*
X152154221Y-116495254D01*
X151853867Y-116944765D01*
X151748397Y-117475000D01*
X151853867Y-118005235D01*
X152154221Y-118454746D01*
X152603732Y-118755100D01*
X152613032Y-118756950D01*
X152523323Y-118783501D01*
X152101342Y-119125056D01*
X151842190Y-119602097D01*
X151828007Y-119673725D01*
X151950661Y-119888000D01*
X153543000Y-119888000D01*
X153543000Y-119868000D01*
X153797000Y-119868000D01*
X153797000Y-119888000D01*
X155389339Y-119888000D01*
X155511993Y-119673725D01*
X155497810Y-119602097D01*
X155238658Y-119125056D01*
X154816677Y-118783501D01*
X154726968Y-118756950D01*
X154736268Y-118755100D01*
X154953425Y-118610000D01*
X156591000Y-118610000D01*
X157025346Y-118523603D01*
X157393566Y-118277566D01*
X157694117Y-117977015D01*
X167898641Y-117977015D01*
X168283746Y-118909041D01*
X168996208Y-119622748D01*
X169927561Y-120009479D01*
X170936015Y-120010359D01*
X171868041Y-119625254D01*
X172581748Y-118912792D01*
X172968479Y-117981439D01*
X172969359Y-116972985D01*
X172584254Y-116040959D01*
X171871792Y-115327252D01*
X170940439Y-114940521D01*
X169931985Y-114939641D01*
X168999959Y-115324746D01*
X168286252Y-116037208D01*
X167899521Y-116968561D01*
X167898641Y-117977015D01*
X157694117Y-117977015D01*
X161506132Y-114165000D01*
X178499040Y-114165000D01*
X178529090Y-114237727D01*
X179129114Y-114838800D01*
X179913485Y-115164499D01*
X180762789Y-115165240D01*
X181547727Y-114840910D01*
X182148800Y-114240886D01*
X182474499Y-113456515D01*
X182475240Y-112607211D01*
X182150910Y-111822273D01*
X181550886Y-111221200D01*
X180766515Y-110895501D01*
X179917211Y-110894760D01*
X179132273Y-111219090D01*
X178531200Y-111819114D01*
X178499689Y-111895000D01*
X161036000Y-111895000D01*
X160601654Y-111981397D01*
X160334356Y-112160000D01*
X160233434Y-112227434D01*
X156120868Y-116340000D01*
X154953425Y-116340000D01*
X154751384Y-116205000D01*
X155185779Y-115914746D01*
X155486133Y-115465235D01*
X155591603Y-114935000D01*
X155486133Y-114404765D01*
X155185779Y-113955254D01*
X154736268Y-113654900D01*
X154206033Y-113549430D01*
X153133967Y-113549430D01*
X152603732Y-113654900D01*
X152154221Y-113955254D01*
X152024096Y-114150000D01*
X150749000Y-114150000D01*
X150448593Y-114209755D01*
X150193921Y-114379921D01*
X148984921Y-115588921D01*
X148814755Y-115843593D01*
X148765855Y-116089430D01*
X148755000Y-116144000D01*
X148755000Y-116350331D01*
X148738559Y-116360910D01*
X148593569Y-116573110D01*
X148590919Y-116586197D01*
X148454090Y-116373559D01*
X148241890Y-116228569D01*
X147990000Y-116177560D01*
X147290000Y-116177560D01*
X147054683Y-116221838D01*
X146838559Y-116360910D01*
X146693569Y-116573110D01*
X146669898Y-116690000D01*
X144985650Y-116690000D01*
X144985645Y-116689999D01*
X144685239Y-116749755D01*
X144430566Y-116919921D01*
X142289991Y-119060496D01*
X139556349Y-119060496D01*
X139659820Y-118957206D01*
X139848234Y-118503455D01*
X139848663Y-118012142D01*
X139661041Y-117558064D01*
X139313934Y-117210350D01*
X138860183Y-117021936D01*
X138368870Y-117021507D01*
X137914792Y-117209129D01*
X137651741Y-117471721D01*
X128167404Y-117471721D01*
X128163865Y-117471017D01*
X127884556Y-117471017D01*
X127670979Y-117257440D01*
X127700000Y-117257440D01*
X127803671Y-117237933D01*
X127900000Y-117257440D01*
X128500000Y-117257440D01*
X128603671Y-117237933D01*
X128700000Y-117257440D01*
X129300000Y-117257440D01*
X129403671Y-117237933D01*
X129500000Y-117257440D01*
X130100000Y-117257440D01*
X130335317Y-117213162D01*
X130551441Y-117074090D01*
X130696431Y-116861890D01*
X130747440Y-116610000D01*
X130747440Y-115507440D01*
X131850000Y-115507440D01*
X132085317Y-115463162D01*
X132301441Y-115324090D01*
X132446431Y-115111890D01*
X132479062Y-114950750D01*
X133360000Y-114950750D01*
X133360000Y-115291309D01*
X133456673Y-115524698D01*
X133635301Y-115703327D01*
X133868690Y-115800000D01*
X134334250Y-115800000D01*
X134493000Y-115641250D01*
X134493000Y-114792000D01*
X134747000Y-114792000D01*
X134747000Y-115641250D01*
X134905750Y-115800000D01*
X135371310Y-115800000D01*
X135604699Y-115703327D01*
X135783327Y-115524698D01*
X135880000Y-115291309D01*
X135880000Y-114950750D01*
X135721250Y-114792000D01*
X134747000Y-114792000D01*
X134493000Y-114792000D01*
X133518750Y-114792000D01*
X133360000Y-114950750D01*
X132479062Y-114950750D01*
X132497440Y-114860000D01*
X132497440Y-114260000D01*
X132477933Y-114156329D01*
X132497440Y-114060000D01*
X132497440Y-113460000D01*
X132477933Y-113356329D01*
X132497440Y-113260000D01*
X132497440Y-112660000D01*
X132484020Y-112588677D01*
X132485000Y-112586310D01*
X132485000Y-112445750D01*
X132433721Y-112394471D01*
X132314090Y-112208559D01*
X132244289Y-112160866D01*
X132301441Y-112124090D01*
X132444427Y-111914823D01*
X132485000Y-111874250D01*
X132485000Y-111733690D01*
X132483333Y-111729665D01*
X132497440Y-111660000D01*
X132497440Y-111060000D01*
X132477933Y-110956329D01*
X132497440Y-110860000D01*
X132497440Y-110521176D01*
X133918199Y-110521176D01*
X134195945Y-110798922D01*
X134064921Y-110929946D01*
X133894755Y-111184618D01*
X133855145Y-111383750D01*
X133835000Y-111485025D01*
X133835000Y-111547666D01*
X133759683Y-111561838D01*
X133543559Y-111700910D01*
X133398569Y-111913110D01*
X133347560Y-112165000D01*
X133347560Y-113165000D01*
X133391838Y-113400317D01*
X133530910Y-113616441D01*
X133599006Y-113662969D01*
X133456673Y-113805302D01*
X133360000Y-114038691D01*
X133360000Y-114379250D01*
X133518750Y-114538000D01*
X134493000Y-114538000D01*
X134493000Y-114518000D01*
X134747000Y-114518000D01*
X134747000Y-114538000D01*
X135721250Y-114538000D01*
X135880000Y-114379250D01*
X135880000Y-114038691D01*
X135783327Y-113805302D01*
X135642090Y-113664064D01*
X135696441Y-113629090D01*
X135818808Y-113450000D01*
X136976265Y-113450000D01*
X137276672Y-113390245D01*
X137297450Y-113376362D01*
X137246023Y-113500211D01*
X137245594Y-113991524D01*
X137433216Y-114445602D01*
X137780323Y-114793316D01*
X138234074Y-114981730D01*
X138725387Y-114982159D01*
X139179465Y-114794537D01*
X139527179Y-114447430D01*
X139715593Y-113993679D01*
X139715918Y-113621993D01*
X140157911Y-113180000D01*
X141602442Y-113180000D01*
X141785971Y-113454670D01*
X142272152Y-113779526D01*
X142845641Y-113893600D01*
X142904359Y-113893600D01*
X143477848Y-113779526D01*
X143964029Y-113454670D01*
X144144992Y-113183839D01*
X144526510Y-113601821D01*
X145055973Y-113849968D01*
X145288000Y-113729469D01*
X145288000Y-112522000D01*
X145542000Y-112522000D01*
X145542000Y-113729469D01*
X145774027Y-113849968D01*
X146303490Y-113601821D01*
X146697688Y-113169947D01*
X146869958Y-112754026D01*
X146748817Y-112522000D01*
X145542000Y-112522000D01*
X145288000Y-112522000D01*
X145268000Y-112522000D01*
X145268000Y-112268000D01*
X145288000Y-112268000D01*
X145288000Y-112248000D01*
X145542000Y-112248000D01*
X145542000Y-112268000D01*
X146748817Y-112268000D01*
X146869958Y-112035974D01*
X146697688Y-111620053D01*
X146303490Y-111188179D01*
X146180772Y-111130664D01*
X146504029Y-110914670D01*
X146828885Y-110428489D01*
X146942959Y-109855000D01*
X146873641Y-109506517D01*
X148088883Y-108291275D01*
X151828007Y-108291275D01*
X151842190Y-108362903D01*
X152101342Y-108839944D01*
X152523323Y-109181499D01*
X153043890Y-109335570D01*
X153543000Y-109335570D01*
X153543000Y-108077000D01*
X153797000Y-108077000D01*
X153797000Y-109335570D01*
X154296110Y-109335570D01*
X154816677Y-109181499D01*
X155238658Y-108839944D01*
X155497810Y-108362903D01*
X155511993Y-108291275D01*
X155389339Y-108077000D01*
X153797000Y-108077000D01*
X153543000Y-108077000D01*
X151950661Y-108077000D01*
X151828007Y-108291275D01*
X148088883Y-108291275D01*
X148129079Y-108251079D01*
X148299245Y-107996407D01*
X148359000Y-107696000D01*
X148359000Y-105791000D01*
X148299245Y-105490594D01*
X148299245Y-105490593D01*
X148129079Y-105235921D01*
X147136272Y-104243114D01*
X146881600Y-104072948D01*
X146581193Y-104013193D01*
X145851214Y-104013193D01*
X145896441Y-103984090D01*
X146041431Y-103771890D01*
X146065102Y-103655000D01*
X152024096Y-103655000D01*
X152154221Y-103849746D01*
X152588616Y-104140000D01*
X152154221Y-104430254D01*
X151853867Y-104879765D01*
X151748397Y-105410000D01*
X151853867Y-105940235D01*
X152154221Y-106389746D01*
X152603732Y-106690100D01*
X152613032Y-106691950D01*
X152523323Y-106718501D01*
X152101342Y-107060056D01*
X151842190Y-107537097D01*
X151828007Y-107608725D01*
X151950661Y-107823000D01*
X153543000Y-107823000D01*
X153543000Y-107803000D01*
X153797000Y-107803000D01*
X153797000Y-107823000D01*
X155389339Y-107823000D01*
X155511993Y-107608725D01*
X155497810Y-107537097D01*
X155238658Y-107060056D01*
X154816677Y-106718501D01*
X154726968Y-106691950D01*
X154736268Y-106690100D01*
X154953425Y-106545000D01*
X158025868Y-106545000D01*
X161733303Y-110252436D01*
X162101524Y-110498473D01*
X162535869Y-110584869D01*
X178840131Y-110584869D01*
X179274477Y-110498472D01*
X179642697Y-110252435D01*
X179840810Y-110054322D01*
X179913485Y-110084499D01*
X180762789Y-110085240D01*
X181547727Y-109760910D01*
X182148800Y-109160886D01*
X182474499Y-108376515D01*
X182475240Y-107527211D01*
X182150910Y-106742273D01*
X181550886Y-106141200D01*
X180766515Y-105815501D01*
X179917211Y-105814760D01*
X179132273Y-106139090D01*
X178531200Y-106739114D01*
X178205501Y-107523485D01*
X178204811Y-108314869D01*
X163006002Y-108314869D01*
X160603148Y-105912015D01*
X167898641Y-105912015D01*
X168283746Y-106844041D01*
X168996208Y-107557748D01*
X169927561Y-107944479D01*
X170936015Y-107945359D01*
X171868041Y-107560254D01*
X172581748Y-106847792D01*
X172968479Y-105916439D01*
X172969359Y-104907985D01*
X172584254Y-103975959D01*
X171871792Y-103262252D01*
X170940439Y-102875521D01*
X169931985Y-102874641D01*
X168999959Y-103259746D01*
X168286252Y-103972208D01*
X167899521Y-104903561D01*
X167898641Y-105912015D01*
X160603148Y-105912015D01*
X159298566Y-104607434D01*
X159186135Y-104532310D01*
X158930346Y-104361397D01*
X158496000Y-104275000D01*
X154953425Y-104275000D01*
X154751384Y-104140000D01*
X155185779Y-103849746D01*
X155486133Y-103400235D01*
X155591603Y-102870000D01*
X155486133Y-102339765D01*
X155185779Y-101890254D01*
X154736268Y-101589900D01*
X154206033Y-101484430D01*
X153133967Y-101484430D01*
X152603732Y-101589900D01*
X152154221Y-101890254D01*
X152024096Y-102085000D01*
X146067038Y-102085000D01*
X146048162Y-101984683D01*
X145909090Y-101768559D01*
X145696890Y-101623569D01*
X145445000Y-101572560D01*
X144745000Y-101572560D01*
X144509683Y-101616838D01*
X144293559Y-101755910D01*
X144148569Y-101968110D01*
X144145919Y-101981197D01*
X144009090Y-101768559D01*
X143796890Y-101623569D01*
X143545000Y-101572560D01*
X142845000Y-101572560D01*
X142609683Y-101616838D01*
X142393559Y-101755910D01*
X142248569Y-101968110D01*
X142204150Y-102187458D01*
X135064232Y-102187458D01*
X135064227Y-102187457D01*
X134763821Y-102247213D01*
X134509148Y-102417379D01*
X133749579Y-103176948D01*
X133380266Y-103176626D01*
X132926188Y-103364248D01*
X132578474Y-103711355D01*
X132390060Y-104165106D01*
X132389933Y-104310558D01*
X132359071Y-104279696D01*
X132359071Y-102782655D01*
X132693504Y-102921524D01*
X133184817Y-102921953D01*
X133638895Y-102734331D01*
X133930111Y-102443624D01*
X134089173Y-102411984D01*
X134343845Y-102241818D01*
X134656831Y-101928832D01*
X140567100Y-101928832D01*
X140867507Y-101869077D01*
X141122179Y-101698911D01*
X141645090Y-101176000D01*
X148735331Y-101176000D01*
X148745910Y-101192441D01*
X148958110Y-101337431D01*
X149210000Y-101388440D01*
X150510000Y-101388440D01*
X150745317Y-101344162D01*
X150961441Y-101205090D01*
X151106431Y-100992890D01*
X151157440Y-100741000D01*
X151157440Y-100041000D01*
X151113162Y-99805683D01*
X150974090Y-99589559D01*
X150761890Y-99444569D01*
X150748803Y-99441919D01*
X150961441Y-99305090D01*
X151106431Y-99092890D01*
X151157440Y-98841000D01*
X151157440Y-98141000D01*
X151113162Y-97905683D01*
X150974090Y-97689559D01*
X150761890Y-97544569D01*
X150645000Y-97520898D01*
X150645000Y-96226275D01*
X151828007Y-96226275D01*
X151842190Y-96297903D01*
X152101342Y-96774944D01*
X152523323Y-97116499D01*
X153043890Y-97270570D01*
X153543000Y-97270570D01*
X153543000Y-96012000D01*
X153797000Y-96012000D01*
X153797000Y-97270570D01*
X154296110Y-97270570D01*
X154816677Y-97116499D01*
X155238658Y-96774944D01*
X155497810Y-96297903D01*
X155511993Y-96226275D01*
X155389339Y-96012000D01*
X153797000Y-96012000D01*
X153543000Y-96012000D01*
X151950661Y-96012000D01*
X151828007Y-96226275D01*
X150645000Y-96226275D01*
X150645000Y-94441048D01*
X151750222Y-93335826D01*
X151748397Y-93345000D01*
X151853867Y-93875235D01*
X152154221Y-94324746D01*
X152603732Y-94625100D01*
X152613032Y-94626950D01*
X152523323Y-94653501D01*
X152101342Y-94995056D01*
X151842190Y-95472097D01*
X151828007Y-95543725D01*
X151950661Y-95758000D01*
X153543000Y-95758000D01*
X153543000Y-95738000D01*
X153797000Y-95738000D01*
X153797000Y-95758000D01*
X155389339Y-95758000D01*
X155511993Y-95543725D01*
X155497810Y-95472097D01*
X155238658Y-94995056D01*
X154816677Y-94653501D01*
X154726968Y-94626950D01*
X154736268Y-94625100D01*
X154953425Y-94480000D01*
X156882868Y-94480000D01*
X164575565Y-102172697D01*
X164943785Y-102418734D01*
X165378131Y-102505131D01*
X178205447Y-102505131D01*
X178204760Y-103292789D01*
X178529090Y-104077727D01*
X179129114Y-104678800D01*
X179913485Y-105004499D01*
X180762789Y-105005240D01*
X181547727Y-104680910D01*
X182148800Y-104080886D01*
X182474499Y-103296515D01*
X182475240Y-102447211D01*
X182150910Y-101662273D01*
X181550886Y-101061200D01*
X180766515Y-100735501D01*
X179917211Y-100734760D01*
X179841270Y-100766138D01*
X179642697Y-100567565D01*
X179642666Y-100567544D01*
X179274477Y-100321528D01*
X178840131Y-100235131D01*
X165848263Y-100235131D01*
X159460147Y-93847015D01*
X167898641Y-93847015D01*
X168283746Y-94779041D01*
X168996208Y-95492748D01*
X169927561Y-95879479D01*
X170936015Y-95880359D01*
X171868041Y-95495254D01*
X172581748Y-94782792D01*
X172968479Y-93851439D01*
X172969359Y-92842985D01*
X172584254Y-91910959D01*
X171871792Y-91197252D01*
X170940439Y-90810521D01*
X169931985Y-90809641D01*
X168999959Y-91194746D01*
X168286252Y-91907208D01*
X167899521Y-92838561D01*
X167898641Y-93847015D01*
X159460147Y-93847015D01*
X158155566Y-92542434D01*
X157787346Y-92296397D01*
X157353000Y-92210000D01*
X154953425Y-92210000D01*
X154751384Y-92075000D01*
X155185779Y-91784746D01*
X155486133Y-91335235D01*
X155591603Y-90805000D01*
X155486133Y-90274765D01*
X155185779Y-89825254D01*
X154736268Y-89524900D01*
X154206033Y-89419430D01*
X153133967Y-89419430D01*
X152603732Y-89524900D01*
X152154221Y-89825254D01*
X151853867Y-90274765D01*
X151748397Y-90805000D01*
X151800217Y-91065516D01*
X149304921Y-93560811D01*
X149134755Y-93815483D01*
X149134755Y-93815484D01*
X149075000Y-94115890D01*
X149075000Y-97518962D01*
X148974683Y-97537838D01*
X148758559Y-97676910D01*
X148613569Y-97889110D01*
X148562560Y-98141000D01*
X148562560Y-98841000D01*
X148606838Y-99076317D01*
X148745910Y-99292441D01*
X148958110Y-99437431D01*
X148971197Y-99440081D01*
X148758559Y-99576910D01*
X148738683Y-99606000D01*
X141319932Y-99606000D01*
X141019525Y-99665755D01*
X140764853Y-99835921D01*
X140241942Y-100358832D01*
X137283204Y-100358832D01*
X137419361Y-100030929D01*
X137419686Y-99659243D01*
X138985079Y-98093850D01*
X139155245Y-97839178D01*
X139215000Y-97538771D01*
X139215000Y-97221048D01*
X139496268Y-97165100D01*
X139713425Y-97020000D01*
X143080025Y-97020000D01*
X143243110Y-97131431D01*
X143495000Y-97182440D01*
X144795000Y-97182440D01*
X145030317Y-97138162D01*
X145246441Y-96999090D01*
X145391431Y-96786890D01*
X145392012Y-96784016D01*
X145925590Y-96784016D01*
X145981271Y-97014611D01*
X146464078Y-97182622D01*
X146974428Y-97153083D01*
X147308729Y-97014611D01*
X147364410Y-96784016D01*
X146645000Y-96064605D01*
X145925590Y-96784016D01*
X145392012Y-96784016D01*
X145442440Y-96535000D01*
X145442440Y-96372615D01*
X145515389Y-96548729D01*
X145745984Y-96604410D01*
X146465395Y-95885000D01*
X146824605Y-95885000D01*
X147544016Y-96604410D01*
X147774611Y-96548729D01*
X147942622Y-96065922D01*
X147913083Y-95555572D01*
X147774611Y-95221271D01*
X147544016Y-95165590D01*
X146824605Y-95885000D01*
X146465395Y-95885000D01*
X145745984Y-95165590D01*
X145515389Y-95221271D01*
X145442440Y-95430902D01*
X145442440Y-95235000D01*
X145398162Y-94999683D01*
X145389347Y-94985984D01*
X145925590Y-94985984D01*
X146645000Y-95705395D01*
X147364410Y-94985984D01*
X147308729Y-94755389D01*
X146825922Y-94587378D01*
X146315572Y-94616917D01*
X145981271Y-94755389D01*
X145925590Y-94985984D01*
X145389347Y-94985984D01*
X145259090Y-94783559D01*
X145046890Y-94638569D01*
X144795000Y-94587560D01*
X143495000Y-94587560D01*
X143259683Y-94631838D01*
X143076054Y-94750000D01*
X139713425Y-94750000D01*
X139496268Y-94604900D01*
X139486968Y-94603050D01*
X139576677Y-94576499D01*
X139998658Y-94234944D01*
X140257810Y-93757903D01*
X140271993Y-93686275D01*
X140149339Y-93472000D01*
X138557000Y-93472000D01*
X138557000Y-93492000D01*
X138303000Y-93492000D01*
X138303000Y-93472000D01*
X136710661Y-93472000D01*
X136588007Y-93686275D01*
X136602190Y-93757903D01*
X136861342Y-94234944D01*
X137283323Y-94576499D01*
X137373032Y-94603050D01*
X137363732Y-94604900D01*
X136914221Y-94905254D01*
X136613867Y-95354765D01*
X136508397Y-95885000D01*
X136613867Y-96415235D01*
X136914221Y-96864746D01*
X137363732Y-97165100D01*
X137638799Y-97219814D01*
X136309310Y-98549303D01*
X136059624Y-98549085D01*
X133856460Y-96345921D01*
X133601788Y-96175755D01*
X133301381Y-96116000D01*
X103971334Y-96116000D01*
X103957162Y-96040683D01*
X103818090Y-95824559D01*
X103605890Y-95679569D01*
X103354000Y-95628560D01*
X102354000Y-95628560D01*
X102118683Y-95672838D01*
X101902559Y-95811910D01*
X101856031Y-95880006D01*
X101713698Y-95737673D01*
X101480309Y-95641000D01*
X101139750Y-95641000D01*
X100981000Y-95799750D01*
X100981000Y-96774000D01*
X101001000Y-96774000D01*
X101001000Y-97028000D01*
X100981000Y-97028000D01*
X100981000Y-98002250D01*
X101139750Y-98161000D01*
X101480309Y-98161000D01*
X101713698Y-98064327D01*
X101854936Y-97923090D01*
X101889910Y-97977441D01*
X101919500Y-97997659D01*
X101919500Y-100342960D01*
X101880670Y-100342960D01*
X101666142Y-100383326D01*
X101479350Y-100345500D01*
X99881690Y-100345500D01*
X99646373Y-100389778D01*
X99430249Y-100528850D01*
X99285259Y-100741050D01*
X99234250Y-100992940D01*
X99234250Y-103990140D01*
X99278528Y-104225457D01*
X99417600Y-104441581D01*
X99629800Y-104586571D01*
X99881690Y-104637580D01*
X99895520Y-104637580D01*
X99895520Y-111084322D01*
X96194842Y-114785000D01*
X94475040Y-114785000D01*
X94475040Y-114452400D01*
X94430762Y-114217083D01*
X94291690Y-114000959D01*
X94079490Y-113855969D01*
X93827600Y-113804960D01*
X91592400Y-113804960D01*
X91357083Y-113849238D01*
X91140959Y-113988310D01*
X90995969Y-114200510D01*
X90944960Y-114452400D01*
X85661500Y-114452400D01*
X85661500Y-108235750D01*
X88035130Y-108235750D01*
X88035130Y-109576179D01*
X88131803Y-109809568D01*
X88310431Y-109988197D01*
X88543820Y-110084870D01*
X89884250Y-110084870D01*
X90043000Y-109926120D01*
X90043000Y-108077000D01*
X90297000Y-108077000D01*
X90297000Y-109926120D01*
X90455750Y-110084870D01*
X91796180Y-110084870D01*
X92029569Y-109988197D01*
X92208197Y-109809568D01*
X92304870Y-109576179D01*
X92304870Y-108235750D01*
X92146120Y-108077000D01*
X90297000Y-108077000D01*
X90043000Y-108077000D01*
X88193880Y-108077000D01*
X88035130Y-108235750D01*
X85661500Y-108235750D01*
X85661500Y-106323821D01*
X88035130Y-106323821D01*
X88035130Y-107664250D01*
X88193880Y-107823000D01*
X90043000Y-107823000D01*
X90043000Y-105973880D01*
X90297000Y-105973880D01*
X90297000Y-107823000D01*
X92146120Y-107823000D01*
X92304870Y-107664250D01*
X92304870Y-106323821D01*
X92208197Y-106090432D01*
X92029569Y-105911803D01*
X91796180Y-105815130D01*
X90455750Y-105815130D01*
X90297000Y-105973880D01*
X90043000Y-105973880D01*
X89884250Y-105815130D01*
X88543820Y-105815130D01*
X88310431Y-105911803D01*
X88131803Y-106090432D01*
X88035130Y-106323821D01*
X85661500Y-106323821D01*
X85661500Y-103292789D01*
X88034760Y-103292789D01*
X88359090Y-104077727D01*
X88959114Y-104678800D01*
X89743485Y-105004499D01*
X90592789Y-105005240D01*
X91377727Y-104680910D01*
X91978800Y-104080886D01*
X92304499Y-103296515D01*
X92305240Y-102447211D01*
X91980910Y-101662273D01*
X91421805Y-101102191D01*
X95337246Y-97186750D01*
X99719000Y-97186750D01*
X99719000Y-97652310D01*
X99815673Y-97885699D01*
X99994302Y-98064327D01*
X100227691Y-98161000D01*
X100568250Y-98161000D01*
X100727000Y-98002250D01*
X100727000Y-97028000D01*
X99877750Y-97028000D01*
X99719000Y-97186750D01*
X95337246Y-97186750D01*
X96374306Y-96149690D01*
X99719000Y-96149690D01*
X99719000Y-96615250D01*
X99877750Y-96774000D01*
X100727000Y-96774000D01*
X100727000Y-95799750D01*
X100568250Y-95641000D01*
X100227691Y-95641000D01*
X99994302Y-95737673D01*
X99815673Y-95916301D01*
X99719000Y-96149690D01*
X96374306Y-96149690D01*
X100456996Y-92067000D01*
X104204237Y-92067000D01*
X104243113Y-92105944D01*
X104752184Y-92317329D01*
X105303398Y-92317810D01*
X105812837Y-92107314D01*
X106202944Y-91717887D01*
X106414329Y-91208816D01*
X106414810Y-90657602D01*
X106204314Y-90148163D01*
X105814887Y-89758056D01*
X105305816Y-89546671D01*
X104754602Y-89546190D01*
X104245163Y-89756686D01*
X104204779Y-89797000D01*
X99986864Y-89797000D01*
X99552518Y-89883397D01*
X99258648Y-90079755D01*
X99184298Y-90129434D01*
X89367434Y-99946298D01*
X89121397Y-100314518D01*
X89035000Y-100748864D01*
X89035000Y-101029040D01*
X88962273Y-101059090D01*
X88361200Y-101659114D01*
X88035501Y-102443485D01*
X88034760Y-103292789D01*
X85661500Y-103292789D01*
X85661500Y-91201136D01*
X87451787Y-91201136D01*
X87814126Y-92078063D01*
X88484468Y-92749576D01*
X89360761Y-93113445D01*
X90309596Y-93114273D01*
X91186523Y-92751934D01*
X91858036Y-92081592D01*
X92221905Y-91205299D01*
X92222733Y-90256464D01*
X91860394Y-89379537D01*
X91190052Y-88708024D01*
X90313759Y-88344155D01*
X89364924Y-88343327D01*
X88487997Y-88705666D01*
X87816484Y-89376008D01*
X87452615Y-90252301D01*
X87451787Y-91201136D01*
X85661500Y-91201136D01*
X85661500Y-86555580D01*
X145110445Y-86555580D01*
X144980654Y-86581397D01*
G36*
X130002560Y-110860000D02*
X130022067Y-110963671D01*
X130002560Y-111060000D01*
X130002560Y-111660000D01*
X130015980Y-111731323D01*
X130015000Y-111733690D01*
X130015000Y-111874250D01*
X130066279Y-111925529D01*
X130185910Y-112111441D01*
X130255711Y-112159134D01*
X130198559Y-112195910D01*
X130055573Y-112405177D01*
X130015000Y-112445750D01*
X130015000Y-112586310D01*
X130016667Y-112590335D01*
X130002560Y-112660000D01*
X130002560Y-113260000D01*
X130022067Y-113363671D01*
X130002560Y-113460000D01*
X130002560Y-114060000D01*
X130022067Y-114163671D01*
X130002560Y-114260000D01*
X130002560Y-114762560D01*
X129500000Y-114762560D01*
X129396329Y-114782067D01*
X129300000Y-114762560D01*
X128700000Y-114762560D01*
X128596329Y-114782067D01*
X128500000Y-114762560D01*
X127900000Y-114762560D01*
X127796329Y-114782067D01*
X127700000Y-114762560D01*
X127100000Y-114762560D01*
X126996329Y-114782067D01*
X126900000Y-114762560D01*
X126300000Y-114762560D01*
X126196329Y-114782067D01*
X126100000Y-114762560D01*
X125500000Y-114762560D01*
X125396329Y-114782067D01*
X125300000Y-114762560D01*
X124700000Y-114762560D01*
X124596329Y-114782067D01*
X124500000Y-114762560D01*
X123997440Y-114762560D01*
X123997440Y-114260000D01*
X123977933Y-114156329D01*
X123997440Y-114060000D01*
X123997440Y-113460000D01*
X123984020Y-113388677D01*
X123985000Y-113386310D01*
X123985000Y-113245750D01*
X123933721Y-113194471D01*
X123814090Y-113008559D01*
X123744289Y-112960866D01*
X123768946Y-112945000D01*
X125965000Y-112945000D01*
X126265407Y-112885245D01*
X126520079Y-112715079D01*
X128690158Y-110545000D01*
X130002560Y-110545000D01*
X130002560Y-110860000D01*
X130002560Y-110860000D01*
G37*
X130002560Y-110860000D02*
X130022067Y-110963671D01*
X130002560Y-111060000D01*
X130002560Y-111660000D01*
X130015980Y-111731323D01*
X130015000Y-111733690D01*
X130015000Y-111874250D01*
X130066279Y-111925529D01*
X130185910Y-112111441D01*
X130255711Y-112159134D01*
X130198559Y-112195910D01*
X130055573Y-112405177D01*
X130015000Y-112445750D01*
X130015000Y-112586310D01*
X130016667Y-112590335D01*
X130002560Y-112660000D01*
X130002560Y-113260000D01*
X130022067Y-113363671D01*
X130002560Y-113460000D01*
X130002560Y-114060000D01*
X130022067Y-114163671D01*
X130002560Y-114260000D01*
X130002560Y-114762560D01*
X129500000Y-114762560D01*
X129396329Y-114782067D01*
X129300000Y-114762560D01*
X128700000Y-114762560D01*
X128596329Y-114782067D01*
X128500000Y-114762560D01*
X127900000Y-114762560D01*
X127796329Y-114782067D01*
X127700000Y-114762560D01*
X127100000Y-114762560D01*
X126996329Y-114782067D01*
X126900000Y-114762560D01*
X126300000Y-114762560D01*
X126196329Y-114782067D01*
X126100000Y-114762560D01*
X125500000Y-114762560D01*
X125396329Y-114782067D01*
X125300000Y-114762560D01*
X124700000Y-114762560D01*
X124596329Y-114782067D01*
X124500000Y-114762560D01*
X123997440Y-114762560D01*
X123997440Y-114260000D01*
X123977933Y-114156329D01*
X123997440Y-114060000D01*
X123997440Y-113460000D01*
X123984020Y-113388677D01*
X123985000Y-113386310D01*
X123985000Y-113245750D01*
X123933721Y-113194471D01*
X123814090Y-113008559D01*
X123744289Y-112960866D01*
X123768946Y-112945000D01*
X125965000Y-112945000D01*
X126265407Y-112885245D01*
X126520079Y-112715079D01*
X128690158Y-110545000D01*
X130002560Y-110545000D01*
X130002560Y-110860000D01*
G36*
X121294921Y-111115079D02*
X121549594Y-111285245D01*
X121687808Y-111312738D01*
X121755711Y-111359134D01*
X121731054Y-111375000D01*
X121121158Y-111375000D01*
X120316079Y-110569921D01*
X120061407Y-110399755D01*
X119761000Y-110340000D01*
X119735334Y-110340000D01*
X119721162Y-110264683D01*
X119582090Y-110048559D01*
X119369890Y-109903569D01*
X119130491Y-109855090D01*
X119353317Y-109813162D01*
X119569441Y-109674090D01*
X119684921Y-109505079D01*
X121294921Y-111115079D01*
X121294921Y-111115079D01*
G37*
X121294921Y-111115079D02*
X121549594Y-111285245D01*
X121687808Y-111312738D01*
X121755711Y-111359134D01*
X121731054Y-111375000D01*
X121121158Y-111375000D01*
X120316079Y-110569921D01*
X120061407Y-110399755D01*
X119761000Y-110340000D01*
X119735334Y-110340000D01*
X119721162Y-110264683D01*
X119582090Y-110048559D01*
X119369890Y-109903569D01*
X119130491Y-109855090D01*
X119353317Y-109813162D01*
X119569441Y-109674090D01*
X119684921Y-109505079D01*
X121294921Y-111115079D01*
M02*
