M48
;DRILL file {KiCad 4.0.1-stable} date 30.01.2016 13:27:10
;FORMAT={-:-/ absolute / metric / decimal}
FMAT,2
METRIC,TZ
T1C0.800
T2C1.000
T3C1.001
T4C1.016
T5C1.250
%
G90
G05
M71
T1
X144.145Y-95.885
X146.645Y-95.885
T2
X116.84Y-116.84
X116.867Y-100.885
X119.626Y-105.704
X119.695Y-100.954
X121.06Y-119.793
X124.162Y-104.369
X124.95Y-101.747
X129.401Y-119.845
X132.94Y-101.687
X133.625Y-104.412
X136.145Y-110.799
X136.185Y-99.784
X138.481Y-113.747
X138.595Y-109.961
X138.613Y-118.257
X138.619Y-106.052
T3
X105.029Y-90.932
X110.109Y-90.942
X138.43Y-90.805
X138.43Y-93.345
X138.43Y-95.885
X153.67Y-90.805
X153.67Y-93.345
X153.67Y-95.885
X153.67Y-102.87
X153.67Y-105.41
X153.67Y-107.95
X153.67Y-114.935
X153.67Y-117.475
X153.67Y-120.015
T4
X92.71Y-115.57
X142.875Y-107.315
X142.875Y-109.855
X142.875Y-112.395
X145.415Y-107.315
X145.415Y-109.855
X145.415Y-112.395
T5
X90.17Y-102.87
X90.17Y-107.95
X180.34Y-97.79
X180.34Y-102.87
X180.34Y-107.95
X180.34Y-113.03
T0
M30
